<svg width="191px" height="392px"
 viewBox="0.00 0.00 190.99 392.00" xmlns="http://www.w3.org/2000/svg" xmlns:xlink="http://www.w3.org/1999/xlink">
<g id="graph0" class="graph" transform="scale(1.0 1.0) rotate(0.0) translate(4.0 388.0)">
<title>moduleName</title>
<polygon fill="white" stroke="transparent" points="-4,4 -4,-388 186.99,-388 186.99,4 -4,4"/>
<!-- CloudSite -->
<g id="node1" class="node">
<title>CloudSite</title>
<ellipse fill="none" stroke="black" cx="90.99" cy="-18" rx="55.79" ry="18"/>
<text text-anchor="middle" x="90.99" y="-14.3" font-family="Times,serif" font-size="14.00">CloudSite</text>
</g>
<!-- CloudifiedNF -->
<g id="node2" class="node">
<title>CloudifiedNF</title>
<ellipse fill="none" stroke="black" cx="90.99" cy="-366" rx="71.49" ry="18"/>
<text text-anchor="middle" x="90.99" y="-362.3" font-family="Times,serif" font-size="14.00">CloudifiedNF</text>
</g>
<!-- NFDeployment -->
<g id="node3" class="node">
<title>NFDeployment</title>
<ellipse fill="none" stroke="black" cx="90.99" cy="-279" rx="81.49" ry="18"/>
<text text-anchor="middle" x="90.99" y="-275.3" font-family="Times,serif" font-size="14.00">NFDeployment</text>
</g>
<!-- CloudifiedNF&#45;&#45;NFDeployment -->
<g id="edge1" class="edge">
<title>CloudifiedNF&#45;&#45;NFDeployment</title>
<path fill="none" stroke="black" d="M90.99,-347.8C90.99,-333.05 90.99,-311.92 90.99,-297.18"/>
<text text-anchor="middle" x="136.99" y="-318.8" font-family="Times,serif" font-size="14.00">COMPRISES</text>
</g>
<!-- CloudNamespace -->
<g id="node4" class="node">
<title>CloudNamespace</title>
<ellipse fill="none" stroke="black" cx="90.99" cy="-192" rx="90.98" ry="18"/>
<text text-anchor="middle" x="90.99" y="-188.3" font-family="Times,serif" font-size="14.00">CloudNamespace</text>
</g>
<!-- NFDeployment&#45;&#45;CloudNamespace -->
<g id="edge2" class="edge">
<title>NFDeployment&#45;&#45;CloudNamespace</title>
<path fill="none" stroke="black" d="M90.99,-260.8C90.99,-246.05 90.99,-224.92 90.99,-210.18"/>
<text text-anchor="middle" x="132.49" y="-231.8" font-family="Times,serif" font-size="14.00">DEPLOYED</text>
</g>
<!-- NodeCluster -->
<g id="node5" class="node">
<title>NodeCluster</title>
<ellipse fill="none" stroke="black" cx="90.99" cy="-105" rx="69.59" ry="18"/>
<text text-anchor="middle" x="90.99" y="-101.3" font-family="Times,serif" font-size="14.00">NodeCluster</text>
</g>
<!-- CloudNamespace&#45;&#45;NodeCluster -->
<g id="edge3" class="edge">
<title>CloudNamespace&#45;&#45;NodeCluster</title>
<path fill="none" stroke="black" d="M90.99,-173.8C90.99,-159.05 90.99,-137.92 90.99,-123.18"/>
<text text-anchor="middle" x="132.49" y="-144.8" font-family="Times,serif" font-size="14.00">DEPLOYED</text>
</g>
<!-- NodeCluster&#45;&#45;CloudSite -->
<g id="edge4" class="edge">
<title>NodeCluster&#45;&#45;CloudSite</title>
<path fill="none" stroke="black" d="M90.99,-86.8C90.99,-72.05 90.99,-50.92 90.99,-36.18"/>
<text text-anchor="middle" x="126.49" y="-57.8" font-family="Times,serif" font-size="14.00">LOCATED</text>
</g>
</g>
</svg>
