<svg width="630px" height="131px"
 viewBox="0.00 0.00 629.73 131.00" xmlns="http://www.w3.org/2000/svg" xmlns:xlink="http://www.w3.org/1999/xlink">
<g id="graph0" class="graph" transform="scale(1.0 1.0) rotate(0.0) translate(4.0 127.0)">
<title>moduleName</title>
<polygon fill="white" stroke="transparent" points="-4,4 -4,-127 625.73,-127 625.73,4 -4,4"/>
<!-- GNBDUFunction -->
<g id="node1" class="node">
<title>GNBDUFunction</title>
<ellipse fill="none" stroke="black" cx="89.04" cy="-18" rx="89.08" ry="18"/>
<text text-anchor="middle" x="89.04" y="-14.3" font-family="Times,serif" font-size="14.00">GNBDUFunction</text>
</g>
<!-- GNBCUCPFunction -->
<g id="node2" class="node">
<title>GNBCUCPFunction</title>
<ellipse fill="none" stroke="black" cx="297.04" cy="-18" rx="101.28" ry="18"/>
<text text-anchor="middle" x="297.04" y="-14.3" font-family="Times,serif" font-size="14.00">GNBCUCPFunction</text>
</g>
<!-- GNBCUUPFunction -->
<g id="node3" class="node">
<title>GNBCUUPFunction</title>
<ellipse fill="none" stroke="black" cx="519.04" cy="-18" rx="102.88" ry="18"/>
<text text-anchor="middle" x="519.04" y="-14.3" font-family="Times,serif" font-size="14.00">GNBCUUPFunction</text>
</g>
<!-- NFDeployment -->
<g id="node4" class="node">
<title>NFDeployment</title>
<ellipse fill="none" stroke="black" cx="297.04" cy="-105" rx="81.49" ry="18"/>
<text text-anchor="middle" x="297.04" y="-101.3" font-family="Times,serif" font-size="14.00">NFDeployment</text>
</g>
<!-- NFDeployment&#45;&#45;GNBDUFunction -->
<g id="edge3" class="edge">
<title>NFDeployment&#45;&#45;GNBDUFunction</title>
<path fill="none" stroke="black" d="M259.86,-88.8C222.23,-73.43 164.37,-49.78 126.61,-34.35"/>
<text text-anchor="middle" x="236.54" y="-57.8" font-family="Times,serif" font-size="14.00">SERVES</text>
</g>
<!-- NFDeployment&#45;&#45;GNBCUCPFunction -->
<g id="edge2" class="edge">
<title>NFDeployment&#45;&#45;GNBCUCPFunction</title>
<path fill="none" stroke="black" d="M297.04,-86.8C297.04,-72.05 297.04,-50.92 297.04,-36.18"/>
<text text-anchor="middle" x="327.54" y="-57.8" font-family="Times,serif" font-size="14.00">SERVES</text>
</g>
<!-- NFDeployment&#45;&#45;GNBCUUPFunction -->
<g id="edge1" class="edge">
<title>NFDeployment&#45;&#45;GNBCUUPFunction</title>
<path fill="none" stroke="black" d="M335.97,-89.1C375.88,-73.81 437.71,-50.14 478.28,-34.61"/>
<text text-anchor="middle" x="451.54" y="-57.8" font-family="Times,serif" font-size="14.00">SERVES</text>
</g>
</g>
</svg>
