<svg width="2353" height="648" xmlns="http://www.w3.org/2000/svg" xmlns:xlink="http://www.w3.org/1999/xlink" xml:space="preserve" overflow="hidden"><defs><clipPath id="clip0"><rect x="45" y="744" width="2353" height="648"/></clipPath></defs><g clip-path="url(#clip0)" transform="translate(-45 -744)"><rect x="45" y="744" width="2353" height="568" fill="#FAFAFA"/><rect x="45" y="1312" width="2353" height="71.9999" fill="#3B3838"/><text fill="#FFFFFF" font-family="Hilda_MSFontService,sans-serif" font-weight="400" font-size="37" transform="matrix(1 0 0 1 926.094 1361)">Equipment</text><text fill="#FFFFFF" font-family="Hilda_MSFontService,sans-serif" font-weight="400" font-size="37" transform="matrix(1 0 0 1 1098.54 1361)">-</text><text fill="#FFFFFF" font-family="Hilda_MSFontService,sans-serif" font-weight="400" font-size="37" transform="matrix(1 0 0 1 1112.29 1361)">RAN Object </text><text fill="#FFFFFF" font-family="Hilda_MSFontService,sans-serif" font-weight="400" font-size="37" transform="matrix(1 0 0 1 1302.5 1361)">R</text><text fill="#FFFFFF" font-family="Hilda_MSFontService,sans-serif" font-weight="400" font-size="37" transform="matrix(1 0 0 1 1325.99 1361)">elationships</text><rect x="988" y="1144" width="453" height="61.9999" stroke="#000000" stroke-width="5.72917" stroke-miterlimit="8" fill="#D0CECE"/><text font-family="Hilda_MSFontService,sans-serif" font-weight="400" font-size="37" transform="matrix(1 0 0 1 1067.2 1188)">AntennaCapability</text><path d="M982.491 1178.2 744.135 1178.2 744.135 969.671 749.865 969.671 749.865 1175.33 747 1172.47 982.491 1172.47ZM956.434 1156.82 988.176 1175.33 956.434 1193.85C955.068 1194.65 953.314 1194.19 952.516 1192.82 951.719 1191.45 952.181 1189.7 953.547 1188.9L981.047 1172.86 981.047 1177.81 953.547 1161.77C952.181 1160.97 951.719 1159.22 952.516 1157.85 953.314 1156.48 955.068 1156.02 956.434 1156.82ZM728.484 995.728 747 963.987 765.516 995.728C766.313 997.095 765.852 998.849 764.485 999.646 763.118 1000.44 761.364 999.982 760.567 998.615L744.526 971.115 749.474 971.115 733.433 998.615C732.635 999.982 730.881 1000.44 729.515 999.646 728.148 998.849 727.687 997.095 728.484 995.728Z"/><rect x="619" y="1051" width="256" height="47.0001" fill="#FAFAFA"/><text font-family="Hilda_MSFontService,sans-serif" font-weight="400" font-size="28" transform="matrix(1 0 0 1 697.484 1085)">SERVES</text><rect x="1488" y="895" width="362" height="61.9999" stroke="#000000" stroke-width="5.72917" stroke-miterlimit="8" fill="#D0CECE"/><text font-family="Hilda_MSFontService,sans-serif" font-weight="400" font-size="37" transform="matrix(1 0 0 1 1619.19 939)">Sector</text><rect x="553" y="889" width="388" height="74.9999" stroke="#000000" stroke-width="5.72917" stroke-miterlimit="8" fill="#D6EDFC"/><text font-family="Hilda_MSFontService,sans-serif" font-weight="400" font-size="37" transform="matrix(1 0 0 1 620.83 939)">AntennaModule</text><path d="M5.67192-2.86458 276.46-2.86458 276.46 0.000360892 273.596-2.86422 541.519-2.86422 541.519 2.86494 270.731 2.86494 270.731 0 273.596 2.86458 5.67192 2.86458ZM31.7285 18.516-0.0132769 0 31.7285-18.516C33.0951-19.3132 34.8491-18.8516 35.6462-17.485 36.4434-16.1185 35.9818-14.3645 34.6153-13.5673L7.11526 2.47437 7.11526-2.47437 34.6153 13.5673C35.9818 14.3645 36.4434 16.1185 35.6462 17.485 34.8491 18.8516 33.0951 19.3132 31.7285 18.516ZM515.463-18.5157 547.204 0.000360892 515.463 18.5164C514.096 19.3136 512.342 18.852 511.545 17.4854 510.748 16.1189 511.209 14.3648 512.576 13.5677L540.076-2.47401 540.076 2.47473 512.576-13.5669C511.209-14.3641 510.748-16.1181 511.545-17.4847 512.342-18.8512 514.096-19.3128 515.463-18.5157Z" transform="matrix(-1 1.22465e-16 1.22465e-16 1 1488.19 926)"/><rect x="1081" y="903" width="256" height="47.0001" fill="#FAFAFA"/><text font-family="Hilda_MSFontService,sans-serif" font-weight="400" font-size="28" transform="matrix(1 0 0 1 1155.87 936)">GROUPS</text><text font-family="Hilda_MSFontService,sans-serif" font-weight="400" font-size="23" transform="matrix(1 0 0 1 1909.26 1274)">RAN</text><rect x="1848" y="1250" width="40.9999" height="33" stroke="#000000" stroke-width="5.72917" stroke-miterlimit="8" fill="#D0CECE"/><text font-family="Hilda_MSFontService,sans-serif" font-weight="400" font-size="23" transform="matrix(1 0 0 1 2095.72 1274)">Equipment</text><rect x="2034" y="1250" width="41" height="33" stroke="#000000" stroke-width="5.72917" stroke-miterlimit="8" fill="#D6EDFC"/></g></svg>