<svg width="2344" height="559" xmlns="http://www.w3.org/2000/svg" xmlns:xlink="http://www.w3.org/1999/xlink" xml:space="preserve" overflow="hidden"><defs><clipPath id="clip0"><rect x="45" y="630" width="2344" height="559"/></clipPath></defs><g clip-path="url(#clip0)" transform="translate(-45 -630)"><rect x="45" y="630" width="2344" height="478" fill="#FAFAFA"/><rect x="45" y="1109" width="2344" height="71.0001" fill="#3B3838"/><text fill="#FFFFFF" font-family="Hilda_MSFontService,sans-serif" font-weight="400" font-size="37" transform="matrix(1 0 0 1 964.348 1157)">Equipment </text><text fill="#FFFFFF" font-family="Hilda_MSFontService,sans-serif" font-weight="400" font-size="37" transform="matrix(1 0 0 1 1144.82 1157)">Object </text><text fill="#FFFFFF" font-family="Hilda_MSFontService,sans-serif" font-weight="400" font-size="37" transform="matrix(1 0 0 1 1254.82 1157)">R</text><text fill="#FFFFFF" font-family="Hilda_MSFontService,sans-serif" font-weight="400" font-size="37" transform="matrix(1 0 0 1 1278.31 1157)">elationships</text><rect x="399" y="738" width="559" height="78.0001" stroke="#000000" stroke-width="5.72917" stroke-miterlimit="8" fill="#D0CECE"/><text font-family="Hilda_MSFontService,sans-serif" font-weight="400" font-size="37" transform="matrix(1 0 0 1 552.259 790)">AntennaModule</text><rect x="1765" y="954" width="201" height="78" stroke="#000000" stroke-width="5.72917" stroke-miterlimit="8" fill="#D0CECE"/><text font-family="Hilda_MSFontService,sans-serif" font-weight="400" font-size="37" transform="matrix(1 0 0 1 1835.22 1006)">Site</text><path d="M5.67193-2.86458 179.862-2.86458 179.862 1081.31 174.133 1081.31 174.133 0 176.998 2.86458 5.67193 2.86458ZM31.7285 18.516-0.0132769 0 31.7285-18.516C33.0951-19.3132 34.8491-18.8516 35.6462-17.485 36.4434-16.1185 35.9818-14.3645 34.6153-13.5673L7.11526 2.47437 7.11526-2.47437 34.6153 13.5673C35.9818 14.3645 36.4434 16.1185 35.6462 17.485 34.8491 18.8516 33.0951 19.3132 31.7285 18.516ZM195.514 1055.26 176.998 1087 158.482 1055.26C157.685 1053.89 158.146 1052.14 159.513 1051.34 160.879 1050.54 162.633 1051 163.431 1052.37L179.472 1079.87 174.523 1079.87 190.565 1052.37C191.362 1051 193.116 1050.54 194.483 1051.34 195.849 1052.14 196.311 1053.89 195.514 1055.26Z" transform="matrix(1.83697e-16 1 1 -1.83697e-16 678 816)"/><rect x="1087" y="973" width="256" height="39.9999" fill="#FAFAFA"/><text font-family="Hilda_MSFontService,sans-serif" font-weight="400" font-size="28" transform="matrix(1 0 0 1 1119.91 1002)">INSTALLED_AT</text></g></svg>