<svg width="2382" height="2035" xmlns="http://www.w3.org/2000/svg" xmlns:xlink="http://www.w3.org/1999/xlink" xml:space="preserve" overflow="hidden"><g transform="translate(-46 -517)"><rect x="47.0001" y="517" width="2381" height="2030" fill="#FAFAFA"/><rect x="46.0001" y="2472" width="2380" height="71.0002" fill="#3B3838"/><text fill="#FFFFFF" font-family="Hilda_MSFontService,sans-serif" font-weight="400" font-size="37" transform="matrix(1 0 0 1 891.661 2520)">Equipment </text><text fill="#FFFFFF" font-family="Hilda_MSFontService,sans-serif" font-weight="400" font-size="37" transform="matrix(1 0 0 1 1072.13 2520)">M</text><text fill="#FFFFFF" font-family="Hilda_MSFontService,sans-serif" font-weight="400" font-size="37" transform="matrix(1 0 0 1 1101.92 2520)">anaged </text><text fill="#FFFFFF" font-family="Hilda_MSFontService,sans-serif" font-weight="400" font-size="37" transform="matrix(1 0 0 1 1228.54 2520)">O</text><text fill="#FFFFFF" font-family="Hilda_MSFontService,sans-serif" font-weight="400" font-size="37" transform="matrix(1 0 0 1 1254.32 2520)">bjects </text><text fill="#FFFFFF" font-family="Hilda_MSFontService,sans-serif" font-weight="400" font-size="37" transform="matrix(1 0 0 1 1354.58 2520)">and </text><text fill="#FFFFFF" font-family="Hilda_MSFontService,sans-serif" font-weight="400" font-size="37" transform="matrix(1 0 0 1 1422.75 2520)">Attributes</text><rect x="739" y="585" width="944" height="69.0001" fill="#0050CA"/><text fill="#FFFFFF" font-family="Hilda_MSFontService,sans-serif" font-weight="400" font-size="37" transform="matrix(1 0 0 1 1000.17 632)">o</text><text fill="#FFFFFF" font-family="Hilda_MSFontService,sans-serif" font-weight="400" font-size="37" transform="matrix(1 0 0 1 1020.23 632)">-</text><text fill="#FFFFFF" font-family="Hilda_MSFontService,sans-serif" font-weight="400" font-size="37" transform="matrix(1 0 0 1 1033.98 632)">ran</text><text fill="#FFFFFF" font-family="Hilda_MSFontService,sans-serif" font-weight="400" font-size="37" transform="matrix(1 0 0 1 1086.68 632)">-</text><text fill="#FFFFFF" font-family="Hilda_MSFontService,sans-serif" font-weight="400" font-size="37" transform="matrix(1 0 0 1 1100.43 632)">smo</text><text fill="#FFFFFF" font-family="Hilda_MSFontService,sans-serif" font-weight="400" font-size="37" transform="matrix(1 0 0 1 1166.89 632)">-</text><text fill="#FFFFFF" font-family="Hilda_MSFontService,sans-serif" font-weight="400" font-size="37" transform="matrix(1 0 0 1 1180.64 632)">teiv</text><text fill="#FFFFFF" font-family="Hilda_MSFontService,sans-serif" font-weight="400" font-size="37" transform="matrix(1 0 0 1 1239.08 632)">-</text><text fill="#FFFFFF" font-family="Hilda_MSFontService,sans-serif" font-weight="400" font-size="37" transform="matrix(1 0 0 1 1252.83 632)">equipment</text><rect x="651" y="756" width="389" height="78" stroke="#000000" stroke-width="5.72917" stroke-miterlimit="8" fill="#D0CECE"/><text font-family="Hilda_MSFontService,sans-serif" font-weight="400" font-size="37" transform="matrix(1 0 0 1 719.676 808)">AntennaModule</text><rect x="1539" y="756" width="200" height="78" stroke="#000000" stroke-width="5.72917" stroke-miterlimit="8" fill="#D0CECE"/><text font-family="Hilda_MSFontService,sans-serif" font-weight="400" font-size="37" transform="matrix(1 0 0 1 1608.49 808)">Site</text><path d="M1214.15 654 1214.15 708.002 846 708.002 848.865 705.137 848.865 756.274 843.135 756.274 843.135 702.273 1211.29 702.273 1208.42 705.137 1208.42 654ZM859.75 756.274C859.75 763.868 853.594 770.024 846 770.024 838.406 770.024 832.25 763.868 832.25 756.274 832.25 748.68 838.406 742.524 846 742.524 853.594 742.524 859.75 748.68 859.75 756.274Z"/><path d="M0-2.86458 54.0016-2.86458 54.0016 427.852 51.137 424.987 102.274 424.987 102.274 430.717 48.2724 430.717 48.2724 0 51.137 2.86458 0 2.86458ZM102.274 414.102C109.868 414.102 116.024 420.258 116.024 427.852 116.024 435.446 109.868 441.602 102.274 441.602 94.6801 441.602 88.524 435.446 88.524 427.852 88.524 420.258 94.6801 414.102 102.274 414.102Z" transform="matrix(1.83697e-16 1 1 -1.83697e-16 1211 654)"/><rect x="427" y="908" width="837" height="347" stroke="#000000" stroke-width="5.72917" stroke-miterlimit="8" fill="none"/><rect x="1295" y="912" width="685" height="94.0002" stroke="#000000" stroke-width="5.72917" stroke-miterlimit="8" fill="none"/><path d="M848.865 834 848.865 907.516 843.136 907.516 843.135 834ZM859.75 907.516C859.75 915.11 853.594 921.266 846 921.266 838.406 921.266 832.25 915.11 832.25 907.516 832.25 899.922 838.406 893.766 846 893.766 853.594 893.766 859.75 899.922 859.75 907.516Z"/><path d="M2.86439-0.0329156 3.76193 78.0732-1.96685 78.139-2.86439 0.0329156ZM14.6466 77.9481C14.7339 85.5416 8.64895 91.768 1.05553 91.8552-6.53788 91.9425-12.7643 85.8575-12.8516 78.2641-12.9388 70.6707-6.85387 64.4443 0.739545 64.357 8.33296 64.2698 14.5594 70.3547 14.6466 77.9481Z" transform="matrix(-1 0 0 1 1638.9 834)"/><g><text font-family="Hilda_MSFontService,sans-serif" font-weight="400" font-size="28" transform="matrix(1 0 0 1 917.244 961)">string {key}</text></g><g><text font-family="Hilda_MSFontService,sans-serif" font-weight="700" font-size="28" transform="matrix(1 0 0 1 473.052 961)">id:</text></g><g><text font-family="Hilda_MSFontService,sans-serif" font-weight="400" font-size="28" transform="matrix(1 0 0 1 917.244 997)">string</text></g><g><text font-family="Hilda_MSFontService,sans-serif" font-weight="700" font-size="28" transform="matrix(1 0 0 1 473.052 997)">antennaModelNumber: </text></g><g><text font-family="Hilda_MSFontService,sans-serif" font-weight="400" font-size="28" transform="matrix(1 0 0 1 917.244 1033)">uint32</text></g><g><text font-family="Hilda_MSFontService,sans-serif" font-weight="700" font-size="28" transform="matrix(1 0 0 1 473.052 1033)">mechanicalAntennaBearing: </text></g><g><text font-family="Hilda_MSFontService,sans-serif" font-weight="400" font-size="28" transform="matrix(1 0 0 1 917.244 1069)">uint32</text></g><g><text font-family="Hilda_MSFontService,sans-serif" font-weight="700" font-size="28" transform="matrix(1 0 0 1 473.052 1069)">mechanicalAntennaTilt: </text></g><g><text font-family="Hilda_MSFontService,sans-serif" font-weight="400" font-size="28" transform="matrix(1 0 0 1 917.244 1105)">string</text></g><g><text font-family="Hilda_MSFontService,sans-serif" font-weight="700" font-size="28" transform="matrix(1 0 0 1 473.052 1105)">positionWithinSector: </text></g><g><text font-family="Hilda_MSFontService,sans-serif" font-weight="400" font-size="28" transform="matrix(1 0 0 1 917.244 1141)">uint32</text></g><g><text font-family="Hilda_MSFontService,sans-serif" font-weight="700" font-size="28" transform="matrix(1 0 0 1 473.052 1141)">totalTilt: </text></g><g><text font-family="Hilda_MSFontService,sans-serif" font-weight="400" font-size="28" transform="matrix(1 0 0 1 917.244 1177)">uint32</text></g><g><text font-family="Hilda_MSFontService,sans-serif" font-weight="700" font-size="28" transform="matrix(1 0 0 1 473.052 1177)">electricalAntennaTilt: </text></g><g><text font-family="Hilda_MSFontService,sans-serif" font-weight="400" font-size="28" transform="matrix(1 0 0 1 917.244 1214)">uint32</text></g><g><text font-family="Hilda_MSFontService,sans-serif" font-weight="700" font-size="28" transform="matrix(1 0 0 1 473.052 1214)">antennaBeamWidth</text></g><text font-family="Hilda_MSFontService,sans-serif" font-weight="700" font-size="28" transform="matrix(1 0 0 1 721.125 1214)">:</text><g><text font-family="Hilda_MSFontService,sans-serif" font-weight="400" font-size="28" transform="matrix(1 0 0 1 1647.03 957)">string {key}</text></g><g><text font-family="Hilda_MSFontService,sans-serif" font-weight="700" font-size="28" transform="matrix(1 0 0 1 1357.86 957)">id:</text></g><g><text font-family="Hilda_MSFontService,sans-serif" font-weight="400" font-size="28" transform="matrix(1 0 0 1 1647.03 991)">String</text></g><g><text font-family="Hilda_MSFontService,sans-serif" font-weight="700" font-size="28" transform="matrix(1 0 0 1 1357.86 991)">name:</text></g><rect x="1613" y="1318" width="331" height="123" stroke="#000000" stroke-width="5.72917" stroke-miterlimit="8" fill="none"/><g><text font-family="Hilda_MSFontService,sans-serif" font-weight="400" font-size="28" transform="matrix(1 0 0 1 1774.02 1359)">decimal64</text></g><g><text font-family="Hilda_MSFontService,sans-serif" font-weight="700" font-size="28" transform="matrix(1 0 0 1 1636.78 1359)">v</text></g><g><text font-family="Hilda_MSFontService,sans-serif" font-weight="700" font-size="28" transform="matrix(1 0 0 1 1651.68 1359)">-</text></g><text font-family="Hilda_MSFontService,sans-serif" font-weight="700" font-size="28" transform="matrix(1 0 0 1 1662.56 1359)">north:</text><g><text font-family="Hilda_MSFontService,sans-serif" font-weight="400" font-size="28" transform="matrix(1 0 0 1 1774.02 1394)">decimal64</text></g><g><text font-family="Hilda_MSFontService,sans-serif" font-weight="700" font-size="28" transform="matrix(1 0 0 1 1636.78 1394)">v</text></g><g><text font-family="Hilda_MSFontService,sans-serif" font-weight="700" font-size="28" transform="matrix(1 0 0 1 1651.68 1394)">-</text></g><text font-family="Hilda_MSFontService,sans-serif" font-weight="700" font-size="28" transform="matrix(1 0 0 1 1662.56 1394)">east:</text><g><text font-family="Hilda_MSFontService,sans-serif" font-weight="400" font-size="28" transform="matrix(1 0 0 1 1774.02 1430)">decimal64</text></g><g><text font-family="Hilda_MSFontService,sans-serif" font-weight="700" font-size="28" transform="matrix(1 0 0 1 1636.78 1430)">v</text></g><g><text font-family="Hilda_MSFontService,sans-serif" font-weight="700" font-size="28" transform="matrix(1 0 0 1 1651.68 1430)">-</text></g><text font-family="Hilda_MSFontService,sans-serif" font-weight="700" font-size="28" transform="matrix(1 0 0 1 1662.56 1430)">up:</text><rect x="1368" y="1845" width="253" height="62.0002" stroke="#000000" stroke-width="5.72917" stroke-miterlimit="8" fill="none"/><g><text font-family="Hilda_MSFontService,sans-serif" font-weight="400" font-size="28" transform="matrix(1 0 0 1 1489.94 1882)">location</text></g><g><text font-family="Hilda_MSFontService,sans-serif" font-weight="700" font-size="28" transform="matrix(1 0 0 1 1399.42 1882)">choice:</text></g><rect x="1365" y="1998" width="330" height="122" stroke="#000000" stroke-width="5.72917" stroke-miterlimit="8" fill="none"/><g><text font-family="Hilda_MSFontService,sans-serif" font-weight="400" font-size="28" transform="matrix(1 0 0 1 1528.71 2034)">decimal64</text></g><g><text font-family="Hilda_MSFontService,sans-serif" font-weight="700" font-size="28" transform="matrix(1 0 0 1 1384.85 2034)">latitude:</text></g><g><text font-family="Hilda_MSFontService,sans-serif" font-weight="400" font-size="28" transform="matrix(1 0 0 1 1528.71 2069)">decimal64</text></g><g><text font-family="Hilda_MSFontService,sans-serif" font-weight="700" font-size="28" transform="matrix(1 0 0 1 1384.85 2069)">longitude:</text></g><g><text font-family="Hilda_MSFontService,sans-serif" font-weight="400" font-size="28" transform="matrix(1 0 0 1 1528.71 2104)">decimal64</text></g><g><text font-family="Hilda_MSFontService,sans-serif" font-weight="700" font-size="28" transform="matrix(1 0 0 1 1384.85 2104)">height:</text></g><rect x="1710" y="1998" width="219" height="123" stroke="#000000" stroke-width="5.72917" stroke-miterlimit="8" fill="none"/><g><text font-family="Hilda_MSFontService,sans-serif" font-weight="400" font-size="28" transform="matrix(1 0 0 1 1773.55 2037)">decimal64</text></g><g><text font-family="Hilda_MSFontService,sans-serif" font-weight="700" font-size="28" transform="matrix(1 0 0 1 1737.14 2037)">x:</text></g><g><text font-family="Hilda_MSFontService,sans-serif" font-weight="400" font-size="28" transform="matrix(1 0 0 1 1773.55 2072)">decimal64</text></g><g><text font-family="Hilda_MSFontService,sans-serif" font-weight="700" font-size="28" transform="matrix(1 0 0 1 1737.14 2072)">y:</text></g><g><text font-family="Hilda_MSFontService,sans-serif" font-weight="400" font-size="28" transform="matrix(1 0 0 1 1773.55 2107)">decimal64</text></g><g><text font-family="Hilda_MSFontService,sans-serif" font-weight="700" font-size="28" transform="matrix(1 0 0 1 1737.14 2107)">z:</text></g><path d="M0-2.86458 5.72917-2.86458 5.72917 2.86458 0 2.86458ZM11.4583-2.86458 17.1875-2.86458 17.1875 2.86458 11.4583 2.86458ZM22.9167-2.86458 28.6458-2.86458 28.6458 2.86458 22.9167 2.86458ZM34.375-2.86458 40.1042-2.86458 40.1042 2.86458 34.375 2.86458ZM48.4193 0.278612 48.4193 6.00778 42.6901 6.00778 42.6901 0.278612ZM48.4193 11.7369 48.4193 17.4661 42.6901 17.4661 42.6901 11.7369ZM48.4193 23.1953 48.4193 28.9244 42.6901 28.9244 42.6901 23.1953ZM48.4193 34.6536 48.4193 40.3828 42.6901 40.3828 42.6901 34.6536ZM48.4193 46.1119 48.4193 51.8411 42.6901 51.8411 42.6901 46.1119ZM48.4193 57.5703 48.4193 63.2994 42.6901 63.2994 42.6901 57.5703ZM48.4193 69.0286 48.4193 74.7578 42.6901 74.7578 42.6901 69.0286ZM48.4193 80.4869 48.4193 86.2161 42.6901 86.2161 42.6901 80.4869ZM48.4193 91.9453 48.4193 97.6744 42.6901 97.6744 42.6901 91.9453ZM48.4193 103.404 48.4193 109.133 42.6901 109.133 42.6901 103.404ZM48.4193 114.862 48.4193 120.591 42.6901 120.591 42.6901 114.862ZM48.4193 126.32 48.4193 132.049 42.6901 132.049 42.6901 126.32ZM48.4193 137.779 48.4193 143.508 42.6901 143.508 42.6901 137.779ZM48.4193 149.237 48.4193 154.966 42.6901 154.966 42.6901 149.237ZM48.4193 160.695 48.4193 166.424 42.6901 166.424 42.6901 160.695ZM48.4193 172.154 48.4193 177.883 42.6901 177.883 42.6901 172.154ZM48.4193 183.612 48.4193 189.341 42.6901 189.341 42.6901 183.612ZM48.4193 195.07 48.4193 200.799 42.6901 200.799 42.6901 195.07ZM48.4193 206.529 48.4193 212.258 42.6901 212.258 42.6901 206.529ZM48.4193 217.987 48.4193 223.716 42.6901 223.716 42.6901 217.987ZM48.4193 229.445 48.4193 235.174 42.6901 235.174 42.6901 229.445ZM48.4193 240.904 48.4193 246.633 42.6901 246.633 42.6901 240.904ZM48.4193 252.362 48.4193 258.091 42.6901 258.091 42.6901 252.362ZM48.4193 263.82 48.4193 269.549 42.6901 269.549 42.6901 263.82ZM48.4193 275.279 48.4193 281.008 42.6901 281.008 42.6901 275.279ZM48.4193 286.737 48.4193 292.466 42.6901 292.466 42.6901 286.737ZM48.4193 298.195 48.4193 303.924 42.6901 303.924 42.6901 298.195ZM48.4193 309.654 48.4193 315.383 42.6901 315.383 42.6901 309.654ZM48.4193 321.112 48.4193 325.349 45.5547 322.485 47.0466 322.485 47.0466 328.214 42.6901 328.214 42.6901 321.112ZM52.7758 322.485 58.505 322.485 58.505 328.214 52.7758 328.214ZM64.2342 322.485 69.9633 322.485 69.9633 328.214 64.2342 328.214ZM75.6925 322.485 81.4217 322.485 81.4217 328.214 75.6925 328.214ZM87.1508 322.485 91.1091 322.485 91.1091 328.214 87.1508 328.214ZM91.1091 311.599C98.703 311.599 104.859 317.755 104.859 325.349 104.859 332.943 98.703 339.099 91.1091 339.099 83.5152 339.099 77.3591 332.943 77.3591 325.349 77.3591 317.755 83.5152 311.599 91.1091 311.599Z" transform="matrix(1.83697e-16 1 1 -1.83697e-16 1494 1907)"/><path d="M0-2.86458 5.72917-2.86458 5.72917 2.86458 0 2.86458ZM11.4583-2.86458 17.1875-2.86458 17.1875 2.86458 11.4583 2.86458ZM22.9167-2.86458 28.6458-2.86458 28.6458 2.86458 22.9167 2.86458ZM34.375-2.86458 40.1042-2.86458 40.1042 2.86458 34.375 2.86458ZM48.1914 0.506512 48.1914 6.23568 42.4622 6.23568 42.4622 0.506512ZM48.1914 11.9648 48.1914 17.694 42.4622 17.694 42.4622 11.9648ZM48.1914 23.4232 48.1914 29.1523 42.4622 29.1523 42.4622 23.4232ZM48.1914 34.8815 48.1914 35.9579 45.3268 33.0933 49.9796 33.0933 49.9796 38.8225 42.4622 38.8225 42.4622 34.8815ZM55.7088 33.0933 61.438 33.0933 61.438 38.8225 55.7088 38.8225ZM67.1671 33.0933 72.8963 33.0933 72.8963 38.8225 67.1671 38.8225ZM78.6255 33.0933 84.3546 33.0933 84.3546 38.8225 78.6255 38.8225ZM90.0838 33.0933 90.6536 33.0933 90.6536 38.8225 90.0838 38.8225ZM90.6536 22.2079C98.2476 22.2079 104.404 28.364 104.404 35.9579 104.404 43.5518 98.2476 49.7079 90.6536 49.7079 83.0597 49.7079 76.9036 43.5518 76.9036 35.9579 76.9036 28.364 83.0597 22.2079 90.6536 22.2079Z" transform="matrix(1.83697e-16 1 1 -1.83697e-16 1494 1907)"/><path d="M1496.86 1187 1496.86 1192.73 1491.14 1192.73 1491.14 1187ZM1496.86 1198.46 1496.86 1204.19 1491.14 1204.19 1491.14 1198.46ZM1496.86 1209.92 1496.86 1215.65 1491.14 1215.65 1491.14 1209.92ZM1496.86 1221.38 1496.86 1227.1 1491.14 1227.1 1491.14 1221.38ZM1496.86 1232.83 1496.86 1238.56 1491.14 1238.56 1491.14 1232.83ZM1496.86 1244.29 1496.86 1250.02 1491.14 1250.02 1491.14 1244.29ZM1496.86 1255.75 1496.86 1261.48 1491.14 1261.48 1491.14 1255.75ZM1496.86 1267.21 1496.86 1272.94 1491.14 1272.94 1491.14 1267.21ZM1496.86 1278.67 1496.86 1284.4 1491.14 1284.4 1491.14 1278.67ZM1496.86 1290.12 1496.86 1295.85 1491.14 1295.85 1491.14 1290.12ZM1496.86 1301.58 1496.86 1307.31 1491.14 1307.31 1491.14 1301.58ZM1496.86 1313.04 1496.86 1318.77 1491.14 1318.77 1491.14 1313.04ZM1496.86 1324.5 1496.86 1330.23 1491.14 1330.23 1491.14 1324.5ZM1496.86 1335.96 1496.86 1341.69 1491.14 1341.69 1491.14 1335.96ZM1496.86 1347.42 1496.86 1353.15 1491.14 1353.15 1491.14 1347.42ZM1496.86 1358.88 1496.86 1364.6 1491.14 1364.6 1491.14 1358.88ZM1496.86 1370.33 1496.86 1376.06 1491.14 1376.06 1491.14 1370.33ZM1496.86 1381.79 1496.86 1387.52 1491.14 1387.52 1491.14 1381.79ZM1496.86 1393.25 1496.86 1398.98 1491.14 1398.98 1491.14 1393.25ZM1496.86 1404.71 1496.86 1410.44 1491.14 1410.44 1491.14 1404.71ZM1496.86 1416.17 1496.86 1421.9 1491.14 1421.9 1491.14 1416.17ZM1496.86 1427.62 1496.86 1433.35 1491.14 1433.35 1491.14 1427.62ZM1496.86 1439.08 1496.86 1444.81 1491.14 1444.81 1491.14 1439.08ZM1496.86 1450.54 1496.86 1456.27 1491.14 1456.27 1491.14 1450.54ZM1496.86 1462 1496.86 1467.73 1491.14 1467.73 1491.14 1462ZM1496.86 1473.46 1496.86 1479.19 1491.14 1479.19 1491.14 1473.46ZM1496.86 1484.92 1496.86 1490.65 1491.14 1490.65 1491.14 1484.92ZM1496.86 1496.38 1496.86 1502.1 1491.14 1502.1 1491.14 1496.38ZM1496.86 1507.83 1496.86 1513.56 1491.14 1513.56 1491.14 1507.83ZM1496.86 1519.29 1496.86 1525.02 1491.14 1525.02 1491.14 1519.29ZM1496.86 1530.75 1496.86 1536.48 1491.14 1536.48 1491.14 1530.75ZM1496.86 1542.21 1496.86 1547.94 1491.14 1547.94 1491.14 1542.21ZM1496.86 1553.67 1496.86 1559.4 1491.14 1559.4 1491.14 1553.67ZM1496.86 1565.12 1496.86 1570.85 1491.14 1570.85 1491.14 1565.12ZM1496.86 1576.58 1496.86 1582.31 1491.14 1582.31 1491.14 1576.58ZM1496.86 1588.04 1496.86 1593.77 1491.14 1593.77 1491.14 1588.04ZM1496.86 1599.5 1496.86 1605.23 1491.14 1605.23 1491.14 1599.5ZM1496.86 1610.96 1496.86 1616.69 1491.14 1616.69 1491.14 1610.96ZM1496.86 1622.42 1496.86 1628.15 1491.14 1628.15 1491.14 1622.42ZM1496.86 1633.88 1496.86 1639.6 1491.14 1639.6 1491.14 1633.88ZM1496.86 1645.33 1496.86 1651.06 1491.14 1651.06 1491.14 1645.33ZM1496.86 1656.79 1496.86 1662.52 1491.14 1662.52 1491.14 1656.79ZM1496.86 1668.25 1496.86 1673.98 1491.14 1673.98 1491.14 1668.25ZM1496.86 1679.71 1496.86 1685.44 1491.14 1685.44 1491.14 1679.71ZM1496.86 1691.17 1496.86 1696.9 1491.14 1696.9 1491.14 1691.17ZM1496.86 1702.62 1496.86 1708.35 1491.14 1708.35 1491.14 1702.62ZM1496.86 1714.08 1496.86 1719.81 1491.14 1719.81 1491.14 1714.08ZM1496.86 1725.54 1496.86 1731.27 1491.14 1731.27 1491.14 1725.54ZM1496.86 1737 1496.86 1742.73 1491.14 1742.73 1491.14 1737ZM1496.86 1748.46 1496.86 1754.19 1491.14 1754.19 1491.14 1748.46ZM1496.86 1759.92 1496.86 1765.65 1491.14 1765.65 1491.14 1759.92ZM1496.86 1771.38 1496.86 1777.1 1491.14 1777.1 1491.14 1771.38ZM1496.86 1782.83 1496.86 1788.56 1491.14 1788.56 1491.14 1782.83ZM1496.86 1794.29 1496.86 1800.02 1491.14 1800.02 1491.14 1794.29ZM1496.86 1805.75 1496.86 1811.48 1491.14 1811.48 1491.14 1805.75ZM1496.86 1817.21 1496.86 1822.94 1491.14 1822.94 1491.14 1817.21ZM1496.86 1828.67 1496.86 1834.4 1491.14 1834.4 1491.14 1828.67ZM1496.86 1840.12 1496.86 1845.73 1491.14 1845.73 1491.14 1840.12ZM1507.75 1845.73C1507.75 1853.32 1501.59 1859.48 1494 1859.48 1486.41 1859.48 1480.25 1853.32 1480.25 1845.73 1480.25 1838.13 1486.41 1831.98 1494 1831.98 1501.59 1831.98 1507.75 1838.13 1507.75 1845.73Z"/><rect x="1364" y="1485" width="414" height="96.9999" stroke="#000000" stroke-width="5.72917" stroke-miterlimit="8" fill="#FAFAFA"/><g><text font-family="Hilda_MSFontService,sans-serif" font-weight="400" font-size="28" transform="matrix(1 0 0 1 1649.12 1524)">s</text></g><g><text font-family="Hilda_MSFontService,sans-serif" font-weight="400" font-size="28" transform="matrix(1 0 0 1 1661.15 1524)">tring</text></g><g><text font-family="Hilda_MSFontService,sans-serif" font-weight="700" font-size="28" transform="matrix(1 0 0 1 1391.21 1524)">alternate</text></g><text font-family="Hilda_MSFontService,sans-serif" font-weight="700" font-size="28" transform="matrix(1 0 0 1 1503.5 1524)">-</text><text font-family="Hilda_MSFontService,sans-serif" font-weight="700" font-size="28" transform="matrix(1 0 0 1 1514.39 1524)">system:</text><g><text font-family="Hilda_MSFontService,sans-serif" font-weight="400" font-size="28" transform="matrix(1 0 0 1 1649.12 1558)">string</text></g><g><text font-family="Hilda_MSFontService,sans-serif" font-weight="700" font-size="28" transform="matrix(1 0 0 1 1391.21 1558)">astronomical</text></g><text font-family="Hilda_MSFontService,sans-serif" font-weight="700" font-size="28" transform="matrix(1 0 0 1 1550.48 1558)">-</text><text font-family="Hilda_MSFontService,sans-serif" font-weight="700" font-size="28" transform="matrix(1 0 0 1 1561.37 1558)">body</text><text font-family="Hilda_MSFontService,sans-serif" font-weight="400" font-size="28" transform="matrix(1 0 0 1 1621.52 1558)">:</text><rect x="1365" y="1637" width="412" height="122" stroke="#000000" stroke-width="5.72917" stroke-miterlimit="8" fill="#FAFAFA"/><g><text font-family="Hilda_MSFontService,sans-serif" font-weight="400" font-size="28" transform="matrix(1 0 0 1 1620.62 1673)">string</text></g><g><text font-family="Hilda_MSFontService,sans-serif" font-weight="700" font-size="28" transform="matrix(1 0 0 1 1391.21 1673)">geodetic</text></g><text font-family="Hilda_MSFontService,sans-serif" font-weight="700" font-size="28" transform="matrix(1 0 0 1 1495.48 1673)">-</text><text font-family="Hilda_MSFontService,sans-serif" font-weight="700" font-size="28" transform="matrix(1 0 0 1 1506.37 1673)">datum:</text><g><text font-family="Hilda_MSFontService,sans-serif" font-weight="400" font-size="28" transform="matrix(1 0 0 1 1620.62 1708)">decimal64</text></g><g><text font-family="Hilda_MSFontService,sans-serif" font-weight="700" font-size="28" transform="matrix(1 0 0 1 1391.21 1708)">coord</text></g><text font-family="Hilda_MSFontService,sans-serif" font-weight="700" font-size="28" transform="matrix(1 0 0 1 1459.39 1708)">-</text><text font-family="Hilda_MSFontService,sans-serif" font-weight="700" font-size="28" transform="matrix(1 0 0 1 1470.27 1708)">accuracy:</text><g><text font-family="Hilda_MSFontService,sans-serif" font-weight="400" font-size="28" transform="matrix(1 0 0 1 1620.62 1743)">decimal64</text></g><g><text font-family="Hilda_MSFontService,sans-serif" font-weight="700" font-size="28" transform="matrix(1 0 0 1 1391.21 1743)">height</text></g><text font-family="Hilda_MSFontService,sans-serif" font-weight="700" font-size="28" transform="matrix(1 0 0 1 1469.13 1743)">-</text><text font-family="Hilda_MSFontService,sans-serif" font-weight="700" font-size="28" transform="matrix(1 0 0 1 1480.01 1743)">accuracy:</text><path d="M1573.86 1581.99 1573.97 1637.19 1568.25 1637.2 1568.14 1582.01ZM1584.86 1637.17C1584.88 1644.76 1578.73 1650.93 1571.14 1650.95 1563.54 1650.96 1557.38 1644.82 1557.36 1637.22 1557.34 1629.63 1563.49 1623.46 1571.08 1623.45 1578.68 1623.43 1584.84 1629.58 1584.86 1637.17Z"/><rect x="1324" y="1085" width="627" height="103" stroke="#000000" stroke-width="5.72917" stroke-miterlimit="8" fill="none"/><g><text font-family="Hilda_MSFontService,sans-serif" font-weight="700" font-size="28" transform="matrix(1 0 0 1 1524.53 1129)">timestamp  </text></g><text font-family="Hilda_MSFontService,sans-serif" font-weight="400" font-size="28" transform="matrix(1 0 0 1 1667.19 1129)">yang:date</text><text font-family="Hilda_MSFontService,sans-serif" font-weight="400" font-size="28" transform="matrix(1 0 0 1 1785.21 1129)">-</text><text font-family="Hilda_MSFontService,sans-serif" font-weight="400" font-size="28" transform="matrix(1 0 0 1 1795.52 1129)">and</text><text font-family="Hilda_MSFontService,sans-serif" font-weight="400" font-size="28" transform="matrix(1 0 0 1 1840.21 1129)">-</text><g><text font-family="Hilda_MSFontService,sans-serif" font-weight="400" font-size="28" transform="matrix(1 0 0 1 1850.52 1129)">time</text></g><g><text font-family="Hilda_MSFontService,sans-serif" font-weight="700" font-size="28" transform="matrix(1 0 0 1 1524.53 1162)">valid</text></g><text font-family="Hilda_MSFontService,sans-serif" font-weight="700" font-size="28" transform="matrix(1 0 0 1 1585.26 1162)">-</text><text font-family="Hilda_MSFontService,sans-serif" font-weight="700" font-size="28" transform="matrix(1 0 0 1 1596.14 1162)">until: </text><text font-family="Hilda_MSFontService,sans-serif" font-weight="400" font-size="28" transform="matrix(1 0 0 1 1664.89 1162)">yang:date</text><text font-family="Hilda_MSFontService,sans-serif" font-weight="400" font-size="28" transform="matrix(1 0 0 1 1782.92 1162)">-</text><text font-family="Hilda_MSFontService,sans-serif" font-weight="400" font-size="28" transform="matrix(1 0 0 1 1793.23 1162)">and</text><text font-family="Hilda_MSFontService,sans-serif" font-weight="400" font-size="28" transform="matrix(1 0 0 1 1837.92 1162)">-</text><g><text font-family="Hilda_MSFontService,sans-serif" font-weight="400" font-size="28" transform="matrix(1 0 0 1 1848.23 1162)">time</text></g><g><text font-family="Hilda_MSFontService,sans-serif" font-weight="700" font-size="28" transform="matrix(1 0 0 1 1368.36 1129)">geo</text></g><text font-family="Hilda_MSFontService,sans-serif" font-weight="700" font-size="28" transform="matrix(1 0 0 1 1413.04 1129)">-</text><g><text font-family="Hilda_MSFontService,sans-serif" font-weight="700" font-size="28" transform="matrix(1 0 0 1 1368.36 1162)">location</text></g><text font-family="Hilda_MSFontService,sans-serif" font-weight="700" font-size="28" transform="matrix(1 0 0 1 1466.33 1162)">:</text><path d="M2.86455-0.0137442 3.2471 79.716-2.482 79.7435-2.86455 0.0137442ZM14.1324 79.6638C14.1688 87.2576 8.04235 93.4432 0.448518 93.4796-7.14531 93.5161-13.3309 87.3896-13.3673 79.7958-13.4037 72.2019-7.27725 66.0164 0.316574 65.9799 7.9104 65.9435 14.096 72.07 14.1324 79.6638Z" transform="matrix(-1 0 0 1 1638.38 1006)"/><path d="M1781.86 1187 1781.86 1318.52 1776.14 1318.52 1776.14 1187ZM1792.75 1318.52C1792.75 1326.12 1786.59 1332.27 1779 1332.27 1771.41 1332.27 1765.25 1326.12 1765.25 1318.52 1765.25 1310.93 1771.41 1304.77 1779 1304.77 1786.59 1304.77 1792.75 1310.93 1792.75 1318.52Z"/><path d="M0-2.86458 152.04-2.86458 152.04 149.561 149.176 146.697 298.351 146.697 298.351 152.426 146.311 152.426 146.311 0 149.176 2.86458 0 2.86458ZM298.351 135.811C305.945 135.811 312.101 141.967 312.101 149.561 312.101 157.155 305.945 163.311 298.351 163.311 290.757 163.311 284.601 157.155 284.601 149.561 284.601 141.967 290.757 135.811 298.351 135.811Z" transform="matrix(1.83697e-16 1 1 -1.83697e-16 1421 1187)"/><rect x="819" y="1565" width="331" height="123" stroke="#000000" stroke-width="5.72917" stroke-miterlimit="8" fill="none"/><g><text font-family="Hilda_MSFontService,sans-serif" font-weight="400" font-size="28" transform="matrix(1 0 0 1 979.46 1606)">decimal64</text></g><g><text font-family="Hilda_MSFontService,sans-serif" font-weight="700" font-size="28" transform="matrix(1 0 0 1 842.219 1606)">v</text></g><g><text font-family="Hilda_MSFontService,sans-serif" font-weight="700" font-size="28" transform="matrix(1 0 0 1 857.115 1606)">-</text></g><text font-family="Hilda_MSFontService,sans-serif" font-weight="700" font-size="28" transform="matrix(1 0 0 1 868 1606)">north:</text><g><text font-family="Hilda_MSFontService,sans-serif" font-weight="400" font-size="28" transform="matrix(1 0 0 1 979.46 1642)">decimal64</text></g><g><text font-family="Hilda_MSFontService,sans-serif" font-weight="700" font-size="28" transform="matrix(1 0 0 1 842.219 1642)">v</text></g><g><text font-family="Hilda_MSFontService,sans-serif" font-weight="700" font-size="28" transform="matrix(1 0 0 1 857.115 1642)">-</text></g><text font-family="Hilda_MSFontService,sans-serif" font-weight="700" font-size="28" transform="matrix(1 0 0 1 868 1642)">east:</text><g><text font-family="Hilda_MSFontService,sans-serif" font-weight="400" font-size="28" transform="matrix(1 0 0 1 979.46 1677)">decimal64</text></g><g><text font-family="Hilda_MSFontService,sans-serif" font-weight="700" font-size="28" transform="matrix(1 0 0 1 842.219 1677)">v</text></g><g><text font-family="Hilda_MSFontService,sans-serif" font-weight="700" font-size="28" transform="matrix(1 0 0 1 857.115 1677)">-</text></g><text font-family="Hilda_MSFontService,sans-serif" font-weight="700" font-size="28" transform="matrix(1 0 0 1 868 1677)">up:</text><rect x="573" y="2093" width="253" height="60.9998" stroke="#000000" stroke-width="5.72917" stroke-miterlimit="8" fill="none"/><g><text font-family="Hilda_MSFontService,sans-serif" font-weight="400" font-size="28" transform="matrix(1 0 0 1 695.374 2130)">location</text></g><g><text font-family="Hilda_MSFontService,sans-serif" font-weight="700" font-size="28" transform="matrix(1 0 0 1 604.853 2130)">choice:</text></g><rect x="571" y="2245" width="330" height="122" stroke="#000000" stroke-width="5.72917" stroke-miterlimit="8" fill="none"/><g><text font-family="Hilda_MSFontService,sans-serif" font-weight="400" font-size="28" transform="matrix(1 0 0 1 734.15 2281)">decimal64</text></g><g><text font-family="Hilda_MSFontService,sans-serif" font-weight="700" font-size="28" transform="matrix(1 0 0 1 590.286 2281)">latitude:</text></g><g><text font-family="Hilda_MSFontService,sans-serif" font-weight="400" font-size="28" transform="matrix(1 0 0 1 734.15 2316)">decimal64</text></g><g><text font-family="Hilda_MSFontService,sans-serif" font-weight="700" font-size="28" transform="matrix(1 0 0 1 590.286 2316)">longitude:</text></g><g><text font-family="Hilda_MSFontService,sans-serif" font-weight="400" font-size="28" transform="matrix(1 0 0 1 734.15 2352)">decimal64</text></g><g><text font-family="Hilda_MSFontService,sans-serif" font-weight="700" font-size="28" transform="matrix(1 0 0 1 590.286 2352)">height:</text></g><rect x="916" y="2245" width="219" height="123" stroke="#000000" stroke-width="5.72917" stroke-miterlimit="8" fill="none"/><g><text font-family="Hilda_MSFontService,sans-serif" font-weight="400" font-size="28" transform="matrix(1 0 0 1 978.987 2284)">decimal64</text></g><g><text font-family="Hilda_MSFontService,sans-serif" font-weight="700" font-size="28" transform="matrix(1 0 0 1 942.573 2284)">x:</text></g><g><text font-family="Hilda_MSFontService,sans-serif" font-weight="400" font-size="28" transform="matrix(1 0 0 1 978.987 2319)">decimal64</text></g><g><text font-family="Hilda_MSFontService,sans-serif" font-weight="700" font-size="28" transform="matrix(1 0 0 1 942.573 2319)">y:</text></g><g><text font-family="Hilda_MSFontService,sans-serif" font-weight="400" font-size="28" transform="matrix(1 0 0 1 978.987 2354)">decimal64</text></g><g><text font-family="Hilda_MSFontService,sans-serif" font-weight="700" font-size="28" transform="matrix(1 0 0 1 942.573 2354)">z:</text></g><path d="M0-2.86458 5.72917-2.86458 5.72917 2.86458 0 2.86458ZM11.4583-2.86458 17.1875-2.86458 17.1875 2.86458 11.4583 2.86458ZM22.9167-2.86458 28.6458-2.86458 28.6458 2.86458 22.9167 2.86458ZM34.375-2.86458 40.1042-2.86458 40.1042 2.86458 34.375 2.86458ZM48.4193 0.278612 48.4193 6.00778 42.6901 6.00778 42.6901 0.278612ZM48.4193 11.7369 48.4193 17.4661 42.6901 17.4661 42.6901 11.7369ZM48.4193 23.1953 48.4193 28.9244 42.6901 28.9244 42.6901 23.1953ZM48.4193 34.6536 48.4193 40.3828 42.6901 40.3828 42.6901 34.6536ZM48.4193 46.1119 48.4193 51.8411 42.6901 51.8411 42.6901 46.1119ZM48.4193 57.5703 48.4193 63.2994 42.6901 63.2994 42.6901 57.5703ZM48.4193 69.0286 48.4193 74.7578 42.6901 74.7578 42.6901 69.0286ZM48.4193 80.4869 48.4193 86.2161 42.6901 86.2161 42.6901 80.4869ZM48.4193 91.9453 48.4193 97.6744 42.6901 97.6744 42.6901 91.9453ZM48.4193 103.404 48.4193 109.133 42.6901 109.133 42.6901 103.404ZM48.4193 114.862 48.4193 120.591 42.6901 120.591 42.6901 114.862ZM48.4193 126.32 48.4193 132.049 42.6901 132.049 42.6901 126.32ZM48.4193 137.779 48.4193 143.508 42.6901 143.508 42.6901 137.779ZM48.4193 149.237 48.4193 154.966 42.6901 154.966 42.6901 149.237ZM48.4193 160.695 48.4193 166.424 42.6901 166.424 42.6901 160.695ZM48.4193 172.154 48.4193 177.883 42.6901 177.883 42.6901 172.154ZM48.4193 183.612 48.4193 189.341 42.6901 189.341 42.6901 183.612ZM48.4193 195.07 48.4193 200.799 42.6901 200.799 42.6901 195.07ZM48.4193 206.529 48.4193 212.258 42.6901 212.258 42.6901 206.529ZM48.4193 217.987 48.4193 223.716 42.6901 223.716 42.6901 217.987ZM48.4193 229.445 48.4193 235.174 42.6901 235.174 42.6901 229.445ZM48.4193 240.904 48.4193 246.633 42.6901 246.633 42.6901 240.904ZM48.4193 252.362 48.4193 258.091 42.6901 258.091 42.6901 252.362ZM48.4193 263.82 48.4193 269.549 42.6901 269.549 42.6901 263.82ZM48.4193 275.279 48.4193 281.008 42.6901 281.008 42.6901 275.279ZM48.4193 286.737 48.4193 292.466 42.6901 292.466 42.6901 286.737ZM48.4193 298.195 48.4193 303.924 42.6901 303.924 42.6901 298.195ZM48.4193 309.654 48.4193 315.383 42.6901 315.383 42.6901 309.654ZM48.4193 321.112 48.4193 325.349 45.5547 322.485 47.0466 322.485 47.0466 328.214 42.6901 328.214 42.6901 321.112ZM52.7758 322.485 58.505 322.485 58.505 328.214 52.7758 328.214ZM64.2342 322.485 69.9633 322.485 69.9633 328.214 64.2342 328.214ZM75.6925 322.485 81.4217 322.485 81.4217 328.214 75.6925 328.214ZM87.1508 322.485 91.1091 322.485 91.1091 328.214 87.1508 328.214ZM91.1091 311.599C98.703 311.599 104.859 317.755 104.859 325.349 104.859 332.943 98.703 339.099 91.1091 339.099 83.5152 339.099 77.3591 332.943 77.3591 325.349 77.3591 317.755 83.5152 311.599 91.1091 311.599Z" transform="matrix(1.83697e-16 1 1 -1.83697e-16 700 2154)"/><path d="M0-2.86458 5.72917-2.86458 5.72917 2.86458 0 2.86458ZM11.4583-2.86458 17.1875-2.86458 17.1875 2.86458 11.4583 2.86458ZM22.9167-2.86458 28.6458-2.86458 28.6458 2.86458 22.9167 2.86458ZM34.375-2.86458 40.1042-2.86458 40.1042 2.86458 34.375 2.86458ZM48.1914 0.506512 48.1914 6.23568 42.4622 6.23568 42.4622 0.506512ZM48.1914 11.9648 48.1914 17.694 42.4622 17.694 42.4622 11.9648ZM48.1914 23.4232 48.1914 29.1523 42.4622 29.1523 42.4622 23.4232ZM48.1914 34.8815 48.1914 35.9579 45.3268 33.0933 49.9796 33.0933 49.9796 38.8225 42.4622 38.8225 42.4622 34.8815ZM55.7088 33.0933 61.438 33.0933 61.438 38.8225 55.7088 38.8225ZM67.1671 33.0933 72.8963 33.0933 72.8963 38.8225 67.1671 38.8225ZM78.6255 33.0933 84.3546 33.0933 84.3546 38.8225 78.6255 38.8225ZM90.0838 33.0933 90.6536 33.0933 90.6536 38.8225 90.0838 38.8225ZM90.6536 22.2079C98.2476 22.2079 104.404 28.364 104.404 35.9579 104.404 43.5518 98.2476 49.7079 90.6536 49.7079 83.0597 49.7079 76.9036 43.5518 76.9036 35.9579 76.9036 28.364 83.0597 22.2079 90.6536 22.2079Z" transform="matrix(1.83697e-16 1 1 -1.83697e-16 700 2154)"/><path d="M702.864 1434 702.864 1439.73 697.135 1439.73 697.135 1434ZM702.864 1445.46 702.864 1451.19 697.135 1451.19 697.135 1445.46ZM702.865 1456.92 702.865 1462.65 697.135 1462.65 697.135 1456.92ZM702.865 1468.38 702.865 1474.1 697.135 1474.1 697.135 1468.38ZM702.865 1479.83 702.865 1485.56 697.135 1485.56 697.135 1479.83ZM702.865 1491.29 702.865 1497.02 697.135 1497.02 697.135 1491.29ZM702.865 1502.75 702.865 1508.48 697.135 1508.48 697.135 1502.75ZM702.865 1514.21 702.865 1519.94 697.135 1519.94 697.135 1514.21ZM702.865 1525.67 702.865 1531.4 697.135 1531.4 697.135 1525.67ZM702.865 1537.13 702.865 1542.85 697.135 1542.85 697.135 1537.13ZM702.865 1548.58 702.865 1554.31 697.135 1554.31 697.135 1548.58ZM702.865 1560.04 702.865 1565.77 697.135 1565.77 697.135 1560.04ZM702.865 1571.5 702.865 1577.23 697.135 1577.23 697.135 1571.5ZM702.865 1582.96 702.865 1588.69 697.135 1588.69 697.135 1582.96ZM702.865 1594.42 702.865 1600.15 697.135 1600.15 697.135 1594.42ZM702.865 1605.88 702.865 1611.6 697.135 1611.6 697.135 1605.88ZM702.865 1617.33 702.865 1623.06 697.135 1623.06 697.135 1617.33ZM702.865 1628.79 702.865 1634.52 697.135 1634.52 697.135 1628.79ZM702.865 1640.25 702.865 1645.98 697.135 1645.98 697.135 1640.25ZM702.865 1651.71 702.865 1657.44 697.135 1657.44 697.135 1651.71ZM702.865 1663.17 702.865 1668.9 697.135 1668.9 697.135 1663.17ZM702.865 1674.63 702.865 1680.35 697.135 1680.35 697.135 1674.63ZM702.865 1686.08 702.865 1691.81 697.135 1691.81 697.135 1686.08ZM702.865 1697.54 702.865 1703.27 697.135 1703.27 697.135 1697.54ZM702.865 1709 702.865 1714.73 697.135 1714.73 697.135 1709ZM702.865 1720.46 702.865 1726.19 697.135 1726.19 697.135 1720.46ZM702.865 1731.92 702.865 1737.65 697.135 1737.65 697.135 1731.92ZM702.865 1743.38 702.865 1749.1 697.135 1749.1 697.135 1743.38ZM702.865 1754.83 702.865 1760.56 697.135 1760.56 697.135 1754.83ZM702.865 1766.29 702.865 1772.02 697.135 1772.02 697.135 1766.29ZM702.865 1777.75 702.865 1783.48 697.135 1783.48 697.135 1777.75ZM702.865 1789.21 702.865 1794.94 697.135 1794.94 697.135 1789.21ZM702.865 1800.67 702.865 1806.4 697.135 1806.4 697.135 1800.67ZM702.865 1812.13 702.865 1817.85 697.135 1817.85 697.135 1812.13ZM702.865 1823.58 702.865 1829.31 697.135 1829.31 697.135 1823.58ZM702.865 1835.04 702.865 1840.77 697.135 1840.77 697.135 1835.04ZM702.865 1846.5 702.865 1852.23 697.135 1852.23 697.135 1846.5ZM702.865 1857.96 702.865 1863.69 697.136 1863.69 697.135 1857.96ZM702.865 1869.42 702.865 1875.15 697.136 1875.15 697.136 1869.42ZM702.865 1880.88 702.865 1886.6 697.136 1886.6 697.136 1880.88ZM702.865 1892.33 702.865 1898.06 697.136 1898.06 697.136 1892.33ZM702.865 1903.79 702.865 1909.52 697.136 1909.52 697.136 1903.79ZM702.865 1915.25 702.865 1920.98 697.136 1920.98 697.136 1915.25ZM702.865 1926.71 702.865 1932.44 697.136 1932.44 697.136 1926.71ZM702.865 1938.17 702.865 1943.9 697.136 1943.9 697.136 1938.17ZM702.865 1949.63 702.865 1955.35 697.136 1955.35 697.136 1949.63ZM702.865 1961.08 702.865 1966.81 697.136 1966.81 697.136 1961.08ZM702.865 1972.54 702.865 1978.27 697.136 1978.27 697.136 1972.54ZM702.865 1984 702.865 1989.73 697.136 1989.73 697.136 1984ZM702.865 1995.46 702.865 2001.19 697.136 2001.19 697.136 1995.46ZM702.865 2006.92 702.865 2012.65 697.136 2012.65 697.136 2006.92ZM702.865 2018.38 702.865 2024.1 697.136 2024.1 697.136 2018.38ZM702.865 2029.83 702.865 2035.56 697.136 2035.56 697.136 2029.83ZM702.865 2041.29 702.865 2047.02 697.136 2047.02 697.136 2041.29ZM702.865 2052.75 702.865 2058.48 697.136 2058.48 697.136 2052.75ZM702.865 2064.21 702.865 2069.94 697.136 2069.94 697.136 2064.21ZM702.865 2075.67 702.865 2081.4 697.136 2081.4 697.136 2075.67ZM702.865 2087.12 702.865 2092.73 697.136 2092.73 697.136 2087.12ZM713.75 2092.73C713.75 2100.32 707.594 2106.48 700 2106.48 692.406 2106.48 686.25 2100.32 686.25 2092.73 686.25 2085.13 692.406 2078.98 700 2078.98 707.594 2078.98 713.75 2085.13 713.75 2092.73Z"/><rect x="569" y="1732" width="414" height="96.9999" stroke="#000000" stroke-width="5.72917" stroke-miterlimit="8" fill="#FAFAFA"/><g><text font-family="Hilda_MSFontService,sans-serif" font-weight="400" font-size="28" transform="matrix(1 0 0 1 854.556 1772)">s</text></g><g><text font-family="Hilda_MSFontService,sans-serif" font-weight="400" font-size="28" transform="matrix(1 0 0 1 866.588 1772)">tring</text></g><g><text font-family="Hilda_MSFontService,sans-serif" font-weight="700" font-size="28" transform="matrix(1 0 0 1 596.646 1772)">alternate</text></g><text font-family="Hilda_MSFontService,sans-serif" font-weight="700" font-size="28" transform="matrix(1 0 0 1 708.937 1772)">-</text><text font-family="Hilda_MSFontService,sans-serif" font-weight="700" font-size="28" transform="matrix(1 0 0 1 719.823 1772)">system:</text><g><text font-family="Hilda_MSFontService,sans-serif" font-weight="400" font-size="28" transform="matrix(1 0 0 1 854.556 1806)">string</text></g><g><text font-family="Hilda_MSFontService,sans-serif" font-weight="700" font-size="28" transform="matrix(1 0 0 1 596.646 1806)">astronomical</text></g><text font-family="Hilda_MSFontService,sans-serif" font-weight="700" font-size="28" transform="matrix(1 0 0 1 755.917 1806)">-</text><text font-family="Hilda_MSFontService,sans-serif" font-weight="700" font-size="28" transform="matrix(1 0 0 1 766.802 1806)">body</text><text font-family="Hilda_MSFontService,sans-serif" font-weight="400" font-size="28" transform="matrix(1 0 0 1 826.958 1806)">:</text><rect x="570" y="1884" width="412" height="123" stroke="#000000" stroke-width="5.72917" stroke-miterlimit="8" fill="#FAFAFA"/><g><text font-family="Hilda_MSFontService,sans-serif" font-weight="400" font-size="28" transform="matrix(1 0 0 1 826.055 1920)">string</text></g><g><text font-family="Hilda_MSFontService,sans-serif" font-weight="700" font-size="28" transform="matrix(1 0 0 1 596.646 1920)">geodetic</text></g><text font-family="Hilda_MSFontService,sans-serif" font-weight="700" font-size="28" transform="matrix(1 0 0 1 700.917 1920)">-</text><text font-family="Hilda_MSFontService,sans-serif" font-weight="700" font-size="28" transform="matrix(1 0 0 1 711.802 1920)">datum:</text><g><text font-family="Hilda_MSFontService,sans-serif" font-weight="400" font-size="28" transform="matrix(1 0 0 1 826.055 1955)">decimal64</text></g><g><text font-family="Hilda_MSFontService,sans-serif" font-weight="700" font-size="28" transform="matrix(1 0 0 1 596.646 1955)">coord</text></g><text font-family="Hilda_MSFontService,sans-serif" font-weight="700" font-size="28" transform="matrix(1 0 0 1 664.823 1955)">-</text><text font-family="Hilda_MSFontService,sans-serif" font-weight="700" font-size="28" transform="matrix(1 0 0 1 675.708 1955)">accuracy:</text><g><text font-family="Hilda_MSFontService,sans-serif" font-weight="400" font-size="28" transform="matrix(1 0 0 1 826.055 1990)">decimal64</text></g><g><text font-family="Hilda_MSFontService,sans-serif" font-weight="700" font-size="28" transform="matrix(1 0 0 1 596.646 1990)">height</text></g><text font-family="Hilda_MSFontService,sans-serif" font-weight="700" font-size="28" transform="matrix(1 0 0 1 674.562 1990)">-</text><text font-family="Hilda_MSFontService,sans-serif" font-weight="700" font-size="28" transform="matrix(1 0 0 1 685.448 1990)">accuracy:</text><path d="M778.864 1828.99 778.974 1884.19 773.245 1884.2 773.135 1829.01ZM789.86 1884.17C789.875 1891.76 783.731 1897.93 776.137 1897.95 768.543 1897.96 762.375 1891.82 762.36 1884.22 762.345 1876.63 768.489 1870.46 776.082 1870.45 783.676 1870.43 789.845 1876.58 789.86 1884.17Z"/><rect x="529" y="1333" width="628" height="103" stroke="#000000" stroke-width="5.72917" stroke-miterlimit="8" fill="none"/><g><text font-family="Hilda_MSFontService,sans-serif" font-weight="700" font-size="28" transform="matrix(1 0 0 1 729.965 1377)">timestamp  </text></g><text font-family="Hilda_MSFontService,sans-serif" font-weight="400" font-size="28" transform="matrix(1 0 0 1 872.622 1377)">yang:date</text><text font-family="Hilda_MSFontService,sans-serif" font-weight="400" font-size="28" transform="matrix(1 0 0 1 990.643 1377)">-</text><text font-family="Hilda_MSFontService,sans-serif" font-weight="400" font-size="28" transform="matrix(1 0 0 1 1000.96 1377)">and</text><text font-family="Hilda_MSFontService,sans-serif" font-weight="400" font-size="28" transform="matrix(1 0 0 1 1045.64 1377)">-</text><g><text font-family="Hilda_MSFontService,sans-serif" font-weight="400" font-size="28" transform="matrix(1 0 0 1 1055.95 1377)">time</text></g><g><text font-family="Hilda_MSFontService,sans-serif" font-weight="700" font-size="28" transform="matrix(1 0 0 1 729.965 1410)">valid</text></g><text font-family="Hilda_MSFontService,sans-serif" font-weight="700" font-size="28" transform="matrix(1 0 0 1 790.695 1410)">-</text><text font-family="Hilda_MSFontService,sans-serif" font-weight="700" font-size="28" transform="matrix(1 0 0 1 801.58 1410)">until: </text><text font-family="Hilda_MSFontService,sans-serif" font-weight="400" font-size="28" transform="matrix(1 0 0 1 870.33 1410)">yang:date</text><text font-family="Hilda_MSFontService,sans-serif" font-weight="400" font-size="28" transform="matrix(1 0 0 1 988.351 1410)">-</text><text font-family="Hilda_MSFontService,sans-serif" font-weight="400" font-size="28" transform="matrix(1 0 0 1 998.663 1410)">and</text><text font-family="Hilda_MSFontService,sans-serif" font-weight="400" font-size="28" transform="matrix(1 0 0 1 1043.35 1410)">-</text><g><text font-family="Hilda_MSFontService,sans-serif" font-weight="400" font-size="28" transform="matrix(1 0 0 1 1053.66 1410)">time</text></g><g><text font-family="Hilda_MSFontService,sans-serif" font-weight="700" font-size="28" transform="matrix(1 0 0 1 573.793 1377)">geo</text></g><text font-family="Hilda_MSFontService,sans-serif" font-weight="700" font-size="28" transform="matrix(1 0 0 1 618.48 1377)">-</text><g><text font-family="Hilda_MSFontService,sans-serif" font-weight="700" font-size="28" transform="matrix(1 0 0 1 573.793 1410)">location</text></g><text font-family="Hilda_MSFontService,sans-serif" font-weight="700" font-size="28" transform="matrix(1 0 0 1 671.762 1410)">:</text><path d="M2.86455-0.0137442 3.2471 79.716-2.482 79.7435-2.86455 0.0137442ZM14.1324 79.6638C14.1688 87.2576 8.04235 93.4432 0.448518 93.4796-7.14531 93.5161-13.3309 87.3896-13.3673 79.7958-13.4037 72.2019-7.27725 66.0164 0.316574 65.9799 7.9104 65.9435 14.096 72.07 14.1324 79.6638Z" transform="matrix(-1 0 0 1 843.382 1253)"/><path d="M986.865 1434 986.865 1565.52 981.136 1565.52 981.136 1434ZM997.751 1565.52C997.751 1573.12 991.594 1579.27 984.001 1579.27 976.407 1579.27 970.251 1573.12 970.251 1565.52 970.251 1557.93 976.407 1551.77 984 1551.77 991.594 1551.77 997.751 1557.93 997.751 1565.52Z"/><path d="M0-2.86458 152.04-2.86458 152.04 149.561 149.176 146.697 298.351 146.697 298.351 152.426 146.311 152.426 146.311 0 149.176 2.86458 0 2.86458ZM298.351 135.811C305.945 135.811 312.101 141.967 312.101 149.561 312.101 157.155 305.945 163.311 298.351 163.311 290.757 163.311 284.601 157.155 284.601 149.561 284.601 141.967 290.757 135.811 298.351 135.811Z" transform="matrix(1.83697e-16 1 1 -1.83697e-16 627 1434)"/></g></svg>