<svg width="172px" height="133px"
 viewBox="0.00 0.00 172.07 132.80" xmlns="http://www.w3.org/2000/svg" xmlns:xlink="http://www.w3.org/1999/xlink">
<g id="graph0" class="graph" transform="scale(1.0 1.0) rotate(0.0) translate(4.0 128.8)">
<title>moduleName</title>
<polygon fill="white" stroke="transparent" points="-4,4 -4,-128.8 168.07,-128.8 168.07,4 -4,4"/>
<!-- o&#45;ran&#45;smo&#45;teiv&#45;physicalPhysicalAppliance -->
<g id="node1" class="node">
<title>o&#45;ran&#45;smo&#45;teiv&#45;physicalPhysicalAppliance</title>
<polygon fill="#074ee2" fill-opacity="0.254902" stroke="black" points="134.97,-124.8 0.01,-124.8 0.01,-88.8 134.97,-88.8 134.97,-124.8"/>
<text text-anchor="middle" x="67.49" y="-102.6" font-family="Arial" font-size="14.00">PhysicalAppliance</text>
</g>
<!-- o&#45;ran&#45;smo&#45;teiv&#45;physicalSite -->
<g id="node2" class="node">
<title>o&#45;ran&#45;smo&#45;teiv&#45;physicalSite</title>
<polygon fill="#074ee2" fill-opacity="0.254902" stroke="black" points="94.49,-36 40.49,-36 40.49,0 94.49,0 94.49,-36"/>
<text text-anchor="middle" x="67.49" y="-13.8" font-family="Arial" font-size="14.00">Site</text>
</g>
<!-- o&#45;ran&#45;smo&#45;teiv&#45;physicalPhysicalAppliance&#45;&gt;o&#45;ran&#45;smo&#45;teiv&#45;physicalSite -->
<g id="edge1" class="edge">
<title>o&#45;ran&#45;smo&#45;teiv&#45;physicalPhysicalAppliance&#45;&gt;o&#45;ran&#45;smo&#45;teiv&#45;physicalSite</title>
<path fill="none" stroke="#528b8b" d="M67.49,-88.65C67.49,-76.52 67.49,-60.02 67.49,-46.12"/>
<polygon fill="#528b8b" stroke="#528b8b" points="67.49,-36.11 71.99,-46.11 67.49,-41.11 67.49,-46.11 67.49,-46.11 67.49,-46.11 67.49,-41.11 62.99,-46.11 67.49,-36.11 67.49,-36.11"/>
<text text-anchor="middle" x="115.78" y="-58.2" font-family="Arial" font-size="14.00">INSTALLEDAT</text>
<text text-anchor="middle" x="55.59" y="-40.31" font-family="Arial" font-size="14.00">0..*</text>
<text text-anchor="middle" x="55.59" y="-76.05" font-family="Arial" font-size="14.00">0..*</text>
</g>
</g>
</svg>
