<svg width="554px" height="131px"
 viewBox="0.00 0.00 554.00 131.00" xmlns="http://www.w3.org/2000/svg" xmlns:xlink="http://www.w3.org/1999/xlink">
<g id="graph0" class="graph" transform="scale(1.0 1.0) rotate(0.0) translate(4.0 127.0)">
<title>moduleName</title>
<polygon fill="white" stroke="transparent" points="-4,4 -4,-127 550,-127 550,4 -4,4"/>
<!-- o&#45;ran&#45;smo&#45;teiv&#45;cloudNFDeployment -->
<g id="node1" class="node">
<title>o&#45;ran&#45;smo&#45;teiv&#45;cloudNFDeployment</title>
<polygon fill="#89240a" fill-opacity="0.254902" stroke="black" points="351,-123 239,-123 239,-87 351,-87 351,-123"/>
<text text-anchor="middle" x="295" y="-101.3" font-family="Arial" font-size="14.00">NFDeployment</text>
</g>
<!-- o&#45;ran&#45;smo&#45;teiv&#45;ranNearRTRICFunction -->
<g id="node2" class="node">
<title>o&#45;ran&#45;smo&#45;teiv&#45;ranNearRTRICFunction</title>
<polygon fill="#366f34" fill-opacity="0.254902" stroke="black" points="146,-36 0,-36 0,0 146,0 146,-36"/>
<text text-anchor="middle" x="73" y="-14.3" font-family="Arial" font-size="14.00">NearRTRICFunction</text>
</g>
<!-- o&#45;ran&#45;smo&#45;teiv&#45;cloudNFDeployment&#45;&gt;o&#45;ran&#45;smo&#45;teiv&#45;ranNearRTRICFunction -->
<g id="edge4" class="edge">
<title>o&#45;ran&#45;smo&#45;teiv&#45;cloudNFDeployment&#45;&gt;o&#45;ran&#45;smo&#45;teiv&#45;ranNearRTRICFunction</title>
<path fill="none" stroke="#528b8b" d="M238.9,-87.48C221.49,-82 202.32,-75.6 185,-69 162.5,-60.43 138.02,-49.67 117.7,-40.33"/>
<polygon fill="#528b8b" stroke="#528b8b" points="108.39,-36.02 119.35,-36.14 112.92,-38.12 117.46,-40.22 117.46,-40.22 117.46,-40.22 112.92,-38.12 115.57,-44.31 108.39,-36.02 108.39,-36.02"/>
<text text-anchor="middle" x="215" y="-57.8" font-family="Arial" font-size="14.00">SERVES</text>
<text text-anchor="middle" x="97.39" y="-39.82" font-family="Arial" font-size="14.00">0..*</text>
<text text-anchor="middle" x="227.9" y="-91.28" font-family="Arial" font-size="14.00">0..*</text>
</g>
<!-- o&#45;ran&#45;smo&#45;teiv&#45;ranOCUCPFunction -->
<g id="node3" class="node">
<title>o&#45;ran&#45;smo&#45;teiv&#45;ranOCUCPFunction</title>
<polygon fill="#366f34" fill-opacity="0.254902" stroke="black" points="286,-36 164,-36 164,0 286,0 286,-36"/>
<text text-anchor="middle" x="225" y="-14.3" font-family="Arial" font-size="14.00">OCUCPFunction</text>
</g>
<!-- o&#45;ran&#45;smo&#45;teiv&#45;cloudNFDeployment&#45;&gt;o&#45;ran&#45;smo&#45;teiv&#45;ranOCUCPFunction -->
<g id="edge3" class="edge">
<title>o&#45;ran&#45;smo&#45;teiv&#45;cloudNFDeployment&#45;&gt;o&#45;ran&#45;smo&#45;teiv&#45;ranOCUCPFunction</title>
<path fill="none" stroke="#528b8b" d="M277.18,-86.67C271.8,-81.17 266.01,-74.97 261,-69 254.54,-61.29 247.97,-52.5 242.24,-44.47"/>
<polygon fill="#528b8b" stroke="#528b8b" points="236.4,-36.13 245.83,-41.74 239.27,-40.22 242.14,-44.32 242.14,-44.32 242.14,-44.32 239.27,-40.22 238.46,-46.9 236.4,-36.13 236.4,-36.13"/>
<text text-anchor="middle" x="291" y="-57.8" font-family="Arial" font-size="14.00">SERVES</text>
<text text-anchor="middle" x="225.4" y="-39.93" font-family="Arial" font-size="14.00">0..*</text>
<text text-anchor="middle" x="266.18" y="-75.47" font-family="Arial" font-size="14.00">0..*</text>
</g>
<!-- o&#45;ran&#45;smo&#45;teiv&#45;ranOCUUPFunction -->
<g id="node4" class="node">
<title>o&#45;ran&#45;smo&#45;teiv&#45;ranOCUUPFunction</title>
<polygon fill="#366f34" fill-opacity="0.254902" stroke="black" points="426,-36 304,-36 304,0 426,0 426,-36"/>
<text text-anchor="middle" x="365" y="-14.3" font-family="Arial" font-size="14.00">OCUUPFunction</text>
</g>
<!-- o&#45;ran&#45;smo&#45;teiv&#45;cloudNFDeployment&#45;&gt;o&#45;ran&#45;smo&#45;teiv&#45;ranOCUUPFunction -->
<g id="edge2" class="edge">
<title>o&#45;ran&#45;smo&#45;teiv&#45;cloudNFDeployment&#45;&gt;o&#45;ran&#45;smo&#45;teiv&#45;ranOCUUPFunction</title>
<path fill="none" stroke="#528b8b" d="M309.17,-86.8C319.22,-74.59 332.89,-57.99 344.18,-44.28"/>
<polygon fill="#528b8b" stroke="#528b8b" points="350.86,-36.18 347.97,-46.76 347.68,-40.04 344.5,-43.89 344.5,-43.89 344.5,-43.89 347.68,-40.04 341.02,-41.03 350.86,-36.18 350.86,-36.18"/>
<text text-anchor="middle" x="364" y="-57.8" font-family="Arial" font-size="14.00">SERVES</text>
<text text-anchor="middle" x="339.86" y="-39.98" font-family="Arial" font-size="14.00">0..*</text>
<text text-anchor="middle" x="298.17" y="-75.6" font-family="Arial" font-size="14.00">0..*</text>
</g>
<!-- o&#45;ran&#45;smo&#45;teiv&#45;ranODUFunction -->
<g id="node5" class="node">
<title>o&#45;ran&#45;smo&#45;teiv&#45;ranODUFunction</title>
<polygon fill="#366f34" fill-opacity="0.254902" stroke="black" points="546,-36 444,-36 444,0 546,0 546,-36"/>
<text text-anchor="middle" x="495" y="-14.3" font-family="Arial" font-size="14.00">ODUFunction</text>
</g>
<!-- o&#45;ran&#45;smo&#45;teiv&#45;cloudNFDeployment&#45;&gt;o&#45;ran&#45;smo&#45;teiv&#45;ranODUFunction -->
<g id="edge1" class="edge">
<title>o&#45;ran&#45;smo&#45;teiv&#45;cloudNFDeployment&#45;&gt;o&#45;ran&#45;smo&#45;teiv&#45;ranODUFunction</title>
<path fill="none" stroke="#528b8b" d="M350.09,-86.96C365.75,-81.67 382.7,-75.5 398,-69 417.27,-60.81 437.99,-50.37 455.3,-41.15"/>
<polygon fill="#528b8b" stroke="#528b8b" points="464.54,-36.18 457.87,-44.88 460.14,-38.55 455.74,-40.92 455.74,-40.92 455.74,-40.92 460.14,-38.55 453.61,-36.96 464.54,-36.18 464.54,-36.18"/>
<text text-anchor="middle" x="457" y="-57.8" font-family="Arial" font-size="14.00">SERVES</text>
<text text-anchor="middle" x="453.54" y="-39.98" font-family="Arial" font-size="14.00">0..*</text>
<text text-anchor="middle" x="339.09" y="-75.76" font-family="Arial" font-size="14.00">0..*</text>
</g>
</g>
</svg>
