<svg width="151px" height="218px"
 viewBox="0.00 0.00 151.00 218.00" xmlns="http://www.w3.org/2000/svg" xmlns:xlink="http://www.w3.org/1999/xlink">
<g id="graph0" class="graph" transform="scale(1.0 1.0) rotate(0.0) translate(4.0 214.0)">
<title>moduleName</title>
<polygon fill="white" stroke="transparent" points="-4,4 -4,-214 147,-214 147,4 -4,4"/>
<!-- o&#45;ran&#45;smo&#45;teiv&#45;oamManagedElement -->
<g id="node1" class="node">
<title>o&#45;ran&#45;smo&#45;teiv&#45;oamManagedElement</title>
<polygon fill="#3663f0" fill-opacity="0.254902" stroke="black" points="128,-123 0,-123 0,-87 128,-87 128,-123"/>
<text text-anchor="middle" x="64" y="-101.3" font-family="Arial" font-size="14.00">ManagedElement</text>
</g>
<!-- o&#45;ran&#45;smo&#45;teiv&#45;cloudCloudifiedNF -->
<g id="node2" class="node">
<title>o&#45;ran&#45;smo&#45;teiv&#45;cloudCloudifiedNF</title>
<polygon fill="#89240a" fill-opacity="0.254902" stroke="black" points="114,-36 14,-36 14,0 114,0 114,-36"/>
<text text-anchor="middle" x="64" y="-14.3" font-family="Arial" font-size="14.00">CloudifiedNF</text>
</g>
<!-- o&#45;ran&#45;smo&#45;teiv&#45;oamManagedElement&#45;&gt;o&#45;ran&#45;smo&#45;teiv&#45;cloudCloudifiedNF -->
<g id="edge1" class="edge">
<title>o&#45;ran&#45;smo&#45;teiv&#45;oamManagedElement&#45;&gt;o&#45;ran&#45;smo&#45;teiv&#45;cloudCloudifiedNF</title>
<path fill="none" stroke="#528b8b" d="M64,-86.8C64,-75.16 64,-59.55 64,-46.24"/>
<polygon fill="#528b8b" stroke="#528b8b" points="64,-36.18 68.5,-46.18 64,-41.18 64,-46.18 64,-46.18 64,-46.18 64,-41.18 59.5,-46.18 64,-36.18 64,-36.18"/>
<text text-anchor="middle" x="103.5" y="-57.8" font-family="Arial" font-size="14.00">DEPLOYED</text>
<text text-anchor="middle" x="51.5" y="-39.98" font-family="Arial" font-size="14.00">1..1</text>
<text text-anchor="middle" x="51.5" y="-75.6" font-family="Arial" font-size="14.00">0..1</text>
</g>
<!-- o&#45;ran&#45;smo&#45;teiv&#45;cloudNFDeployment -->
<g id="node3" class="node">
<title>o&#45;ran&#45;smo&#45;teiv&#45;cloudNFDeployment</title>
<polygon fill="#89240a" fill-opacity="0.254902" stroke="black" points="120,-210 8,-210 8,-174 120,-174 120,-210"/>
<text text-anchor="middle" x="64" y="-188.3" font-family="Arial" font-size="14.00">NFDeployment</text>
</g>
<!-- o&#45;ran&#45;smo&#45;teiv&#45;cloudNFDeployment&#45;&gt;o&#45;ran&#45;smo&#45;teiv&#45;oamManagedElement -->
<g id="edge2" class="edge">
<title>o&#45;ran&#45;smo&#45;teiv&#45;cloudNFDeployment&#45;&gt;o&#45;ran&#45;smo&#45;teiv&#45;oamManagedElement</title>
<path fill="none" stroke="#528b8b" d="M64,-173.8C64,-162.16 64,-146.55 64,-133.24"/>
<polygon fill="#528b8b" stroke="#528b8b" points="64,-123.18 68.5,-133.18 64,-128.18 64,-133.18 64,-133.18 64,-133.18 64,-128.18 59.5,-133.18 64,-123.18 64,-123.18"/>
<text text-anchor="middle" x="94" y="-144.8" font-family="Arial" font-size="14.00">SERVES</text>
<text text-anchor="middle" x="53" y="-126.98" font-family="Arial" font-size="14.00">1..*</text>
<text text-anchor="middle" x="51.5" y="-162.6" font-family="Arial" font-size="14.00">1..1</text>
</g>
</g>
</svg>
