<svg width="137px" height="131px"
 viewBox="0.00 0.00 137.00 131.00" xmlns="http://www.w3.org/2000/svg" xmlns:xlink="http://www.w3.org/1999/xlink">
<g id="graph0" class="graph" transform="scale(1.0 1.0) rotate(0.0) translate(4.0 127.0)">
<title>moduleName</title>
<polygon fill="white" stroke="transparent" points="-4,4 -4,-127 133,-127 133,4 -4,4"/>
<!-- AntennaModule -->
<g id="node1" class="node">
<title>AntennaModule</title>
<polygon fill="#9a38e3" fill-opacity="0.254902" stroke="black" points="112,-123 0,-123 0,-87 112,-87 112,-123"/>
<text text-anchor="middle" x="56" y="-101.3" font-family="Arial" font-size="14.00">AntennaModule</text>
</g>
<!-- Site -->
<g id="node2" class="node">
<title>Site</title>
<polygon fill="#9a38e3" fill-opacity="0.254902" stroke="black" points="83,-36 29,-36 29,0 83,0 83,-36"/>
<text text-anchor="middle" x="56" y="-14.3" font-family="Arial" font-size="14.00">Site</text>
</g>
<!-- AntennaModule&#45;&gt;Site -->
<g id="edge1" class="edge">
<title>AntennaModule&#45;&gt;Site</title>
<path fill="none" stroke="#528b8b" d="M56,-86.8C56,-75.16 56,-59.55 56,-46.24"/>
<polygon fill="#528b8b" stroke="#528b8b" points="56,-36.18 60.5,-46.18 56,-41.18 56,-46.18 56,-46.18 56,-46.18 56,-41.18 51.5,-46.18 56,-36.18 56,-36.18"/>
<text text-anchor="middle" x="92.5" y="-57.8" font-family="Arial" font-size="14.00">INSTALLED</text>
<text text-anchor="middle" x="45.5" y="-39.98" font-family="Arial" font-size="14.00">0..*</text>
<text text-anchor="middle" x="44.5" y="-75.6" font-family="Arial" font-size="14.00">0..1</text>
</g>
</g>
</svg>
