<svg width="573px" height="133px"
 viewBox="0.00 0.00 572.98 132.80" xmlns="http://www.w3.org/2000/svg" xmlns:xlink="http://www.w3.org/1999/xlink">
<g id="graph0" class="graph" transform="scale(1.0 1.0) rotate(0.0) translate(4.0 128.8)">
<title>moduleName</title>
<polygon fill="white" stroke="transparent" points="-4,4 -4,-128.8 568.98,-128.8 568.98,4 -4,4"/>
<!-- o&#45;ran&#45;smo&#45;teiv&#45;cloudNFDeployment -->
<g id="node1" class="node">
<title>o&#45;ran&#45;smo&#45;teiv&#45;cloudNFDeployment</title>
<polygon fill="#89240a" fill-opacity="0.254902" stroke="black" points="363.07,-124.8 243.91,-124.8 243.91,-88.8 363.07,-88.8 363.07,-124.8"/>
<text text-anchor="middle" x="303.49" y="-102.6" font-family="Arial" font-size="14.00">NFDeployment</text>
</g>
<!-- o&#45;ran&#45;smo&#45;teiv&#45;ranNearRTRICFunction -->
<g id="node2" class="node">
<title>o&#45;ran&#45;smo&#45;teiv&#45;ranNearRTRICFunction</title>
<polygon fill="#366f34" fill-opacity="0.254902" stroke="black" points="148.97,-36 0.01,-36 0.01,0 148.97,0 148.97,-36"/>
<text text-anchor="middle" x="74.49" y="-13.8" font-family="Arial" font-size="14.00">NearRTRICFunction</text>
</g>
<!-- o&#45;ran&#45;smo&#45;teiv&#45;cloudNFDeployment&#45;&gt;o&#45;ran&#45;smo&#45;teiv&#45;ranNearRTRICFunction -->
<g id="edge4" class="edge">
<title>o&#45;ran&#45;smo&#45;teiv&#45;cloudNFDeployment&#45;&gt;o&#45;ran&#45;smo&#45;teiv&#45;ranNearRTRICFunction</title>
<path fill="none" stroke="#528b8b" d="M246.95,-88.74C230.03,-83.33 211.51,-77.11 194.7,-70.8 169.94,-61.51 142.85,-49.96 120.66,-40.13"/>
<polygon fill="#528b8b" stroke="#528b8b" points="111.48,-36.03 122.44,-35.99 116.04,-38.06 120.61,-40.1 120.61,-40.1 120.61,-40.1 116.04,-38.06 118.78,-44.21 111.48,-36.03 111.48,-36.03"/>
<text text-anchor="middle" x="224.88" y="-58.2" font-family="Arial" font-size="14.00">SERVES</text>
<text text-anchor="middle" x="99.58" y="-40.23" font-family="Arial" font-size="14.00">0..*</text>
<text text-anchor="middle" x="235.05" y="-76.14" font-family="Arial" font-size="14.00">0..*</text>
</g>
<!-- o&#45;ran&#45;smo&#45;teiv&#45;ranOCUCPFunction -->
<g id="node3" class="node">
<title>o&#45;ran&#45;smo&#45;teiv&#45;ranOCUCPFunction</title>
<polygon fill="#366f34" fill-opacity="0.254902" stroke="black" points="294.47,-36 166.51,-36 166.51,0 294.47,0 294.47,-36"/>
<text text-anchor="middle" x="230.49" y="-13.8" font-family="Arial" font-size="14.00">OCUCPFunction</text>
</g>
<!-- o&#45;ran&#45;smo&#45;teiv&#45;cloudNFDeployment&#45;&gt;o&#45;ran&#45;smo&#45;teiv&#45;ranOCUCPFunction -->
<g id="edge3" class="edge">
<title>o&#45;ran&#45;smo&#45;teiv&#45;cloudNFDeployment&#45;&gt;o&#45;ran&#45;smo&#45;teiv&#45;ranOCUCPFunction</title>
<path fill="none" stroke="#528b8b" d="M286.82,-88.64C281.55,-83.05 275.78,-76.75 270.7,-70.8 263.49,-62.36 255.94,-52.83 249.36,-44.27"/>
<polygon fill="#528b8b" stroke="#528b8b" points="243.14,-36.11 252.78,-41.34 246.17,-40.09 249.2,-44.07 249.2,-44.07 249.2,-44.07 246.17,-40.09 245.62,-46.79 243.14,-36.11 243.14,-36.11"/>
<text text-anchor="middle" x="300.88" y="-58.2" font-family="Arial" font-size="14.00">SERVES</text>
<text text-anchor="middle" x="231.24" y="-40.31" font-family="Arial" font-size="14.00">0..*</text>
<text text-anchor="middle" x="274.92" y="-76.04" font-family="Arial" font-size="14.00">0..*</text>
</g>
<!-- o&#45;ran&#45;smo&#45;teiv&#45;ranOCUUPFunction -->
<g id="node4" class="node">
<title>o&#45;ran&#45;smo&#45;teiv&#45;ranOCUUPFunction</title>
<polygon fill="#366f34" fill-opacity="0.254902" stroke="black" points="440.47,-36 312.51,-36 312.51,0 440.47,0 440.47,-36"/>
<text text-anchor="middle" x="376.49" y="-13.8" font-family="Arial" font-size="14.00">OCUUPFunction</text>
</g>
<!-- o&#45;ran&#45;smo&#45;teiv&#45;cloudNFDeployment&#45;&gt;o&#45;ran&#45;smo&#45;teiv&#45;ranOCUUPFunction -->
<g id="edge2" class="edge">
<title>o&#45;ran&#45;smo&#45;teiv&#45;cloudNFDeployment&#45;&gt;o&#45;ran&#45;smo&#45;teiv&#45;ranOCUUPFunction</title>
<path fill="none" stroke="#528b8b" d="M317.91,-88.65C328.61,-75.93 343.36,-58.39 355.38,-44.09"/>
<polygon fill="#528b8b" stroke="#528b8b" points="362.1,-36.11 359.1,-46.66 358.88,-39.94 355.66,-43.77 355.66,-43.77 355.66,-43.77 358.88,-39.94 352.22,-40.87 362.1,-36.11 362.1,-36.11"/>
<text text-anchor="middle" x="376.88" y="-58.2" font-family="Arial" font-size="14.00">SERVES</text>
<text text-anchor="middle" x="350.2" y="-40.31" font-family="Arial" font-size="14.00">0..*</text>
<text text-anchor="middle" x="306.01" y="-76.05" font-family="Arial" font-size="14.00">0..*</text>
</g>
<!-- o&#45;ran&#45;smo&#45;teiv&#45;ranODUFunction -->
<g id="node5" class="node">
<title>o&#45;ran&#45;smo&#45;teiv&#45;ranODUFunction</title>
<polygon fill="#366f34" fill-opacity="0.254902" stroke="black" points="564.97,-36 458,-36 458,0 564.97,0 564.97,-36"/>
<text text-anchor="middle" x="511.49" y="-13.8" font-family="Arial" font-size="14.00">ODUFunction</text>
</g>
<!-- o&#45;ran&#45;smo&#45;teiv&#45;cloudNFDeployment&#45;&gt;o&#45;ran&#45;smo&#45;teiv&#45;ranODUFunction -->
<g id="edge1" class="edge">
<title>o&#45;ran&#45;smo&#45;teiv&#45;cloudNFDeployment&#45;&gt;o&#45;ran&#45;smo&#45;teiv&#45;ranODUFunction</title>
<path fill="none" stroke="#528b8b" d="M361.3,-88.73C377.41,-83.48 394.79,-77.34 410.49,-70.8 431.34,-62.11 453.77,-50.81 472.18,-40.99"/>
<polygon fill="#528b8b" stroke="#528b8b" points="481.14,-36.16 474.48,-44.86 476.74,-38.53 472.34,-40.9 472.34,-40.9 472.34,-40.9 476.74,-38.53 470.21,-36.94 481.14,-36.16 481.14,-36.16"/>
<text text-anchor="middle" x="473.88" y="-58.2" font-family="Arial" font-size="14.00">SERVES</text>
<text text-anchor="middle" x="469.25" y="-40.36" font-family="Arial" font-size="14.00">0..*</text>
<text text-anchor="middle" x="349.4" y="-76.13" font-family="Arial" font-size="14.00">0..*</text>
</g>
</g>
</svg>
