<svg width="146px" height="131px"
 viewBox="0.00 0.00 145.50 131.00" xmlns="http://www.w3.org/2000/svg" xmlns:xlink="http://www.w3.org/1999/xlink">
<g id="graph0" class="graph" transform="scale(1.0 1.0) rotate(0.0) translate(4.0 127.0)">
<title>moduleName</title>
<polygon fill="white" stroke="transparent" points="-4,4 -4,-127 141.5,-127 141.5,4 -4,4"/>
<!-- o&#45;ran&#45;smo&#45;teiv&#45;equipmentAntennaModule -->
<g id="node1" class="node">
<title>o&#45;ran&#45;smo&#45;teiv&#45;equipmentAntennaModule</title>
<polygon fill="#9a38e3" fill-opacity="0.254902" stroke="black" points="115,-123 0,-123 0,-87 115,-87 115,-123"/>
<text text-anchor="middle" x="57.5" y="-101.3" font-family="Arial" font-size="14.00">AntennaModule</text>
</g>
<!-- o&#45;ran&#45;smo&#45;teiv&#45;equipmentSite -->
<g id="node2" class="node">
<title>o&#45;ran&#45;smo&#45;teiv&#45;equipmentSite</title>
<polygon fill="#9a38e3" fill-opacity="0.254902" stroke="black" points="84.5,-36 30.5,-36 30.5,0 84.5,0 84.5,-36"/>
<text text-anchor="middle" x="57.5" y="-14.3" font-family="Arial" font-size="14.00">Site</text>
</g>
<!-- o&#45;ran&#45;smo&#45;teiv&#45;equipmentAntennaModule&#45;&gt;o&#45;ran&#45;smo&#45;teiv&#45;equipmentSite -->
<g id="edge1" class="edge">
<title>o&#45;ran&#45;smo&#45;teiv&#45;equipmentAntennaModule&#45;&gt;o&#45;ran&#45;smo&#45;teiv&#45;equipmentSite</title>
<path fill="none" stroke="#528b8b" d="M57.5,-86.8C57.5,-75.16 57.5,-59.55 57.5,-46.24"/>
<polygon fill="#528b8b" stroke="#528b8b" points="57.5,-36.18 62,-46.18 57.5,-41.18 57.5,-46.18 57.5,-46.18 57.5,-46.18 57.5,-41.18 53,-46.18 57.5,-36.18 57.5,-36.18"/>
<text text-anchor="middle" x="97.5" y="-57.8" font-family="Arial" font-size="14.00">INSTALLED</text>
<text text-anchor="middle" x="46.5" y="-39.98" font-family="Arial" font-size="14.00">0..*</text>
<text text-anchor="middle" x="45" y="-75.6" font-family="Arial" font-size="14.00">0..1</text>
</g>
</g>
</svg>
