<svg width="553px" height="61px"
 viewBox="0.00 0.00 553.00 61.00" xmlns="http://www.w3.org/2000/svg" xmlns:xlink="http://www.w3.org/1999/xlink">
<g id="graph0" class="graph" transform="scale(1.0 1.0) rotate(0.0) translate(4.0 57.0)">
<title>o&#45;ran&#45;smo&#45;teiv&#45;oam</title>
<polygon fill="white" stroke="transparent" points="-4,4 -4,-57 549,-57 549,4 -4,4"/>
<!-- o&#45;ran&#45;smo&#45;teiv&#45;oam -->
<g id="node1" class="node">
<title>o&#45;ran&#45;smo&#45;teiv&#45;oam</title>
<polygon fill="lightblue" stroke="black" points="136,-44.5 0,-44.5 0,-8.5 136,-8.5 136,-44.5"/>
<text text-anchor="middle" x="68" y="-22.8" font-family="Arial" font-size="14.00">o&#45;ran&#45;smo&#45;teiv&#45;oam</text>
</g>
<!-- ManagedElement -->
<g id="node3" class="node">
<title>ManagedElement</title>
<polygon fill="#3663f0" fill-opacity="0.254902" stroke="black" points="296,-44.5 172,-44.5 172,-8.5 296,-8.5 296,-44.5"/>
<text text-anchor="middle" x="234" y="-22.8" font-family="Arial" font-size="14.00">ManagedElement</text>
</g>
<!-- o&#45;ran&#45;smo&#45;teiv&#45;oam&#45;&gt;ManagedElement -->
<g id="edge1" class="edge">
<title>o&#45;ran&#45;smo&#45;teiv&#45;oam&#45;&gt;ManagedElement</title>
<path fill="none" stroke="black" d="M136.18,-26.5C144.61,-26.5 153.25,-26.5 161.74,-26.5"/>
<polygon fill="black" stroke="black" points="161.99,-30 171.99,-26.5 161.99,-23 161.99,-30"/>
</g>
<!-- ManagedElement&#45;attributes -->
<g id="node2" class="node">
<title>ManagedElement&#45;attributes</title>
<polygon fill="#3663f0" fill-opacity="0.254902" stroke="black" points="545,-53 332,-53 332,0 545,0 545,-53"/>
<text text-anchor="start" x="340.5" y="-37.3" font-family="Arial" font-size="14.00">id</text>
<text text-anchor="start" x="503.5" y="-37.3" font-family="Arial" font-size="14.00">string</text>
<text text-anchor="start" x="340.5" y="-22.3" font-family="Arial" font-size="14.00">sourceIds</text>
<text text-anchor="start" x="399.5" y="-22.3" font-family="Arial" font-size="14.00">&lt;&lt; Refer to Module &gt;&gt;</text>
<text text-anchor="start" x="340.5" y="-7.3" font-family="Arial" font-size="14.00"> attributes: </text>
</g>
<!-- ManagedElement&#45;&gt;ManagedElement&#45;attributes -->
<g id="edge2" class="edge">
<title>ManagedElement&#45;&gt;ManagedElement&#45;attributes</title>
<path fill="none" stroke="black" d="M296.03,-26.5C304.32,-26.5 313.04,-26.5 321.92,-26.5"/>
<polygon fill="black" stroke="black" points="321.98,-30 331.98,-26.5 321.98,-23 321.98,-30"/>
</g>
</g>
</svg>
