<svg width="795px" height="346px"
 viewBox="0.00 0.00 794.95 346.00" xmlns="http://www.w3.org/2000/svg" xmlns:xlink="http://www.w3.org/1999/xlink">
<g id="graph0" class="graph" transform="scale(1.0 1.0) rotate(0.0) translate(4.0 342.0)">
<title>o&#45;ran&#45;smo&#45;teiv&#45;equipment</title>
<polygon fill="white" stroke="transparent" points="-4,4 -4,-342 790.95,-342 790.95,4 -4,4"/>
<!-- o&#45;ran&#45;smo&#45;teiv&#45;equipment -->
<g id="node1" class="node">
<title>o&#45;ran&#45;smo&#45;teiv&#45;equipment</title>
<polygon fill="lightblue" stroke="black" points="196.36,-151 0.21,-151 0.21,-115 196.36,-115 196.36,-151"/>
<text text-anchor="middle" x="98.28" y="-128.8" font-family="Arial" font-size="14.00">o&#45;ran&#45;smo&#45;teiv&#45;equipment</text>
</g>
<!-- AntennaModule -->
<g id="node4" class="node">
<title>AntennaModule</title>
<polygon fill="#9a38e3" fill-opacity="0.254902" stroke="black" points="355.14,-209 232.38,-209 232.38,-173 355.14,-173 355.14,-209"/>
<text text-anchor="middle" x="293.76" y="-186.8" font-family="Arial" font-size="14.00">AntennaModule</text>
</g>
<!-- o&#45;ran&#45;smo&#45;teiv&#45;equipment&#45;&gt;AntennaModule -->
<g id="edge1" class="edge">
<title>o&#45;ran&#45;smo&#45;teiv&#45;equipment&#45;&gt;AntennaModule</title>
<path fill="none" stroke="black" d="M159.44,-151.03C179.55,-157.06 202.14,-163.83 222.92,-170.06"/>
<polygon fill="black" stroke="black" points="222.06,-173.46 232.64,-172.98 224.07,-166.75 222.06,-173.46"/>
</g>
<!-- Site -->
<g id="node5" class="node">
<title>Site</title>
<polygon fill="#9a38e3" fill-opacity="0.254902" stroke="black" points="320.76,-124 266.76,-124 266.76,-88 320.76,-88 320.76,-124"/>
<text text-anchor="middle" x="293.76" y="-101.8" font-family="Arial" font-size="14.00">Site</text>
</g>
<!-- o&#45;ran&#45;smo&#45;teiv&#45;equipment&#45;&gt;Site -->
<g id="edge2" class="edge">
<title>o&#45;ran&#45;smo&#45;teiv&#45;equipment&#45;&gt;Site</title>
<path fill="none" stroke="black" d="M196.59,-119.42C217.94,-116.44 239.26,-113.47 256.37,-111.08"/>
<polygon fill="black" stroke="black" points="257.03,-114.52 266.45,-109.67 256.06,-107.59 257.03,-114.52"/>
</g>
<!-- AntennaModule&#45;attributes -->
<g id="node2" class="node">
<title>AntennaModule&#45;attributes</title>
<polygon fill="#9a38e3" fill-opacity="0.254902" stroke="black" points="786.95,-338 390.95,-338 390.95,-106 786.95,-106 786.95,-338"/>
<text text-anchor="start" x="398.95" y="-321.4" font-family="Arial" font-size="14.00">id</text>
<text text-anchor="start" x="741.16" y="-321.4" font-family="Arial" font-size="14.00">string</text>
<text text-anchor="start" x="398.95" y="-305.4" font-family="Arial" font-size="14.00">sourceIds</text>
<text text-anchor="start" x="616.77" y="-305.4" font-family="Arial" font-size="14.00">&lt;&lt; Refer to Module &gt;&gt;</text>
<text text-anchor="start" x="398.95" y="-289.4" font-family="Arial" font-size="14.00"> attributes: </text>
<text text-anchor="start" x="398.95" y="-273.4" font-family="Arial" font-size="14.00"> &#160;&#160;&#160;&#160;&#160;&#160;&#160;antennaBeamWidth</text>
<text text-anchor="start" x="736.96" y="-273.4" font-family="Arial" font-size="14.00">uint32</text>
<text text-anchor="start" x="398.95" y="-257.4" font-family="Arial" font-size="14.00"> &#160;&#160;&#160;&#160;&#160;&#160;&#160;antennaModelNumber</text>
<text text-anchor="start" x="741.16" y="-257.4" font-family="Arial" font-size="14.00">string</text>
<text text-anchor="start" x="398.95" y="-241.4" font-family="Arial" font-size="14.00"> &#160;&#160;&#160;&#160;&#160;&#160;&#160;azimuth</text>
<text text-anchor="start" x="710.36" y="-241.4" font-family="Arial" font-size="14.00">decimal64</text>
<text text-anchor="start" x="398.95" y="-225.4" font-family="Arial" font-size="14.00"> &#160;&#160;&#160;&#160;&#160;&#160;&#160;electricalAntennaTilt</text>
<text text-anchor="start" x="745.36" y="-225.4" font-family="Arial" font-size="14.00">int32</text>
<text text-anchor="start" x="398.95" y="-209.4" font-family="Arial" font-size="14.00"> &#160;&#160;&#160;&#160;&#160;&#160;&#160;geo&#45;location</text>
<text text-anchor="start" x="616.77" y="-209.4" font-family="Arial" font-size="14.00">&lt;&lt; Refer to Module &gt;&gt;</text>
<text text-anchor="start" x="398.95" y="-193.4" font-family="Arial" font-size="14.00"> &#160;&#160;&#160;&#160;&#160;&#160;&#160;horizontalBeamWidth</text>
<text text-anchor="start" x="710.36" y="-193.4" font-family="Arial" font-size="14.00">decimal64</text>
<text text-anchor="start" x="398.77" y="-177.4" font-family="Arial" font-size="14.00"> &#160;&#160;&#160;&#160;&#160;&#160;&#160;mechanicalAntennaBearing</text>
<text text-anchor="start" x="745.36" y="-177.4" font-family="Arial" font-size="14.00">int32</text>
<text text-anchor="start" x="398.95" y="-161.4" font-family="Arial" font-size="14.00"> &#160;&#160;&#160;&#160;&#160;&#160;&#160;mechanicalAntennaTilt</text>
<text text-anchor="start" x="745.36" y="-161.4" font-family="Arial" font-size="14.00">int32</text>
<text text-anchor="start" x="398.95" y="-145.4" font-family="Arial" font-size="14.00"> &#160;&#160;&#160;&#160;&#160;&#160;&#160;positionWithinSector</text>
<text text-anchor="start" x="741.16" y="-145.4" font-family="Arial" font-size="14.00">string</text>
<text text-anchor="start" x="398.95" y="-129.4" font-family="Arial" font-size="14.00"> &#160;&#160;&#160;&#160;&#160;&#160;&#160;totalTilt</text>
<text text-anchor="start" x="745.36" y="-129.4" font-family="Arial" font-size="14.00">int32</text>
<text text-anchor="start" x="398.95" y="-113.4" font-family="Arial" font-size="14.00"> &#160;&#160;&#160;&#160;&#160;&#160;&#160;verticalBeamWidth</text>
<text text-anchor="start" x="710.36" y="-113.4" font-family="Arial" font-size="14.00">decimal64</text>
</g>
<!-- Site&#45;attributes -->
<g id="node3" class="node">
<title>Site&#45;attributes</title>
<polygon fill="#9a38e3" fill-opacity="0.254902" stroke="black" points="735.95,-88 441.95,-88 441.95,0 735.95,0 735.95,-88"/>
<text text-anchor="start" x="449.95" y="-71.4" font-family="Arial" font-size="14.00">id</text>
<text text-anchor="start" x="690.16" y="-71.4" font-family="Arial" font-size="14.00">string</text>
<text text-anchor="start" x="449.95" y="-55.4" font-family="Arial" font-size="14.00">sourceIds</text>
<text text-anchor="start" x="565.77" y="-55.4" font-family="Arial" font-size="14.00">&lt;&lt; Refer to Module &gt;&gt;</text>
<text text-anchor="start" x="449.95" y="-39.4" font-family="Arial" font-size="14.00"> attributes: </text>
<text text-anchor="start" x="449.86" y="-23.4" font-family="Arial" font-size="14.00"> &#160;&#160;&#160;&#160;&#160;&#160;&#160;geo&#45;location</text>
<text text-anchor="start" x="565.77" y="-23.4" font-family="Arial" font-size="14.00">&lt;&lt; Refer to Module &gt;&gt;</text>
<text text-anchor="start" x="449.95" y="-7.4" font-family="Arial" font-size="14.00"> &#160;&#160;&#160;&#160;&#160;&#160;&#160;name</text>
<text text-anchor="start" x="690.16" y="-7.4" font-family="Arial" font-size="14.00">string</text>
</g>
<!-- AntennaModule&#45;&gt;AntennaModule&#45;attributes -->
<g id="edge3" class="edge">
<title>AntennaModule&#45;&gt;AntennaModule&#45;attributes</title>
<path fill="none" stroke="black" d="M355.15,-197.39C363.28,-198.24 371.95,-199.16 381,-200.12"/>
<polygon fill="black" stroke="black" points="380.64,-203.6 390.95,-201.17 381.37,-196.64 380.64,-203.6"/>
</g>
<!-- Site&#45;&gt;Site&#45;attributes -->
<g id="edge4" class="edge">
<title>Site&#45;&gt;Site&#45;attributes</title>
<path fill="none" stroke="black" d="M320.78,-100.5C346.71,-95.01 388.78,-86.12 431.95,-76.99"/>
<polygon fill="black" stroke="black" points="432.7,-80.41 441.76,-74.92 431.25,-73.56 432.7,-80.41"/>
</g>
</g>
</svg>
