<svg width="615px" height="436px"
 viewBox="0.00 0.00 615.00 435.50" xmlns="http://www.w3.org/2000/svg" xmlns:xlink="http://www.w3.org/1999/xlink">
<g id="graph0" class="graph" transform="scale(1.0 1.0) rotate(0.0) translate(4.0 431.5)">
<title>o&#45;ran&#45;smo&#45;teiv&#45;cloud</title>
<polygon fill="white" stroke="transparent" points="-4,4 -4,-431.5 611,-431.5 611,4 -4,4"/>
<!-- o&#45;ran&#45;smo&#45;teiv&#45;cloud -->
<g id="node1" class="node">
<title>o&#45;ran&#45;smo&#45;teiv&#45;cloud</title>
<polygon fill="lightblue" stroke="black" points="141,-239.5 0,-239.5 0,-203.5 141,-203.5 141,-239.5"/>
<text text-anchor="middle" x="70.5" y="-217.8" font-family="Arial" font-size="14.00">o&#45;ran&#45;smo&#45;teiv&#45;cloud</text>
</g>
<!-- CloudifiedNF -->
<g id="node7" class="node">
<title>CloudifiedNF</title>
<polygon fill="#89240a" fill-opacity="0.254902" stroke="black" points="292.5,-387.5 197.5,-387.5 197.5,-351.5 292.5,-351.5 292.5,-387.5"/>
<text text-anchor="middle" x="245" y="-365.8" font-family="Arial" font-size="14.00">CloudifiedNF</text>
</g>
<!-- o&#45;ran&#45;smo&#45;teiv&#45;cloud&#45;&gt;CloudifiedNF -->
<g id="edge1" class="edge">
<title>o&#45;ran&#45;smo&#45;teiv&#45;cloud&#45;&gt;CloudifiedNF</title>
<path fill="none" stroke="black" d="M90.08,-239.57C110.79,-259.47 145.52,-292.15 177,-318.5 187.81,-327.55 199.98,-337.02 210.95,-345.3"/>
<polygon fill="black" stroke="black" points="208.97,-348.19 219.07,-351.38 213.16,-342.59 208.97,-348.19"/>
</g>
<!-- NFDeployment -->
<g id="node8" class="node">
<title>NFDeployment</title>
<polygon fill="#89240a" fill-opacity="0.254902" stroke="black" points="298.5,-309.5 191.5,-309.5 191.5,-273.5 298.5,-273.5 298.5,-309.5"/>
<text text-anchor="middle" x="245" y="-287.8" font-family="Arial" font-size="14.00">NFDeployment</text>
</g>
<!-- o&#45;ran&#45;smo&#45;teiv&#45;cloud&#45;&gt;NFDeployment -->
<g id="edge2" class="edge">
<title>o&#45;ran&#45;smo&#45;teiv&#45;cloud&#45;&gt;NFDeployment</title>
<path fill="none" stroke="black" d="M115.92,-239.53C138.57,-248.72 166.3,-259.97 190.15,-269.65"/>
<polygon fill="black" stroke="black" points="188.85,-272.9 199.43,-273.41 191.48,-266.41 188.85,-272.9"/>
</g>
<!-- NodeCluster -->
<g id="node9" class="node">
<title>NodeCluster</title>
<polygon fill="#89240a" fill-opacity="0.254902" stroke="black" points="291,-239.5 199,-239.5 199,-203.5 291,-203.5 291,-239.5"/>
<text text-anchor="middle" x="245" y="-217.8" font-family="Arial" font-size="14.00">NodeCluster</text>
</g>
<!-- o&#45;ran&#45;smo&#45;teiv&#45;cloud&#45;&gt;NodeCluster -->
<g id="edge3" class="edge">
<title>o&#45;ran&#45;smo&#45;teiv&#45;cloud&#45;&gt;NodeCluster</title>
<path fill="none" stroke="black" d="M141.17,-221.5C156.97,-221.5 173.54,-221.5 188.66,-221.5"/>
<polygon fill="black" stroke="black" points="188.86,-225 198.86,-221.5 188.86,-218 188.86,-225"/>
</g>
<!-- OCloudNamespace -->
<g id="node10" class="node">
<title>OCloudNamespace</title>
<polygon fill="#89240a" fill-opacity="0.254902" stroke="black" points="313,-169.5 177,-169.5 177,-133.5 313,-133.5 313,-169.5"/>
<text text-anchor="middle" x="245" y="-147.8" font-family="Arial" font-size="14.00">OCloudNamespace</text>
</g>
<!-- o&#45;ran&#45;smo&#45;teiv&#45;cloud&#45;&gt;OCloudNamespace -->
<g id="edge4" class="edge">
<title>o&#45;ran&#45;smo&#45;teiv&#45;cloud&#45;&gt;OCloudNamespace</title>
<path fill="none" stroke="black" d="M115.92,-203.47C138.57,-194.28 166.3,-183.03 190.15,-173.35"/>
<polygon fill="black" stroke="black" points="191.48,-176.59 199.43,-169.59 188.85,-170.1 191.48,-176.59"/>
</g>
<!-- OCloudSite -->
<g id="node11" class="node">
<title>OCloudSite</title>
<polygon fill="#89240a" fill-opacity="0.254902" stroke="black" points="288,-95.5 202,-95.5 202,-59.5 288,-59.5 288,-95.5"/>
<text text-anchor="middle" x="245" y="-73.8" font-family="Arial" font-size="14.00">OCloudSite</text>
</g>
<!-- o&#45;ran&#45;smo&#45;teiv&#45;cloud&#45;&gt;OCloudSite -->
<g id="edge5" class="edge">
<title>o&#45;ran&#45;smo&#45;teiv&#45;cloud&#45;&gt;OCloudSite</title>
<path fill="none" stroke="black" d="M89.89,-203.2C110.43,-183.09 145.02,-150.24 177,-124.5 186.77,-116.64 197.77,-108.61 207.99,-101.46"/>
<polygon fill="black" stroke="black" points="210.11,-104.25 216.35,-95.69 206.13,-98.49 210.11,-104.25"/>
</g>
<!-- CloudifiedNF&#45;attributes -->
<g id="node2" class="node">
<title>CloudifiedNF&#45;attributes</title>
<polygon fill="#89240a" fill-opacity="0.254902" stroke="black" points="587.5,-427.5 368.5,-427.5 368.5,-359.5 587.5,-359.5 587.5,-427.5"/>
<text text-anchor="start" x="377" y="-412.3" font-family="Arial" font-size="14.00">id</text>
<text text-anchor="start" x="546" y="-412.3" font-family="Arial" font-size="14.00">string</text>
<text text-anchor="start" x="377" y="-397.3" font-family="Arial" font-size="14.00">sourceIds</text>
<text text-anchor="start" x="442" y="-397.3" font-family="Arial" font-size="14.00">&lt;&lt; Refer to Module &gt;&gt;</text>
<text text-anchor="start" x="377" y="-382.3" font-family="Arial" font-size="14.00"> attributes: </text>
<text text-anchor="start" x="377" y="-367.3" font-family="Arial" font-size="14.00"> &#160;&#160;&#160;&#160;&#160;&#160;&#160;name</text>
<text text-anchor="start" x="546" y="-367.3" font-family="Arial" font-size="14.00">string</text>
</g>
<!-- NFDeployment&#45;attributes -->
<g id="node3" class="node">
<title>NFDeployment&#45;attributes</title>
<polygon fill="#89240a" fill-opacity="0.254902" stroke="black" points="587.5,-341.5 368.5,-341.5 368.5,-273.5 587.5,-273.5 587.5,-341.5"/>
<text text-anchor="start" x="377" y="-326.3" font-family="Arial" font-size="14.00">id</text>
<text text-anchor="start" x="546" y="-326.3" font-family="Arial" font-size="14.00">string</text>
<text text-anchor="start" x="377" y="-311.3" font-family="Arial" font-size="14.00">sourceIds</text>
<text text-anchor="start" x="442" y="-311.3" font-family="Arial" font-size="14.00">&lt;&lt; Refer to Module &gt;&gt;</text>
<text text-anchor="start" x="377" y="-296.3" font-family="Arial" font-size="14.00"> attributes: </text>
<text text-anchor="start" x="377" y="-281.3" font-family="Arial" font-size="14.00"> &#160;&#160;&#160;&#160;&#160;&#160;&#160;name</text>
<text text-anchor="start" x="546" y="-281.3" font-family="Arial" font-size="14.00">string</text>
</g>
<!-- NodeCluster&#45;attributes -->
<g id="node4" class="node">
<title>NodeCluster&#45;attributes</title>
<polygon fill="#89240a" fill-opacity="0.254902" stroke="black" points="587.5,-255.5 368.5,-255.5 368.5,-187.5 587.5,-187.5 587.5,-255.5"/>
<text text-anchor="start" x="377" y="-240.3" font-family="Arial" font-size="14.00">id</text>
<text text-anchor="start" x="546" y="-240.3" font-family="Arial" font-size="14.00">string</text>
<text text-anchor="start" x="377" y="-225.3" font-family="Arial" font-size="14.00">sourceIds</text>
<text text-anchor="start" x="442" y="-225.3" font-family="Arial" font-size="14.00">&lt;&lt; Refer to Module &gt;&gt;</text>
<text text-anchor="start" x="377" y="-210.3" font-family="Arial" font-size="14.00"> attributes: </text>
<text text-anchor="start" x="377" y="-195.3" font-family="Arial" font-size="14.00"> &#160;&#160;&#160;&#160;&#160;&#160;&#160;name</text>
<text text-anchor="start" x="546" y="-195.3" font-family="Arial" font-size="14.00">string</text>
</g>
<!-- OCloudNamespace&#45;attributes -->
<g id="node5" class="node">
<title>OCloudNamespace&#45;attributes</title>
<polygon fill="#89240a" fill-opacity="0.254902" stroke="black" points="587.5,-169.5 368.5,-169.5 368.5,-101.5 587.5,-101.5 587.5,-169.5"/>
<text text-anchor="start" x="377" y="-154.3" font-family="Arial" font-size="14.00">id</text>
<text text-anchor="start" x="546" y="-154.3" font-family="Arial" font-size="14.00">string</text>
<text text-anchor="start" x="377" y="-139.3" font-family="Arial" font-size="14.00">sourceIds</text>
<text text-anchor="start" x="442" y="-139.3" font-family="Arial" font-size="14.00">&lt;&lt; Refer to Module &gt;&gt;</text>
<text text-anchor="start" x="377" y="-124.3" font-family="Arial" font-size="14.00"> attributes: </text>
<text text-anchor="start" x="377" y="-109.3" font-family="Arial" font-size="14.00"> &#160;&#160;&#160;&#160;&#160;&#160;&#160;name</text>
<text text-anchor="start" x="546" y="-109.3" font-family="Arial" font-size="14.00">string</text>
</g>
<!-- OCloudSite&#45;attributes -->
<g id="node6" class="node">
<title>OCloudSite&#45;attributes</title>
<polygon fill="#89240a" fill-opacity="0.254902" stroke="black" points="607,-83 349,-83 349,0 607,0 607,-83"/>
<text text-anchor="start" x="357" y="-67.3" font-family="Arial" font-size="14.00">id</text>
<text text-anchor="start" x="565" y="-67.3" font-family="Arial" font-size="14.00">string</text>
<text text-anchor="start" x="357" y="-52.3" font-family="Arial" font-size="14.00">sourceIds</text>
<text text-anchor="start" x="461" y="-52.3" font-family="Arial" font-size="14.00">&lt;&lt; Refer to Module &gt;&gt;</text>
<text text-anchor="start" x="357" y="-37.3" font-family="Arial" font-size="14.00"> attributes: </text>
<text text-anchor="start" x="357" y="-22.3" font-family="Arial" font-size="14.00"> &#160;&#160;&#160;&#160;&#160;&#160;&#160;geo&#45;location</text>
<text text-anchor="start" x="461" y="-22.3" font-family="Arial" font-size="14.00">&lt;&lt; Refer to Module &gt;&gt;</text>
<text text-anchor="start" x="357" y="-7.3" font-family="Arial" font-size="14.00"> &#160;&#160;&#160;&#160;&#160;&#160;&#160;name</text>
<text text-anchor="start" x="565" y="-7.3" font-family="Arial" font-size="14.00">string</text>
</g>
<!-- CloudifiedNF&#45;&gt;CloudifiedNF&#45;attributes -->
<g id="edge6" class="edge">
<title>CloudifiedNF&#45;&gt;CloudifiedNF&#45;attributes</title>
<path fill="none" stroke="black" d="M292.75,-374.36C311.9,-376.35 335.01,-378.75 358.3,-381.17"/>
<polygon fill="black" stroke="black" points="357.97,-384.65 368.27,-382.2 358.69,-377.69 357.97,-384.65"/>
</g>
<!-- NFDeployment&#45;&gt;NFDeployment&#45;attributes -->
<g id="edge7" class="edge">
<title>NFDeployment&#45;&gt;NFDeployment&#45;attributes</title>
<path fill="none" stroke="black" d="M298.71,-295.15C316.56,-296.39 337.29,-297.82 358.16,-299.27"/>
<polygon fill="black" stroke="black" points="358.19,-302.78 368.4,-299.98 358.67,-295.8 358.19,-302.78"/>
</g>
<!-- NodeCluster&#45;&gt;NodeCluster&#45;attributes -->
<g id="edge8" class="edge">
<title>NodeCluster&#45;&gt;NodeCluster&#45;attributes</title>
<path fill="none" stroke="black" d="M291.09,-221.5C310.5,-221.5 334.21,-221.5 358.11,-221.5"/>
<polygon fill="black" stroke="black" points="358.36,-225 368.36,-221.5 358.36,-218 358.36,-225"/>
</g>
<!-- OCloudNamespace&#45;&gt;OCloudNamespace&#45;attributes -->
<g id="edge9" class="edge">
<title>OCloudNamespace&#45;&gt;OCloudNamespace&#45;attributes</title>
<path fill="none" stroke="black" d="M313.13,-146.85C327.33,-145.87 342.73,-144.8 358.2,-143.73"/>
<polygon fill="black" stroke="black" points="358.64,-147.21 368.37,-143.02 358.16,-140.22 358.64,-147.21"/>
</g>
<!-- OCloudSite&#45;&gt;OCloudSite&#45;attributes -->
<g id="edge10" class="edge">
<title>OCloudSite&#45;&gt;OCloudSite&#45;attributes</title>
<path fill="none" stroke="black" d="M288.1,-70.94C302.88,-68.64 320.4,-65.9 338.72,-63.05"/>
<polygon fill="black" stroke="black" points="339.32,-66.5 348.66,-61.5 338.24,-59.58 339.32,-66.5"/>
</g>
</g>
</svg>
