<svg width="613px" height="64px"
 viewBox="0.00 0.00 612.96 64.00" xmlns="http://www.w3.org/2000/svg" xmlns:xlink="http://www.w3.org/1999/xlink">
<g id="graph0" class="graph" transform="scale(1.0 1.0) rotate(0.0) translate(4.0 60.0)">
<title>o&#45;ran&#45;smo&#45;teiv&#45;oam</title>
<polygon fill="white" stroke="transparent" points="-4,4 -4,-60 608.96,-60 608.96,4 -4,4"/>
<!-- o&#45;ran&#45;smo&#45;teiv&#45;oam -->
<g id="node1" class="node">
<title>o&#45;ran&#45;smo&#45;teiv&#45;oam</title>
<polygon fill="lightblue" stroke="black" points="154.37,-46 0.21,-46 0.21,-10 154.37,-10 154.37,-46"/>
<text text-anchor="middle" x="77.29" y="-23.8" font-family="Arial" font-size="14.00">o&#45;ran&#45;smo&#45;teiv&#45;oam</text>
</g>
<!-- ManagedElement -->
<g id="node3" class="node">
<title>ManagedElement</title>
<polygon fill="#3663f0" fill-opacity="0.254902" stroke="black" points="327.15,-46 190.39,-46 190.39,-10 327.15,-10 327.15,-46"/>
<text text-anchor="middle" x="258.77" y="-23.8" font-family="Arial" font-size="14.00">ManagedElement</text>
</g>
<!-- o&#45;ran&#45;smo&#45;teiv&#45;oam&#45;&gt;ManagedElement -->
<g id="edge1" class="edge">
<title>o&#45;ran&#45;smo&#45;teiv&#45;oam&#45;&gt;ManagedElement</title>
<path fill="none" stroke="black" d="M154.4,-28C162.99,-28 171.74,-28 180.34,-28"/>
<polygon fill="black" stroke="black" points="180.35,-31.5 190.35,-28 180.35,-24.5 180.35,-31.5"/>
</g>
<!-- ManagedElement&#45;attributes -->
<g id="node2" class="node">
<title>ManagedElement&#45;attributes</title>
<polygon fill="#3663f0" fill-opacity="0.254902" stroke="black" points="604.96,-56 362.96,-56 362.96,0 604.96,0 604.96,-56"/>
<text text-anchor="start" x="370.96" y="-39.4" font-family="Arial" font-size="14.00">id</text>
<text text-anchor="start" x="559.16" y="-39.4" font-family="Arial" font-size="14.00">string</text>
<text text-anchor="start" x="370.76" y="-23.4" font-family="Arial" font-size="14.00">sourceIds</text>
<text text-anchor="start" x="434.77" y="-23.4" font-family="Arial" font-size="14.00">&lt;&lt; Refer to Module &gt;&gt;</text>
<text text-anchor="start" x="370.96" y="-7.4" font-family="Arial" font-size="14.00"> attributes: </text>
</g>
<!-- ManagedElement&#45;&gt;ManagedElement&#45;attributes -->
<g id="edge2" class="edge">
<title>ManagedElement&#45;&gt;ManagedElement&#45;attributes</title>
<path fill="none" stroke="black" d="M327.03,-28C335.33,-28 344.02,-28 352.87,-28"/>
<polygon fill="black" stroke="black" points="352.92,-31.5 362.92,-28 352.92,-24.5 352.92,-31.5"/>
</g>
</g>
</svg>
