<svg width="646px" height="192px"
 viewBox="0.00 0.00 646.00 192.00" xmlns="http://www.w3.org/2000/svg" xmlns:xlink="http://www.w3.org/1999/xlink">
<g id="graph0" class="graph" transform="scale(1.0 1.0) rotate(0.0) translate(4.0 188.0)">
<title>o&#45;ran&#45;smo&#45;teiv&#45;physical</title>
<polygon fill="white" stroke="transparent" points="-4,4 -4,-188 642,-188 642,4 -4,4"/>
<!-- o&#45;ran&#45;smo&#45;teiv&#45;physical -->
<g id="node1" class="node">
<title>o&#45;ran&#45;smo&#45;teiv&#45;physical</title>
<polygon fill="lightblue" stroke="black" points="163,-109.5 0,-109.5 0,-73.5 163,-73.5 163,-109.5"/>
<text text-anchor="middle" x="81.5" y="-87.8" font-family="Arial" font-size="14.00">o&#45;ran&#45;smo&#45;teiv&#45;physical</text>
</g>
<!-- PhysicalAppliance -->
<g id="node4" class="node">
<title>PhysicalAppliance</title>
<polygon fill="#074ee2" fill-opacity="0.254902" stroke="black" points="331,-148.5 199,-148.5 199,-112.5 331,-112.5 331,-148.5"/>
<text text-anchor="middle" x="265" y="-126.8" font-family="Arial" font-size="14.00">PhysicalAppliance</text>
</g>
<!-- o&#45;ran&#45;smo&#45;teiv&#45;physical&#45;&gt;PhysicalAppliance -->
<g id="edge1" class="edge">
<title>o&#45;ran&#45;smo&#45;teiv&#45;physical&#45;&gt;PhysicalAppliance</title>
<path fill="none" stroke="black" d="M163.17,-108.83C171.74,-110.68 180.44,-112.54 188.94,-114.37"/>
<polygon fill="black" stroke="black" points="188.31,-117.82 198.82,-116.49 189.78,-110.97 188.31,-117.82"/>
</g>
<!-- Site -->
<g id="node5" class="node">
<title>Site</title>
<polygon fill="#074ee2" fill-opacity="0.254902" stroke="black" points="292,-82.5 238,-82.5 238,-46.5 292,-46.5 292,-82.5"/>
<text text-anchor="middle" x="265" y="-60.8" font-family="Arial" font-size="14.00">Site</text>
</g>
<!-- o&#45;ran&#45;smo&#45;teiv&#45;physical&#45;&gt;Site -->
<g id="edge2" class="edge">
<title>o&#45;ran&#45;smo&#45;teiv&#45;physical&#45;&gt;Site</title>
<path fill="none" stroke="black" d="M163.17,-79.5C185.75,-76.14 209.17,-72.66 227.75,-69.89"/>
<polygon fill="black" stroke="black" points="228.44,-73.33 237.82,-68.39 227.41,-66.4 228.44,-73.33"/>
</g>
<!-- PhysicalAppliance&#45;attributes -->
<g id="node2" class="node">
<title>PhysicalAppliance&#45;attributes</title>
<polygon fill="#074ee2" fill-opacity="0.254902" stroke="black" points="638,-184 367,-184 367,-101 638,-101 638,-184"/>
<text text-anchor="start" x="375.5" y="-168.3" font-family="Arial" font-size="14.00">id</text>
<text text-anchor="start" x="595.5" y="-168.3" font-family="Arial" font-size="14.00">string</text>
<text text-anchor="start" x="375.5" y="-153.3" font-family="Arial" font-size="14.00">sourceIds</text>
<text text-anchor="start" x="487.5" y="-153.3" font-family="Arial" font-size="14.00">&lt;&lt; Refer to Module &gt;&gt;</text>
<text text-anchor="start" x="375.5" y="-138.3" font-family="Arial" font-size="14.00"> attributes: </text>
<text text-anchor="start" x="375.5" y="-123.3" font-family="Arial" font-size="14.00"> &#160;&#160;&#160;&#160;&#160;&#160;&#160;modelName</text>
<text text-anchor="start" x="595.5" y="-123.3" font-family="Arial" font-size="14.00">string</text>
<text text-anchor="start" x="375.5" y="-108.3" font-family="Arial" font-size="14.00"> &#160;&#160;&#160;&#160;&#160;&#160;&#160;vendorName</text>
<text text-anchor="start" x="595.5" y="-108.3" font-family="Arial" font-size="14.00">string</text>
</g>
<!-- Site&#45;attributes -->
<g id="node3" class="node">
<title>Site&#45;attributes</title>
<polygon fill="#074ee2" fill-opacity="0.254902" stroke="black" points="635.5,-83 369.5,-83 369.5,0 635.5,0 635.5,-83"/>
<text text-anchor="start" x="377.5" y="-67.3" font-family="Arial" font-size="14.00">id</text>
<text text-anchor="start" x="592.5" y="-67.3" font-family="Arial" font-size="14.00">string</text>
<text text-anchor="start" x="377.5" y="-52.3" font-family="Arial" font-size="14.00">sourceIds</text>
<text text-anchor="start" x="484.5" y="-52.3" font-family="Arial" font-size="14.00">&lt;&lt; Refer to Module &gt;&gt;</text>
<text text-anchor="start" x="377.5" y="-37.3" font-family="Arial" font-size="14.00"> attributes: </text>
<text text-anchor="start" x="377.5" y="-22.3" font-family="Arial" font-size="14.00"> &#160;&#160;&#160;&#160;&#160;&#160;&#160;siteLocation</text>
<text text-anchor="start" x="484.5" y="-22.3" font-family="Arial" font-size="14.00">&lt;&lt; Refer to Module &gt;&gt;</text>
<text text-anchor="start" x="377.5" y="-7.3" font-family="Arial" font-size="14.00"> &#160;&#160;&#160;&#160;&#160;&#160;&#160;siteName</text>
<text text-anchor="start" x="592.5" y="-7.3" font-family="Arial" font-size="14.00">string</text>
</g>
<!-- PhysicalAppliance&#45;&gt;PhysicalAppliance&#45;attributes -->
<g id="edge3" class="edge">
<title>PhysicalAppliance&#45;&gt;PhysicalAppliance&#45;attributes</title>
<path fill="none" stroke="black" d="M331.29,-133.83C339.31,-134.24 347.74,-134.67 356.38,-135.11"/>
<polygon fill="black" stroke="black" points="356.44,-138.61 366.61,-135.63 356.8,-131.62 356.44,-138.61"/>
</g>
<!-- Site&#45;&gt;Site&#45;attributes -->
<g id="edge4" class="edge">
<title>Site&#45;&gt;Site&#45;attributes</title>
<path fill="none" stroke="black" d="M292.1,-61.95C309.41,-60.26 333.63,-57.89 359.49,-55.37"/>
<polygon fill="black" stroke="black" points="359.86,-58.85 369.47,-54.39 359.17,-51.88 359.86,-58.85"/>
</g>
</g>
</svg>
