<svg width="571px" height="61px"
 viewBox="0.00 0.00 571.00 61.00" xmlns="http://www.w3.org/2000/svg" xmlns:xlink="http://www.w3.org/1999/xlink">
<g id="graph0" class="graph" transform="scale(1.0 1.0) rotate(0.0) translate(4.0 57.0)">
<title>o&#45;ran&#45;smo&#45;teiv&#45;oam</title>
<polygon fill="white" stroke="transparent" points="-4,4 -4,-57 567,-57 567,4 -4,4"/>
<!-- o&#45;ran&#45;smo&#45;teiv&#45;oam -->
<g id="node1" class="node">
<title>o&#45;ran&#45;smo&#45;teiv&#45;oam</title>
<polygon fill="lightblue" stroke="black" points="140,-44.5 0,-44.5 0,-8.5 140,-8.5 140,-44.5"/>
<text text-anchor="middle" x="70" y="-22.8" font-family="Arial" font-size="14.00">o&#45;ran&#45;smo&#45;teiv&#45;oam</text>
</g>
<!-- ManagedElement -->
<g id="node3" class="node">
<title>ManagedElement</title>
<polygon fill="#3663f0" fill-opacity="0.254902" stroke="black" points="304,-44.5 176,-44.5 176,-8.5 304,-8.5 304,-44.5"/>
<text text-anchor="middle" x="240" y="-22.8" font-family="Arial" font-size="14.00">ManagedElement</text>
</g>
<!-- o&#45;ran&#45;smo&#45;teiv&#45;oam&#45;&gt;ManagedElement -->
<g id="edge1" class="edge">
<title>o&#45;ran&#45;smo&#45;teiv&#45;oam&#45;&gt;ManagedElement</title>
<path fill="none" stroke="black" d="M140.3,-26.5C148.66,-26.5 157.21,-26.5 165.62,-26.5"/>
<polygon fill="black" stroke="black" points="165.78,-30 175.78,-26.5 165.78,-23 165.78,-30"/>
</g>
<!-- ManagedElement&#45;attributes -->
<g id="node2" class="node">
<title>ManagedElement&#45;attributes</title>
<polygon fill="#3663f0" fill-opacity="0.254902" stroke="black" points="563,-53 340,-53 340,0 563,0 563,-53"/>
<text text-anchor="start" x="348.5" y="-37.3" font-family="Arial" font-size="14.00">id</text>
<text text-anchor="start" x="520.5" y="-37.3" font-family="Arial" font-size="14.00">string</text>
<text text-anchor="start" x="348.5" y="-22.3" font-family="Arial" font-size="14.00">sourceIds</text>
<text text-anchor="start" x="412.5" y="-22.3" font-family="Arial" font-size="14.00">&lt;&lt; Refer to Module &gt;&gt;</text>
<text text-anchor="start" x="348.5" y="-7.3" font-family="Arial" font-size="14.00"> attributes: </text>
</g>
<!-- ManagedElement&#45;&gt;ManagedElement&#45;attributes -->
<g id="edge2" class="edge">
<title>ManagedElement&#45;&gt;ManagedElement&#45;attributes</title>
<path fill="none" stroke="black" d="M304.14,-26.5C312.28,-26.5 320.82,-26.5 329.51,-26.5"/>
<polygon fill="black" stroke="black" points="329.77,-30 339.77,-26.5 329.77,-23 329.77,-30"/>
</g>
</g>
</svg>
