<svg width="715px" height="328px"
 viewBox="0.00 0.00 715.00 327.50" xmlns="http://www.w3.org/2000/svg" xmlns:xlink="http://www.w3.org/1999/xlink">
<g id="graph0" class="graph" transform="scale(1.0 1.0) rotate(0.0) translate(4.0 323.5)">
<title>o&#45;ran&#45;smo&#45;teiv&#45;equipment</title>
<polygon fill="white" stroke="transparent" points="-4,4 -4,-323.5 711,-323.5 711,4 -4,4"/>
<!-- o&#45;ran&#45;smo&#45;teiv&#45;equipment -->
<g id="node1" class="node">
<title>o&#45;ran&#45;smo&#45;teiv&#45;equipment</title>
<polygon fill="lightblue" stroke="black" points="173,-143.5 0,-143.5 0,-107.5 173,-107.5 173,-143.5"/>
<text text-anchor="middle" x="86.5" y="-121.8" font-family="Arial" font-size="14.00">o&#45;ran&#45;smo&#45;teiv&#45;equipment</text>
</g>
<!-- AntennaModule -->
<g id="node4" class="node">
<title>AntennaModule</title>
<polygon fill="#9a38e3" fill-opacity="0.254902" stroke="black" points="321,-199.5 209,-199.5 209,-163.5 321,-163.5 321,-199.5"/>
<text text-anchor="middle" x="265" y="-177.8" font-family="Arial" font-size="14.00">AntennaModule</text>
</g>
<!-- o&#45;ran&#45;smo&#45;teiv&#45;equipment&#45;&gt;AntennaModule -->
<g id="edge1" class="edge">
<title>o&#45;ran&#45;smo&#45;teiv&#45;equipment&#45;&gt;AntennaModule</title>
<path fill="none" stroke="black" d="M144.32,-143.53C161.75,-149.06 181.06,-155.19 198.99,-160.88"/>
<polygon fill="black" stroke="black" points="198.21,-164.3 208.8,-163.98 200.32,-157.62 198.21,-164.3"/>
</g>
<!-- Site -->
<g id="node5" class="node">
<title>Site</title>
<polygon fill="#9a38e3" fill-opacity="0.254902" stroke="black" points="292,-116.5 238,-116.5 238,-80.5 292,-80.5 292,-116.5"/>
<text text-anchor="middle" x="265" y="-94.8" font-family="Arial" font-size="14.00">Site</text>
</g>
<!-- o&#45;ran&#45;smo&#45;teiv&#45;equipment&#45;&gt;Site -->
<g id="edge2" class="edge">
<title>o&#45;ran&#45;smo&#45;teiv&#45;equipment&#45;&gt;Site</title>
<path fill="none" stroke="black" d="M173.16,-112.4C192.47,-109.44 211.95,-106.46 227.89,-104.02"/>
<polygon fill="black" stroke="black" points="228.46,-107.48 237.81,-102.51 227.4,-100.56 228.46,-107.48"/>
</g>
<!-- AntennaModule&#45;attributes -->
<g id="node2" class="node">
<title>AntennaModule&#45;attributes</title>
<polygon fill="#9a38e3" fill-opacity="0.254902" stroke="black" points="707,-319.5 357,-319.5 357,-101.5 707,-101.5 707,-319.5"/>
<text text-anchor="start" x="365" y="-304.3" font-family="Arial" font-size="14.00">id</text>
<text text-anchor="start" x="665" y="-304.3" font-family="Arial" font-size="14.00">string</text>
<text text-anchor="start" x="365" y="-289.3" font-family="Arial" font-size="14.00">sourceIds</text>
<text text-anchor="start" x="561" y="-289.3" font-family="Arial" font-size="14.00">&lt;&lt; Refer to Module &gt;&gt;</text>
<text text-anchor="start" x="365" y="-274.3" font-family="Arial" font-size="14.00"> attributes: </text>
<text text-anchor="start" x="365" y="-259.3" font-family="Arial" font-size="14.00"> &#160;&#160;&#160;&#160;&#160;&#160;&#160;antennaBeamWidth</text>
<text text-anchor="start" x="662" y="-259.3" font-family="Arial" font-size="14.00">uint32</text>
<text text-anchor="start" x="365" y="-244.3" font-family="Arial" font-size="14.00"> &#160;&#160;&#160;&#160;&#160;&#160;&#160;antennaModelNumber</text>
<text text-anchor="start" x="665" y="-244.3" font-family="Arial" font-size="14.00">string</text>
<text text-anchor="start" x="365" y="-229.3" font-family="Arial" font-size="14.00"> &#160;&#160;&#160;&#160;&#160;&#160;&#160;azimuth</text>
<text text-anchor="start" x="636" y="-229.3" font-family="Arial" font-size="14.00">decimal64</text>
<text text-anchor="start" x="365" y="-214.3" font-family="Arial" font-size="14.00"> &#160;&#160;&#160;&#160;&#160;&#160;&#160;electricalAntennaTilt</text>
<text text-anchor="start" x="669" y="-214.3" font-family="Arial" font-size="14.00">int32</text>
<text text-anchor="start" x="365" y="-199.3" font-family="Arial" font-size="14.00"> &#160;&#160;&#160;&#160;&#160;&#160;&#160;geo&#45;location</text>
<text text-anchor="start" x="561" y="-199.3" font-family="Arial" font-size="14.00">&lt;&lt; Refer to Module &gt;&gt;</text>
<text text-anchor="start" x="365" y="-184.3" font-family="Arial" font-size="14.00"> &#160;&#160;&#160;&#160;&#160;&#160;&#160;horizontalBeamWidth</text>
<text text-anchor="start" x="636" y="-184.3" font-family="Arial" font-size="14.00">decimal64</text>
<text text-anchor="start" x="365" y="-169.3" font-family="Arial" font-size="14.00"> &#160;&#160;&#160;&#160;&#160;&#160;&#160;mechanicalAntennaBearing</text>
<text text-anchor="start" x="669" y="-169.3" font-family="Arial" font-size="14.00">int32</text>
<text text-anchor="start" x="365" y="-154.3" font-family="Arial" font-size="14.00"> &#160;&#160;&#160;&#160;&#160;&#160;&#160;mechanicalAntennaTilt</text>
<text text-anchor="start" x="669" y="-154.3" font-family="Arial" font-size="14.00">int32</text>
<text text-anchor="start" x="365" y="-139.3" font-family="Arial" font-size="14.00"> &#160;&#160;&#160;&#160;&#160;&#160;&#160;positionWithinSector</text>
<text text-anchor="start" x="665" y="-139.3" font-family="Arial" font-size="14.00">string</text>
<text text-anchor="start" x="365" y="-124.3" font-family="Arial" font-size="14.00"> &#160;&#160;&#160;&#160;&#160;&#160;&#160;totalTilt</text>
<text text-anchor="start" x="669" y="-124.3" font-family="Arial" font-size="14.00">int32</text>
<text text-anchor="start" x="365" y="-109.3" font-family="Arial" font-size="14.00"> &#160;&#160;&#160;&#160;&#160;&#160;&#160;verticalBeamWidth</text>
<text text-anchor="start" x="636" y="-109.3" font-family="Arial" font-size="14.00">decimal64</text>
</g>
<!-- Site&#45;attributes -->
<g id="node3" class="node">
<title>Site&#45;attributes</title>
<polygon fill="#9a38e3" fill-opacity="0.254902" stroke="black" points="661,-83 403,-83 403,0 661,0 661,-83"/>
<text text-anchor="start" x="411" y="-67.3" font-family="Arial" font-size="14.00">id</text>
<text text-anchor="start" x="619" y="-67.3" font-family="Arial" font-size="14.00">string</text>
<text text-anchor="start" x="411" y="-52.3" font-family="Arial" font-size="14.00">sourceIds</text>
<text text-anchor="start" x="515" y="-52.3" font-family="Arial" font-size="14.00">&lt;&lt; Refer to Module &gt;&gt;</text>
<text text-anchor="start" x="411" y="-37.3" font-family="Arial" font-size="14.00"> attributes: </text>
<text text-anchor="start" x="411" y="-22.3" font-family="Arial" font-size="14.00"> &#160;&#160;&#160;&#160;&#160;&#160;&#160;geo&#45;location</text>
<text text-anchor="start" x="515" y="-22.3" font-family="Arial" font-size="14.00">&lt;&lt; Refer to Module &gt;&gt;</text>
<text text-anchor="start" x="411" y="-7.3" font-family="Arial" font-size="14.00"> &#160;&#160;&#160;&#160;&#160;&#160;&#160;name</text>
<text text-anchor="start" x="619" y="-7.3" font-family="Arial" font-size="14.00">string</text>
</g>
<!-- AntennaModule&#45;&gt;AntennaModule&#45;attributes -->
<g id="edge3" class="edge">
<title>AntennaModule&#45;&gt;AntennaModule&#45;attributes</title>
<path fill="none" stroke="black" d="M321.23,-187.54C329.31,-188.43 337.97,-189.38 347.01,-190.37"/>
<polygon fill="black" stroke="black" points="346.65,-193.85 356.97,-191.45 347.41,-186.89 346.65,-193.85"/>
</g>
<!-- Site&#45;&gt;Site&#45;attributes -->
<g id="edge4" class="edge">
<title>Site&#45;&gt;Site&#45;attributes</title>
<path fill="none" stroke="black" d="M292.38,-92.83C316.64,-87.61 354.59,-79.44 393.15,-71.15"/>
<polygon fill="black" stroke="black" points="393.92,-74.57 402.96,-69.04 392.44,-67.72 393.92,-74.57"/>
</g>
</g>
</svg>
