<svg width="655px" height="1284px"
 viewBox="0.00 0.00 655.00 1284.00" xmlns="http://www.w3.org/2000/svg" xmlns:xlink="http://www.w3.org/1999/xlink">
<g id="graph0" class="graph" transform="scale(1.0 1.0) rotate(0.0) translate(4.0 1280.0)">
<title>o&#45;ran&#45;smo&#45;teiv&#45;ran</title>
<polygon fill="white" stroke="transparent" points="-4,4 -4,-1280 651,-1280 651,4 -4,4"/>
<!-- o&#45;ran&#45;smo&#45;teiv&#45;ran -->
<g id="node1" class="node">
<title>o&#45;ran&#45;smo&#45;teiv&#45;ran</title>
<polygon fill="lightblue" stroke="black" points="131,-611 0,-611 0,-575 131,-575 131,-611"/>
<text text-anchor="middle" x="65.5" y="-589.3" font-family="Arial" font-size="14.00">o&#45;ran&#45;smo&#45;teiv&#45;ran</text>
</g>
<!-- AntennaCapability -->
<g id="node13" class="node">
<title>AntennaCapability</title>
<polygon fill="#366f34" fill-opacity="0.254902" stroke="black" points="305,-1173 175,-1173 175,-1137 305,-1137 305,-1173"/>
<text text-anchor="middle" x="240" y="-1151.3" font-family="Arial" font-size="14.00">AntennaCapability</text>
</g>
<!-- o&#45;ran&#45;smo&#45;teiv&#45;ran&#45;&gt;AntennaCapability -->
<g id="edge1" class="edge">
<title>o&#45;ran&#45;smo&#45;teiv&#45;ran&#45;&gt;AntennaCapability</title>
<path fill="none" stroke="black" d="M67.7,-611.11C72.49,-674.94 93.67,-894.32 167,-1057 179.09,-1083.83 199.36,-1110.49 215.31,-1129.22"/>
<polygon fill="black" stroke="black" points="212.87,-1131.74 222.07,-1136.98 218.15,-1127.14 212.87,-1131.74"/>
</g>
<!-- NRCellCU -->
<g id="node14" class="node">
<title>NRCellCU</title>
<polygon fill="#366f34" fill-opacity="0.254902" stroke="black" points="281,-1048 199,-1048 199,-1012 281,-1012 281,-1048"/>
<text text-anchor="middle" x="240" y="-1026.3" font-family="Arial" font-size="14.00">NRCellCU</text>
</g>
<!-- o&#45;ran&#45;smo&#45;teiv&#45;ran&#45;&gt;NRCellCU -->
<g id="edge2" class="edge">
<title>o&#45;ran&#45;smo&#45;teiv&#45;ran&#45;&gt;NRCellCU</title>
<path fill="none" stroke="black" d="M69.62,-611.02C79.05,-662.87 110.19,-816.01 167,-931 180.2,-957.72 200.55,-984.88 216.25,-1003.97"/>
<polygon fill="black" stroke="black" points="213.77,-1006.47 222.88,-1011.89 219.14,-1001.98 213.77,-1006.47"/>
</g>
<!-- NRCellDU -->
<g id="node15" class="node">
<title>NRCellDU</title>
<polygon fill="#366f34" fill-opacity="0.254902" stroke="black" points="281,-922 199,-922 199,-886 281,-886 281,-922"/>
<text text-anchor="middle" x="240" y="-900.3" font-family="Arial" font-size="14.00">NRCellDU</text>
</g>
<!-- o&#45;ran&#45;smo&#45;teiv&#45;ran&#45;&gt;NRCellDU -->
<g id="edge3" class="edge">
<title>o&#45;ran&#45;smo&#45;teiv&#45;ran&#45;&gt;NRCellDU</title>
<path fill="none" stroke="black" d="M73.36,-611.01C88.11,-648.92 124.97,-739.2 167,-809 181.88,-833.71 201.9,-859.67 217.05,-878.2"/>
<polygon fill="black" stroke="black" points="214.35,-880.43 223.42,-885.91 219.75,-875.97 214.35,-880.43"/>
</g>
<!-- NRSectorCarrier -->
<g id="node16" class="node">
<title>NRSectorCarrier</title>
<polygon fill="#366f34" fill-opacity="0.254902" stroke="black" points="301,-800 179,-800 179,-764 301,-764 301,-800"/>
<text text-anchor="middle" x="240" y="-778.3" font-family="Arial" font-size="14.00">NRSectorCarrier</text>
</g>
<!-- o&#45;ran&#45;smo&#45;teiv&#45;ran&#45;&gt;NRSectorCarrier -->
<g id="edge4" class="edge">
<title>o&#45;ran&#45;smo&#45;teiv&#45;ran&#45;&gt;NRSectorCarrier</title>
<path fill="none" stroke="black" d="M82.75,-611.34C102.53,-633.61 137,-672.25 167,-705 182.79,-722.24 200.75,-741.44 214.78,-756.36"/>
<polygon fill="black" stroke="black" points="212.32,-758.86 221.73,-763.74 217.42,-754.06 212.32,-758.86"/>
</g>
<!-- NearRTRICFunction -->
<g id="node17" class="node">
<title>NearRTRICFunction</title>
<polygon fill="#366f34" fill-opacity="0.254902" stroke="black" points="313,-696 167,-696 167,-660 313,-660 313,-696"/>
<text text-anchor="middle" x="240" y="-674.3" font-family="Arial" font-size="14.00">NearRTRICFunction</text>
</g>
<!-- o&#45;ran&#45;smo&#45;teiv&#45;ran&#45;&gt;NearRTRICFunction -->
<g id="edge5" class="edge">
<title>o&#45;ran&#45;smo&#45;teiv&#45;ran&#45;&gt;NearRTRICFunction</title>
<path fill="none" stroke="black" d="M103.08,-611.03C129.38,-623.99 165.03,-641.55 193.22,-655.44"/>
<polygon fill="black" stroke="black" points="191.95,-658.72 202.47,-660 195.05,-652.44 191.95,-658.72"/>
</g>
<!-- OCUCPFunction -->
<g id="node18" class="node">
<title>OCUCPFunction</title>
<polygon fill="#366f34" fill-opacity="0.254902" stroke="black" points="301,-611 179,-611 179,-575 301,-575 301,-611"/>
<text text-anchor="middle" x="240" y="-589.3" font-family="Arial" font-size="14.00">OCUCPFunction</text>
</g>
<!-- o&#45;ran&#45;smo&#45;teiv&#45;ran&#45;&gt;OCUCPFunction -->
<g id="edge6" class="edge">
<title>o&#45;ran&#45;smo&#45;teiv&#45;ran&#45;&gt;OCUCPFunction</title>
<path fill="none" stroke="black" d="M131.22,-593C143.4,-593 156.18,-593 168.52,-593"/>
<polygon fill="black" stroke="black" points="168.76,-596.5 178.76,-593 168.76,-589.5 168.76,-596.5"/>
</g>
<!-- OCUUPFunction -->
<g id="node19" class="node">
<title>OCUUPFunction</title>
<polygon fill="#366f34" fill-opacity="0.254902" stroke="black" points="301,-522 179,-522 179,-486 301,-486 301,-522"/>
<text text-anchor="middle" x="240" y="-500.3" font-family="Arial" font-size="14.00">OCUUPFunction</text>
</g>
<!-- o&#45;ran&#45;smo&#45;teiv&#45;ran&#45;&gt;OCUUPFunction -->
<g id="edge7" class="edge">
<title>o&#45;ran&#45;smo&#45;teiv&#45;ran&#45;&gt;OCUUPFunction</title>
<path fill="none" stroke="black" d="M101.41,-574.99C128.32,-561.1 165.73,-541.8 194.75,-526.83"/>
<polygon fill="black" stroke="black" points="196.57,-529.83 203.85,-522.14 193.36,-523.61 196.57,-529.83"/>
</g>
<!-- ODUFunction -->
<g id="node20" class="node">
<title>ODUFunction</title>
<polygon fill="#366f34" fill-opacity="0.254902" stroke="black" points="291,-415 189,-415 189,-379 291,-379 291,-415"/>
<text text-anchor="middle" x="240" y="-393.3" font-family="Arial" font-size="14.00">ODUFunction</text>
</g>
<!-- o&#45;ran&#45;smo&#45;teiv&#45;ran&#45;&gt;ODUFunction -->
<g id="edge8" class="edge">
<title>o&#45;ran&#45;smo&#45;teiv&#45;ran&#45;&gt;ODUFunction</title>
<path fill="none" stroke="black" d="M82.06,-574.82C101.72,-551.91 136.66,-511.35 167,-477 183.11,-458.75 201.48,-438.36 215.62,-422.73"/>
<polygon fill="black" stroke="black" points="218.48,-424.78 222.6,-415.02 213.29,-420.08 218.48,-424.78"/>
</g>
<!-- ORUFunction -->
<g id="node21" class="node">
<title>ORUFunction</title>
<polygon fill="#366f34" fill-opacity="0.254902" stroke="black" points="291,-307 189,-307 189,-271 291,-271 291,-307"/>
<text text-anchor="middle" x="240" y="-285.3" font-family="Arial" font-size="14.00">ORUFunction</text>
</g>
<!-- o&#45;ran&#45;smo&#45;teiv&#45;ran&#45;&gt;ORUFunction -->
<g id="edge9" class="edge">
<title>o&#45;ran&#45;smo&#45;teiv&#45;ran&#45;&gt;ORUFunction</title>
<path fill="none" stroke="black" d="M72.6,-574.71C86.16,-535.37 121.27,-440.56 167,-370 179.98,-349.97 197.78,-329.89 212.44,-314.74"/>
<polygon fill="black" stroke="black" points="215.25,-316.87 219.77,-307.29 210.26,-311.96 215.25,-316.87"/>
</g>
<!-- SMO -->
<g id="node22" class="node">
<title>SMO</title>
<polygon fill="#366f34" fill-opacity="0.254902" stroke="black" points="267,-184 213,-184 213,-148 267,-148 267,-184"/>
<text text-anchor="middle" x="240" y="-162.3" font-family="Arial" font-size="14.00">SMO</text>
</g>
<!-- o&#45;ran&#45;smo&#45;teiv&#45;ran&#45;&gt;SMO -->
<g id="edge10" class="edge">
<title>o&#45;ran&#45;smo&#45;teiv&#45;ran&#45;&gt;SMO</title>
<path fill="none" stroke="black" d="M69.68,-574.95C79.18,-523.73 110.25,-373.96 167,-262 179.99,-236.38 199.87,-210.51 215.46,-192.09"/>
<polygon fill="black" stroke="black" points="218.4,-194.04 222.27,-184.18 213.09,-189.47 218.4,-194.04"/>
</g>
<!-- Sector -->
<g id="node23" class="node">
<title>Sector</title>
<polygon fill="#366f34" fill-opacity="0.254902" stroke="black" points="269.5,-107 210.5,-107 210.5,-71 269.5,-71 269.5,-107"/>
<text text-anchor="middle" x="240" y="-85.3" font-family="Arial" font-size="14.00">Sector</text>
</g>
<!-- o&#45;ran&#45;smo&#45;teiv&#45;ran&#45;&gt;Sector -->
<g id="edge11" class="edge">
<title>o&#45;ran&#45;smo&#45;teiv&#45;ran&#45;&gt;Sector</title>
<path fill="none" stroke="black" d="M65.99,-574.73C65.06,-509.54 69.42,-284.48 167,-139 175.68,-126.06 188.93,-115.47 201.71,-107.43"/>
<polygon fill="black" stroke="black" points="203.6,-110.38 210.42,-102.27 200.03,-104.35 203.6,-110.38"/>
</g>
<!-- AntennaCapability&#45;attributes -->
<g id="node2" class="node">
<title>AntennaCapability&#45;attributes</title>
<polygon fill="#366f34" fill-opacity="0.254902" stroke="black" points="642.5,-1276 353.5,-1276 353.5,-1178 642.5,-1178 642.5,-1276"/>
<text text-anchor="start" x="362" y="-1260.8" font-family="Arial" font-size="14.00">id</text>
<text text-anchor="start" x="600" y="-1260.8" font-family="Arial" font-size="14.00">string</text>
<text text-anchor="start" x="362" y="-1245.8" font-family="Arial" font-size="14.00">sourceIds</text>
<text text-anchor="start" x="492" y="-1245.8" font-family="Arial" font-size="14.00">&lt;&lt; Refer to Module &gt;&gt;</text>
<text text-anchor="start" x="362" y="-1230.8" font-family="Arial" font-size="14.00"> attributes: </text>
<text text-anchor="start" x="362" y="-1215.8" font-family="Arial" font-size="14.00"> &#160;&#160;&#160;&#160;&#160;&#160;&#160;eUtranFqBands</text>
<text text-anchor="start" x="600" y="-1215.8" font-family="Arial" font-size="14.00">string</text>
<text text-anchor="start" x="362" y="-1200.8" font-family="Arial" font-size="14.00"> &#160;&#160;&#160;&#160;&#160;&#160;&#160;geranFqBands</text>
<text text-anchor="start" x="600" y="-1200.8" font-family="Arial" font-size="14.00">string</text>
<text text-anchor="start" x="362" y="-1185.8" font-family="Arial" font-size="14.00"> &#160;&#160;&#160;&#160;&#160;&#160;&#160;nRFqBands</text>
<text text-anchor="start" x="600" y="-1185.8" font-family="Arial" font-size="14.00">string</text>
</g>
<!-- NRCellCU&#45;attributes -->
<g id="node3" class="node">
<title>NRCellCU&#45;attributes</title>
<polygon fill="#366f34" fill-opacity="0.254902" stroke="black" points="627.5,-1159.5 368.5,-1159.5 368.5,-1046.5 627.5,-1046.5 627.5,-1159.5"/>
<text text-anchor="start" x="377" y="-1143.8" font-family="Arial" font-size="14.00">id</text>
<text text-anchor="start" x="585" y="-1143.8" font-family="Arial" font-size="14.00">string</text>
<text text-anchor="start" x="377" y="-1128.8" font-family="Arial" font-size="14.00">sourceIds</text>
<text text-anchor="start" x="477" y="-1128.8" font-family="Arial" font-size="14.00">&lt;&lt; Refer to Module &gt;&gt;</text>
<text text-anchor="start" x="377" y="-1113.8" font-family="Arial" font-size="14.00"> attributes: </text>
<text text-anchor="start" x="377" y="-1098.8" font-family="Arial" font-size="14.00"> &#160;&#160;&#160;&#160;&#160;&#160;&#160;cellLocalId</text>
<text text-anchor="start" x="589" y="-1098.8" font-family="Arial" font-size="14.00">int32</text>
<text text-anchor="start" x="377" y="-1083.8" font-family="Arial" font-size="14.00"> &#160;&#160;&#160;&#160;&#160;&#160;&#160;nCI</text>
<text text-anchor="start" x="589" y="-1083.8" font-family="Arial" font-size="14.00">int64</text>
<text text-anchor="start" x="377" y="-1068.8" font-family="Arial" font-size="14.00"> &#160;&#160;&#160;&#160;&#160;&#160;&#160;nRTAC</text>
<text text-anchor="start" x="589" y="-1068.8" font-family="Arial" font-size="14.00">int32</text>
<text text-anchor="start" x="377" y="-1053.8" font-family="Arial" font-size="14.00"> &#160;&#160;&#160;&#160;&#160;&#160;&#160;plmnId</text>
<text text-anchor="start" x="477" y="-1053.8" font-family="Arial" font-size="14.00">&lt;&lt; Refer to Module &gt;&gt;</text>
</g>
<!-- NRCellDU&#45;attributes -->
<g id="node4" class="node">
<title>NRCellDU&#45;attributes</title>
<polygon fill="#366f34" fill-opacity="0.254902" stroke="black" points="627.5,-1028.5 368.5,-1028.5 368.5,-915.5 627.5,-915.5 627.5,-1028.5"/>
<text text-anchor="start" x="377" y="-1012.8" font-family="Arial" font-size="14.00">id</text>
<text text-anchor="start" x="585" y="-1012.8" font-family="Arial" font-size="14.00">string</text>
<text text-anchor="start" x="377" y="-997.8" font-family="Arial" font-size="14.00">sourceIds</text>
<text text-anchor="start" x="477" y="-997.8" font-family="Arial" font-size="14.00">&lt;&lt; Refer to Module &gt;&gt;</text>
<text text-anchor="start" x="377" y="-982.8" font-family="Arial" font-size="14.00"> attributes: </text>
<text text-anchor="start" x="377" y="-967.8" font-family="Arial" font-size="14.00"> &#160;&#160;&#160;&#160;&#160;&#160;&#160;cellLocalId</text>
<text text-anchor="start" x="589" y="-967.8" font-family="Arial" font-size="14.00">int32</text>
<text text-anchor="start" x="377" y="-952.8" font-family="Arial" font-size="14.00"> &#160;&#160;&#160;&#160;&#160;&#160;&#160;nCI</text>
<text text-anchor="start" x="589" y="-952.8" font-family="Arial" font-size="14.00">int64</text>
<text text-anchor="start" x="377" y="-937.8" font-family="Arial" font-size="14.00"> &#160;&#160;&#160;&#160;&#160;&#160;&#160;nRPCI</text>
<text text-anchor="start" x="589" y="-937.8" font-family="Arial" font-size="14.00">int32</text>
<text text-anchor="start" x="377" y="-922.8" font-family="Arial" font-size="14.00"> &#160;&#160;&#160;&#160;&#160;&#160;&#160;nRTAC</text>
<text text-anchor="start" x="589" y="-922.8" font-family="Arial" font-size="14.00">int32</text>
</g>
<!-- NRSectorCarrier&#45;attributes -->
<g id="node5" class="node">
<title>NRSectorCarrier&#45;attributes</title>
<polygon fill="#366f34" fill-opacity="0.254902" stroke="black" points="647,-897 349,-897 349,-769 647,-769 647,-897"/>
<text text-anchor="start" x="357" y="-881.8" font-family="Arial" font-size="14.00">id</text>
<text text-anchor="start" x="604" y="-881.8" font-family="Arial" font-size="14.00">string</text>
<text text-anchor="start" x="357" y="-866.8" font-family="Arial" font-size="14.00">sourceIds</text>
<text text-anchor="start" x="496" y="-866.8" font-family="Arial" font-size="14.00">&lt;&lt; Refer to Module &gt;&gt;</text>
<text text-anchor="start" x="357" y="-851.8" font-family="Arial" font-size="14.00"> attributes: </text>
<text text-anchor="start" x="357" y="-836.8" font-family="Arial" font-size="14.00"> &#160;&#160;&#160;&#160;&#160;&#160;&#160;arfcnDL</text>
<text text-anchor="start" x="608" y="-836.8" font-family="Arial" font-size="14.00">int32</text>
<text text-anchor="start" x="357" y="-821.8" font-family="Arial" font-size="14.00"> &#160;&#160;&#160;&#160;&#160;&#160;&#160;arfcnUL</text>
<text text-anchor="start" x="608" y="-821.8" font-family="Arial" font-size="14.00">int32</text>
<text text-anchor="start" x="357" y="-806.8" font-family="Arial" font-size="14.00"> &#160;&#160;&#160;&#160;&#160;&#160;&#160;bSChannelBwDL</text>
<text text-anchor="start" x="608" y="-806.8" font-family="Arial" font-size="14.00">int32</text>
<text text-anchor="start" x="357" y="-791.8" font-family="Arial" font-size="14.00"> &#160;&#160;&#160;&#160;&#160;&#160;&#160;frequencyDL</text>
<text text-anchor="start" x="608" y="-791.8" font-family="Arial" font-size="14.00">int32</text>
<text text-anchor="start" x="357" y="-776.8" font-family="Arial" font-size="14.00"> &#160;&#160;&#160;&#160;&#160;&#160;&#160;frequencyUL</text>
<text text-anchor="start" x="608" y="-776.8" font-family="Arial" font-size="14.00">int32</text>
</g>
<!-- NearRTRICFunction&#45;attributes -->
<g id="node6" class="node">
<title>NearRTRICFunction&#45;attributes</title>
<polygon fill="#366f34" fill-opacity="0.254902" stroke="black" points="630.5,-750.5 365.5,-750.5 365.5,-667.5 630.5,-667.5 630.5,-750.5"/>
<text text-anchor="start" x="374" y="-734.8" font-family="Arial" font-size="14.00">id</text>
<text text-anchor="start" x="588" y="-734.8" font-family="Arial" font-size="14.00">string</text>
<text text-anchor="start" x="374" y="-719.8" font-family="Arial" font-size="14.00">sourceIds</text>
<text text-anchor="start" x="480" y="-719.8" font-family="Arial" font-size="14.00">&lt;&lt; Refer to Module &gt;&gt;</text>
<text text-anchor="start" x="374" y="-704.8" font-family="Arial" font-size="14.00"> attributes: </text>
<text text-anchor="start" x="374" y="-689.8" font-family="Arial" font-size="14.00"> &#160;&#160;&#160;&#160;&#160;&#160;&#160;nearRtRicId</text>
<text text-anchor="start" x="592" y="-689.8" font-family="Arial" font-size="14.00">int64</text>
<text text-anchor="start" x="374" y="-674.8" font-family="Arial" font-size="14.00"> &#160;&#160;&#160;&#160;&#160;&#160;&#160;pLMNId</text>
<text text-anchor="start" x="480" y="-674.8" font-family="Arial" font-size="14.00">&lt;&lt; Refer to Module &gt;&gt;</text>
</g>
<!-- OCUCPFunction&#45;attributes -->
<g id="node7" class="node">
<title>OCUCPFunction&#45;attributes</title>
<polygon fill="#366f34" fill-opacity="0.254902" stroke="black" points="635.5,-649.5 360.5,-649.5 360.5,-536.5 635.5,-536.5 635.5,-649.5"/>
<text text-anchor="start" x="369" y="-633.8" font-family="Arial" font-size="14.00">id</text>
<text text-anchor="start" x="593" y="-633.8" font-family="Arial" font-size="14.00">string</text>
<text text-anchor="start" x="369" y="-618.8" font-family="Arial" font-size="14.00">sourceIds</text>
<text text-anchor="start" x="485" y="-618.8" font-family="Arial" font-size="14.00">&lt;&lt; Refer to Module &gt;&gt;</text>
<text text-anchor="start" x="369" y="-603.8" font-family="Arial" font-size="14.00"> attributes: </text>
<text text-anchor="start" x="369" y="-588.8" font-family="Arial" font-size="14.00"> &#160;&#160;&#160;&#160;&#160;&#160;&#160;gNBCUName</text>
<text text-anchor="start" x="593" y="-588.8" font-family="Arial" font-size="14.00">string</text>
<text text-anchor="start" x="369" y="-573.8" font-family="Arial" font-size="14.00"> &#160;&#160;&#160;&#160;&#160;&#160;&#160;gNBId</text>
<text text-anchor="start" x="597" y="-573.8" font-family="Arial" font-size="14.00">int64</text>
<text text-anchor="start" x="369" y="-558.8" font-family="Arial" font-size="14.00"> &#160;&#160;&#160;&#160;&#160;&#160;&#160;gNBIdLength</text>
<text text-anchor="start" x="597" y="-558.8" font-family="Arial" font-size="14.00">int32</text>
<text text-anchor="start" x="369" y="-543.8" font-family="Arial" font-size="14.00"> &#160;&#160;&#160;&#160;&#160;&#160;&#160;pLMNId</text>
<text text-anchor="start" x="485" y="-543.8" font-family="Arial" font-size="14.00">&lt;&lt; Refer to Module &gt;&gt;</text>
</g>
<!-- OCUUPFunction&#45;attributes -->
<g id="node8" class="node">
<title>OCUUPFunction&#45;attributes</title>
<polygon fill="#366f34" fill-opacity="0.254902" stroke="black" points="635,-518 361,-518 361,-420 635,-420 635,-518"/>
<text text-anchor="start" x="369" y="-502.8" font-family="Arial" font-size="14.00">id</text>
<text text-anchor="start" x="592" y="-502.8" font-family="Arial" font-size="14.00">string</text>
<text text-anchor="start" x="369" y="-487.8" font-family="Arial" font-size="14.00">sourceIds</text>
<text text-anchor="start" x="484" y="-487.8" font-family="Arial" font-size="14.00">&lt;&lt; Refer to Module &gt;&gt;</text>
<text text-anchor="start" x="369" y="-472.8" font-family="Arial" font-size="14.00"> attributes: </text>
<text text-anchor="start" x="369" y="-457.8" font-family="Arial" font-size="14.00"> &#160;&#160;&#160;&#160;&#160;&#160;&#160;gNBId</text>
<text text-anchor="start" x="596" y="-457.8" font-family="Arial" font-size="14.00">int64</text>
<text text-anchor="start" x="369" y="-442.8" font-family="Arial" font-size="14.00"> &#160;&#160;&#160;&#160;&#160;&#160;&#160;gNBIdLength</text>
<text text-anchor="start" x="596" y="-442.8" font-family="Arial" font-size="14.00">int32</text>
<text text-anchor="start" x="369" y="-427.8" font-family="Arial" font-size="14.00"> &#160;&#160;&#160;&#160;&#160;&#160;&#160;pLMNIdList</text>
<text text-anchor="start" x="619" y="-427.8" font-family="Arial" font-size="14.00">[]</text>
</g>
<!-- ODUFunction&#45;attributes -->
<g id="node9" class="node">
<title>ODUFunction&#45;attributes</title>
<polygon fill="#366f34" fill-opacity="0.254902" stroke="black" points="635,-401.5 361,-401.5 361,-288.5 635,-288.5 635,-401.5"/>
<text text-anchor="start" x="369" y="-385.8" font-family="Arial" font-size="14.00">id</text>
<text text-anchor="start" x="592" y="-385.8" font-family="Arial" font-size="14.00">string</text>
<text text-anchor="start" x="369" y="-370.8" font-family="Arial" font-size="14.00">sourceIds</text>
<text text-anchor="start" x="484" y="-370.8" font-family="Arial" font-size="14.00">&lt;&lt; Refer to Module &gt;&gt;</text>
<text text-anchor="start" x="369" y="-355.8" font-family="Arial" font-size="14.00"> attributes: </text>
<text text-anchor="start" x="369" y="-340.8" font-family="Arial" font-size="14.00"> &#160;&#160;&#160;&#160;&#160;&#160;&#160;dUpLMNId</text>
<text text-anchor="start" x="484" y="-340.8" font-family="Arial" font-size="14.00">&lt;&lt; Refer to Module &gt;&gt;</text>
<text text-anchor="start" x="369" y="-325.8" font-family="Arial" font-size="14.00"> &#160;&#160;&#160;&#160;&#160;&#160;&#160;gNBDUId</text>
<text text-anchor="start" x="596" y="-325.8" font-family="Arial" font-size="14.00">int64</text>
<text text-anchor="start" x="369" y="-310.8" font-family="Arial" font-size="14.00"> &#160;&#160;&#160;&#160;&#160;&#160;&#160;gNBId</text>
<text text-anchor="start" x="596" y="-310.8" font-family="Arial" font-size="14.00">int64</text>
<text text-anchor="start" x="369" y="-295.8" font-family="Arial" font-size="14.00"> &#160;&#160;&#160;&#160;&#160;&#160;&#160;gNBIdLength</text>
<text text-anchor="start" x="596" y="-295.8" font-family="Arial" font-size="14.00">int32</text>
</g>
<!-- ORUFunction&#45;attributes -->
<g id="node10" class="node">
<title>ORUFunction&#45;attributes</title>
<polygon fill="#366f34" fill-opacity="0.254902" stroke="black" points="609.5,-270 386.5,-270 386.5,-202 609.5,-202 609.5,-270"/>
<text text-anchor="start" x="395" y="-254.8" font-family="Arial" font-size="14.00">id</text>
<text text-anchor="start" x="567" y="-254.8" font-family="Arial" font-size="14.00">string</text>
<text text-anchor="start" x="395" y="-239.8" font-family="Arial" font-size="14.00">sourceIds</text>
<text text-anchor="start" x="459" y="-239.8" font-family="Arial" font-size="14.00">&lt;&lt; Refer to Module &gt;&gt;</text>
<text text-anchor="start" x="395" y="-224.8" font-family="Arial" font-size="14.00"> attributes: </text>
<text text-anchor="start" x="395" y="-209.8" font-family="Arial" font-size="14.00"> &#160;&#160;&#160;&#160;&#160;&#160;&#160;oruId</text>
<text text-anchor="start" x="571" y="-209.8" font-family="Arial" font-size="14.00">int64</text>
</g>
<!-- SMO&#45;attributes -->
<g id="node11" class="node">
<title>SMO&#45;attributes</title>
<polygon fill="#366f34" fill-opacity="0.254902" stroke="black" points="625.5,-184 370.5,-184 370.5,-116 625.5,-116 625.5,-184"/>
<text text-anchor="start" x="379" y="-168.8" font-family="Arial" font-size="14.00">id</text>
<text text-anchor="start" x="583" y="-168.8" font-family="Arial" font-size="14.00">string</text>
<text text-anchor="start" x="379" y="-153.8" font-family="Arial" font-size="14.00">sourceIds</text>
<text text-anchor="start" x="475" y="-153.8" font-family="Arial" font-size="14.00">&lt;&lt; Refer to Module &gt;&gt;</text>
<text text-anchor="start" x="379" y="-138.8" font-family="Arial" font-size="14.00"> attributes: </text>
<text text-anchor="start" x="379" y="-123.8" font-family="Arial" font-size="14.00"> &#160;&#160;&#160;&#160;&#160;&#160;&#160;smoName</text>
<text text-anchor="start" x="583" y="-123.8" font-family="Arial" font-size="14.00">string</text>
</g>
<!-- Sector&#45;attributes -->
<g id="node12" class="node">
<title>Sector&#45;attributes</title>
<polygon fill="#366f34" fill-opacity="0.254902" stroke="black" points="632,-98 364,-98 364,0 632,0 632,-98"/>
<text text-anchor="start" x="372" y="-82.8" font-family="Arial" font-size="14.00">id</text>
<text text-anchor="start" x="589" y="-82.8" font-family="Arial" font-size="14.00">string</text>
<text text-anchor="start" x="372" y="-67.8" font-family="Arial" font-size="14.00">sourceIds</text>
<text text-anchor="start" x="481" y="-67.8" font-family="Arial" font-size="14.00">&lt;&lt; Refer to Module &gt;&gt;</text>
<text text-anchor="start" x="372" y="-52.8" font-family="Arial" font-size="14.00"> attributes: </text>
<text text-anchor="start" x="372" y="-37.8" font-family="Arial" font-size="14.00"> &#160;&#160;&#160;&#160;&#160;&#160;&#160;azimuth</text>
<text text-anchor="start" x="557" y="-37.8" font-family="Arial" font-size="14.00">decimal64</text>
<text text-anchor="start" x="372" y="-22.8" font-family="Arial" font-size="14.00"> &#160;&#160;&#160;&#160;&#160;&#160;&#160;geo&#45;location</text>
<text text-anchor="start" x="481" y="-22.8" font-family="Arial" font-size="14.00">&lt;&lt; Refer to Module &gt;&gt;</text>
<text text-anchor="start" x="372" y="-7.8" font-family="Arial" font-size="14.00"> &#160;&#160;&#160;&#160;&#160;&#160;&#160;sectorId</text>
<text text-anchor="start" x="585" y="-7.8" font-family="Arial" font-size="14.00">uint64</text>
</g>
<!-- AntennaCapability&#45;&gt;AntennaCapability&#45;attributes -->
<g id="edge12" class="edge">
<title>AntennaCapability&#45;&gt;AntennaCapability&#45;attributes</title>
<path fill="none" stroke="black" d="M305.27,-1173.08C317.25,-1176.44 330.22,-1180.09 343.59,-1183.85"/>
<polygon fill="black" stroke="black" points="342.8,-1187.27 353.38,-1186.61 344.7,-1180.53 342.8,-1187.27"/>
</g>
<!-- NRCellCU&#45;&gt;NRCellCU&#45;attributes -->
<g id="edge13" class="edge">
<title>NRCellCU&#45;&gt;NRCellCU&#45;attributes</title>
<path fill="none" stroke="black" d="M281.28,-1041.49C302.66,-1047.58 330.33,-1055.47 358.68,-1063.56"/>
<polygon fill="black" stroke="black" points="357.74,-1066.93 368.31,-1066.3 359.66,-1060.2 357.74,-1066.93"/>
</g>
<!-- NRCellDU&#45;&gt;NRCellDU&#45;attributes -->
<g id="edge14" class="edge">
<title>NRCellDU&#45;&gt;NRCellDU&#45;attributes</title>
<path fill="none" stroke="black" d="M281.28,-914.7C302.57,-920.35 330.09,-927.66 358.31,-935.16"/>
<polygon fill="black" stroke="black" points="357.75,-938.63 368.31,-937.82 359.55,-931.87 357.75,-938.63"/>
</g>
<!-- NRSectorCarrier&#45;&gt;NRSectorCarrier&#45;attributes -->
<g id="edge15" class="edge">
<title>NRSectorCarrier&#45;&gt;NRSectorCarrier&#45;attributes</title>
<path fill="none" stroke="black" d="M301.02,-793.96C312.85,-796.31 325.78,-798.89 339.16,-801.56"/>
<polygon fill="black" stroke="black" points="338.49,-804.99 348.98,-803.51 339.86,-798.13 338.49,-804.99"/>
</g>
<!-- NearRTRICFunction&#45;&gt;NearRTRICFunction&#45;attributes -->
<g id="edge16" class="edge">
<title>NearRTRICFunction&#45;&gt;NearRTRICFunction&#45;attributes</title>
<path fill="none" stroke="black" d="M313.33,-686.76C326.55,-688.36 340.75,-690.08 355.18,-691.83"/>
<polygon fill="black" stroke="black" points="354.85,-695.31 365.2,-693.04 355.7,-688.36 354.85,-695.31"/>
</g>
<!-- OCUCPFunction&#45;&gt;OCUCPFunction&#45;attributes -->
<g id="edge17" class="edge">
<title>OCUCPFunction&#45;&gt;OCUCPFunction&#45;attributes</title>
<path fill="none" stroke="black" d="M301.02,-593C316.09,-593 332.94,-593 350.25,-593"/>
<polygon fill="black" stroke="black" points="350.48,-596.5 360.48,-593 350.48,-589.5 350.48,-596.5"/>
</g>
<!-- OCUUPFunction&#45;&gt;OCUUPFunction&#45;attributes -->
<g id="edge18" class="edge">
<title>OCUUPFunction&#45;&gt;OCUUPFunction&#45;attributes</title>
<path fill="none" stroke="black" d="M301.02,-495.79C316.22,-493.72 333.21,-491.39 350.67,-489.01"/>
<polygon fill="black" stroke="black" points="351.56,-492.42 361,-487.59 350.61,-485.48 351.56,-492.42"/>
</g>
<!-- ODUFunction&#45;&gt;ODUFunction&#45;attributes -->
<g id="edge19" class="edge">
<title>ODUFunction&#45;&gt;ODUFunction&#45;attributes</title>
<path fill="none" stroke="black" d="M291.27,-386.79C308.82,-383.22 329.51,-379.02 350.89,-374.68"/>
<polygon fill="black" stroke="black" points="351.65,-378.1 360.75,-372.67 350.26,-371.24 351.65,-378.1"/>
</g>
<!-- ORUFunction&#45;&gt;ORUFunction&#45;attributes -->
<g id="edge20" class="edge">
<title>ORUFunction&#45;&gt;ORUFunction&#45;attributes</title>
<path fill="none" stroke="black" d="M291.27,-278.59C315.74,-273.53 346.3,-267.2 376.32,-260.98"/>
<polygon fill="black" stroke="black" points="377.39,-264.34 386.47,-258.88 375.97,-257.48 377.39,-264.34"/>
</g>
<!-- SMO&#45;&gt;SMO&#45;attributes -->
<g id="edge21" class="edge">
<title>SMO&#45;&gt;SMO&#45;attributes</title>
<path fill="none" stroke="black" d="M267.43,-164.35C290.14,-162.93 324.76,-160.76 360.28,-158.54"/>
<polygon fill="black" stroke="black" points="360.55,-162.03 370.31,-157.92 360.12,-155.05 360.55,-162.03"/>
</g>
<!-- Sector&#45;&gt;Sector&#45;attributes -->
<g id="edge22" class="edge">
<title>Sector&#45;&gt;Sector&#45;attributes</title>
<path fill="none" stroke="black" d="M269.87,-84.49C291.14,-81.17 321.82,-76.37 353.79,-71.38"/>
<polygon fill="black" stroke="black" points="354.4,-74.82 363.74,-69.82 353.32,-67.91 354.4,-74.82"/>
</g>
</g>
</svg>
