<svg width="674px" height="131px"
 viewBox="0.00 0.00 674.00 131.00" xmlns="http://www.w3.org/2000/svg" xmlns:xlink="http://www.w3.org/1999/xlink">
<g id="graph0" class="graph" transform="scale(1.0 1.0) rotate(0.0) translate(4.0 127.0)">
<title>moduleName</title>
<polygon fill="white" stroke="transparent" points="-4,4 -4,-127 670,-127 670,4 -4,4"/>
<!-- o&#45;ran&#45;smo&#45;teiv&#45;oamManagedElement -->
<g id="node1" class="node">
<title>o&#45;ran&#45;smo&#45;teiv&#45;oamManagedElement</title>
<polygon fill="#3663f0" fill-opacity="0.254902" stroke="black" points="429,-123 301,-123 301,-87 429,-87 429,-123"/>
<text text-anchor="middle" x="365" y="-101.3" font-family="Arial" font-size="14.00">ManagedElement</text>
</g>
<!-- o&#45;ran&#45;smo&#45;teiv&#45;ranNearRTRICFunction -->
<g id="node2" class="node">
<title>o&#45;ran&#45;smo&#45;teiv&#45;ranNearRTRICFunction</title>
<polygon fill="#366f34" fill-opacity="0.254902" stroke="black" points="146,-36 0,-36 0,0 146,0 146,-36"/>
<text text-anchor="middle" x="73" y="-14.3" font-family="Arial" font-size="14.00">NearRTRICFunction</text>
</g>
<!-- o&#45;ran&#45;smo&#45;teiv&#45;oamManagedElement&#45;&gt;o&#45;ran&#45;smo&#45;teiv&#45;ranNearRTRICFunction -->
<g id="edge5" class="edge">
<title>o&#45;ran&#45;smo&#45;teiv&#45;oamManagedElement&#45;&gt;o&#45;ran&#45;smo&#45;teiv&#45;ranNearRTRICFunction</title>
<path fill="none" stroke="#528b8b" d="M300.98,-94.17C268.02,-88.33 227.44,-79.91 192,-69 166.91,-61.27 139.86,-50.15 117.9,-40.35"/>
<polygon fill="#528b8b" stroke="#528b8b" points="108.51,-36.1 119.47,-36.12 113.06,-38.16 117.62,-40.22 117.62,-40.22 117.62,-40.22 113.06,-38.16 115.76,-44.32 108.51,-36.1 108.51,-36.1"/>
<text text-anchor="middle" x="228" y="-57.8" font-family="Arial" font-size="14.00">MANAGES</text>
<text text-anchor="middle" x="96.01" y="-39.9" font-family="Arial" font-size="14.00">1..1</text>
<text text-anchor="middle" x="289.98" y="-97.97" font-family="Arial" font-size="14.00">0..*</text>
</g>
<!-- o&#45;ran&#45;smo&#45;teiv&#45;ranOCUCPFunction -->
<g id="node3" class="node">
<title>o&#45;ran&#45;smo&#45;teiv&#45;ranOCUCPFunction</title>
<polygon fill="#366f34" fill-opacity="0.254902" stroke="black" points="286,-36 164,-36 164,0 286,0 286,-36"/>
<text text-anchor="middle" x="225" y="-14.3" font-family="Arial" font-size="14.00">OCUCPFunction</text>
</g>
<!-- o&#45;ran&#45;smo&#45;teiv&#45;oamManagedElement&#45;&gt;o&#45;ran&#45;smo&#45;teiv&#45;ranOCUCPFunction -->
<g id="edge4" class="edge">
<title>o&#45;ran&#45;smo&#45;teiv&#45;oamManagedElement&#45;&gt;o&#45;ran&#45;smo&#45;teiv&#45;ranOCUCPFunction</title>
<path fill="none" stroke="#528b8b" d="M323.48,-86.98C312.03,-81.73 299.79,-75.58 289,-69 276.34,-61.28 263.27,-51.46 252.28,-42.58"/>
<polygon fill="#528b8b" stroke="#528b8b" points="244.31,-36.01 254.89,-38.9 248.17,-39.19 252.03,-42.37 252.03,-42.37 252.03,-42.37 248.17,-39.19 249.17,-45.84 244.31,-36.01 244.31,-36.01"/>
<text text-anchor="middle" x="325" y="-57.8" font-family="Arial" font-size="14.00">MANAGES</text>
<text text-anchor="middle" x="231.81" y="-39.81" font-family="Arial" font-size="14.00">1..1</text>
<text text-anchor="middle" x="312.48" y="-75.78" font-family="Arial" font-size="14.00">0..*</text>
</g>
<!-- o&#45;ran&#45;smo&#45;teiv&#45;ranOCUUPFunction -->
<g id="node4" class="node">
<title>o&#45;ran&#45;smo&#45;teiv&#45;ranOCUUPFunction</title>
<polygon fill="#366f34" fill-opacity="0.254902" stroke="black" points="426,-36 304,-36 304,0 426,0 426,-36"/>
<text text-anchor="middle" x="365" y="-14.3" font-family="Arial" font-size="14.00">OCUUPFunction</text>
</g>
<!-- o&#45;ran&#45;smo&#45;teiv&#45;oamManagedElement&#45;&gt;o&#45;ran&#45;smo&#45;teiv&#45;ranOCUUPFunction -->
<g id="edge3" class="edge">
<title>o&#45;ran&#45;smo&#45;teiv&#45;oamManagedElement&#45;&gt;o&#45;ran&#45;smo&#45;teiv&#45;ranOCUUPFunction</title>
<path fill="none" stroke="#528b8b" d="M365,-86.8C365,-75.16 365,-59.55 365,-46.24"/>
<polygon fill="#528b8b" stroke="#528b8b" points="365,-36.18 369.5,-46.18 365,-41.18 365,-46.18 365,-46.18 365,-46.18 365,-41.18 360.5,-46.18 365,-36.18 365,-36.18"/>
<text text-anchor="middle" x="401" y="-57.8" font-family="Arial" font-size="14.00">MANAGES</text>
<text text-anchor="middle" x="352.5" y="-39.98" font-family="Arial" font-size="14.00">1..1</text>
<text text-anchor="middle" x="354" y="-75.6" font-family="Arial" font-size="14.00">0..*</text>
</g>
<!-- o&#45;ran&#45;smo&#45;teiv&#45;ranODUFunction -->
<g id="node5" class="node">
<title>o&#45;ran&#45;smo&#45;teiv&#45;ranODUFunction</title>
<polygon fill="#366f34" fill-opacity="0.254902" stroke="black" points="546,-36 444,-36 444,0 546,0 546,-36"/>
<text text-anchor="middle" x="495" y="-14.3" font-family="Arial" font-size="14.00">ODUFunction</text>
</g>
<!-- o&#45;ran&#45;smo&#45;teiv&#45;oamManagedElement&#45;&gt;o&#45;ran&#45;smo&#45;teiv&#45;ranODUFunction -->
<g id="edge2" class="edge">
<title>o&#45;ran&#45;smo&#45;teiv&#45;oamManagedElement&#45;&gt;o&#45;ran&#45;smo&#45;teiv&#45;ranODUFunction</title>
<path fill="none" stroke="#528b8b" d="M408.48,-86.83C419.46,-81.74 430.98,-75.7 441,-69 451.95,-61.68 462.85,-52.14 471.95,-43.36"/>
<polygon fill="#528b8b" stroke="#528b8b" points="479.13,-36.23 475.2,-46.47 475.58,-39.75 472.04,-43.27 472.04,-43.27 472.04,-43.27 475.58,-39.75 468.87,-40.08 479.13,-36.23 479.13,-36.23"/>
<text text-anchor="middle" x="496" y="-57.8" font-family="Arial" font-size="14.00">MANAGES</text>
<text text-anchor="middle" x="466.63" y="-40.03" font-family="Arial" font-size="14.00">1..1</text>
<text text-anchor="middle" x="397.48" y="-75.63" font-family="Arial" font-size="14.00">0..*</text>
</g>
<!-- o&#45;ran&#45;smo&#45;teiv&#45;ranORUFunction -->
<g id="node6" class="node">
<title>o&#45;ran&#45;smo&#45;teiv&#45;ranORUFunction</title>
<polygon fill="#366f34" fill-opacity="0.254902" stroke="black" points="666,-36 564,-36 564,0 666,0 666,-36"/>
<text text-anchor="middle" x="615" y="-14.3" font-family="Arial" font-size="14.00">ORUFunction</text>
</g>
<!-- o&#45;ran&#45;smo&#45;teiv&#45;oamManagedElement&#45;&gt;o&#45;ran&#45;smo&#45;teiv&#45;ranORUFunction -->
<g id="edge1" class="edge">
<title>o&#45;ran&#45;smo&#45;teiv&#45;oamManagedElement&#45;&gt;o&#45;ran&#45;smo&#45;teiv&#45;ranORUFunction</title>
<path fill="none" stroke="#528b8b" d="M429.13,-96.5C461.93,-91.27 501.99,-82.71 536,-69 552.96,-62.17 570.28,-51.67 584.37,-42.05"/>
<polygon fill="#528b8b" stroke="#528b8b" points="592.69,-36.22 587.09,-45.64 588.6,-39.09 584.51,-41.96 584.51,-41.96 584.51,-41.96 588.6,-39.09 581.92,-38.27 592.69,-36.22 592.69,-36.22"/>
<text text-anchor="middle" x="599" y="-57.8" font-family="Arial" font-size="14.00">MANAGES</text>
<text text-anchor="middle" x="580.19" y="-40.02" font-family="Arial" font-size="14.00">1..1</text>
<text text-anchor="middle" x="440.13" y="-100.3" font-family="Arial" font-size="14.00">0..*</text>
</g>
</g>
</svg>
