<svg width="419px" height="44px"
 viewBox="0.00 0.00 419.00 44.00" xmlns="http://www.w3.org/2000/svg" xmlns:xlink="http://www.w3.org/1999/xlink">
<g id="graph0" class="graph" transform="scale(1.0 1.0) rotate(0.0) translate(4.0 40.0)">
<title>o&#45;ran&#45;smo&#45;teiv&#45;oam</title>
<polygon fill="white" stroke="transparent" points="-4,4 -4,-40 415,-40 415,4 -4,4"/>
<!-- o&#45;ran&#45;smo&#45;teiv&#45;oam -->
<g id="node1" class="node">
<title>o&#45;ran&#45;smo&#45;teiv&#45;oam</title>
<polygon fill="lightblue" stroke="black" points="136,-36 0,-36 0,0 136,0 136,-36"/>
<text text-anchor="middle" x="68" y="-14.3" font-family="Arial" font-size="14.00">o&#45;ran&#45;smo&#45;teiv&#45;oam</text>
</g>
<!-- ManagedElement -->
<g id="node3" class="node">
<title>ManagedElement</title>
<polygon fill="lightgray" stroke="black" points="296,-36 172,-36 172,0 296,0 296,-36"/>
<text text-anchor="middle" x="234" y="-14.3" font-family="Arial" font-size="14.00">ManagedElement</text>
</g>
<!-- o&#45;ran&#45;smo&#45;teiv&#45;oam&#45;&gt;ManagedElement -->
<g id="edge1" class="edge">
<title>o&#45;ran&#45;smo&#45;teiv&#45;oam&#45;&gt;ManagedElement</title>
<path fill="none" stroke="black" d="M136.18,-18C144.61,-18 153.25,-18 161.74,-18"/>
<polygon fill="black" stroke="black" points="161.99,-21.5 171.99,-18 161.99,-14.5 161.99,-21.5"/>
</g>
<!-- ManagedElement&#45;attributes -->
<g id="node2" class="node">
<title>ManagedElement&#45;attributes</title>
<polygon fill="lightgray" stroke="black" points="411,-36 332,-36 332,0 411,0 411,-36"/>
<polygon fill="#eeeeee" stroke="transparent" points="341.5,-6 341.5,-29 360.5,-29 360.5,-6 341.5,-6"/>
<text text-anchor="start" x="345.5" y="-13.8" font-family="Arial" font-size="14.00">id</text>
<polygon fill="#eeeeee" stroke="transparent" points="360.5,-6 360.5,-29 402.5,-29 402.5,-6 360.5,-6"/>
<text text-anchor="start" x="364.5" y="-13.8" font-family="Arial" font-size="14.00">string</text>
<polygon fill="none" stroke="black" points="340,-5.5 340,-30.5 403,-30.5 403,-5.5 340,-5.5"/>
</g>
<!-- ManagedElement&#45;&gt;ManagedElement&#45;attributes -->
<g id="edge2" class="edge">
<title>ManagedElement&#45;&gt;ManagedElement&#45;attributes</title>
<path fill="none" stroke="black" d="M296.01,-18C304.7,-18 313.54,-18 321.95,-18"/>
<polygon fill="black" stroke="black" points="321.95,-21.5 331.95,-18 321.95,-14.5 321.95,-21.5"/>
</g>
</g>
</svg>
