<svg width="238px" height="218px"
 viewBox="0.00 0.00 238.00 218.00" xmlns="http://www.w3.org/2000/svg" xmlns:xlink="http://www.w3.org/1999/xlink">
<g id="graph0" class="graph" transform="scale(1.0 1.0) rotate(0.0) translate(4.0 214.0)">
<title>moduleName</title>
<polygon fill="white" stroke="transparent" points="-4,4 -4,-214 234,-214 234,4 -4,4"/>
<!-- o&#45;ran&#45;smo&#45;teiv&#45;equipmentAntennaModule -->
<g id="node1" class="node">
<title>o&#45;ran&#45;smo&#45;teiv&#45;equipmentAntennaModule</title>
<polygon fill="#9a38e3" fill-opacity="0.254902" stroke="black" points="184.5,-123 69.5,-123 69.5,-87 184.5,-87 184.5,-123"/>
<text text-anchor="middle" x="127" y="-101.3" font-family="Arial" font-size="14.00">AntennaModule</text>
</g>
<!-- o&#45;ran&#45;smo&#45;teiv&#45;ranAntennaCapability -->
<g id="node2" class="node">
<title>o&#45;ran&#45;smo&#45;teiv&#45;ranAntennaCapability</title>
<polygon fill="#366f34" fill-opacity="0.254902" stroke="black" points="130,-36 0,-36 0,0 130,0 130,-36"/>
<text text-anchor="middle" x="65" y="-14.3" font-family="Arial" font-size="14.00">AntennaCapability</text>
</g>
<!-- o&#45;ran&#45;smo&#45;teiv&#45;equipmentAntennaModule&#45;&gt;o&#45;ran&#45;smo&#45;teiv&#45;ranAntennaCapability -->
<g id="edge2" class="edge">
<title>o&#45;ran&#45;smo&#45;teiv&#45;equipmentAntennaModule&#45;&gt;o&#45;ran&#45;smo&#45;teiv&#45;ranAntennaCapability</title>
<path fill="none" stroke="#528b8b" d="M106.49,-87C100.72,-81.61 94.74,-75.39 90,-69 84.65,-61.8 79.91,-53.28 76.03,-45.33"/>
<polygon fill="#528b8b" stroke="#528b8b" points="71.74,-36.05 80.02,-43.24 73.84,-40.59 75.94,-45.13 75.94,-45.13 75.94,-45.13 73.84,-40.59 71.85,-47.02 71.74,-36.05 71.74,-36.05"/>
<text text-anchor="middle" x="120" y="-57.8" font-family="Arial" font-size="14.00">SERVES</text>
<text text-anchor="middle" x="60.74" y="-39.85" font-family="Arial" font-size="14.00">0..*</text>
<text text-anchor="middle" x="95.49" y="-75.8" font-family="Arial" font-size="14.00">0..*</text>
</g>
<!-- o&#45;ran&#45;smo&#45;teiv&#45;ranNRCellDU -->
<g id="node3" class="node">
<title>o&#45;ran&#45;smo&#45;teiv&#45;ranNRCellDU</title>
<polygon fill="#366f34" fill-opacity="0.254902" stroke="black" points="230,-36 148,-36 148,0 230,0 230,-36"/>
<text text-anchor="middle" x="189" y="-14.3" font-family="Arial" font-size="14.00">NRCellDU</text>
</g>
<!-- o&#45;ran&#45;smo&#45;teiv&#45;equipmentAntennaModule&#45;&gt;o&#45;ran&#45;smo&#45;teiv&#45;ranNRCellDU -->
<g id="edge1" class="edge">
<title>o&#45;ran&#45;smo&#45;teiv&#45;equipmentAntennaModule&#45;&gt;o&#45;ran&#45;smo&#45;teiv&#45;ranNRCellDU</title>
<path fill="none" stroke="#528b8b" d="M139.55,-86.8C148.45,-74.59 160.56,-57.99 170.56,-44.28"/>
<polygon fill="#528b8b" stroke="#528b8b" points="176.47,-36.18 174.21,-46.91 173.53,-40.22 170.58,-44.25 170.58,-44.25 170.58,-44.25 173.53,-40.22 166.94,-41.6 176.47,-36.18 176.47,-36.18"/>
<text text-anchor="middle" x="191" y="-57.8" font-family="Arial" font-size="14.00">SERVES</text>
<text text-anchor="middle" x="165.47" y="-39.98" font-family="Arial" font-size="14.00">1..*</text>
<text text-anchor="middle" x="128.55" y="-75.6" font-family="Arial" font-size="14.00">0..*</text>
</g>
<!-- o&#45;ran&#45;smo&#45;teiv&#45;ranSector -->
<g id="node4" class="node">
<title>o&#45;ran&#45;smo&#45;teiv&#45;ranSector</title>
<polygon fill="#366f34" fill-opacity="0.254902" stroke="black" points="156.5,-210 97.5,-210 97.5,-174 156.5,-174 156.5,-210"/>
<text text-anchor="middle" x="127" y="-188.3" font-family="Arial" font-size="14.00">Sector</text>
</g>
<!-- o&#45;ran&#45;smo&#45;teiv&#45;ranSector&#45;&gt;o&#45;ran&#45;smo&#45;teiv&#45;equipmentAntennaModule -->
<g id="edge3" class="edge">
<title>o&#45;ran&#45;smo&#45;teiv&#45;ranSector&#45;&gt;o&#45;ran&#45;smo&#45;teiv&#45;equipmentAntennaModule</title>
<path fill="none" stroke="#528b8b" d="M127,-173.8C127,-162.16 127,-146.55 127,-133.24"/>
<polygon fill="#528b8b" stroke="#528b8b" points="127,-123.18 131.5,-133.18 127,-128.18 127,-133.18 127,-133.18 127,-133.18 127,-128.18 122.5,-133.18 127,-123.18 127,-123.18"/>
<text text-anchor="middle" x="158.5" y="-144.8" font-family="Arial" font-size="14.00">GROUPS</text>
<text text-anchor="middle" x="114.5" y="-126.98" font-family="Arial" font-size="14.00">0..1</text>
<text text-anchor="middle" x="116" y="-162.6" font-family="Arial" font-size="14.00">0..*</text>
</g>
</g>
</svg>
