<svg width="252px" height="222px"
 viewBox="0.00 0.00 251.58 221.60" xmlns="http://www.w3.org/2000/svg" xmlns:xlink="http://www.w3.org/1999/xlink">
<g id="graph0" class="graph" transform="scale(1.0 1.0) rotate(0.0) translate(4.0 217.6)">
<title>moduleName</title>
<polygon fill="white" stroke="transparent" points="-4,4 -4,-217.6 247.58,-217.6 247.58,4 -4,4"/>
<!-- o&#45;ran&#45;smo&#45;teiv&#45;equipmentAntennaModule -->
<g id="node1" class="node">
<title>o&#45;ran&#45;smo&#45;teiv&#45;equipmentAntennaModule</title>
<polygon fill="#9a38e3" fill-opacity="0.254902" stroke="black" points="196.67,-124.8 73.91,-124.8 73.91,-88.8 196.67,-88.8 196.67,-124.8"/>
<text text-anchor="middle" x="135.29" y="-102.6" font-family="Arial" font-size="14.00">AntennaModule</text>
</g>
<!-- o&#45;ran&#45;smo&#45;teiv&#45;ranAntennaCapability -->
<g id="node2" class="node">
<title>o&#45;ran&#45;smo&#45;teiv&#45;ranAntennaCapability</title>
<polygon fill="#366f34" fill-opacity="0.254902" stroke="black" points="140.37,-36 0.21,-36 0.21,0 140.37,0 140.37,-36"/>
<text text-anchor="middle" x="70.29" y="-13.8" font-family="Arial" font-size="14.00">AntennaCapability</text>
</g>
<!-- o&#45;ran&#45;smo&#45;teiv&#45;equipmentAntennaModule&#45;&gt;o&#45;ran&#45;smo&#45;teiv&#45;ranAntennaCapability -->
<g id="edge2" class="edge">
<title>o&#45;ran&#45;smo&#45;teiv&#45;equipmentAntennaModule&#45;&gt;o&#45;ran&#45;smo&#45;teiv&#45;ranAntennaCapability</title>
<path fill="none" stroke="#528b8b" d="M122.45,-88.65C113.01,-76.05 100.03,-58.72 89.38,-44.5"/>
<polygon fill="#528b8b" stroke="#528b8b" points="83.1,-36.11 92.7,-41.42 86.1,-40.12 89.1,-44.12 89.1,-44.12 89.1,-44.12 86.1,-40.12 85.5,-46.82 83.1,-36.11 83.1,-36.11"/>
<text text-anchor="middle" x="138.68" y="-58.2" font-family="Arial" font-size="14.00">SERVES</text>
<text text-anchor="middle" x="71.21" y="-40.31" font-family="Arial" font-size="14.00">0..*</text>
<text text-anchor="middle" x="110.55" y="-76.05" font-family="Arial" font-size="14.00">0..*</text>
</g>
<!-- o&#45;ran&#45;smo&#45;teiv&#45;ranNRCellDU -->
<g id="node3" class="node">
<title>o&#45;ran&#45;smo&#45;teiv&#45;ranNRCellDU</title>
<polygon fill="#366f34" fill-opacity="0.254902" stroke="black" points="243.38,-36 159.2,-36 159.2,0 243.38,0 243.38,-36"/>
<text text-anchor="middle" x="201.29" y="-13.8" font-family="Arial" font-size="14.00">NRCellDU</text>
</g>
<!-- o&#45;ran&#45;smo&#45;teiv&#45;equipmentAntennaModule&#45;&gt;o&#45;ran&#45;smo&#45;teiv&#45;ranNRCellDU -->
<g id="edge1" class="edge">
<title>o&#45;ran&#45;smo&#45;teiv&#45;equipmentAntennaModule&#45;&gt;o&#45;ran&#45;smo&#45;teiv&#45;ranNRCellDU</title>
<path fill="none" stroke="#528b8b" d="M155.62,-88.66C161.37,-83.27 167.4,-77.08 172.29,-70.8 178.43,-62.92 184.08,-53.58 188.73,-45.01"/>
<polygon fill="#528b8b" stroke="#528b8b" points="193.35,-36.13 192.72,-47.08 191.04,-40.57 188.73,-45 188.73,-45 188.73,-45 191.04,-40.57 184.74,-42.92 193.35,-36.13 193.35,-36.13"/>
<text text-anchor="middle" x="212.68" y="-58.2" font-family="Arial" font-size="14.00">SERVES</text>
<text text-anchor="middle" x="181.46" y="-40.33" font-family="Arial" font-size="14.00">1..*</text>
<text text-anchor="middle" x="143.72" y="-76.06" font-family="Arial" font-size="14.00">0..*</text>
</g>
<!-- o&#45;ran&#45;smo&#45;teiv&#45;ranSector -->
<g id="node4" class="node">
<title>o&#45;ran&#45;smo&#45;teiv&#45;ranSector</title>
<polygon fill="#366f34" fill-opacity="0.254902" stroke="black" points="165.58,-213.6 105,-213.6 105,-177.6 165.58,-177.6 165.58,-213.6"/>
<text text-anchor="middle" x="135.29" y="-191.4" font-family="Arial" font-size="14.00">Sector</text>
</g>
<!-- o&#45;ran&#45;smo&#45;teiv&#45;ranSector&#45;&gt;o&#45;ran&#45;smo&#45;teiv&#45;equipmentAntennaModule -->
<g id="edge3" class="edge">
<title>o&#45;ran&#45;smo&#45;teiv&#45;ranSector&#45;&gt;o&#45;ran&#45;smo&#45;teiv&#45;equipmentAntennaModule</title>
<path fill="none" stroke="#528b8b" d="M135.29,-177.45C135.29,-165.32 135.29,-148.82 135.29,-134.92"/>
<polygon fill="#528b8b" stroke="#528b8b" points="135.29,-124.91 139.79,-134.91 135.29,-129.91 135.29,-134.91 135.29,-134.91 135.29,-134.91 135.29,-129.91 130.79,-134.91 135.29,-124.91 135.29,-124.91"/>
<text text-anchor="middle" x="166.78" y="-147" font-family="Arial" font-size="14.00">GROUPS</text>
<text text-anchor="middle" x="122.69" y="-129.11" font-family="Arial" font-size="14.00">0..1</text>
<text text-anchor="middle" x="123.39" y="-164.85" font-family="Arial" font-size="14.00">0..*</text>
</g>
</g>
</svg>
