<svg width="167px" height="392px"
 viewBox="0.00 0.00 167.00 392.00" xmlns="http://www.w3.org/2000/svg" xmlns:xlink="http://www.w3.org/1999/xlink">
<g id="graph0" class="graph" transform="scale(1.0 1.0) rotate(0.0) translate(4.0 388.0)">
<title>moduleName</title>
<polygon fill="white" stroke="transparent" points="-4,4 -4,-388 163,-388 163,4 -4,4"/>
<!-- o&#45;ran&#45;smo&#45;teiv&#45;cloudCloudifiedNF -->
<g id="node1" class="node">
<title>o&#45;ran&#45;smo&#45;teiv&#45;cloudCloudifiedNF</title>
<polygon fill="#89240a" fill-opacity="0.254902" stroke="black" points="121,-384 21,-384 21,-348 121,-348 121,-384"/>
<text text-anchor="middle" x="71" y="-362.3" font-family="Arial" font-size="14.00">CloudifiedNF</text>
</g>
<!-- o&#45;ran&#45;smo&#45;teiv&#45;cloudNFDeployment -->
<g id="node2" class="node">
<title>o&#45;ran&#45;smo&#45;teiv&#45;cloudNFDeployment</title>
<polygon fill="#89240a" fill-opacity="0.254902" stroke="black" points="127,-297 15,-297 15,-261 127,-261 127,-297"/>
<text text-anchor="middle" x="71" y="-275.3" font-family="Arial" font-size="14.00">NFDeployment</text>
</g>
<!-- o&#45;ran&#45;smo&#45;teiv&#45;cloudCloudifiedNF&#45;&gt;o&#45;ran&#45;smo&#45;teiv&#45;cloudNFDeployment -->
<g id="edge1" class="edge">
<title>o&#45;ran&#45;smo&#45;teiv&#45;cloudCloudifiedNF&#45;&gt;o&#45;ran&#45;smo&#45;teiv&#45;cloudNFDeployment</title>
<path fill="none" stroke="#528b8b" d="M71,-347.8C71,-336.16 71,-320.55 71,-307.24"/>
<polygon fill="#528b8b" stroke="#528b8b" points="71,-297.18 75.5,-307.18 71,-302.18 71,-307.18 71,-307.18 71,-307.18 71,-302.18 66.5,-307.18 71,-297.18 71,-297.18"/>
<text text-anchor="middle" x="115" y="-318.8" font-family="Arial" font-size="14.00">COMPRISES</text>
<text text-anchor="middle" x="58.5" y="-300.98" font-family="Arial" font-size="14.00">1..1</text>
<text text-anchor="middle" x="60" y="-336.6" font-family="Arial" font-size="14.00">1..*</text>
</g>
<!-- o&#45;ran&#45;smo&#45;teiv&#45;cloudOCloudNamespace -->
<g id="node4" class="node">
<title>o&#45;ran&#45;smo&#45;teiv&#45;cloudOCloudNamespace</title>
<polygon fill="#89240a" fill-opacity="0.254902" stroke="black" points="142,-210 0,-210 0,-174 142,-174 142,-210"/>
<text text-anchor="middle" x="71" y="-188.3" font-family="Arial" font-size="14.00">OCloudNamespace</text>
</g>
<!-- o&#45;ran&#45;smo&#45;teiv&#45;cloudNFDeployment&#45;&gt;o&#45;ran&#45;smo&#45;teiv&#45;cloudOCloudNamespace -->
<g id="edge2" class="edge">
<title>o&#45;ran&#45;smo&#45;teiv&#45;cloudNFDeployment&#45;&gt;o&#45;ran&#45;smo&#45;teiv&#45;cloudOCloudNamespace</title>
<path fill="none" stroke="#528b8b" d="M71,-260.8C71,-249.16 71,-233.55 71,-220.24"/>
<polygon fill="#528b8b" stroke="#528b8b" points="71,-210.18 75.5,-220.18 71,-215.18 71,-220.18 71,-220.18 71,-220.18 71,-215.18 66.5,-220.18 71,-210.18 71,-210.18"/>
<text text-anchor="middle" x="110.5" y="-231.8" font-family="Arial" font-size="14.00">DEPLOYED</text>
<text text-anchor="middle" x="60" y="-213.98" font-family="Arial" font-size="14.00">1..*</text>
<text text-anchor="middle" x="60" y="-249.6" font-family="Arial" font-size="14.00">1..*</text>
</g>
<!-- o&#45;ran&#45;smo&#45;teiv&#45;cloudNodeCluster -->
<g id="node3" class="node">
<title>o&#45;ran&#45;smo&#45;teiv&#45;cloudNodeCluster</title>
<polygon fill="#89240a" fill-opacity="0.254902" stroke="black" points="119,-123 23,-123 23,-87 119,-87 119,-123"/>
<text text-anchor="middle" x="71" y="-101.3" font-family="Arial" font-size="14.00">NodeCluster</text>
</g>
<!-- o&#45;ran&#45;smo&#45;teiv&#45;cloudOCloudSite -->
<g id="node5" class="node">
<title>o&#45;ran&#45;smo&#45;teiv&#45;cloudOCloudSite</title>
<polygon fill="#89240a" fill-opacity="0.254902" stroke="black" points="116,-36 26,-36 26,0 116,0 116,-36"/>
<text text-anchor="middle" x="71" y="-14.3" font-family="Arial" font-size="14.00">OCloudSite</text>
</g>
<!-- o&#45;ran&#45;smo&#45;teiv&#45;cloudNodeCluster&#45;&gt;o&#45;ran&#45;smo&#45;teiv&#45;cloudOCloudSite -->
<g id="edge3" class="edge">
<title>o&#45;ran&#45;smo&#45;teiv&#45;cloudNodeCluster&#45;&gt;o&#45;ran&#45;smo&#45;teiv&#45;cloudOCloudSite</title>
<path fill="none" stroke="#528b8b" d="M71,-86.8C71,-75.16 71,-59.55 71,-46.24"/>
<polygon fill="#528b8b" stroke="#528b8b" points="71,-36.18 75.5,-46.18 71,-41.18 71,-46.18 71,-46.18 71,-46.18 71,-41.18 66.5,-46.18 71,-36.18 71,-36.18"/>
<text text-anchor="middle" x="106" y="-57.8" font-family="Arial" font-size="14.00">LOCATED</text>
<text text-anchor="middle" x="60" y="-39.98" font-family="Arial" font-size="14.00">1..*</text>
<text text-anchor="middle" x="60" y="-75.6" font-family="Arial" font-size="14.00">1..*</text>
</g>
<!-- o&#45;ran&#45;smo&#45;teiv&#45;cloudOCloudNamespace&#45;&gt;o&#45;ran&#45;smo&#45;teiv&#45;cloudNodeCluster -->
<g id="edge4" class="edge">
<title>o&#45;ran&#45;smo&#45;teiv&#45;cloudOCloudNamespace&#45;&gt;o&#45;ran&#45;smo&#45;teiv&#45;cloudNodeCluster</title>
<path fill="none" stroke="#528b8b" d="M71,-173.8C71,-162.16 71,-146.55 71,-133.24"/>
<polygon fill="#528b8b" stroke="#528b8b" points="71,-123.18 75.5,-133.18 71,-128.18 71,-133.18 71,-133.18 71,-133.18 71,-128.18 66.5,-133.18 71,-123.18 71,-123.18"/>
<text text-anchor="middle" x="110.5" y="-144.8" font-family="Arial" font-size="14.00">DEPLOYED</text>
<text text-anchor="middle" x="60" y="-126.98" font-family="Arial" font-size="14.00">1..*</text>
<text text-anchor="middle" x="58.5" y="-162.6" font-family="Arial" font-size="14.00">1..1</text>
</g>
</g>
</svg>
