<svg width="693px" height="202px"
 viewBox="0.00 0.00 692.95 202.00" xmlns="http://www.w3.org/2000/svg" xmlns:xlink="http://www.w3.org/1999/xlink">
<g id="graph0" class="graph" transform="scale(1.0 1.0) rotate(0.0) translate(4.0 198.0)">
<title>o&#45;ran&#45;smo&#45;teiv&#45;physical</title>
<polygon fill="white" stroke="transparent" points="-4,4 -4,-198 688.95,-198 688.95,4 -4,4"/>
<!-- o&#45;ran&#45;smo&#45;teiv&#45;physical -->
<g id="node1" class="node">
<title>o&#45;ran&#45;smo&#45;teiv&#45;physical</title>
<polygon fill="lightblue" stroke="black" points="176.96,-115 0.01,-115 0.01,-79 176.96,-79 176.96,-115"/>
<text text-anchor="middle" x="88.49" y="-92.8" font-family="Arial" font-size="14.00">o&#45;ran&#45;smo&#45;teiv&#45;physical</text>
</g>
<!-- PhysicalAppliance -->
<g id="node4" class="node">
<title>PhysicalAppliance</title>
<polygon fill="#074ee2" fill-opacity="0.254902" stroke="black" points="347.94,-155 212.98,-155 212.98,-119 347.94,-119 347.94,-155"/>
<text text-anchor="middle" x="280.46" y="-132.8" font-family="Arial" font-size="14.00">PhysicalAppliance</text>
</g>
<!-- o&#45;ran&#45;smo&#45;teiv&#45;physical&#45;&gt;PhysicalAppliance -->
<g id="edge1" class="edge">
<title>o&#45;ran&#45;smo&#45;teiv&#45;physical&#45;&gt;PhysicalAppliance</title>
<path fill="none" stroke="black" d="M175.03,-115.01C184.36,-116.98 193.81,-118.97 203.02,-120.9"/>
<polygon fill="black" stroke="black" points="202.4,-124.35 212.9,-122.99 203.84,-117.5 202.4,-124.35"/>
</g>
<!-- Site -->
<g id="node5" class="node">
<title>Site</title>
<polygon fill="#074ee2" fill-opacity="0.254902" stroke="black" points="307.46,-88 253.46,-88 253.46,-52 307.46,-52 307.46,-88"/>
<text text-anchor="middle" x="280.46" y="-65.8" font-family="Arial" font-size="14.00">Site</text>
</g>
<!-- o&#45;ran&#45;smo&#45;teiv&#45;physical&#45;&gt;Site -->
<g id="edge2" class="edge">
<title>o&#45;ran&#45;smo&#45;teiv&#45;physical&#45;&gt;Site</title>
<path fill="none" stroke="black" d="M176.97,-84.57C200.47,-81.23 224.58,-77.8 243.52,-75.11"/>
<polygon fill="black" stroke="black" points="244.05,-78.57 253.46,-73.7 243.07,-71.64 244.05,-78.57"/>
</g>
<!-- PhysicalAppliance&#45;attributes -->
<g id="node2" class="node">
<title>PhysicalAppliance&#45;attributes</title>
<polygon fill="#074ee2" fill-opacity="0.254902" stroke="black" points="684.95,-194 383.95,-194 383.95,-106 684.95,-106 684.95,-194"/>
<text text-anchor="start" x="392.45" y="-177.4" font-family="Arial" font-size="14.00">id</text>
<text text-anchor="start" x="639.66" y="-177.4" font-family="Arial" font-size="14.00">string</text>
<text text-anchor="start" x="392.45" y="-161.4" font-family="Arial" font-size="14.00">sourceIds</text>
<text text-anchor="start" x="515.27" y="-161.4" font-family="Arial" font-size="14.00">&lt;&lt; Refer to Module &gt;&gt;</text>
<text text-anchor="start" x="392.45" y="-145.4" font-family="Arial" font-size="14.00"> attributes: </text>
<text text-anchor="start" x="392.45" y="-129.4" font-family="Arial" font-size="14.00"> &#160;&#160;&#160;&#160;&#160;&#160;&#160;modelName</text>
<text text-anchor="start" x="639.66" y="-129.4" font-family="Arial" font-size="14.00">string</text>
<text text-anchor="start" x="392.36" y="-113.4" font-family="Arial" font-size="14.00"> &#160;&#160;&#160;&#160;&#160;&#160;&#160;vendorName</text>
<text text-anchor="start" x="639.66" y="-113.4" font-family="Arial" font-size="14.00">string</text>
</g>
<!-- Site&#45;attributes -->
<g id="node3" class="node">
<title>Site&#45;attributes</title>
<polygon fill="#074ee2" fill-opacity="0.254902" stroke="black" points="680.45,-88 388.45,-88 388.45,0 680.45,0 680.45,-88"/>
<text text-anchor="start" x="396.45" y="-71.4" font-family="Arial" font-size="14.00">id</text>
<text text-anchor="start" x="634.66" y="-71.4" font-family="Arial" font-size="14.00">string</text>
<text text-anchor="start" x="396.45" y="-55.4" font-family="Arial" font-size="14.00">sourceIds</text>
<text text-anchor="start" x="510.27" y="-55.4" font-family="Arial" font-size="14.00">&lt;&lt; Refer to Module &gt;&gt;</text>
<text text-anchor="start" x="396.45" y="-39.4" font-family="Arial" font-size="14.00"> attributes: </text>
<text text-anchor="start" x="396.06" y="-23.4" font-family="Arial" font-size="14.00"> &#160;&#160;&#160;&#160;&#160;&#160;&#160;siteLocation</text>
<text text-anchor="start" x="510.27" y="-23.4" font-family="Arial" font-size="14.00">&lt;&lt; Refer to Module &gt;&gt;</text>
<text text-anchor="start" x="396.45" y="-7.4" font-family="Arial" font-size="14.00"> &#160;&#160;&#160;&#160;&#160;&#160;&#160;siteName</text>
<text text-anchor="start" x="634.66" y="-7.4" font-family="Arial" font-size="14.00">string</text>
</g>
<!-- PhysicalAppliance&#45;&gt;PhysicalAppliance&#45;attributes -->
<g id="edge3" class="edge">
<title>PhysicalAppliance&#45;&gt;PhysicalAppliance&#45;attributes</title>
<path fill="none" stroke="black" d="M348,-140.43C356.16,-140.85 364.75,-141.3 373.58,-141.75"/>
<polygon fill="black" stroke="black" points="373.47,-145.25 383.64,-142.27 373.83,-138.26 373.47,-145.25"/>
</g>
<!-- Site&#45;&gt;Site&#45;attributes -->
<g id="edge4" class="edge">
<title>Site&#45;&gt;Site&#45;attributes</title>
<path fill="none" stroke="black" d="M307.48,-67.32C325.4,-65.47 350.85,-62.84 378.25,-60.01"/>
<polygon fill="black" stroke="black" points="378.83,-63.47 388.42,-58.96 378.11,-56.51 378.83,-63.47"/>
</g>
</g>
</svg>
