<svg width="735px" height="328px"
 viewBox="0.00 0.00 735.00 327.50" xmlns="http://www.w3.org/2000/svg" xmlns:xlink="http://www.w3.org/1999/xlink">
<g id="graph0" class="graph" transform="scale(1.0 1.0) rotate(0.0) translate(4.0 323.5)">
<title>o&#45;ran&#45;smo&#45;teiv&#45;equipment</title>
<polygon fill="white" stroke="transparent" points="-4,4 -4,-323.5 731,-323.5 731,4 -4,4"/>
<!-- o&#45;ran&#45;smo&#45;teiv&#45;equipment -->
<g id="node1" class="node">
<title>o&#45;ran&#45;smo&#45;teiv&#45;equipment</title>
<polygon fill="lightblue" stroke="black" points="179,-143.5 0,-143.5 0,-107.5 179,-107.5 179,-143.5"/>
<text text-anchor="middle" x="89.5" y="-121.8" font-family="Arial" font-size="14.00">o&#45;ran&#45;smo&#45;teiv&#45;equipment</text>
</g>
<!-- AntennaModule -->
<g id="node4" class="node">
<title>AntennaModule</title>
<polygon fill="#9a38e3" fill-opacity="0.254902" stroke="black" points="330,-199.5 215,-199.5 215,-163.5 330,-163.5 330,-199.5"/>
<text text-anchor="middle" x="272.5" y="-177.8" font-family="Arial" font-size="14.00">AntennaModule</text>
</g>
<!-- o&#45;ran&#45;smo&#45;teiv&#45;equipment&#45;&gt;AntennaModule -->
<g id="edge1" class="edge">
<title>o&#45;ran&#45;smo&#45;teiv&#45;equipment&#45;&gt;AntennaModule</title>
<path fill="none" stroke="black" d="M148.77,-143.53C166.72,-149.08 186.63,-155.24 205.09,-160.95"/>
<polygon fill="black" stroke="black" points="204.3,-164.37 214.89,-163.98 206.37,-157.69 204.3,-164.37"/>
</g>
<!-- Site -->
<g id="node5" class="node">
<title>Site</title>
<polygon fill="#9a38e3" fill-opacity="0.254902" stroke="black" points="299.5,-116.5 245.5,-116.5 245.5,-80.5 299.5,-80.5 299.5,-116.5"/>
<text text-anchor="middle" x="272.5" y="-94.8" font-family="Arial" font-size="14.00">Site</text>
</g>
<!-- o&#45;ran&#45;smo&#45;teiv&#45;equipment&#45;&gt;Site -->
<g id="edge2" class="edge">
<title>o&#45;ran&#45;smo&#45;teiv&#45;equipment&#45;&gt;Site</title>
<path fill="none" stroke="black" d="M179.14,-112.28C198.98,-109.32 218.94,-106.34 235.2,-103.91"/>
<polygon fill="black" stroke="black" points="235.94,-107.34 245.31,-102.41 234.91,-100.42 235.94,-107.34"/>
</g>
<!-- AntennaModule&#45;attributes -->
<g id="node2" class="node">
<title>AntennaModule&#45;attributes</title>
<polygon fill="#9a38e3" fill-opacity="0.254902" stroke="black" points="727,-319.5 366,-319.5 366,-101.5 727,-101.5 727,-319.5"/>
<text text-anchor="start" x="374.5" y="-304.3" font-family="Arial" font-size="14.00">id</text>
<text text-anchor="start" x="684.5" y="-304.3" font-family="Arial" font-size="14.00">string</text>
<text text-anchor="start" x="374.5" y="-289.3" font-family="Arial" font-size="14.00">sourceIds</text>
<text text-anchor="start" x="576.5" y="-289.3" font-family="Arial" font-size="14.00">&lt;&lt; Refer to Module &gt;&gt;</text>
<text text-anchor="start" x="374.5" y="-274.3" font-family="Arial" font-size="14.00"> attributes: </text>
<text text-anchor="start" x="374.5" y="-259.3" font-family="Arial" font-size="14.00"> &#160;&#160;&#160;&#160;&#160;&#160;&#160;antennaBeamWidth</text>
<text text-anchor="start" x="680.5" y="-259.3" font-family="Arial" font-size="14.00">uint32</text>
<text text-anchor="start" x="374.5" y="-244.3" font-family="Arial" font-size="14.00"> &#160;&#160;&#160;&#160;&#160;&#160;&#160;antennaModelNumber</text>
<text text-anchor="start" x="684.5" y="-244.3" font-family="Arial" font-size="14.00">string</text>
<text text-anchor="start" x="374.5" y="-229.3" font-family="Arial" font-size="14.00"> &#160;&#160;&#160;&#160;&#160;&#160;&#160;azimuth</text>
<text text-anchor="start" x="652.5" y="-229.3" font-family="Arial" font-size="14.00">decimal64</text>
<text text-anchor="start" x="374.5" y="-214.3" font-family="Arial" font-size="14.00"> &#160;&#160;&#160;&#160;&#160;&#160;&#160;electricalAntennaTilt</text>
<text text-anchor="start" x="688.5" y="-214.3" font-family="Arial" font-size="14.00">int32</text>
<text text-anchor="start" x="374.5" y="-199.3" font-family="Arial" font-size="14.00"> &#160;&#160;&#160;&#160;&#160;&#160;&#160;geo&#45;location</text>
<text text-anchor="start" x="576.5" y="-199.3" font-family="Arial" font-size="14.00">&lt;&lt; Refer to Module &gt;&gt;</text>
<text text-anchor="start" x="374.5" y="-184.3" font-family="Arial" font-size="14.00"> &#160;&#160;&#160;&#160;&#160;&#160;&#160;horizontalBeamWidth</text>
<text text-anchor="start" x="652.5" y="-184.3" font-family="Arial" font-size="14.00">decimal64</text>
<text text-anchor="start" x="374.5" y="-169.3" font-family="Arial" font-size="14.00"> &#160;&#160;&#160;&#160;&#160;&#160;&#160;mechanicalAntennaBearing</text>
<text text-anchor="start" x="688.5" y="-169.3" font-family="Arial" font-size="14.00">int32</text>
<text text-anchor="start" x="374.5" y="-154.3" font-family="Arial" font-size="14.00"> &#160;&#160;&#160;&#160;&#160;&#160;&#160;mechanicalAntennaTilt</text>
<text text-anchor="start" x="688.5" y="-154.3" font-family="Arial" font-size="14.00">int32</text>
<text text-anchor="start" x="374.5" y="-139.3" font-family="Arial" font-size="14.00"> &#160;&#160;&#160;&#160;&#160;&#160;&#160;positionWithinSector</text>
<text text-anchor="start" x="684.5" y="-139.3" font-family="Arial" font-size="14.00">string</text>
<text text-anchor="start" x="374.5" y="-124.3" font-family="Arial" font-size="14.00"> &#160;&#160;&#160;&#160;&#160;&#160;&#160;totalTilt</text>
<text text-anchor="start" x="688.5" y="-124.3" font-family="Arial" font-size="14.00">int32</text>
<text text-anchor="start" x="374.5" y="-109.3" font-family="Arial" font-size="14.00"> &#160;&#160;&#160;&#160;&#160;&#160;&#160;verticalBeamWidth</text>
<text text-anchor="start" x="652.5" y="-109.3" font-family="Arial" font-size="14.00">decimal64</text>
</g>
<!-- Site&#45;attributes -->
<g id="node3" class="node">
<title>Site&#45;attributes</title>
<polygon fill="#9a38e3" fill-opacity="0.254902" stroke="black" points="680.5,-83 412.5,-83 412.5,0 680.5,0 680.5,-83"/>
<text text-anchor="start" x="420.5" y="-67.3" font-family="Arial" font-size="14.00">id</text>
<text text-anchor="start" x="637.5" y="-67.3" font-family="Arial" font-size="14.00">string</text>
<text text-anchor="start" x="420.5" y="-52.3" font-family="Arial" font-size="14.00">sourceIds</text>
<text text-anchor="start" x="529.5" y="-52.3" font-family="Arial" font-size="14.00">&lt;&lt; Refer to Module &gt;&gt;</text>
<text text-anchor="start" x="420.5" y="-37.3" font-family="Arial" font-size="14.00"> attributes: </text>
<text text-anchor="start" x="420.5" y="-22.3" font-family="Arial" font-size="14.00"> &#160;&#160;&#160;&#160;&#160;&#160;&#160;geo&#45;location</text>
<text text-anchor="start" x="529.5" y="-22.3" font-family="Arial" font-size="14.00">&lt;&lt; Refer to Module &gt;&gt;</text>
<text text-anchor="start" x="420.5" y="-7.3" font-family="Arial" font-size="14.00"> &#160;&#160;&#160;&#160;&#160;&#160;&#160;name</text>
<text text-anchor="start" x="637.5" y="-7.3" font-family="Arial" font-size="14.00">string</text>
</g>
<!-- AntennaModule&#45;&gt;AntennaModule&#45;attributes -->
<g id="edge3" class="edge">
<title>AntennaModule&#45;&gt;AntennaModule&#45;attributes</title>
<path fill="none" stroke="black" d="M330.19,-187.54C338.16,-188.39 346.7,-189.3 355.6,-190.25"/>
<polygon fill="black" stroke="black" points="355.48,-193.76 365.8,-191.34 356.22,-186.8 355.48,-193.76"/>
</g>
<!-- Site&#45;&gt;Site&#45;attributes -->
<g id="edge4" class="edge">
<title>Site&#45;&gt;Site&#45;attributes</title>
<path fill="none" stroke="black" d="M299.58,-93.03C324.15,-87.89 363.01,-79.74 402.65,-71.44"/>
<polygon fill="black" stroke="black" points="403.39,-74.86 412.46,-69.38 401.96,-68 403.39,-74.86"/>
</g>
</g>
</svg>
