<svg width="134px" height="218px"
 viewBox="0.00 0.00 134.00 218.00" xmlns="http://www.w3.org/2000/svg" xmlns:xlink="http://www.w3.org/1999/xlink">
<g id="graph0" class="graph" transform="scale(1.0 1.0) rotate(0.0) translate(4.0 214.0)">
<title>moduleName</title>
<polygon fill="white" stroke="transparent" points="-4,4 -4,-214 130,-214 130,4 -4,4"/>
<!-- AntennaModule -->
<g id="node1" class="node">
<title>AntennaModule</title>
<polygon fill="#9a38e3" fill-opacity="0.254902" stroke="black" points="119,-123 7,-123 7,-87 119,-87 119,-123"/>
<text text-anchor="middle" x="63" y="-101.3" font-family="Arial" font-size="14.00">AntennaModule</text>
</g>
<!-- AntennaCapability -->
<g id="node2" class="node">
<title>AntennaCapability</title>
<polygon fill="#366f34" fill-opacity="0.254902" stroke="black" points="126,-36 0,-36 0,0 126,0 126,-36"/>
<text text-anchor="middle" x="63" y="-14.3" font-family="Arial" font-size="14.00">AntennaCapability</text>
</g>
<!-- AntennaModule&#45;&gt;AntennaCapability -->
<g id="edge1" class="edge">
<title>AntennaModule&#45;&gt;AntennaCapability</title>
<path fill="none" stroke="#528b8b" d="M63,-86.8C63,-75.16 63,-59.55 63,-46.24"/>
<polygon fill="#528b8b" stroke="#528b8b" points="63,-36.18 67.5,-46.18 63,-41.18 63,-46.18 63,-46.18 63,-46.18 63,-41.18 58.5,-46.18 63,-36.18 63,-36.18"/>
<text text-anchor="middle" x="90.5" y="-57.8" font-family="Arial" font-size="14.00">SERVES</text>
<text text-anchor="middle" x="52.5" y="-39.98" font-family="Arial" font-size="14.00">0..*</text>
<text text-anchor="middle" x="52.5" y="-75.6" font-family="Arial" font-size="14.00">0..*</text>
</g>
<!-- Sector -->
<g id="node3" class="node">
<title>Sector</title>
<polygon fill="#366f34" fill-opacity="0.254902" stroke="black" points="91,-210 35,-210 35,-174 91,-174 91,-210"/>
<text text-anchor="middle" x="63" y="-188.3" font-family="Arial" font-size="14.00">Sector</text>
</g>
<!-- Sector&#45;&gt;AntennaModule -->
<g id="edge2" class="edge">
<title>Sector&#45;&gt;AntennaModule</title>
<path fill="none" stroke="#528b8b" d="M63,-173.8C63,-162.16 63,-146.55 63,-133.24"/>
<polygon fill="#528b8b" stroke="#528b8b" points="63,-123.18 67.5,-133.18 63,-128.18 63,-133.18 63,-133.18 63,-133.18 63,-128.18 58.5,-133.18 63,-123.18 63,-123.18"/>
<text text-anchor="middle" x="93.5" y="-144.8" font-family="Arial" font-size="14.00">GROUPS</text>
<text text-anchor="middle" x="51.5" y="-126.98" font-family="Arial" font-size="14.00">0..1</text>
<text text-anchor="middle" x="52.5" y="-162.6" font-family="Arial" font-size="14.00">0..*</text>
</g>
</g>
</svg>
