<svg width="634px" height="1284px"
 viewBox="0.00 0.00 634.00 1284.00" xmlns="http://www.w3.org/2000/svg" xmlns:xlink="http://www.w3.org/1999/xlink">
<g id="graph0" class="graph" transform="scale(1.0 1.0) rotate(0.0) translate(4.0 1280.0)">
<title>o&#45;ran&#45;smo&#45;teiv&#45;ran</title>
<polygon fill="white" stroke="transparent" points="-4,4 -4,-1280 630,-1280 630,4 -4,4"/>
<!-- o&#45;ran&#45;smo&#45;teiv&#45;ran -->
<g id="node1" class="node">
<title>o&#45;ran&#45;smo&#45;teiv&#45;ran</title>
<polygon fill="lightblue" stroke="black" points="128,-611 0,-611 0,-575 128,-575 128,-611"/>
<text text-anchor="middle" x="64" y="-589.3" font-family="Arial" font-size="14.00">o&#45;ran&#45;smo&#45;teiv&#45;ran</text>
</g>
<!-- AntennaCapability -->
<g id="node13" class="node">
<title>AntennaCapability</title>
<polygon fill="#366f34" fill-opacity="0.254902" stroke="black" points="296.5,-1173 170.5,-1173 170.5,-1137 296.5,-1137 296.5,-1173"/>
<text text-anchor="middle" x="233.5" y="-1151.3" font-family="Arial" font-size="14.00">AntennaCapability</text>
</g>
<!-- o&#45;ran&#45;smo&#45;teiv&#45;ran&#45;&gt;AntennaCapability -->
<g id="edge1" class="edge">
<title>o&#45;ran&#45;smo&#45;teiv&#45;ran&#45;&gt;AntennaCapability</title>
<path fill="none" stroke="black" d="M66.27,-611.05C71.25,-674.67 92.9,-893.46 164,-1057 175.54,-1083.53 194.81,-1110.22 209.99,-1129.03"/>
<polygon fill="black" stroke="black" points="207.36,-1131.35 216.41,-1136.84 212.76,-1126.9 207.36,-1131.35"/>
</g>
<!-- NRCellCU -->
<g id="node14" class="node">
<title>NRCellCU</title>
<polygon fill="#366f34" fill-opacity="0.254902" stroke="black" points="273,-1048 194,-1048 194,-1012 273,-1012 273,-1048"/>
<text text-anchor="middle" x="233.5" y="-1026.3" font-family="Arial" font-size="14.00">NRCellCU</text>
</g>
<!-- o&#45;ran&#45;smo&#45;teiv&#45;ran&#45;&gt;NRCellCU -->
<g id="edge2" class="edge">
<title>o&#45;ran&#45;smo&#45;teiv&#45;ran&#45;&gt;NRCellCU</title>
<path fill="none" stroke="black" d="M68.22,-611.33C77.81,-663.36 108.98,-815.66 164,-931 176.62,-957.46 195.97,-984.64 210.89,-1003.81"/>
<polygon fill="black" stroke="black" points="208.24,-1006.1 217.19,-1011.77 213.73,-1001.75 208.24,-1006.1"/>
</g>
<!-- NRCellDU -->
<g id="node15" class="node">
<title>NRCellDU</title>
<polygon fill="#366f34" fill-opacity="0.254902" stroke="black" points="273,-922 194,-922 194,-886 273,-886 273,-922"/>
<text text-anchor="middle" x="233.5" y="-900.3" font-family="Arial" font-size="14.00">NRCellDU</text>
</g>
<!-- o&#45;ran&#45;smo&#45;teiv&#45;ran&#45;&gt;NRCellDU -->
<g id="edge3" class="edge">
<title>o&#45;ran&#45;smo&#45;teiv&#45;ran&#45;&gt;NRCellDU</title>
<path fill="none" stroke="black" d="M71.95,-611.23C86.71,-649.18 123.22,-738.95 164,-809 178.2,-833.38 197.13,-859.24 211.49,-877.81"/>
<polygon fill="black" stroke="black" points="208.82,-880.08 217.73,-885.8 214.33,-875.77 208.82,-880.08"/>
</g>
<!-- NRSectorCarrier -->
<g id="node16" class="node">
<title>NRSectorCarrier</title>
<polygon fill="#366f34" fill-opacity="0.254902" stroke="black" points="291.5,-800 175.5,-800 175.5,-764 291.5,-764 291.5,-800"/>
<text text-anchor="middle" x="233.5" y="-778.3" font-family="Arial" font-size="14.00">NRSectorCarrier</text>
</g>
<!-- o&#45;ran&#45;smo&#45;teiv&#45;ran&#45;&gt;NRSectorCarrier -->
<g id="edge4" class="edge">
<title>o&#45;ran&#45;smo&#45;teiv&#45;ran&#45;&gt;NRSectorCarrier</title>
<path fill="none" stroke="black" d="M81.1,-611.25C100.68,-633.43 134.73,-671.99 164,-705 179.12,-722.06 196.16,-741.21 209.46,-756.14"/>
<polygon fill="black" stroke="black" points="207.16,-758.83 216.43,-763.97 212.39,-754.17 207.16,-758.83"/>
</g>
<!-- NearRTRICFunction -->
<g id="node17" class="node">
<title>NearRTRICFunction</title>
<polygon fill="#366f34" fill-opacity="0.254902" stroke="black" points="303,-696 164,-696 164,-660 303,-660 303,-696"/>
<text text-anchor="middle" x="233.5" y="-674.3" font-family="Arial" font-size="14.00">NearRTRICFunction</text>
</g>
<!-- o&#45;ran&#45;smo&#45;teiv&#45;ran&#45;&gt;NearRTRICFunction -->
<g id="edge5" class="edge">
<title>o&#45;ran&#45;smo&#45;teiv&#45;ran&#45;&gt;NearRTRICFunction</title>
<path fill="none" stroke="black" d="M100.52,-611.03C126.06,-623.99 160.68,-641.55 188.05,-655.44"/>
<polygon fill="black" stroke="black" points="186.53,-658.6 197.03,-660 189.7,-652.35 186.53,-658.6"/>
</g>
<!-- OCUCPFunction -->
<g id="node18" class="node">
<title>OCUCPFunction</title>
<polygon fill="#366f34" fill-opacity="0.254902" stroke="black" points="292.5,-611 174.5,-611 174.5,-575 292.5,-575 292.5,-611"/>
<text text-anchor="middle" x="233.5" y="-589.3" font-family="Arial" font-size="14.00">OCUCPFunction</text>
</g>
<!-- o&#45;ran&#45;smo&#45;teiv&#45;ran&#45;&gt;OCUCPFunction -->
<g id="edge6" class="edge">
<title>o&#45;ran&#45;smo&#45;teiv&#45;ran&#45;&gt;OCUCPFunction</title>
<path fill="none" stroke="black" d="M128.32,-593C140,-593 152.25,-593 164.07,-593"/>
<polygon fill="black" stroke="black" points="164.33,-596.5 174.33,-593 164.33,-589.5 164.33,-596.5"/>
</g>
<!-- OCUUPFunction -->
<g id="node19" class="node">
<title>OCUUPFunction</title>
<polygon fill="#366f34" fill-opacity="0.254902" stroke="black" points="292.5,-522 174.5,-522 174.5,-486 292.5,-486 292.5,-522"/>
<text text-anchor="middle" x="233.5" y="-500.3" font-family="Arial" font-size="14.00">OCUUPFunction</text>
</g>
<!-- o&#45;ran&#45;smo&#45;teiv&#45;ran&#45;&gt;OCUUPFunction -->
<g id="edge7" class="edge">
<title>o&#45;ran&#45;smo&#45;teiv&#45;ran&#45;&gt;OCUUPFunction</title>
<path fill="none" stroke="black" d="M98.9,-574.99C125.03,-561.1 161.35,-541.8 189.53,-526.83"/>
<polygon fill="black" stroke="black" points="191.18,-529.92 198.37,-522.14 187.89,-523.74 191.18,-529.92"/>
</g>
<!-- ODUFunction -->
<g id="node20" class="node">
<title>ODUFunction</title>
<polygon fill="#366f34" fill-opacity="0.254902" stroke="black" points="283,-415 184,-415 184,-379 283,-379 283,-415"/>
<text text-anchor="middle" x="233.5" y="-393.3" font-family="Arial" font-size="14.00">ODUFunction</text>
</g>
<!-- o&#45;ran&#45;smo&#45;teiv&#45;ran&#45;&gt;ODUFunction -->
<g id="edge8" class="edge">
<title>o&#45;ran&#45;smo&#45;teiv&#45;ran&#45;&gt;ODUFunction</title>
<path fill="none" stroke="black" d="M80.42,-574.91C99.89,-552.08 134.41,-511.61 164,-477 179.48,-458.89 196.95,-438.49 210.37,-422.83"/>
<polygon fill="black" stroke="black" points="213.14,-424.97 216.98,-415.1 207.82,-420.42 213.14,-424.97"/>
</g>
<!-- ORUFunction -->
<g id="node21" class="node">
<title>ORUFunction</title>
<polygon fill="#366f34" fill-opacity="0.254902" stroke="black" points="283,-307 184,-307 184,-271 283,-271 283,-307"/>
<text text-anchor="middle" x="233.5" y="-285.3" font-family="Arial" font-size="14.00">ORUFunction</text>
</g>
<!-- o&#45;ran&#45;smo&#45;teiv&#45;ran&#45;&gt;ORUFunction -->
<g id="edge9" class="edge">
<title>o&#45;ran&#45;smo&#45;teiv&#45;ran&#45;&gt;ORUFunction</title>
<path fill="none" stroke="black" d="M71.08,-574.79C84.59,-535.6 119.46,-441.06 164,-370 176.49,-350.07 193.57,-329.86 207.55,-314.61"/>
<polygon fill="black" stroke="black" points="210.28,-316.82 214.54,-307.12 205.16,-312.05 210.28,-316.82"/>
</g>
<!-- SMO -->
<g id="node22" class="node">
<title>SMO</title>
<polygon fill="#366f34" fill-opacity="0.254902" stroke="black" points="260.5,-184 206.5,-184 206.5,-148 260.5,-148 260.5,-184"/>
<text text-anchor="middle" x="233.5" y="-162.3" font-family="Arial" font-size="14.00">SMO</text>
</g>
<!-- o&#45;ran&#45;smo&#45;teiv&#45;ran&#45;&gt;SMO -->
<g id="edge10" class="edge">
<title>o&#45;ran&#45;smo&#45;teiv&#45;ran&#45;&gt;SMO</title>
<path fill="none" stroke="black" d="M68.28,-574.64C77.93,-523.25 109.02,-374.33 164,-262 176.41,-236.64 195.32,-210.75 210.14,-192.26"/>
<polygon fill="black" stroke="black" points="213.01,-194.27 216.61,-184.31 207.58,-189.85 213.01,-194.27"/>
</g>
<!-- Sector -->
<g id="node23" class="node">
<title>Sector</title>
<polygon fill="#366f34" fill-opacity="0.254902" stroke="black" points="261.5,-107 205.5,-107 205.5,-71 261.5,-71 261.5,-107"/>
<text text-anchor="middle" x="233.5" y="-85.3" font-family="Arial" font-size="14.00">Sector</text>
</g>
<!-- o&#45;ran&#45;smo&#45;teiv&#45;ran&#45;&gt;Sector -->
<g id="edge11" class="edge">
<title>o&#45;ran&#45;smo&#45;teiv&#45;ran&#45;&gt;Sector</title>
<path fill="none" stroke="black" d="M64.54,-574.81C63.75,-509.9 68.43,-285.67 164,-139 172.15,-126.49 184.59,-116.05 196.64,-108"/>
<polygon fill="black" stroke="black" points="198.68,-110.85 205.28,-102.56 194.95,-104.92 198.68,-110.85"/>
</g>
<!-- AntennaCapability&#45;attributes -->
<g id="node2" class="node">
<title>AntennaCapability&#45;attributes</title>
<polygon fill="#366f34" fill-opacity="0.254902" stroke="black" points="622,-1276 343,-1276 343,-1178 622,-1178 622,-1276"/>
<text text-anchor="start" x="351.5" y="-1260.8" font-family="Arial" font-size="14.00">id</text>
<text text-anchor="start" x="580.5" y="-1260.8" font-family="Arial" font-size="14.00">string</text>
<text text-anchor="start" x="351.5" y="-1245.8" font-family="Arial" font-size="14.00">sourceIds</text>
<text text-anchor="start" x="476.5" y="-1245.8" font-family="Arial" font-size="14.00">&lt;&lt; Refer to Module &gt;&gt;</text>
<text text-anchor="start" x="351.5" y="-1230.8" font-family="Arial" font-size="14.00"> attributes: </text>
<text text-anchor="start" x="351.5" y="-1215.8" font-family="Arial" font-size="14.00"> &#160;&#160;&#160;&#160;&#160;&#160;&#160;eUtranFqBands</text>
<text text-anchor="start" x="580.5" y="-1215.8" font-family="Arial" font-size="14.00">string</text>
<text text-anchor="start" x="351.5" y="-1200.8" font-family="Arial" font-size="14.00"> &#160;&#160;&#160;&#160;&#160;&#160;&#160;geranFqBands</text>
<text text-anchor="start" x="580.5" y="-1200.8" font-family="Arial" font-size="14.00">string</text>
<text text-anchor="start" x="351.5" y="-1185.8" font-family="Arial" font-size="14.00"> &#160;&#160;&#160;&#160;&#160;&#160;&#160;nRFqBands</text>
<text text-anchor="start" x="580.5" y="-1185.8" font-family="Arial" font-size="14.00">string</text>
</g>
<!-- NRCellCU&#45;attributes -->
<g id="node3" class="node">
<title>NRCellCU&#45;attributes</title>
<polygon fill="#366f34" fill-opacity="0.254902" stroke="black" points="606.5,-1159.5 358.5,-1159.5 358.5,-1046.5 606.5,-1046.5 606.5,-1159.5"/>
<text text-anchor="start" x="366.5" y="-1143.8" font-family="Arial" font-size="14.00">id</text>
<text text-anchor="start" x="564.5" y="-1143.8" font-family="Arial" font-size="14.00">string</text>
<text text-anchor="start" x="366.5" y="-1128.8" font-family="Arial" font-size="14.00">sourceIds</text>
<text text-anchor="start" x="460.5" y="-1128.8" font-family="Arial" font-size="14.00">&lt;&lt; Refer to Module &gt;&gt;</text>
<text text-anchor="start" x="366.5" y="-1113.8" font-family="Arial" font-size="14.00"> attributes: </text>
<text text-anchor="start" x="366.5" y="-1098.8" font-family="Arial" font-size="14.00"> &#160;&#160;&#160;&#160;&#160;&#160;&#160;cellLocalId</text>
<text text-anchor="start" x="568.5" y="-1098.8" font-family="Arial" font-size="14.00">int32</text>
<text text-anchor="start" x="366.5" y="-1083.8" font-family="Arial" font-size="14.00"> &#160;&#160;&#160;&#160;&#160;&#160;&#160;nCI</text>
<text text-anchor="start" x="568.5" y="-1083.8" font-family="Arial" font-size="14.00">int64</text>
<text text-anchor="start" x="366.5" y="-1068.8" font-family="Arial" font-size="14.00"> &#160;&#160;&#160;&#160;&#160;&#160;&#160;nRTAC</text>
<text text-anchor="start" x="568.5" y="-1068.8" font-family="Arial" font-size="14.00">int32</text>
<text text-anchor="start" x="366.5" y="-1053.8" font-family="Arial" font-size="14.00"> &#160;&#160;&#160;&#160;&#160;&#160;&#160;plmnId</text>
<text text-anchor="start" x="460.5" y="-1053.8" font-family="Arial" font-size="14.00">&lt;&lt; Refer to Module &gt;&gt;</text>
</g>
<!-- NRCellDU&#45;attributes -->
<g id="node4" class="node">
<title>NRCellDU&#45;attributes</title>
<polygon fill="#366f34" fill-opacity="0.254902" stroke="black" points="606.5,-1028.5 358.5,-1028.5 358.5,-915.5 606.5,-915.5 606.5,-1028.5"/>
<text text-anchor="start" x="366.5" y="-1012.8" font-family="Arial" font-size="14.00">id</text>
<text text-anchor="start" x="564.5" y="-1012.8" font-family="Arial" font-size="14.00">string</text>
<text text-anchor="start" x="366.5" y="-997.8" font-family="Arial" font-size="14.00">sourceIds</text>
<text text-anchor="start" x="460.5" y="-997.8" font-family="Arial" font-size="14.00">&lt;&lt; Refer to Module &gt;&gt;</text>
<text text-anchor="start" x="366.5" y="-982.8" font-family="Arial" font-size="14.00"> attributes: </text>
<text text-anchor="start" x="366.5" y="-967.8" font-family="Arial" font-size="14.00"> &#160;&#160;&#160;&#160;&#160;&#160;&#160;cellLocalId</text>
<text text-anchor="start" x="568.5" y="-967.8" font-family="Arial" font-size="14.00">int32</text>
<text text-anchor="start" x="366.5" y="-952.8" font-family="Arial" font-size="14.00"> &#160;&#160;&#160;&#160;&#160;&#160;&#160;nCI</text>
<text text-anchor="start" x="568.5" y="-952.8" font-family="Arial" font-size="14.00">int64</text>
<text text-anchor="start" x="366.5" y="-937.8" font-family="Arial" font-size="14.00"> &#160;&#160;&#160;&#160;&#160;&#160;&#160;nRPCI</text>
<text text-anchor="start" x="568.5" y="-937.8" font-family="Arial" font-size="14.00">int32</text>
<text text-anchor="start" x="366.5" y="-922.8" font-family="Arial" font-size="14.00"> &#160;&#160;&#160;&#160;&#160;&#160;&#160;nRTAC</text>
<text text-anchor="start" x="568.5" y="-922.8" font-family="Arial" font-size="14.00">int32</text>
</g>
<!-- NRSectorCarrier&#45;attributes -->
<g id="node5" class="node">
<title>NRSectorCarrier&#45;attributes</title>
<polygon fill="#366f34" fill-opacity="0.254902" stroke="black" points="626,-897 339,-897 339,-769 626,-769 626,-897"/>
<text text-anchor="start" x="347.5" y="-881.8" font-family="Arial" font-size="14.00">id</text>
<text text-anchor="start" x="584.5" y="-881.8" font-family="Arial" font-size="14.00">string</text>
<text text-anchor="start" x="347.5" y="-866.8" font-family="Arial" font-size="14.00">sourceIds</text>
<text text-anchor="start" x="480.5" y="-866.8" font-family="Arial" font-size="14.00">&lt;&lt; Refer to Module &gt;&gt;</text>
<text text-anchor="start" x="347.5" y="-851.8" font-family="Arial" font-size="14.00"> attributes: </text>
<text text-anchor="start" x="347.5" y="-836.8" font-family="Arial" font-size="14.00"> &#160;&#160;&#160;&#160;&#160;&#160;&#160;arfcnDL</text>
<text text-anchor="start" x="588.5" y="-836.8" font-family="Arial" font-size="14.00">int32</text>
<text text-anchor="start" x="347.5" y="-821.8" font-family="Arial" font-size="14.00"> &#160;&#160;&#160;&#160;&#160;&#160;&#160;arfcnUL</text>
<text text-anchor="start" x="588.5" y="-821.8" font-family="Arial" font-size="14.00">int32</text>
<text text-anchor="start" x="347.5" y="-806.8" font-family="Arial" font-size="14.00"> &#160;&#160;&#160;&#160;&#160;&#160;&#160;bSChannelBwDL</text>
<text text-anchor="start" x="588.5" y="-806.8" font-family="Arial" font-size="14.00">int32</text>
<text text-anchor="start" x="347.5" y="-791.8" font-family="Arial" font-size="14.00"> &#160;&#160;&#160;&#160;&#160;&#160;&#160;frequencyDL</text>
<text text-anchor="start" x="588.5" y="-791.8" font-family="Arial" font-size="14.00">int32</text>
<text text-anchor="start" x="347.5" y="-776.8" font-family="Arial" font-size="14.00"> &#160;&#160;&#160;&#160;&#160;&#160;&#160;frequencyUL</text>
<text text-anchor="start" x="588.5" y="-776.8" font-family="Arial" font-size="14.00">int32</text>
</g>
<!-- NearRTRICFunction&#45;attributes -->
<g id="node6" class="node">
<title>NearRTRICFunction&#45;attributes</title>
<polygon fill="#366f34" fill-opacity="0.254902" stroke="black" points="610.5,-750.5 354.5,-750.5 354.5,-667.5 610.5,-667.5 610.5,-750.5"/>
<text text-anchor="start" x="362.5" y="-734.8" font-family="Arial" font-size="14.00">id</text>
<text text-anchor="start" x="568.5" y="-734.8" font-family="Arial" font-size="14.00">string</text>
<text text-anchor="start" x="362.5" y="-719.8" font-family="Arial" font-size="14.00">sourceIds</text>
<text text-anchor="start" x="464.5" y="-719.8" font-family="Arial" font-size="14.00">&lt;&lt; Refer to Module &gt;&gt;</text>
<text text-anchor="start" x="362.5" y="-704.8" font-family="Arial" font-size="14.00"> attributes: </text>
<text text-anchor="start" x="362.5" y="-689.8" font-family="Arial" font-size="14.00"> &#160;&#160;&#160;&#160;&#160;&#160;&#160;nearRtRicId</text>
<text text-anchor="start" x="572.5" y="-689.8" font-family="Arial" font-size="14.00">int64</text>
<text text-anchor="start" x="362.5" y="-674.8" font-family="Arial" font-size="14.00"> &#160;&#160;&#160;&#160;&#160;&#160;&#160;pLMNId</text>
<text text-anchor="start" x="464.5" y="-674.8" font-family="Arial" font-size="14.00">&lt;&lt; Refer to Module &gt;&gt;</text>
</g>
<!-- OCUCPFunction&#45;attributes -->
<g id="node7" class="node">
<title>OCUCPFunction&#45;attributes</title>
<polygon fill="#366f34" fill-opacity="0.254902" stroke="black" points="616,-649.5 349,-649.5 349,-536.5 616,-536.5 616,-649.5"/>
<text text-anchor="start" x="357.5" y="-633.8" font-family="Arial" font-size="14.00">id</text>
<text text-anchor="start" x="574.5" y="-633.8" font-family="Arial" font-size="14.00">string</text>
<text text-anchor="start" x="357.5" y="-618.8" font-family="Arial" font-size="14.00">sourceIds</text>
<text text-anchor="start" x="470.5" y="-618.8" font-family="Arial" font-size="14.00">&lt;&lt; Refer to Module &gt;&gt;</text>
<text text-anchor="start" x="357.5" y="-603.8" font-family="Arial" font-size="14.00"> attributes: </text>
<text text-anchor="start" x="357.5" y="-588.8" font-family="Arial" font-size="14.00"> &#160;&#160;&#160;&#160;&#160;&#160;&#160;gNBCUName</text>
<text text-anchor="start" x="574.5" y="-588.8" font-family="Arial" font-size="14.00">string</text>
<text text-anchor="start" x="357.5" y="-573.8" font-family="Arial" font-size="14.00"> &#160;&#160;&#160;&#160;&#160;&#160;&#160;gNBId</text>
<text text-anchor="start" x="578.5" y="-573.8" font-family="Arial" font-size="14.00">int64</text>
<text text-anchor="start" x="357.5" y="-558.8" font-family="Arial" font-size="14.00"> &#160;&#160;&#160;&#160;&#160;&#160;&#160;gNBIdLength</text>
<text text-anchor="start" x="578.5" y="-558.8" font-family="Arial" font-size="14.00">int32</text>
<text text-anchor="start" x="357.5" y="-543.8" font-family="Arial" font-size="14.00"> &#160;&#160;&#160;&#160;&#160;&#160;&#160;pLMNId</text>
<text text-anchor="start" x="470.5" y="-543.8" font-family="Arial" font-size="14.00">&lt;&lt; Refer to Module &gt;&gt;</text>
</g>
<!-- OCUUPFunction&#45;attributes -->
<g id="node8" class="node">
<title>OCUUPFunction&#45;attributes</title>
<polygon fill="#366f34" fill-opacity="0.254902" stroke="black" points="614,-518 351,-518 351,-420 614,-420 614,-518"/>
<text text-anchor="start" x="359.5" y="-502.8" font-family="Arial" font-size="14.00">id</text>
<text text-anchor="start" x="572.5" y="-502.8" font-family="Arial" font-size="14.00">string</text>
<text text-anchor="start" x="359.5" y="-487.8" font-family="Arial" font-size="14.00">sourceIds</text>
<text text-anchor="start" x="468.5" y="-487.8" font-family="Arial" font-size="14.00">&lt;&lt; Refer to Module &gt;&gt;</text>
<text text-anchor="start" x="359.5" y="-472.8" font-family="Arial" font-size="14.00"> attributes: </text>
<text text-anchor="start" x="359.5" y="-457.8" font-family="Arial" font-size="14.00"> &#160;&#160;&#160;&#160;&#160;&#160;&#160;gNBId</text>
<text text-anchor="start" x="576.5" y="-457.8" font-family="Arial" font-size="14.00">int64</text>
<text text-anchor="start" x="359.5" y="-442.8" font-family="Arial" font-size="14.00"> &#160;&#160;&#160;&#160;&#160;&#160;&#160;gNBIdLength</text>
<text text-anchor="start" x="576.5" y="-442.8" font-family="Arial" font-size="14.00">int32</text>
<text text-anchor="start" x="359.5" y="-427.8" font-family="Arial" font-size="14.00"> &#160;&#160;&#160;&#160;&#160;&#160;&#160;pLMNIdList</text>
<text text-anchor="start" x="598.5" y="-427.8" font-family="Arial" font-size="14.00">[]</text>
</g>
<!-- ODUFunction&#45;attributes -->
<g id="node9" class="node">
<title>ODUFunction&#45;attributes</title>
<polygon fill="#366f34" fill-opacity="0.254902" stroke="black" points="614,-401.5 351,-401.5 351,-288.5 614,-288.5 614,-401.5"/>
<text text-anchor="start" x="359.5" y="-385.8" font-family="Arial" font-size="14.00">id</text>
<text text-anchor="start" x="572.5" y="-385.8" font-family="Arial" font-size="14.00">string</text>
<text text-anchor="start" x="359.5" y="-370.8" font-family="Arial" font-size="14.00">sourceIds</text>
<text text-anchor="start" x="468.5" y="-370.8" font-family="Arial" font-size="14.00">&lt;&lt; Refer to Module &gt;&gt;</text>
<text text-anchor="start" x="359.5" y="-355.8" font-family="Arial" font-size="14.00"> attributes: </text>
<text text-anchor="start" x="359.5" y="-340.8" font-family="Arial" font-size="14.00"> &#160;&#160;&#160;&#160;&#160;&#160;&#160;dUpLMNId</text>
<text text-anchor="start" x="468.5" y="-340.8" font-family="Arial" font-size="14.00">&lt;&lt; Refer to Module &gt;&gt;</text>
<text text-anchor="start" x="359.5" y="-325.8" font-family="Arial" font-size="14.00"> &#160;&#160;&#160;&#160;&#160;&#160;&#160;gNBDUId</text>
<text text-anchor="start" x="576.5" y="-325.8" font-family="Arial" font-size="14.00">int64</text>
<text text-anchor="start" x="359.5" y="-310.8" font-family="Arial" font-size="14.00"> &#160;&#160;&#160;&#160;&#160;&#160;&#160;gNBId</text>
<text text-anchor="start" x="576.5" y="-310.8" font-family="Arial" font-size="14.00">int64</text>
<text text-anchor="start" x="359.5" y="-295.8" font-family="Arial" font-size="14.00"> &#160;&#160;&#160;&#160;&#160;&#160;&#160;gNBIdLength</text>
<text text-anchor="start" x="576.5" y="-295.8" font-family="Arial" font-size="14.00">int32</text>
</g>
<!-- ORUFunction&#45;attributes -->
<g id="node10" class="node">
<title>ORUFunction&#45;attributes</title>
<polygon fill="#366f34" fill-opacity="0.254902" stroke="black" points="590,-270 375,-270 375,-202 590,-202 590,-270"/>
<text text-anchor="start" x="383.5" y="-254.8" font-family="Arial" font-size="14.00">id</text>
<text text-anchor="start" x="548.5" y="-254.8" font-family="Arial" font-size="14.00">string</text>
<text text-anchor="start" x="383.5" y="-239.8" font-family="Arial" font-size="14.00">sourceIds</text>
<text text-anchor="start" x="444.5" y="-239.8" font-family="Arial" font-size="14.00">&lt;&lt; Refer to Module &gt;&gt;</text>
<text text-anchor="start" x="383.5" y="-224.8" font-family="Arial" font-size="14.00"> attributes: </text>
<text text-anchor="start" x="383.5" y="-209.8" font-family="Arial" font-size="14.00"> &#160;&#160;&#160;&#160;&#160;&#160;&#160;oruId</text>
<text text-anchor="start" x="552.5" y="-209.8" font-family="Arial" font-size="14.00">int64</text>
</g>
<!-- SMO&#45;attributes -->
<g id="node11" class="node">
<title>SMO&#45;attributes</title>
<polygon fill="#366f34" fill-opacity="0.254902" stroke="black" points="606.5,-184 358.5,-184 358.5,-116 606.5,-116 606.5,-184"/>
<text text-anchor="start" x="366.5" y="-168.8" font-family="Arial" font-size="14.00">id</text>
<text text-anchor="start" x="564.5" y="-168.8" font-family="Arial" font-size="14.00">string</text>
<text text-anchor="start" x="366.5" y="-153.8" font-family="Arial" font-size="14.00">sourceIds</text>
<text text-anchor="start" x="460.5" y="-153.8" font-family="Arial" font-size="14.00">&lt;&lt; Refer to Module &gt;&gt;</text>
<text text-anchor="start" x="366.5" y="-138.8" font-family="Arial" font-size="14.00"> attributes: </text>
<text text-anchor="start" x="366.5" y="-123.8" font-family="Arial" font-size="14.00"> &#160;&#160;&#160;&#160;&#160;&#160;&#160;smoName</text>
<text text-anchor="start" x="564.5" y="-123.8" font-family="Arial" font-size="14.00">string</text>
</g>
<!-- Sector&#45;attributes -->
<g id="node12" class="node">
<title>Sector&#45;attributes</title>
<polygon fill="#366f34" fill-opacity="0.254902" stroke="black" points="611.5,-98 353.5,-98 353.5,0 611.5,0 611.5,-98"/>
<text text-anchor="start" x="361.5" y="-82.8" font-family="Arial" font-size="14.00">id</text>
<text text-anchor="start" x="569.5" y="-82.8" font-family="Arial" font-size="14.00">string</text>
<text text-anchor="start" x="361.5" y="-67.8" font-family="Arial" font-size="14.00">sourceIds</text>
<text text-anchor="start" x="465.5" y="-67.8" font-family="Arial" font-size="14.00">&lt;&lt; Refer to Module &gt;&gt;</text>
<text text-anchor="start" x="361.5" y="-52.8" font-family="Arial" font-size="14.00"> attributes: </text>
<text text-anchor="start" x="361.5" y="-37.8" font-family="Arial" font-size="14.00"> &#160;&#160;&#160;&#160;&#160;&#160;&#160;azimuth</text>
<text text-anchor="start" x="540.5" y="-37.8" font-family="Arial" font-size="14.00">decimal64</text>
<text text-anchor="start" x="361.5" y="-22.8" font-family="Arial" font-size="14.00"> &#160;&#160;&#160;&#160;&#160;&#160;&#160;geo&#45;location</text>
<text text-anchor="start" x="465.5" y="-22.8" font-family="Arial" font-size="14.00">&lt;&lt; Refer to Module &gt;&gt;</text>
<text text-anchor="start" x="361.5" y="-7.8" font-family="Arial" font-size="14.00"> &#160;&#160;&#160;&#160;&#160;&#160;&#160;sectorId</text>
<text text-anchor="start" x="566.5" y="-7.8" font-family="Arial" font-size="14.00">uint64</text>
</g>
<!-- AntennaCapability&#45;&gt;AntennaCapability&#45;attributes -->
<g id="edge12" class="edge">
<title>AntennaCapability&#45;&gt;AntennaCapability&#45;attributes</title>
<path fill="none" stroke="black" d="M296.51,-1173.08C307.9,-1176.4 320.22,-1179.99 332.91,-1183.69"/>
<polygon fill="black" stroke="black" points="332.1,-1187.1 342.68,-1186.54 334.06,-1180.38 332.1,-1187.1"/>
</g>
<!-- NRCellCU&#45;&gt;NRCellCU&#45;attributes -->
<g id="edge13" class="edge">
<title>NRCellCU&#45;&gt;NRCellCU&#45;attributes</title>
<path fill="none" stroke="black" d="M273.09,-1041.41C293.91,-1047.56 320.96,-1055.55 348.64,-1063.73"/>
<polygon fill="black" stroke="black" points="347.87,-1067.16 358.45,-1066.63 349.85,-1060.44 347.87,-1067.16"/>
</g>
<!-- NRCellDU&#45;&gt;NRCellDU&#45;attributes -->
<g id="edge14" class="edge">
<title>NRCellDU&#45;&gt;NRCellDU&#45;attributes</title>
<path fill="none" stroke="black" d="M273.09,-914.62C293.91,-920.36 320.96,-927.8 348.64,-935.42"/>
<polygon fill="black" stroke="black" points="347.88,-938.84 358.45,-938.12 349.74,-932.1 347.88,-938.84"/>
</g>
<!-- NRSectorCarrier&#45;&gt;NRSectorCarrier&#45;attributes -->
<g id="edge15" class="edge">
<title>NRSectorCarrier&#45;&gt;NRSectorCarrier&#45;attributes</title>
<path fill="none" stroke="black" d="M291.79,-793.83C303.26,-796.2 315.81,-798.79 328.82,-801.47"/>
<polygon fill="black" stroke="black" points="328.35,-804.95 338.85,-803.55 329.76,-798.1 328.35,-804.95"/>
</g>
<!-- NearRTRICFunction&#45;&gt;NearRTRICFunction&#45;attributes -->
<g id="edge16" class="edge">
<title>NearRTRICFunction&#45;&gt;NearRTRICFunction&#45;attributes</title>
<path fill="none" stroke="black" d="M303.3,-686.64C316.17,-688.25 330.03,-689.99 344.13,-691.76"/>
<polygon fill="black" stroke="black" points="344.07,-695.28 354.43,-693.05 344.94,-688.33 344.07,-695.28"/>
</g>
<!-- OCUCPFunction&#45;&gt;OCUCPFunction&#45;attributes -->
<g id="edge17" class="edge">
<title>OCUCPFunction&#45;&gt;OCUCPFunction&#45;attributes</title>
<path fill="none" stroke="black" d="M292.72,-593C306.78,-593 322.42,-593 338.51,-593"/>
<polygon fill="black" stroke="black" points="338.57,-596.5 348.57,-593 338.57,-589.5 338.57,-596.5"/>
</g>
<!-- OCUUPFunction&#45;&gt;OCUUPFunction&#45;attributes -->
<g id="edge18" class="edge">
<title>OCUUPFunction&#45;&gt;OCUUPFunction&#45;attributes</title>
<path fill="none" stroke="black" d="M292.72,-495.75C307.39,-493.67 323.78,-491.35 340.6,-488.97"/>
<polygon fill="black" stroke="black" points="341.14,-492.42 350.55,-487.56 340.16,-485.49 341.14,-492.42"/>
</g>
<!-- ODUFunction&#45;&gt;ODUFunction&#45;attributes -->
<g id="edge19" class="edge">
<title>ODUFunction&#45;&gt;ODUFunction&#45;attributes</title>
<path fill="none" stroke="black" d="M283,-386.79C300.05,-383.2 320.15,-378.97 340.92,-374.6"/>
<polygon fill="black" stroke="black" points="341.76,-378 350.82,-372.51 340.31,-371.15 341.76,-378"/>
</g>
<!-- ORUFunction&#45;&gt;ORUFunction&#45;attributes -->
<g id="edge20" class="edge">
<title>ORUFunction&#45;&gt;ORUFunction&#45;attributes</title>
<path fill="none" stroke="black" d="M283,-278.59C306.61,-273.53 336.1,-267.2 365.06,-260.98"/>
<polygon fill="black" stroke="black" points="365.81,-264.4 374.86,-258.88 364.34,-257.56 365.81,-264.4"/>
</g>
<!-- SMO&#45;&gt;SMO&#45;attributes -->
<g id="edge21" class="edge">
<title>SMO&#45;&gt;SMO&#45;attributes</title>
<path fill="none" stroke="black" d="M260.93,-164.29C282.53,-162.89 314.83,-160.8 348.09,-158.64"/>
<polygon fill="black" stroke="black" points="348.68,-162.11 358.44,-157.97 348.23,-155.13 348.68,-162.11"/>
</g>
<!-- Sector&#45;&gt;Sector&#45;attributes -->
<g id="edge22" class="edge">
<title>Sector&#45;&gt;Sector&#45;attributes</title>
<path fill="none" stroke="black" d="M261.88,-84.57C282.39,-81.24 312.17,-76.42 343.21,-71.4"/>
<polygon fill="black" stroke="black" points="344.01,-74.81 353.32,-69.76 342.89,-67.9 344.01,-74.81"/>
</g>
</g>
</svg>
