<svg width="170px" height="399px"
 viewBox="0.00 0.00 169.97 399.20" xmlns="http://www.w3.org/2000/svg" xmlns:xlink="http://www.w3.org/1999/xlink">
<g id="graph0" class="graph" transform="scale(1.0 1.0) rotate(0.0) translate(4.0 395.2)">
<title>moduleName</title>
<polygon fill="white" stroke="transparent" points="-4,4 -4,-395.2 165.97,-395.2 165.97,4 -4,4"/>
<!-- o&#45;ran&#45;smo&#45;teiv&#45;cloudCloudifiedNF -->
<g id="node1" class="node">
<title>o&#45;ran&#45;smo&#45;teiv&#45;cloudCloudifiedNF</title>
<polygon fill="#89240a" fill-opacity="0.254902" stroke="black" points="125.07,-391.2 22.5,-391.2 22.5,-355.2 125.07,-355.2 125.07,-391.2"/>
<text text-anchor="middle" x="73.79" y="-369" font-family="Arial" font-size="14.00">CloudifiedNF</text>
</g>
<!-- o&#45;ran&#45;smo&#45;teiv&#45;cloudNFDeployment -->
<g id="node2" class="node">
<title>o&#45;ran&#45;smo&#45;teiv&#45;cloudNFDeployment</title>
<polygon fill="#89240a" fill-opacity="0.254902" stroke="black" points="133.37,-302.4 14.21,-302.4 14.21,-266.4 133.37,-266.4 133.37,-302.4"/>
<text text-anchor="middle" x="73.79" y="-280.2" font-family="Arial" font-size="14.00">NFDeployment</text>
</g>
<!-- o&#45;ran&#45;smo&#45;teiv&#45;cloudCloudifiedNF&#45;&gt;o&#45;ran&#45;smo&#45;teiv&#45;cloudNFDeployment -->
<g id="edge1" class="edge">
<title>o&#45;ran&#45;smo&#45;teiv&#45;cloudCloudifiedNF&#45;&gt;o&#45;ran&#45;smo&#45;teiv&#45;cloudNFDeployment</title>
<path fill="none" stroke="#528b8b" d="M73.79,-355.05C73.79,-342.92 73.79,-326.42 73.79,-312.52"/>
<polygon fill="#528b8b" stroke="#528b8b" points="73.79,-302.51 78.29,-312.51 73.79,-307.51 73.79,-312.51 73.79,-312.51 73.79,-312.51 73.79,-307.51 69.29,-312.51 73.79,-302.51 73.79,-302.51"/>
<text text-anchor="middle" x="117.88" y="-324.6" font-family="Arial" font-size="14.00">COMPRISES</text>
<text text-anchor="middle" x="61.19" y="-306.71" font-family="Arial" font-size="14.00">1..1</text>
<text text-anchor="middle" x="61.89" y="-342.45" font-family="Arial" font-size="14.00">1..*</text>
</g>
<!-- o&#45;ran&#45;smo&#45;teiv&#45;cloudOCloudNamespace -->
<g id="node4" class="node">
<title>o&#45;ran&#45;smo&#45;teiv&#45;cloudOCloudNamespace</title>
<polygon fill="#89240a" fill-opacity="0.254902" stroke="black" points="147.37,-213.6 0.21,-213.6 0.21,-177.6 147.37,-177.6 147.37,-213.6"/>
<text text-anchor="middle" x="73.79" y="-191.4" font-family="Arial" font-size="14.00">OCloudNamespace</text>
</g>
<!-- o&#45;ran&#45;smo&#45;teiv&#45;cloudNFDeployment&#45;&gt;o&#45;ran&#45;smo&#45;teiv&#45;cloudOCloudNamespace -->
<g id="edge2" class="edge">
<title>o&#45;ran&#45;smo&#45;teiv&#45;cloudNFDeployment&#45;&gt;o&#45;ran&#45;smo&#45;teiv&#45;cloudOCloudNamespace</title>
<path fill="none" stroke="#528b8b" d="M73.79,-266.25C73.79,-254.12 73.79,-237.62 73.79,-223.72"/>
<polygon fill="#528b8b" stroke="#528b8b" points="73.79,-213.71 78.29,-223.71 73.79,-218.71 73.79,-223.71 73.79,-223.71 73.79,-223.71 73.79,-218.71 69.29,-223.71 73.79,-213.71 73.79,-213.71"/>
<text text-anchor="middle" x="114.38" y="-235.8" font-family="Arial" font-size="14.00">DEPLOYED</text>
<text text-anchor="middle" x="61.89" y="-217.91" font-family="Arial" font-size="14.00">1..*</text>
<text text-anchor="middle" x="61.89" y="-253.65" font-family="Arial" font-size="14.00">1..*</text>
</g>
<!-- o&#45;ran&#45;smo&#45;teiv&#45;cloudNodeCluster -->
<g id="node3" class="node">
<title>o&#45;ran&#45;smo&#45;teiv&#45;cloudNodeCluster</title>
<polygon fill="#89240a" fill-opacity="0.254902" stroke="black" points="124.68,-124.8 22.9,-124.8 22.9,-88.8 124.68,-88.8 124.68,-124.8"/>
<text text-anchor="middle" x="73.79" y="-102.6" font-family="Arial" font-size="14.00">NodeCluster</text>
</g>
<!-- o&#45;ran&#45;smo&#45;teiv&#45;cloudOCloudSite -->
<g id="node5" class="node">
<title>o&#45;ran&#45;smo&#45;teiv&#45;cloudOCloudSite</title>
<polygon fill="#89240a" fill-opacity="0.254902" stroke="black" points="120.28,-36 27.3,-36 27.3,0 120.28,0 120.28,-36"/>
<text text-anchor="middle" x="73.79" y="-13.8" font-family="Arial" font-size="14.00">OCloudSite</text>
</g>
<!-- o&#45;ran&#45;smo&#45;teiv&#45;cloudNodeCluster&#45;&gt;o&#45;ran&#45;smo&#45;teiv&#45;cloudOCloudSite -->
<g id="edge3" class="edge">
<title>o&#45;ran&#45;smo&#45;teiv&#45;cloudNodeCluster&#45;&gt;o&#45;ran&#45;smo&#45;teiv&#45;cloudOCloudSite</title>
<path fill="none" stroke="#528b8b" d="M73.79,-88.65C73.79,-76.52 73.79,-60.02 73.79,-46.12"/>
<polygon fill="#528b8b" stroke="#528b8b" points="73.79,-36.11 78.29,-46.11 73.79,-41.11 73.79,-46.11 73.79,-46.11 73.79,-46.11 73.79,-41.11 69.29,-46.11 73.79,-36.11 73.79,-36.11"/>
<text text-anchor="middle" x="108.08" y="-58.2" font-family="Arial" font-size="14.00">LOCATED</text>
<text text-anchor="middle" x="61.89" y="-40.31" font-family="Arial" font-size="14.00">1..*</text>
<text text-anchor="middle" x="61.89" y="-76.05" font-family="Arial" font-size="14.00">1..*</text>
</g>
<!-- o&#45;ran&#45;smo&#45;teiv&#45;cloudOCloudNamespace&#45;&gt;o&#45;ran&#45;smo&#45;teiv&#45;cloudNodeCluster -->
<g id="edge4" class="edge">
<title>o&#45;ran&#45;smo&#45;teiv&#45;cloudOCloudNamespace&#45;&gt;o&#45;ran&#45;smo&#45;teiv&#45;cloudNodeCluster</title>
<path fill="none" stroke="#528b8b" d="M73.79,-177.45C73.79,-165.32 73.79,-148.82 73.79,-134.92"/>
<polygon fill="#528b8b" stroke="#528b8b" points="73.79,-124.91 78.29,-134.91 73.79,-129.91 73.79,-134.91 73.79,-134.91 73.79,-134.91 73.79,-129.91 69.29,-134.91 73.79,-124.91 73.79,-124.91"/>
<text text-anchor="middle" x="114.38" y="-147" font-family="Arial" font-size="14.00">DEPLOYED</text>
<text text-anchor="middle" x="61.89" y="-129.11" font-family="Arial" font-size="14.00">1..*</text>
<text text-anchor="middle" x="61.19" y="-164.85" font-family="Arial" font-size="14.00">1..1</text>
</g>
</g>
</svg>
