<svg width="149px" height="133px"
 viewBox="0.00 0.00 148.98 132.80" xmlns="http://www.w3.org/2000/svg" xmlns:xlink="http://www.w3.org/1999/xlink">
<g id="graph0" class="graph" transform="scale(1.0 1.0) rotate(0.0) translate(4.0 128.8)">
<title>moduleName</title>
<polygon fill="white" stroke="transparent" points="-4,4 -4,-128.8 144.98,-128.8 144.98,4 -4,4"/>
<!-- o&#45;ran&#45;smo&#45;teiv&#45;equipmentAntennaModule -->
<g id="node1" class="node">
<title>o&#45;ran&#45;smo&#45;teiv&#45;equipmentAntennaModule</title>
<polygon fill="#9a38e3" fill-opacity="0.254902" stroke="black" points="122.57,-124.8 -0.19,-124.8 -0.19,-88.8 122.57,-88.8 122.57,-124.8"/>
<text text-anchor="middle" x="61.19" y="-102.6" font-family="Arial" font-size="14.00">AntennaModule</text>
</g>
<!-- o&#45;ran&#45;smo&#45;teiv&#45;equipmentSite -->
<g id="node2" class="node">
<title>o&#45;ran&#45;smo&#45;teiv&#45;equipmentSite</title>
<polygon fill="#9a38e3" fill-opacity="0.254902" stroke="black" points="88.19,-36 34.19,-36 34.19,0 88.19,0 88.19,-36"/>
<text text-anchor="middle" x="61.19" y="-13.8" font-family="Arial" font-size="14.00">Site</text>
</g>
<!-- o&#45;ran&#45;smo&#45;teiv&#45;equipmentAntennaModule&#45;&gt;o&#45;ran&#45;smo&#45;teiv&#45;equipmentSite -->
<g id="edge1" class="edge">
<title>o&#45;ran&#45;smo&#45;teiv&#45;equipmentAntennaModule&#45;&gt;o&#45;ran&#45;smo&#45;teiv&#45;equipmentSite</title>
<path fill="none" stroke="#528b8b" d="M61.19,-88.65C61.19,-76.52 61.19,-60.02 61.19,-46.12"/>
<polygon fill="#528b8b" stroke="#528b8b" points="61.19,-36.11 65.69,-46.11 61.19,-41.11 61.19,-46.11 61.19,-46.11 61.19,-46.11 61.19,-41.11 56.69,-46.11 61.19,-36.11 61.19,-36.11"/>
<text text-anchor="middle" x="101.08" y="-58.2" font-family="Arial" font-size="14.00">INSTALLED</text>
<text text-anchor="middle" x="49.29" y="-40.31" font-family="Arial" font-size="14.00">0..*</text>
<text text-anchor="middle" x="48.59" y="-76.05" font-family="Arial" font-size="14.00">0..1</text>
</g>
</g>
</svg>
