<svg width="776px" height="479px"
 viewBox="0.00 0.00 776.33 479.00" xmlns="http://www.w3.org/2000/svg" xmlns:xlink="http://www.w3.org/1999/xlink">
<g id="graph0" class="graph" transform="scale(1.0 1.0) rotate(0.0) translate(4.0 475.0)">
<title>moduleName</title>
<polygon fill="white" stroke="transparent" points="-4,4 -4,-475 772.33,-475 772.33,4 -4,4"/>
<!-- o&#45;ran&#45;smo&#45;teiv&#45;ranAntennaCapability -->
<g id="node1" class="node">
<title>o&#45;ran&#45;smo&#45;teiv&#45;ranAntennaCapability</title>
<polygon fill="#366f34" fill-opacity="0.254902" stroke="black" points="509.33,-123 379.33,-123 379.33,-87 509.33,-87 509.33,-123"/>
<text text-anchor="middle" x="444.33" y="-101.3" font-family="Arial" font-size="14.00">AntennaCapability</text>
</g>
<!-- o&#45;ran&#45;smo&#45;teiv&#45;ranNRCellCU -->
<g id="node2" class="node">
<title>o&#45;ran&#45;smo&#45;teiv&#45;ranNRCellCU</title>
<polygon fill="#366f34" fill-opacity="0.254902" stroke="black" points="236.33,-210 154.33,-210 154.33,-174 236.33,-174 236.33,-210"/>
<text text-anchor="middle" x="195.33" y="-188.3" font-family="Arial" font-size="14.00">NRCellCU</text>
</g>
<!-- o&#45;ran&#45;smo&#45;teiv&#45;ranNRCellDU -->
<g id="node3" class="node">
<title>o&#45;ran&#45;smo&#45;teiv&#45;ranNRCellDU</title>
<polygon fill="#366f34" fill-opacity="0.254902" stroke="black" points="511.33,-297 429.33,-297 429.33,-261 511.33,-261 511.33,-297"/>
<text text-anchor="middle" x="470.33" y="-275.3" font-family="Arial" font-size="14.00">NRCellDU</text>
</g>
<!-- o&#45;ran&#45;smo&#45;teiv&#45;ranNRSectorCarrier -->
<g id="node4" class="node">
<title>o&#45;ran&#45;smo&#45;teiv&#45;ranNRSectorCarrier</title>
<polygon fill="#366f34" fill-opacity="0.254902" stroke="black" points="503.33,-210 381.33,-210 381.33,-174 503.33,-174 503.33,-210"/>
<text text-anchor="middle" x="442.33" y="-188.3" font-family="Arial" font-size="14.00">NRSectorCarrier</text>
</g>
<!-- o&#45;ran&#45;smo&#45;teiv&#45;ranNRCellDU&#45;&gt;o&#45;ran&#45;smo&#45;teiv&#45;ranNRSectorCarrier -->
<g id="edge1" class="edge">
<title>o&#45;ran&#45;smo&#45;teiv&#45;ranNRCellDU&#45;&gt;o&#45;ran&#45;smo&#45;teiv&#45;ranNRSectorCarrier</title>
<path fill="none" stroke="#528b8b" d="M464.66,-260.8C460.79,-249.05 455.58,-233.24 451.17,-219.84"/>
<polygon fill="#528b8b" stroke="#528b8b" points="447.98,-210.18 455.39,-218.27 449.55,-214.92 451.11,-219.67 451.11,-219.67 451.11,-219.67 449.55,-214.92 446.84,-221.08 447.98,-210.18 447.98,-210.18"/>
<text text-anchor="middle" x="478.33" y="-231.8" font-family="Arial" font-size="14.00">USES</text>
<text text-anchor="middle" x="435.48" y="-213.98" font-family="Arial" font-size="14.00">0..1</text>
<text text-anchor="middle" x="453.66" y="-249.6" font-family="Arial" font-size="14.00">0..*</text>
</g>
<!-- o&#45;ran&#45;smo&#45;teiv&#45;ranNRSectorCarrier&#45;&gt;o&#45;ran&#45;smo&#45;teiv&#45;ranAntennaCapability -->
<g id="edge2" class="edge">
<title>o&#45;ran&#45;smo&#45;teiv&#45;ranNRSectorCarrier&#45;&gt;o&#45;ran&#45;smo&#45;teiv&#45;ranAntennaCapability</title>
<path fill="none" stroke="#528b8b" d="M442.73,-173.8C443,-162.16 443.37,-146.55 443.69,-133.24"/>
<polygon fill="#528b8b" stroke="#528b8b" points="443.92,-123.18 448.19,-133.28 443.8,-128.17 443.69,-133.17 443.69,-133.17 443.69,-133.17 443.8,-128.17 439.19,-133.07 443.92,-123.18 443.92,-123.18"/>
<text text-anchor="middle" x="464.33" y="-144.8" font-family="Arial" font-size="14.00">USES</text>
<text text-anchor="middle" x="432.92" y="-126.98" font-family="Arial" font-size="14.00">0..*</text>
<text text-anchor="middle" x="430.23" y="-162.6" font-family="Arial" font-size="14.00">0..1</text>
</g>
<!-- o&#45;ran&#45;smo&#45;teiv&#45;ranNearRTRICFunction -->
<g id="node5" class="node">
<title>o&#45;ran&#45;smo&#45;teiv&#45;ranNearRTRICFunction</title>
<polygon fill="#366f34" fill-opacity="0.254902" stroke="black" points="269.33,-123 123.33,-123 123.33,-87 269.33,-87 269.33,-123"/>
<text text-anchor="middle" x="196.33" y="-101.3" font-family="Arial" font-size="14.00">NearRTRICFunction</text>
</g>
<!-- o&#45;ran&#45;smo&#45;teiv&#45;ranSMO -->
<g id="node10" class="node">
<title>o&#45;ran&#45;smo&#45;teiv&#45;ranSMO</title>
<polygon fill="#366f34" fill-opacity="0.254902" stroke="black" points="566.33,-36 512.33,-36 512.33,0 566.33,0 566.33,-36"/>
<text text-anchor="middle" x="539.33" y="-14.3" font-family="Arial" font-size="14.00">SMO</text>
</g>
<!-- o&#45;ran&#45;smo&#45;teiv&#45;ranNearRTRICFunction&#45;&gt;o&#45;ran&#45;smo&#45;teiv&#45;ranSMO -->
<g id="edge3" class="edge">
<title>o&#45;ran&#45;smo&#45;teiv&#45;ranNearRTRICFunction&#45;&gt;o&#45;ran&#45;smo&#45;teiv&#45;ranSMO</title>
<path fill="none" stroke="#528b8b" d="M220.85,-86.89C238.09,-75.72 262.14,-61.8 285.33,-54 359.58,-29.03 451.77,-21.85 502.16,-19.8"/>
<polygon fill="#528b8b" stroke="#528b8b" points="512.25,-19.44 502.42,-24.3 507.25,-19.62 502.26,-19.8 502.26,-19.8 502.26,-19.8 507.25,-19.62 502.09,-15.3 512.25,-19.44 512.25,-19.44"/>
<text text-anchor="middle" x="311.33" y="-57.8" font-family="Arial" font-size="14.00">O1LINK</text>
<text text-anchor="middle" x="501.25" y="-8.24" font-family="Arial" font-size="14.00">0..*</text>
<text text-anchor="middle" x="208.35" y="-75.69" font-family="Arial" font-size="14.00">0..1</text>
</g>
<!-- o&#45;ran&#45;smo&#45;teiv&#45;ranOCUCPFunction -->
<g id="node6" class="node">
<title>o&#45;ran&#45;smo&#45;teiv&#45;ranOCUCPFunction</title>
<polygon fill="#366f34" fill-opacity="0.254902" stroke="black" points="299.33,-297 177.33,-297 177.33,-261 299.33,-261 299.33,-297"/>
<text text-anchor="middle" x="238.33" y="-275.3" font-family="Arial" font-size="14.00">OCUCPFunction</text>
</g>
<!-- o&#45;ran&#45;smo&#45;teiv&#45;ranOCUCPFunction&#45;&gt;o&#45;ran&#45;smo&#45;teiv&#45;ranNRCellCU -->
<g id="edge4" class="edge">
<title>o&#45;ran&#45;smo&#45;teiv&#45;ranOCUCPFunction&#45;&gt;o&#45;ran&#45;smo&#45;teiv&#45;ranNRCellCU</title>
<path fill="none" stroke="#528b8b" d="M199.33,-260.94C192.51,-256.15 186.33,-250.22 182.33,-243 178.35,-235.83 178.87,-227.4 181.19,-219.54"/>
<polygon fill="#528b8b" stroke="#528b8b" points="184.87,-210 185.46,-220.95 183.07,-214.67 181.27,-219.33 181.27,-219.33 181.27,-219.33 183.07,-214.67 177.07,-217.71 184.87,-210 184.87,-210"/>
<text text-anchor="middle" x="220.33" y="-231.8" font-family="Arial" font-size="14.00">PROVIDES</text>
<text text-anchor="middle" x="172.37" y="-213.8" font-family="Arial" font-size="14.00">1..1</text>
<text text-anchor="middle" x="188.33" y="-249.74" font-family="Arial" font-size="14.00">0..*</text>
</g>
<!-- o&#45;ran&#45;smo&#45;teiv&#45;ranOCUCPFunction&#45;&gt;o&#45;ran&#45;smo&#45;teiv&#45;ranNearRTRICFunction -->
<g id="edge6" class="edge">
<title>o&#45;ran&#45;smo&#45;teiv&#45;ranOCUCPFunction&#45;&gt;o&#45;ran&#45;smo&#45;teiv&#45;ranNearRTRICFunction</title>
<path fill="none" stroke="#528b8b" d="M250.4,-260.97C253.63,-255.49 256.67,-249.22 258.33,-243 260.04,-236.56 259.11,-234.62 258.33,-228 255.42,-203.49 255.62,-196.44 245.33,-174 238.32,-158.74 227.68,-143.43 218.1,-131.2"/>
<polygon fill="#528b8b" stroke="#528b8b" points="211.69,-123.27 221.48,-128.22 214.84,-127.16 217.98,-131.05 217.98,-131.05 217.98,-131.05 214.84,-127.16 214.48,-133.88 211.69,-123.27 211.69,-123.27"/>
<text text-anchor="middle" x="281.83" y="-188.3" font-family="Arial" font-size="14.00">E2LINK</text>
<text text-anchor="middle" x="200.69" y="-127.07" font-family="Arial" font-size="14.00">0..*</text>
<text text-anchor="middle" x="237.9" y="-249.77" font-family="Arial" font-size="14.00">0..1</text>
</g>
<!-- o&#45;ran&#45;smo&#45;teiv&#45;ranOCUUPFunction -->
<g id="node7" class="node">
<title>o&#45;ran&#45;smo&#45;teiv&#45;ranOCUUPFunction</title>
<polygon fill="#366f34" fill-opacity="0.254902" stroke="black" points="136.33,-210 14.33,-210 14.33,-174 136.33,-174 136.33,-210"/>
<text text-anchor="middle" x="75.33" y="-188.3" font-family="Arial" font-size="14.00">OCUUPFunction</text>
</g>
<!-- o&#45;ran&#45;smo&#45;teiv&#45;ranOCUCPFunction&#45;&gt;o&#45;ran&#45;smo&#45;teiv&#45;ranOCUUPFunction -->
<g id="edge7" class="edge">
<title>o&#45;ran&#45;smo&#45;teiv&#45;ranOCUCPFunction&#45;&gt;o&#45;ran&#45;smo&#45;teiv&#45;ranOCUUPFunction</title>
<path fill="none" stroke="#528b8b" d="M177.08,-264.89C159.61,-259.63 141.06,-252.5 125.33,-243 114.43,-236.43 104.16,-226.98 95.8,-218.07"/>
<polygon fill="#528b8b" stroke="#528b8b" points="88.97,-210.45 99,-214.89 92.31,-214.18 95.65,-217.9 95.65,-217.9 95.65,-217.9 92.31,-214.18 92.3,-220.9 88.97,-210.45 88.97,-210.45"/>
<text text-anchor="middle" x="150.83" y="-231.8" font-family="Arial" font-size="14.00">E1LINK</text>
<text text-anchor="middle" x="77.97" y="-214.25" font-family="Arial" font-size="14.00">0..*</text>
<text text-anchor="middle" x="164.58" y="-253.69" font-family="Arial" font-size="14.00">0..1</text>
</g>
<!-- o&#45;ran&#45;smo&#45;teiv&#45;ranOCUCPFunction&#45;&gt;o&#45;ran&#45;smo&#45;teiv&#45;ranSMO -->
<g id="edge5" class="edge">
<title>o&#45;ran&#45;smo&#45;teiv&#45;ranOCUCPFunction&#45;&gt;o&#45;ran&#45;smo&#45;teiv&#45;ranSMO</title>
<path fill="none" stroke="#528b8b" d="M260.86,-260.8C276.48,-248.04 296.96,-229.54 311.33,-210 347.24,-161.15 326.09,-128.46 370.33,-87 407.45,-52.21 464.65,-34.29 502.04,-25.78"/>
<polygon fill="#528b8b" stroke="#528b8b" points="512.03,-23.62 503.2,-30.13 507.14,-24.68 502.25,-25.73 502.25,-25.73 502.25,-25.73 507.14,-24.68 501.3,-21.33 512.03,-23.62 512.03,-23.62"/>
<text text-anchor="middle" x="365.33" y="-144.8" font-family="Arial" font-size="14.00">O1LINK</text>
<text text-anchor="middle" x="501.03" y="-27.42" font-family="Arial" font-size="14.00">0..*</text>
<text text-anchor="middle" x="273.36" y="-249.6" font-family="Arial" font-size="14.00">0..1</text>
</g>
<!-- o&#45;ran&#45;smo&#45;teiv&#45;ranOCUUPFunction&#45;&gt;o&#45;ran&#45;smo&#45;teiv&#45;ranNearRTRICFunction -->
<g id="edge8" class="edge">
<title>o&#45;ran&#45;smo&#45;teiv&#45;ranOCUUPFunction&#45;&gt;o&#45;ran&#45;smo&#45;teiv&#45;ranNearRTRICFunction</title>
<path fill="none" stroke="#528b8b" d="M99.81,-173.8C118.18,-160.9 143.51,-143.1 163.62,-128.98"/>
<polygon fill="#528b8b" stroke="#528b8b" points="171.88,-123.18 166.28,-132.61 167.79,-126.05 163.69,-128.92 163.69,-128.92 163.69,-128.92 167.79,-126.05 161.11,-125.24 171.88,-123.18 171.88,-123.18"/>
<text text-anchor="middle" x="168.83" y="-144.8" font-family="Arial" font-size="14.00">E2LINK</text>
<text text-anchor="middle" x="160.88" y="-126.98" font-family="Arial" font-size="14.00">0..*</text>
<text text-anchor="middle" x="87.31" y="-162.6" font-family="Arial" font-size="14.00">0..1</text>
</g>
<!-- o&#45;ran&#45;smo&#45;teiv&#45;ranODUFunction -->
<g id="node8" class="node">
<title>o&#45;ran&#45;smo&#45;teiv&#45;ranODUFunction</title>
<polygon fill="#366f34" fill-opacity="0.254902" stroke="black" points="387.33,-384 285.33,-384 285.33,-348 387.33,-348 387.33,-384"/>
<text text-anchor="middle" x="336.33" y="-362.3" font-family="Arial" font-size="14.00">ODUFunction</text>
</g>
<!-- o&#45;ran&#45;smo&#45;teiv&#45;ranODUFunction&#45;&gt;o&#45;ran&#45;smo&#45;teiv&#45;ranNRCellDU -->
<g id="edge10" class="edge">
<title>o&#45;ran&#45;smo&#45;teiv&#45;ranODUFunction&#45;&gt;o&#45;ran&#45;smo&#45;teiv&#45;ranNRCellDU</title>
<path fill="none" stroke="#528b8b" d="M363.44,-347.8C383.97,-334.78 412.34,-316.78 434.7,-302.6"/>
<polygon fill="#528b8b" stroke="#528b8b" points="443.25,-297.18 437.22,-306.33 439.03,-299.85 434.81,-302.53 434.81,-302.53 434.81,-302.53 439.03,-299.85 432.39,-298.73 443.25,-297.18 443.25,-297.18"/>
<text text-anchor="middle" x="450.33" y="-318.8" font-family="Arial" font-size="14.00">PROVIDES</text>
<text text-anchor="middle" x="430.75" y="-300.98" font-family="Arial" font-size="14.00">1..1</text>
<text text-anchor="middle" x="352.44" y="-336.6" font-family="Arial" font-size="14.00">0..*</text>
</g>
<!-- o&#45;ran&#45;smo&#45;teiv&#45;ranODUFunction&#45;&gt;o&#45;ran&#45;smo&#45;teiv&#45;ranNRSectorCarrier -->
<g id="edge9" class="edge">
<title>o&#45;ran&#45;smo&#45;teiv&#45;ranODUFunction&#45;&gt;o&#45;ran&#45;smo&#45;teiv&#45;ranNRSectorCarrier</title>
<path fill="none" stroke="#528b8b" d="M333.39,-347.86C330.57,-326.12 328.75,-288.18 344.33,-261 355.62,-241.3 375.21,-226 393.93,-214.95"/>
<polygon fill="#528b8b" stroke="#528b8b" points="402.72,-210.02 396.2,-218.84 398.36,-212.46 393.99,-214.91 393.99,-214.91 393.99,-214.91 398.36,-212.46 391.79,-210.99 402.72,-210.02 402.72,-210.02"/>
<text text-anchor="middle" x="382.33" y="-275.3" font-family="Arial" font-size="14.00">PROVIDES</text>
<text text-anchor="middle" x="390.22" y="-213.82" font-family="Arial" font-size="14.00">1..1</text>
<text text-anchor="middle" x="322.39" y="-336.66" font-family="Arial" font-size="14.00">0..*</text>
</g>
<!-- o&#45;ran&#45;smo&#45;teiv&#45;ranODUFunction&#45;&gt;o&#45;ran&#45;smo&#45;teiv&#45;ranNearRTRICFunction -->
<g id="edge14" class="edge">
<title>o&#45;ran&#45;smo&#45;teiv&#45;ranODUFunction&#45;&gt;o&#45;ran&#45;smo&#45;teiv&#45;ranNearRTRICFunction</title>
<path fill="none" stroke="#528b8b" d="M285.2,-362.79C242.18,-359.43 179.79,-351.03 129.33,-330 58.54,-300.5 25.13,-284.09 5.33,-210 1.19,-194.54 -3.9,-187.07 5.33,-174 29.83,-139.27 73.72,-122.17 113.25,-113.8"/>
<polygon fill="#528b8b" stroke="#528b8b" points="123.19,-111.86 114.25,-118.19 118.29,-112.82 113.38,-113.78 113.38,-113.78 113.38,-113.78 118.29,-112.82 112.52,-109.36 123.19,-111.86 123.19,-111.86"/>
<text text-anchor="middle" x="41.83" y="-231.8" font-family="Arial" font-size="14.00">E2LINK</text>
<text text-anchor="middle" x="112.19" y="-115.66" font-family="Arial" font-size="14.00">0..*</text>
<text text-anchor="middle" x="272.7" y="-351.59" font-family="Arial" font-size="14.00">0..1</text>
</g>
<!-- o&#45;ran&#45;smo&#45;teiv&#45;ranODUFunction&#45;&gt;o&#45;ran&#45;smo&#45;teiv&#45;ranOCUCPFunction -->
<g id="edge13" class="edge">
<title>o&#45;ran&#45;smo&#45;teiv&#45;ranODUFunction&#45;&gt;o&#45;ran&#45;smo&#45;teiv&#45;ranOCUCPFunction</title>
<path fill="none" stroke="#528b8b" d="M285.56,-347.9C276.37,-343.15 267.45,-337.25 260.33,-330 253.92,-323.49 249.22,-314.8 245.85,-306.49"/>
<polygon fill="#528b8b" stroke="#528b8b" points="242.48,-297.07 250.09,-304.97 244.17,-301.78 245.85,-306.48 245.85,-306.48 245.85,-306.48 244.17,-301.78 241.61,-308 242.48,-297.07 242.48,-297.07"/>
<text text-anchor="middle" x="290.83" y="-318.8" font-family="Arial" font-size="14.00">F1CLINK</text>
<text text-anchor="middle" x="229.98" y="-300.87" font-family="Arial" font-size="14.00">0..1</text>
<text text-anchor="middle" x="273.06" y="-336.7" font-family="Arial" font-size="14.00">0..1</text>
</g>
<!-- o&#45;ran&#45;smo&#45;teiv&#45;ranODUFunction&#45;&gt;o&#45;ran&#45;smo&#45;teiv&#45;ranOCUUPFunction -->
<g id="edge12" class="edge">
<title>o&#45;ran&#45;smo&#45;teiv&#45;ranODUFunction&#45;&gt;o&#45;ran&#45;smo&#45;teiv&#45;ranOCUUPFunction</title>
<path fill="none" stroke="#528b8b" d="M285.03,-363.11C233.71,-358.49 155.76,-343.61 108.33,-297 87.71,-276.74 79.94,-243.67 77.04,-220.27"/>
<polygon fill="#528b8b" stroke="#528b8b" points="76.01,-210.27 81.51,-219.76 76.52,-215.25 77.03,-220.22 77.03,-220.22 77.03,-220.22 76.52,-215.25 72.56,-220.68 76.01,-210.27 76.01,-210.27"/>
<text text-anchor="middle" x="138.33" y="-275.3" font-family="Arial" font-size="14.00">F1ULINK</text>
<text text-anchor="middle" x="65.01" y="-214.07" font-family="Arial" font-size="14.00">0..*</text>
<text text-anchor="middle" x="272.53" y="-366.91" font-family="Arial" font-size="14.00">0..1</text>
</g>
<!-- o&#45;ran&#45;smo&#45;teiv&#45;ranODUFunction&#45;&gt;o&#45;ran&#45;smo&#45;teiv&#45;ranSMO -->
<g id="edge11" class="edge">
<title>o&#45;ran&#45;smo&#45;teiv&#45;ranODUFunction&#45;&gt;o&#45;ran&#45;smo&#45;teiv&#45;ranSMO</title>
<path fill="none" stroke="#528b8b" d="M387.52,-361.8C419.56,-357.87 460.62,-349.18 492.33,-330 532.12,-305.93 539.33,-283.01 539.33,-236.5 539.33,-236.5 539.33,-236.5 539.33,-104 539.33,-84.75 539.33,-63.05 539.33,-46.4"/>
<polygon fill="#528b8b" stroke="#528b8b" points="539.33,-36.26 543.83,-46.26 539.33,-41.26 539.33,-46.26 539.33,-46.26 539.33,-46.26 539.33,-41.26 534.83,-46.26 539.33,-36.26 539.33,-36.26"/>
<text text-anchor="middle" x="565.33" y="-188.3" font-family="Arial" font-size="14.00">O1LINK</text>
<text text-anchor="middle" x="528.33" y="-40.06" font-family="Arial" font-size="14.00">0..*</text>
<text text-anchor="middle" x="400.02" y="-350.6" font-family="Arial" font-size="14.00">0..1</text>
</g>
<!-- o&#45;ran&#45;smo&#45;teiv&#45;ranORUFunction -->
<g id="node9" class="node">
<title>o&#45;ran&#45;smo&#45;teiv&#45;ranORUFunction</title>
<polygon fill="#366f34" fill-opacity="0.254902" stroke="black" points="532.33,-471 430.33,-471 430.33,-435 532.33,-435 532.33,-471"/>
<text text-anchor="middle" x="481.33" y="-449.3" font-family="Arial" font-size="14.00">ORUFunction</text>
</g>
<!-- o&#45;ran&#45;smo&#45;teiv&#45;ranORUFunction&#45;&gt;o&#45;ran&#45;smo&#45;teiv&#45;ranODUFunction -->
<g id="edge15" class="edge">
<title>o&#45;ran&#45;smo&#45;teiv&#45;ranORUFunction&#45;&gt;o&#45;ran&#45;smo&#45;teiv&#45;ranODUFunction</title>
<path fill="none" stroke="#528b8b" d="M430.27,-452.01C367.44,-450.82 266.11,-444.52 242.33,-417 227.31,-399.62 249.01,-387.34 275.32,-379.29"/>
<polygon fill="#528b8b" stroke="#528b8b" points="285.17,-376.52 276.76,-383.56 280.36,-377.87 275.54,-379.23 275.54,-379.23 275.54,-379.23 280.36,-377.87 274.32,-374.9 285.17,-376.52 285.17,-376.52"/>
<text text-anchor="middle" x="278.83" y="-405.8" font-family="Arial" font-size="14.00">OFHULINK</text>
<text text-anchor="middle" x="274.17" y="-380.32" font-family="Arial" font-size="14.00">0..*</text>
<text text-anchor="middle" x="417.77" y="-455.81" font-family="Arial" font-size="14.00">0..1</text>
</g>
<!-- o&#45;ran&#45;smo&#45;teiv&#45;ranORUFunction&#45;&gt;o&#45;ran&#45;smo&#45;teiv&#45;ranODUFunction -->
<g id="edge16" class="edge">
<title>o&#45;ran&#45;smo&#45;teiv&#45;ranORUFunction&#45;&gt;o&#45;ran&#45;smo&#45;teiv&#45;ranODUFunction</title>
<path fill="none" stroke="#528b8b" d="M430.23,-446C394.07,-440.6 350.01,-431.3 338.33,-417 333.2,-410.73 331.54,-402.41 331.51,-394.35"/>
<polygon fill="#528b8b" stroke="#528b8b" points="332.24,-384.1 336.01,-394.4 331.88,-389.09 331.53,-394.08 331.53,-394.08 331.53,-394.08 331.88,-389.09 327.04,-393.76 332.24,-384.1 332.24,-384.1"/>
<text text-anchor="middle" x="374.83" y="-405.8" font-family="Arial" font-size="14.00">OFHSLINK</text>
<text text-anchor="middle" x="321.24" y="-387.9" font-family="Arial" font-size="14.00">0..*</text>
<text text-anchor="middle" x="417.73" y="-434.8" font-family="Arial" font-size="14.00">0..1</text>
</g>
<!-- o&#45;ran&#45;smo&#45;teiv&#45;ranORUFunction&#45;&gt;o&#45;ran&#45;smo&#45;teiv&#45;ranODUFunction -->
<g id="edge18" class="edge">
<title>o&#45;ran&#45;smo&#45;teiv&#45;ranORUFunction&#45;&gt;o&#45;ran&#45;smo&#45;teiv&#45;ranODUFunction</title>
<path fill="none" stroke="#528b8b" d="M458.19,-434.78C441.6,-422.56 420.61,-407.42 411.33,-402 403.13,-397.21 394.17,-392.57 385.39,-388.31"/>
<polygon fill="#528b8b" stroke="#528b8b" points="376.34,-384.02 387.3,-384.24 380.85,-386.16 385.37,-388.3 385.37,-388.3 385.37,-388.3 380.85,-386.16 383.44,-392.37 376.34,-384.02 376.34,-384.02"/>
<text text-anchor="middle" x="469.33" y="-405.8" font-family="Arial" font-size="14.00">OFHMLINK</text>
<text text-anchor="middle" x="365.34" y="-387.82" font-family="Arial" font-size="14.00">0..*</text>
<text text-anchor="middle" x="445.69" y="-423.58" font-family="Arial" font-size="14.00">0..1</text>
</g>
<!-- o&#45;ran&#45;smo&#45;teiv&#45;ranORUFunction&#45;&gt;o&#45;ran&#45;smo&#45;teiv&#45;ranODUFunction -->
<g id="edge19" class="edge">
<title>o&#45;ran&#45;smo&#45;teiv&#45;ranORUFunction&#45;&gt;o&#45;ran&#45;smo&#45;teiv&#45;ranODUFunction</title>
<path fill="none" stroke="#528b8b" d="M500.41,-434.8C509.35,-424.67 516.44,-411.93 508.33,-402 494.37,-384.92 441.23,-375.97 397.66,-371.41"/>
<polygon fill="#528b8b" stroke="#528b8b" points="387.67,-370.42 398.07,-366.93 392.65,-370.92 397.63,-371.41 397.63,-371.41 397.63,-371.41 392.65,-370.92 397.18,-375.89 387.67,-370.42 387.67,-370.42"/>
<text text-anchor="middle" x="548.83" y="-405.8" font-family="Arial" font-size="14.00">OFHCLINK</text>
<text text-anchor="middle" x="398.67" y="-374.22" font-family="Arial" font-size="14.00">0..*</text>
<text text-anchor="middle" x="487.91" y="-423.6" font-family="Arial" font-size="14.00">0..1</text>
</g>
<!-- o&#45;ran&#45;smo&#45;teiv&#45;ranORUFunction&#45;&gt;o&#45;ran&#45;smo&#45;teiv&#45;ranSMO -->
<g id="edge17" class="edge">
<title>o&#45;ran&#45;smo&#45;teiv&#45;ranORUFunction&#45;&gt;o&#45;ran&#45;smo&#45;teiv&#45;ranSMO</title>
<path fill="none" stroke="#528b8b" d="M532.71,-442.06C571.95,-431.14 619.33,-409.21 619.33,-367 619.33,-367 619.33,-367 619.33,-104 619.33,-76.09 596.17,-53.61 574.78,-38.8"/>
<polygon fill="#528b8b" stroke="#528b8b" points="566.41,-33.31 577.24,-35.03 570.59,-36.05 574.77,-38.79 574.77,-38.79 574.77,-38.79 570.59,-36.05 572.3,-42.55 566.41,-33.31 566.41,-33.31"/>
<text text-anchor="middle" x="656.33" y="-231.8" font-family="Arial" font-size="14.00">OFHMLINK</text>
<text text-anchor="middle" x="577.41" y="-37.11" font-family="Arial" font-size="14.00">0..*</text>
<text text-anchor="middle" x="545.21" y="-445.86" font-family="Arial" font-size="14.00">0..1</text>
</g>
<!-- o&#45;ran&#45;smo&#45;teiv&#45;ranORUFunction&#45;&gt;o&#45;ran&#45;smo&#45;teiv&#45;ranSMO -->
<g id="edge20" class="edge">
<title>o&#45;ran&#45;smo&#45;teiv&#45;ranORUFunction&#45;&gt;o&#45;ran&#45;smo&#45;teiv&#45;ranSMO</title>
<path fill="none" stroke="#528b8b" d="M532.61,-444.04C601.75,-431.84 716.33,-405.78 716.33,-367 716.33,-367 716.33,-367 716.33,-104 716.33,-42.61 628.73,-25.53 576.78,-20.8"/>
<polygon fill="#528b8b" stroke="#528b8b" points="566.59,-19.98 576.92,-16.29 571.58,-20.38 576.56,-20.78 576.56,-20.78 576.56,-20.78 571.58,-20.38 576.21,-25.26 566.59,-19.98 566.59,-19.98"/>
<text text-anchor="middle" x="742.33" y="-231.8" font-family="Arial" font-size="14.00">O1LINK</text>
<text text-anchor="middle" x="577.59" y="-8.78" font-family="Arial" font-size="14.00">0..*</text>
<text text-anchor="middle" x="545.11" y="-432.84" font-family="Arial" font-size="14.00">0..1</text>
</g>
<!-- o&#45;ran&#45;smo&#45;teiv&#45;ranSector -->
<g id="node11" class="node">
<title>o&#45;ran&#45;smo&#45;teiv&#45;ranSector</title>
<polygon fill="#366f34" fill-opacity="0.254902" stroke="black" points="570.83,-384 511.83,-384 511.83,-348 570.83,-348 570.83,-384"/>
<text text-anchor="middle" x="541.33" y="-362.3" font-family="Arial" font-size="14.00">Sector</text>
</g>
<!-- o&#45;ran&#45;smo&#45;teiv&#45;ranSector&#45;&gt;o&#45;ran&#45;smo&#45;teiv&#45;ranNRCellDU -->
<g id="edge21" class="edge">
<title>o&#45;ran&#45;smo&#45;teiv&#45;ranSector&#45;&gt;o&#45;ran&#45;smo&#45;teiv&#45;ranNRCellDU</title>
<path fill="none" stroke="#528b8b" d="M526.96,-347.8C516.66,-335.47 502.63,-318.68 491.12,-304.89"/>
<polygon fill="#528b8b" stroke="#528b8b" points="484.67,-297.18 494.54,-301.97 487.88,-301.01 491.08,-304.85 491.08,-304.85 491.08,-304.85 487.88,-301.01 487.63,-307.74 484.67,-297.18 484.67,-297.18"/>
<text text-anchor="middle" x="541.83" y="-318.8" font-family="Arial" font-size="14.00">GROUPS</text>
<text text-anchor="middle" x="472.17" y="-300.98" font-family="Arial" font-size="14.00">0..1</text>
<text text-anchor="middle" x="515.96" y="-336.6" font-family="Arial" font-size="14.00">0..*</text>
</g>
</g>
</svg>
