<svg width="537px" height="131px"
 viewBox="0.00 0.00 537.00 131.00" xmlns="http://www.w3.org/2000/svg" xmlns:xlink="http://www.w3.org/1999/xlink">
<g id="graph0" class="graph" transform="scale(1.0 1.0) rotate(0.0) translate(4.0 127.0)">
<title>moduleName</title>
<polygon fill="white" stroke="transparent" points="-4,4 -4,-127 533,-127 533,4 -4,4"/>
<!-- NFDeployment -->
<g id="node1" class="node">
<title>NFDeployment</title>
<polygon fill="#89240a" fill-opacity="0.254902" stroke="black" points="338,-123 231,-123 231,-87 338,-87 338,-123"/>
<text text-anchor="middle" x="284.5" y="-101.3" font-family="Arial" font-size="14.00">NFDeployment</text>
</g>
<!-- NearRTRICFunction -->
<g id="node2" class="node">
<title>NearRTRICFunction</title>
<polygon fill="#366f34" fill-opacity="0.254902" stroke="black" points="139,-36 0,-36 0,0 139,0 139,-36"/>
<text text-anchor="middle" x="69.5" y="-14.3" font-family="Arial" font-size="14.00">NearRTRICFunction</text>
</g>
<!-- NFDeployment&#45;&gt;NearRTRICFunction -->
<g id="edge4" class="edge">
<title>NFDeployment&#45;&gt;NearRTRICFunction</title>
<path fill="none" stroke="#528b8b" d="M234.93,-86.96C219.35,-81.42 202.14,-75.13 186.5,-69 163.49,-59.98 138.25,-49.3 117.12,-40.13"/>
<polygon fill="#528b8b" stroke="#528b8b" points="107.73,-36.03 118.69,-35.9 112.31,-38.03 116.89,-40.03 116.89,-40.03 116.89,-40.03 112.31,-38.03 115.09,-44.15 107.73,-36.03 107.73,-36.03"/>
<text text-anchor="middle" x="214" y="-57.8" font-family="Arial" font-size="14.00">SERVES</text>
<text text-anchor="middle" x="97.23" y="-39.83" font-family="Arial" font-size="14.00">0..*</text>
<text text-anchor="middle" x="224.43" y="-75.76" font-family="Arial" font-size="14.00">0..*</text>
</g>
<!-- OCUCPFunction -->
<g id="node3" class="node">
<title>OCUCPFunction</title>
<polygon fill="#366f34" fill-opacity="0.254902" stroke="black" points="275.5,-36 157.5,-36 157.5,0 275.5,0 275.5,-36"/>
<text text-anchor="middle" x="216.5" y="-14.3" font-family="Arial" font-size="14.00">OCUCPFunction</text>
</g>
<!-- NFDeployment&#45;&gt;OCUCPFunction -->
<g id="edge3" class="edge">
<title>NFDeployment&#45;&gt;OCUCPFunction</title>
<path fill="none" stroke="#528b8b" d="M270.24,-86.99C265.51,-81.3 260.25,-74.9 255.5,-69 249.05,-60.98 242.11,-52.14 235.89,-44.16"/>
<polygon fill="#528b8b" stroke="#528b8b" points="229.73,-36.22 239.42,-41.36 232.8,-40.17 235.86,-44.12 235.86,-44.12 235.86,-44.12 232.8,-40.17 232.31,-46.88 229.73,-36.22 229.73,-36.22"/>
<text text-anchor="middle" x="283" y="-57.8" font-family="Arial" font-size="14.00">SERVES</text>
<text text-anchor="middle" x="219.23" y="-40.02" font-family="Arial" font-size="14.00">0..*</text>
<text text-anchor="middle" x="259.74" y="-75.79" font-family="Arial" font-size="14.00">0..*</text>
</g>
<!-- OCUUPFunction -->
<g id="node4" class="node">
<title>OCUUPFunction</title>
<polygon fill="#366f34" fill-opacity="0.254902" stroke="black" points="411.5,-36 293.5,-36 293.5,0 411.5,0 411.5,-36"/>
<text text-anchor="middle" x="352.5" y="-14.3" font-family="Arial" font-size="14.00">OCUUPFunction</text>
</g>
<!-- NFDeployment&#45;&gt;OCUUPFunction -->
<g id="edge2" class="edge">
<title>NFDeployment&#45;&gt;OCUUPFunction</title>
<path fill="none" stroke="#528b8b" d="M298.26,-86.8C308.03,-74.59 321.31,-57.99 332.28,-44.28"/>
<polygon fill="#528b8b" stroke="#528b8b" points="338.76,-36.18 336.03,-46.8 335.64,-40.08 332.51,-43.98 332.51,-43.98 332.51,-43.98 335.64,-40.08 329,-41.17 338.76,-36.18 338.76,-36.18"/>
<text text-anchor="middle" x="351" y="-57.8" font-family="Arial" font-size="14.00">SERVES</text>
<text text-anchor="middle" x="328.26" y="-39.98" font-family="Arial" font-size="14.00">0..*</text>
<text text-anchor="middle" x="287.76" y="-75.6" font-family="Arial" font-size="14.00">0..*</text>
</g>
<!-- ODUFunction -->
<g id="node5" class="node">
<title>ODUFunction</title>
<polygon fill="#366f34" fill-opacity="0.254902" stroke="black" points="529,-36 430,-36 430,0 529,0 529,-36"/>
<text text-anchor="middle" x="479.5" y="-14.3" font-family="Arial" font-size="14.00">ODUFunction</text>
</g>
<!-- NFDeployment&#45;&gt;ODUFunction -->
<g id="edge1" class="edge">
<title>NFDeployment&#45;&gt;ODUFunction</title>
<path fill="none" stroke="#528b8b" d="M336.37,-86.92C351.41,-81.58 367.75,-75.4 382.5,-69 401.71,-60.66 422.41,-50.2 439.74,-41.01"/>
<polygon fill="#528b8b" stroke="#528b8b" points="448.99,-36.05 442.3,-44.74 444.58,-38.42 440.18,-40.78 440.18,-40.78 440.18,-40.78 444.58,-38.42 438.05,-36.81 448.99,-36.05 448.99,-36.05"/>
<text text-anchor="middle" x="439" y="-57.8" font-family="Arial" font-size="14.00">SERVES</text>
<text text-anchor="middle" x="438.49" y="-39.85" font-family="Arial" font-size="14.00">0..*</text>
<text text-anchor="middle" x="325.87" y="-75.72" font-family="Arial" font-size="14.00">0..*</text>
</g>
</g>
</svg>
