<svg width="2321" height="1146" xmlns="http://www.w3.org/2000/svg" xmlns:xlink="http://www.w3.org/1999/xlink" xml:space="preserve" overflow="hidden"><defs><clipPath id="clip0"><rect x="72" y="483" width="2321" height="1146"/></clipPath></defs><g clip-path="url(#clip0)" transform="translate(-72 -483)"><rect x="71.9998" y="483" width="2321" height="1065" fill="#FAFAFA"/><rect x="71.9998" y="1548" width="2321" height="72.0002" fill="#3B3838"/><text fill="#FFFFFF" font-family="Hilda_MSFontService,sans-serif" font-weight="400" font-size="37" transform="matrix(1 0 0 1 983.237 1597)">OAM</text><text fill="#FFFFFF" font-family="Hilda_MSFontService,sans-serif" font-weight="400" font-size="37" transform="matrix(1 0 0 1 1062.3 1597)">-</text><text fill="#FFFFFF" font-family="Hilda_MSFontService,sans-serif" font-weight="400" font-size="37" transform="matrix(1 0 0 1 1076.05 1597)">RAN Object </text><text fill="#FFFFFF" font-family="Hilda_MSFontService,sans-serif" font-weight="400" font-size="37" transform="matrix(1 0 0 1 1266.26 1597)">R</text><text fill="#FFFFFF" font-family="Hilda_MSFontService,sans-serif" font-weight="400" font-size="37" transform="matrix(1 0 0 1 1289.75 1597)">elationships</text><rect x="371" y="573" width="448" height="80.0001" stroke="#000000" stroke-width="5.72917" stroke-miterlimit="8" fill="#D0CECE"/><text font-family="Hilda_MSFontService,sans-serif" font-weight="400" font-size="37" transform="matrix(1 0 0 1 455.307 626)">ManagedElement</text><path d="M5.67157-2.86458 171.114-2.86458 171.114 748.883 165.385 748.883 165.385 0 168.249 2.86458 5.67157 2.86458ZM31.7285 18.516-0.0132769 0 31.7285-18.516C33.0951-19.3132 34.8491-18.8516 35.6462-17.485 36.4434-16.1185 35.9818-14.3645 34.6153-13.5673L7.11526 2.47437 7.11526-2.47437 34.6153 13.5673C35.9818 14.3645 36.4434 16.1185 35.6462 17.485 34.8491 18.8516 33.0951 19.3132 31.7285 18.516ZM186.765 722.825 168.249 754.567 149.733 722.825C148.936 721.459 149.398 719.705 150.764 718.908 152.131 718.11 153.885 718.572 154.682 719.939L170.723 747.439 165.775 747.439 181.816 719.939C182.614 718.572 184.368 718.11 185.734 718.908 187.101 719.705 187.562 721.459 186.765 722.825Z" transform="matrix(1.83697e-16 1 1 -1.83697e-16 595 653)"/><rect x="820" y="781" width="255" height="61.9999" fill="#FAFAFA"/><text font-family="Hilda_MSFontService,sans-serif" font-weight="400" font-size="28" transform="matrix(1 0 0 1 884.229 821)">MANAGES</text><rect x="1349" y="781" width="559" height="80.0001" stroke="#000000" stroke-width="5.72917" stroke-miterlimit="8" fill="#D6EDFC"/><text font-family="Hilda_MSFontService,sans-serif" font-weight="400" font-size="37" transform="matrix(1 0 0 1 1494.92 834)">ENodeBFunction</text><rect x="1349" y="1355" width="559" height="80.0001" stroke="#000000" stroke-width="5.72917" stroke-miterlimit="8" fill="#D6EDFC"/><text font-family="Hilda_MSFontService,sans-serif" font-weight="400" font-size="37" transform="matrix(1 0 0 1 1497.91 1408)">GNBDUFunction</text><path d="M5.6712-2.86458 554.551-2.86458 554.551 748.883 548.822 748.883 548.822 0 551.687 2.86458 5.6712 2.86458ZM31.7285 18.516-0.0132769 0 31.7285-18.516C33.0951-19.3132 34.8491-18.8516 35.6462-17.485 36.4434-16.1185 35.9818-14.3645 34.6153-13.5673L7.11526 2.47437 7.11526-2.47437 34.6153 13.5673C35.9818 14.3645 36.4434 16.1185 35.6462 17.485 34.8491 18.8516 33.0951 19.3132 31.7285 18.516ZM570.203 722.825 551.687 754.567 533.171 722.825C532.374 721.459 532.835 719.705 534.202 718.908 535.568 718.11 537.322 718.572 538.12 719.939L554.161 747.439 549.212 747.439 565.254 719.939C566.051 718.572 567.805 718.11 569.172 718.908 570.538 719.705 571 721.459 570.203 722.825Z" transform="matrix(1.83697e-16 1 1 -1.83697e-16 595 653)"/><rect x="820" y="1169" width="255" height="55" fill="#FAFAFA"/><text font-family="Hilda_MSFontService,sans-serif" font-weight="400" font-size="28" transform="matrix(1 0 0 1 884.229 1202)">MANAGES</text><rect x="1349" y="1164" width="559" height="80.0001" stroke="#000000" stroke-width="5.72917" stroke-miterlimit="8" fill="#D6EDFC"/><text font-family="Hilda_MSFontService,sans-serif" font-weight="400" font-size="37" transform="matrix(1 0 0 1 1477.29 1217)">GNBCUCPFunction</text><path d="M5.6712-2.86458 745.121-2.86458 745.121 748.883 739.391 748.883 739.391 0 742.256 2.86458 5.6712 2.86458ZM31.7285 18.516-0.0132769 0 31.7285-18.516C33.0951-19.3132 34.8491-18.8516 35.6462-17.485 36.4434-16.1185 35.9818-14.3645 34.6153-13.5673L7.11526 2.47437 7.11526-2.47437 34.6153 13.5673C35.9818 14.3645 36.4434 16.1185 35.6462 17.485 34.8491 18.8516 33.0951 19.3132 31.7285 18.516ZM760.772 722.825 742.256 754.567 723.74 722.825C722.943 721.459 723.404 719.705 724.771 718.908 726.138 718.11 727.892 718.572 728.689 719.939L744.73 747.439 739.782 747.439 755.823 719.939C756.62 718.572 758.375 718.11 759.741 718.908 761.108 719.705 761.569 721.459 760.772 722.825Z" transform="matrix(1.83697e-16 1 1 -1.83697e-16 595 653)"/><rect x="820" y="1357" width="255" height="55" fill="#FAFAFA"/><text font-family="Hilda_MSFontService,sans-serif" font-weight="400" font-size="28" transform="matrix(1 0 0 1 884.229 1390)">MANAGES</text><path d="M5.67048-2.86458 361.914-2.86458 361.914 748.883 356.185 748.883 356.185 0 359.05 2.86458 5.67048 2.86458ZM31.7285 18.516-0.0132769 0 31.7285-18.516C33.0951-19.3132 34.8491-18.8516 35.6462-17.485 36.4434-16.1185 35.9818-14.3645 34.6153-13.5673L7.11526 2.47437 7.11526-2.47437 34.6153 13.5673C35.9818 14.3645 36.4434 16.1185 35.6462 17.485 34.8491 18.8516 33.0951 19.3132 31.7285 18.516ZM377.566 722.825 359.05 754.567 340.534 722.825C339.736 721.459 340.198 719.705 341.565 718.908 342.931 718.11 344.685 718.572 345.482 719.939L361.524 747.439 356.575 747.439 372.617 719.939C373.414 718.572 375.168 718.11 376.535 718.908 377.901 719.705 378.363 721.459 377.566 722.825Z" transform="matrix(1.83697e-16 1 1 -1.83697e-16 595 653)"/><rect x="820" y="972" width="255" height="56" fill="#FAFAFA"/><text font-family="Hilda_MSFontService,sans-serif" font-weight="400" font-size="28" transform="matrix(1 0 0 1 884.229 1005)">MANAGES</text><rect x="1349" y="972" width="559" height="78.9998" stroke="#000000" stroke-width="5.72917" stroke-miterlimit="8" fill="#D6EDFC"/><text font-family="Hilda_MSFontService,sans-serif" font-weight="400" font-size="37" transform="matrix(1 0 0 1 1475.85 1025)">GNBCUUPFunction</text><text font-family="Hilda_MSFontService,sans-serif" font-weight="400" font-size="23" transform="matrix(1 0 0 1 2095.52 1501)">OAM</text><rect x="2034" y="1476" width="41" height="33" stroke="#000000" stroke-width="5.72917" stroke-miterlimit="8" fill="#D0CECE"/><text font-family="Hilda_MSFontService,sans-serif" font-weight="400" font-size="23" transform="matrix(1 0 0 1 2259.48 1501)">RAN</text><rect x="2198" y="1476" width="41" height="33" stroke="#000000" stroke-width="5.72917" stroke-miterlimit="8" fill="#D6EDFC"/></g></svg>