<svg width="2350" height="626" xmlns="http://www.w3.org/2000/svg" xmlns:xlink="http://www.w3.org/1999/xlink" xml:space="preserve" overflow="hidden"><defs><clipPath id="clip0"><rect x="45" y="383" width="2350" height="626"/></clipPath></defs><g clip-path="url(#clip0)" transform="translate(-45 -383)"><rect x="45" y="383" width="2350" height="617" fill="#FAFAFA"/><rect x="45" y="929" width="2350" height="70.9998" fill="#3B3838"/><text fill="#FFFFFF" font-family="Hilda_MSFontService,sans-serif" font-weight="400" font-size="37" transform="matrix(1 0 0 1 922.427 978)">OAM </text><text fill="#FFFFFF" font-family="Hilda_MSFontService,sans-serif" font-weight="400" font-size="37" transform="matrix(1 0 0 1 1009.51 978)">Managed </text><text fill="#FFFFFF" font-family="Hilda_MSFontService,sans-serif" font-weight="400" font-size="37" transform="matrix(1 0 0 1 1165.92 978)">O</text><text fill="#FFFFFF" font-family="Hilda_MSFontService,sans-serif" font-weight="400" font-size="37" transform="matrix(1 0 0 1 1191.7 978)">bjects </text><text fill="#FFFFFF" font-family="Hilda_MSFontService,sans-serif" font-weight="400" font-size="37" transform="matrix(1 0 0 1 1291.96 978)">and </text><text fill="#FFFFFF" font-family="Hilda_MSFontService,sans-serif" font-weight="400" font-size="37" transform="matrix(1 0 0 1 1360.14 978)">Attributes</text><rect x="749" y="473" width="943" height="69.0001" fill="#0050CA"/><text fill="#FFFFFF" font-family="Hilda_MSFontService,sans-serif" font-weight="400" font-size="36" transform="matrix(1 0 0 1 1061.19 520)">o</text><text fill="#FFFFFF" font-family="Hilda_MSFontService,sans-serif" font-weight="400" font-size="36" transform="matrix(1 0 0 1 1080.67 520)">-</text><text fill="#FFFFFF" font-family="Hilda_MSFontService,sans-serif" font-weight="400" font-size="36" transform="matrix(1 0 0 1 1094.42 520)">ran</text><text fill="#FFFFFF" font-family="Hilda_MSFontService,sans-serif" font-weight="400" font-size="36" transform="matrix(1 0 0 1 1146.55 520)">-</text><text fill="#FFFFFF" font-family="Hilda_MSFontService,sans-serif" font-weight="400" font-size="36" transform="matrix(1 0 0 1 1160.3 520)">smo</text><text fill="#FFFFFF" font-family="Hilda_MSFontService,sans-serif" font-weight="400" font-size="36" transform="matrix(1 0 0 1 1225.04 520)">-</text><text fill="#FFFFFF" font-family="Hilda_MSFontService,sans-serif" font-weight="400" font-size="36" transform="matrix(1 0 0 1 1238.79 520)">teiv</text><text fill="#FFFFFF" font-family="Hilda_MSFontService,sans-serif" font-weight="400" font-size="36" transform="matrix(1 0 0 1 1296.09 520)">-</text><text fill="#FFFFFF" font-family="Hilda_MSFontService,sans-serif" font-weight="400" font-size="36" transform="matrix(1 0 0 1 1309.84 520)">oam</text><rect x="1062" y="620" width="317" height="78.9997" stroke="#000000" stroke-width="5.72917" stroke-miterlimit="8" fill="#D0CECE"/><text font-family="Hilda_MSFontService,sans-serif" font-weight="400" font-size="28" transform="matrix(1 0 0 1 1112.47 670)">ManagedElement</text><rect x="973" y="764" width="489" height="70.9998" stroke="#000000" stroke-width="5.72917" stroke-miterlimit="8" fill="none"/><path d="M1222.86 542 1222.86 620.296 1217.14 620.296 1217.14 542ZM1233.75 620.296C1233.75 627.89 1227.59 634.046 1220 634.046 1212.41 634.046 1206.25 627.89 1206.25 620.296 1206.25 612.702 1212.41 606.546 1220 606.546 1227.59 606.546 1233.75 612.702 1233.75 620.296Z"/><path d="M2.86458-1.60597e-05 2.86494 64.3727-2.86422 64.3727-2.86458 1.60597e-05ZM13.7504 64.3727C13.7504 71.9666 7.59435 78.1227 0.000437979 78.1227-7.59348 78.1228-13.7496 71.9667-13.7496 64.3728-13.7497 56.7789-7.59363 50.6228 0.000283806 50.6227 7.5942 50.6227 13.7503 56.7787 13.7504 64.3727Z" transform="matrix(-1 0 0 1 1220 699)"/><g><text font-family="Hilda_MSFontService,sans-serif" font-weight="400" font-size="28" transform="matrix(1 0 0 1 1204.21 809)">string {key}</text></g><g><text font-family="Hilda_MSFontService,sans-serif" font-weight="700" font-size="28" transform="matrix(1 0 0 1 1106.5 809)">id:</text></g></g></svg>