<svg width="1386px" height="740px"
 viewBox="0.00 0.00 1386.00 740.00" xmlns="http://www.w3.org/2000/svg" xmlns:xlink="http://www.w3.org/1999/xlink">
<g id="graph0" class="graph" transform="scale(1.0 1.0) rotate(0.0) translate(4.0 736.0)">
<title>moduleName</title>
<polygon fill="white" stroke="transparent" points="-4,4 -4,-736 1382,-736 1382,4 -4,4"/>
<!-- o&#45;ran&#45;smo&#45;teiv&#45;cloudCloudifiedNF -->
<g id="node1" class="node">
<title>o&#45;ran&#45;smo&#45;teiv&#45;cloudCloudifiedNF</title>
<polygon fill="#89240a" fill-opacity="0.254902" stroke="black" points="549.5,-732 454.5,-732 454.5,-696 549.5,-696 549.5,-732"/>
<text text-anchor="middle" x="502" y="-710.3" font-family="Arial" font-size="14.00">CloudifiedNF</text>
</g>
<!-- o&#45;ran&#45;smo&#45;teiv&#45;cloudNFDeployment -->
<g id="node2" class="node">
<title>o&#45;ran&#45;smo&#45;teiv&#45;cloudNFDeployment</title>
<polygon fill="#89240a" fill-opacity="0.254902" stroke="black" points="506.5,-645 399.5,-645 399.5,-609 506.5,-609 506.5,-645"/>
<text text-anchor="middle" x="453" y="-623.3" font-family="Arial" font-size="14.00">NFDeployment</text>
</g>
<!-- o&#45;ran&#45;smo&#45;teiv&#45;cloudCloudifiedNF&#45;&gt;o&#45;ran&#45;smo&#45;teiv&#45;cloudNFDeployment -->
<g id="edge1" class="edge">
<title>o&#45;ran&#45;smo&#45;teiv&#45;cloudCloudifiedNF&#45;&gt;o&#45;ran&#45;smo&#45;teiv&#45;cloudNFDeployment</title>
<path fill="none" stroke="#528b8b" d="M469.55,-695.73C463.32,-690.86 457.62,-684.95 454,-678 450.41,-671.12 449.21,-662.95 449.16,-655.23"/>
<polygon fill="#528b8b" stroke="#528b8b" points="449.7,-645.14 453.66,-655.36 449.43,-650.13 449.17,-655.13 449.17,-655.13 449.17,-655.13 449.43,-650.13 444.67,-654.89 449.7,-645.14 449.7,-645.14"/>
<text text-anchor="middle" x="495.5" y="-666.8" font-family="Arial" font-size="14.00">COMPRISES</text>
<text text-anchor="middle" x="438.2" y="-648.94" font-family="Arial" font-size="14.00">1..1</text>
<text text-anchor="middle" x="459.05" y="-684.53" font-family="Arial" font-size="14.00">1..*</text>
</g>
<!-- o&#45;ran&#45;smo&#45;teiv&#45;cloudOCloudNamespace -->
<g id="node4" class="node">
<title>o&#45;ran&#45;smo&#45;teiv&#45;cloudOCloudNamespace</title>
<polygon fill="#89240a" fill-opacity="0.254902" stroke="black" points="1008,-558 872,-558 872,-522 1008,-522 1008,-558"/>
<text text-anchor="middle" x="940" y="-536.3" font-family="Arial" font-size="14.00">OCloudNamespace</text>
</g>
<!-- o&#45;ran&#45;smo&#45;teiv&#45;cloudNFDeployment&#45;&gt;o&#45;ran&#45;smo&#45;teiv&#45;cloudOCloudNamespace -->
<g id="edge7" class="edge">
<title>o&#45;ran&#45;smo&#45;teiv&#45;cloudNFDeployment&#45;&gt;o&#45;ran&#45;smo&#45;teiv&#45;cloudOCloudNamespace</title>
<path fill="none" stroke="#528b8b" d="M506.8,-613C514.23,-611.49 521.78,-610.1 529,-609 625.55,-594.31 651.72,-607.37 748,-591 790.86,-583.71 838.13,-571.46 875.04,-560.9"/>
<polygon fill="#528b8b" stroke="#528b8b" points="884.68,-558.12 876.32,-565.22 879.88,-559.51 875.07,-560.9 875.07,-560.9 875.07,-560.9 879.88,-559.51 873.83,-556.57 884.68,-558.12 884.68,-558.12"/>
<text text-anchor="middle" x="854.5" y="-579.8" font-family="Arial" font-size="14.00">DEPLOYED</text>
<text text-anchor="middle" x="874.18" y="-561.92" font-family="Arial" font-size="14.00">1..*</text>
<text text-anchor="middle" x="517.3" y="-616.8" font-family="Arial" font-size="14.00">1..*</text>
</g>
<!-- o&#45;ran&#45;smo&#45;teiv&#45;oamManagedElement -->
<g id="node8" class="node">
<title>o&#45;ran&#45;smo&#45;teiv&#45;oamManagedElement</title>
<polygon fill="#3663f0" fill-opacity="0.254902" stroke="black" points="613,-558 489,-558 489,-522 613,-522 613,-558"/>
<text text-anchor="middle" x="551" y="-536.3" font-family="Arial" font-size="14.00">ManagedElement</text>
</g>
<!-- o&#45;ran&#45;smo&#45;teiv&#45;cloudNFDeployment&#45;&gt;o&#45;ran&#45;smo&#45;teiv&#45;oamManagedElement -->
<g id="edge6" class="edge">
<title>o&#45;ran&#45;smo&#45;teiv&#45;cloudNFDeployment&#45;&gt;o&#45;ran&#45;smo&#45;teiv&#45;oamManagedElement</title>
<path fill="none" stroke="#528b8b" d="M460.05,-608.58C464.96,-598.11 472.37,-585.1 482,-576 486.98,-571.29 492.73,-567.06 498.72,-563.32"/>
<polygon fill="#528b8b" stroke="#528b8b" points="507.64,-558.18 501.22,-567.07 503.3,-560.68 498.97,-563.17 498.97,-563.17 498.97,-563.17 503.3,-560.68 496.73,-559.28 507.64,-558.18 507.64,-558.18"/>
<text text-anchor="middle" x="509.5" y="-579.8" font-family="Arial" font-size="14.00">SERVES</text>
<text text-anchor="middle" x="497.14" y="-561.98" font-family="Arial" font-size="14.00">1..*</text>
<text text-anchor="middle" x="448.55" y="-597.38" font-family="Arial" font-size="14.00">1..1</text>
</g>
<!-- o&#45;ran&#45;smo&#45;teiv&#45;ranNearRTRICFunction -->
<g id="node15" class="node">
<title>o&#45;ran&#45;smo&#45;teiv&#45;ranNearRTRICFunction</title>
<polygon fill="#366f34" fill-opacity="0.254902" stroke="black" points="546.5,-123 407.5,-123 407.5,-87 546.5,-87 546.5,-123"/>
<text text-anchor="middle" x="477" y="-101.3" font-family="Arial" font-size="14.00">NearRTRICFunction</text>
</g>
<!-- o&#45;ran&#45;smo&#45;teiv&#45;cloudNFDeployment&#45;&gt;o&#45;ran&#45;smo&#45;teiv&#45;ranNearRTRICFunction -->
<g id="edge5" class="edge">
<title>o&#45;ran&#45;smo&#45;teiv&#45;cloudNFDeployment&#45;&gt;o&#45;ran&#45;smo&#45;teiv&#45;ranNearRTRICFunction</title>
<path fill="none" stroke="#528b8b" d="M399.26,-621.48C279.26,-610.68 0,-581.21 0,-541 0,-541 0,-541 0,-191 0,-151.16 261.2,-123.74 397.03,-112.17"/>
<polygon fill="#528b8b" stroke="#528b8b" points="407.38,-111.3 397.8,-116.62 402.4,-111.72 397.42,-112.14 397.42,-112.14 397.42,-112.14 402.4,-111.72 397.04,-107.65 407.38,-111.3 407.38,-111.3"/>
<text text-anchor="middle" x="27.5" y="-362.3" font-family="Arial" font-size="14.00">SERVES</text>
<text text-anchor="middle" x="396.88" y="-115.1" font-family="Arial" font-size="14.00">0..*</text>
<text text-anchor="middle" x="388.76" y="-625.28" font-family="Arial" font-size="14.00">0..*</text>
</g>
<!-- o&#45;ran&#45;smo&#45;teiv&#45;ranOCUCPFunction -->
<g id="node16" class="node">
<title>o&#45;ran&#45;smo&#45;teiv&#45;ranOCUCPFunction</title>
<polygon fill="#366f34" fill-opacity="0.254902" stroke="black" points="565,-297 447,-297 447,-261 565,-261 565,-297"/>
<text text-anchor="middle" x="506" y="-275.3" font-family="Arial" font-size="14.00">OCUCPFunction</text>
</g>
<!-- o&#45;ran&#45;smo&#45;teiv&#45;cloudNFDeployment&#45;&gt;o&#45;ran&#45;smo&#45;teiv&#45;ranOCUCPFunction -->
<g id="edge4" class="edge">
<title>o&#45;ran&#45;smo&#45;teiv&#45;cloudNFDeployment&#45;&gt;o&#45;ran&#45;smo&#45;teiv&#45;ranOCUCPFunction</title>
<path fill="none" stroke="#528b8b" d="M452.89,-608.74C452.93,-575.08 454.32,-498.4 465,-435 466.38,-426.81 467.83,-425.02 470,-417 480.3,-378.9 491.83,-334.72 499.01,-307.07"/>
<polygon fill="#528b8b" stroke="#528b8b" points="501.53,-297.32 503.38,-308.13 500.28,-302.16 499.02,-307 499.02,-307 499.02,-307 500.28,-302.16 494.67,-305.87 501.53,-297.32 501.53,-297.32"/>
<text text-anchor="middle" x="492.5" y="-449.3" font-family="Arial" font-size="14.00">SERVES</text>
<text text-anchor="middle" x="491.03" y="-301.12" font-family="Arial" font-size="14.00">0..*</text>
<text text-anchor="middle" x="463.39" y="-597.54" font-family="Arial" font-size="14.00">0..*</text>
</g>
<!-- o&#45;ran&#45;smo&#45;teiv&#45;ranOCUUPFunction -->
<g id="node17" class="node">
<title>o&#45;ran&#45;smo&#45;teiv&#45;ranOCUUPFunction</title>
<polygon fill="#366f34" fill-opacity="0.254902" stroke="black" points="441,-210 323,-210 323,-174 441,-174 441,-210"/>
<text text-anchor="middle" x="382" y="-188.3" font-family="Arial" font-size="14.00">OCUUPFunction</text>
</g>
<!-- o&#45;ran&#45;smo&#45;teiv&#45;cloudNFDeployment&#45;&gt;o&#45;ran&#45;smo&#45;teiv&#45;ranOCUUPFunction -->
<g id="edge3" class="edge">
<title>o&#45;ran&#45;smo&#45;teiv&#45;cloudNFDeployment&#45;&gt;o&#45;ran&#45;smo&#45;teiv&#45;ranOCUUPFunction</title>
<path fill="none" stroke="#528b8b" d="M399.49,-614.03C314.47,-591.8 151.1,-535.24 82,-417 75.96,-406.67 58,-313.39 107,-261 134.71,-231.37 240.93,-211.69 312.95,-201.44"/>
<polygon fill="#528b8b" stroke="#528b8b" points="322.87,-200.05 313.59,-205.89 317.92,-200.74 312.97,-201.43 312.97,-201.43 312.97,-201.43 317.92,-200.74 312.35,-196.98 322.87,-200.05 322.87,-200.05"/>
<text text-anchor="middle" x="109.5" y="-405.8" font-family="Arial" font-size="14.00">SERVES</text>
<text text-anchor="middle" x="312.37" y="-203.85" font-family="Arial" font-size="14.00">0..*</text>
<text text-anchor="middle" x="388.99" y="-602.83" font-family="Arial" font-size="14.00">0..*</text>
</g>
<!-- o&#45;ran&#45;smo&#45;teiv&#45;ranODUFunction -->
<g id="node18" class="node">
<title>o&#45;ran&#45;smo&#45;teiv&#45;ranODUFunction</title>
<polygon fill="#366f34" fill-opacity="0.254902" stroke="black" points="777.5,-384 678.5,-384 678.5,-348 777.5,-348 777.5,-384"/>
<text text-anchor="middle" x="728" y="-362.3" font-family="Arial" font-size="14.00">ODUFunction</text>
</g>
<!-- o&#45;ran&#45;smo&#45;teiv&#45;cloudNFDeployment&#45;&gt;o&#45;ran&#45;smo&#45;teiv&#45;ranODUFunction -->
<g id="edge2" class="edge">
<title>o&#45;ran&#45;smo&#45;teiv&#45;cloudNFDeployment&#45;&gt;o&#45;ran&#45;smo&#45;teiv&#45;ranODUFunction</title>
<path fill="none" stroke="#528b8b" d="M506.46,-608.95C575.79,-585.58 690.42,-542.12 712,-504 715.28,-498.2 713.07,-495.58 712,-489 707.95,-464.03 705.94,-457.3 694,-435 689.22,-426.06 683.29,-426.59 680,-417 677.84,-410.69 676.98,-407.94 680,-402 682.05,-397.96 684.82,-394.28 687.98,-390.95"/>
<polygon fill="#528b8b" stroke="#528b8b" points="695.45,-384.21 691.04,-394.25 691.74,-387.56 688.02,-390.91 688.02,-390.91 688.02,-390.91 691.74,-387.56 685.01,-387.57 695.45,-384.21 695.45,-384.21"/>
<text text-anchor="middle" x="740.5" y="-492.8" font-family="Arial" font-size="14.00">SERVES</text>
<text text-anchor="middle" x="684.95" y="-388.01" font-family="Arial" font-size="14.00">0..*</text>
<text text-anchor="middle" x="495.96" y="-597.75" font-family="Arial" font-size="14.00">0..*</text>
</g>
<!-- o&#45;ran&#45;smo&#45;teiv&#45;cloudNodeCluster -->
<g id="node3" class="node">
<title>o&#45;ran&#45;smo&#45;teiv&#45;cloudNodeCluster</title>
<polygon fill="#89240a" fill-opacity="0.254902" stroke="black" points="1344,-471 1252,-471 1252,-435 1344,-435 1344,-471"/>
<text text-anchor="middle" x="1298" y="-449.3" font-family="Arial" font-size="14.00">NodeCluster</text>
</g>
<!-- o&#45;ran&#45;smo&#45;teiv&#45;cloudOCloudSite -->
<g id="node5" class="node">
<title>o&#45;ran&#45;smo&#45;teiv&#45;cloudOCloudSite</title>
<polygon fill="#89240a" fill-opacity="0.254902" stroke="black" points="1370,-384 1284,-384 1284,-348 1370,-348 1370,-384"/>
<text text-anchor="middle" x="1327" y="-362.3" font-family="Arial" font-size="14.00">OCloudSite</text>
</g>
<!-- o&#45;ran&#45;smo&#45;teiv&#45;cloudNodeCluster&#45;&gt;o&#45;ran&#45;smo&#45;teiv&#45;cloudOCloudSite -->
<g id="edge8" class="edge">
<title>o&#45;ran&#45;smo&#45;teiv&#45;cloudNodeCluster&#45;&gt;o&#45;ran&#45;smo&#45;teiv&#45;cloudOCloudSite</title>
<path fill="none" stroke="#528b8b" d="M1303.87,-434.8C1307.88,-423.05 1313.27,-407.24 1317.84,-393.84"/>
<polygon fill="#528b8b" stroke="#528b8b" points="1321.14,-384.18 1322.17,-395.09 1319.53,-388.91 1317.91,-393.64 1317.91,-393.64 1317.91,-393.64 1319.53,-388.91 1313.65,-392.19 1321.14,-384.18 1321.14,-384.18"/>
<text text-anchor="middle" x="1346" y="-405.8" font-family="Arial" font-size="14.00">LOCATED</text>
<text text-anchor="middle" x="1310.64" y="-387.98" font-family="Arial" font-size="14.00">1..*</text>
<text text-anchor="middle" x="1293.37" y="-423.6" font-family="Arial" font-size="14.00">1..*</text>
</g>
<!-- o&#45;ran&#45;smo&#45;teiv&#45;cloudOCloudNamespace&#45;&gt;o&#45;ran&#45;smo&#45;teiv&#45;cloudNodeCluster -->
<g id="edge9" class="edge">
<title>o&#45;ran&#45;smo&#45;teiv&#45;cloudOCloudNamespace&#45;&gt;o&#45;ran&#45;smo&#45;teiv&#45;cloudNodeCluster</title>
<path fill="none" stroke="#528b8b" d="M1008.18,-522.81C1076.06,-506.7 1179,-482.26 1242.18,-467.25"/>
<polygon fill="#528b8b" stroke="#528b8b" points="1251.97,-464.93 1243.28,-471.62 1247.1,-466.09 1242.24,-467.24 1242.24,-467.24 1242.24,-467.24 1247.1,-466.09 1241.2,-462.86 1251.97,-464.93 1251.97,-464.93"/>
<text text-anchor="middle" x="1177.5" y="-492.8" font-family="Arial" font-size="14.00">DEPLOYED</text>
<text text-anchor="middle" x="1241.47" y="-468.73" font-family="Arial" font-size="14.00">1..*</text>
<text text-anchor="middle" x="996.68" y="-511.61" font-family="Arial" font-size="14.00">1..1</text>
</g>
<!-- o&#45;ran&#45;smo&#45;teiv&#45;equipmentAntennaModule -->
<g id="node6" class="node">
<title>o&#45;ran&#45;smo&#45;teiv&#45;equipmentAntennaModule</title>
<polygon fill="#9a38e3" fill-opacity="0.254902" stroke="black" points="1266,-384 1154,-384 1154,-348 1266,-348 1266,-384"/>
<text text-anchor="middle" x="1210" y="-362.3" font-family="Arial" font-size="14.00">AntennaModule</text>
</g>
<!-- o&#45;ran&#45;smo&#45;teiv&#45;equipmentSite -->
<g id="node7" class="node">
<title>o&#45;ran&#45;smo&#45;teiv&#45;equipmentSite</title>
<polygon fill="#9a38e3" fill-opacity="0.254902" stroke="black" points="1303,-297 1249,-297 1249,-261 1303,-261 1303,-297"/>
<text text-anchor="middle" x="1276" y="-275.3" font-family="Arial" font-size="14.00">Site</text>
</g>
<!-- o&#45;ran&#45;smo&#45;teiv&#45;equipmentAntennaModule&#45;&gt;o&#45;ran&#45;smo&#45;teiv&#45;equipmentSite -->
<g id="edge12" class="edge">
<title>o&#45;ran&#45;smo&#45;teiv&#45;equipmentAntennaModule&#45;&gt;o&#45;ran&#45;smo&#45;teiv&#45;equipmentSite</title>
<path fill="none" stroke="#528b8b" d="M1223.36,-347.8C1232.84,-335.59 1245.72,-318.99 1256.37,-305.28"/>
<polygon fill="#528b8b" stroke="#528b8b" points="1262.66,-297.18 1260.09,-307.83 1259.6,-301.12 1256.53,-305.07 1256.53,-305.07 1256.53,-305.07 1259.6,-301.12 1252.98,-302.31 1262.66,-297.18 1262.66,-297.18"/>
<text text-anchor="middle" x="1282.5" y="-318.8" font-family="Arial" font-size="14.00">INSTALLED</text>
<text text-anchor="middle" x="1252.16" y="-300.98" font-family="Arial" font-size="14.00">0..*</text>
<text text-anchor="middle" x="1234.86" y="-336.6" font-family="Arial" font-size="14.00">0..1</text>
</g>
<!-- o&#45;ran&#45;smo&#45;teiv&#45;ranAntennaCapability -->
<g id="node11" class="node">
<title>o&#45;ran&#45;smo&#45;teiv&#45;ranAntennaCapability</title>
<polygon fill="#366f34" fill-opacity="0.254902" stroke="black" points="1098,-123 972,-123 972,-87 1098,-87 1098,-123"/>
<text text-anchor="middle" x="1035" y="-101.3" font-family="Arial" font-size="14.00">AntennaCapability</text>
</g>
<!-- o&#45;ran&#45;smo&#45;teiv&#45;equipmentAntennaModule&#45;&gt;o&#45;ran&#45;smo&#45;teiv&#45;ranAntennaCapability -->
<g id="edge11" class="edge">
<title>o&#45;ran&#45;smo&#45;teiv&#45;equipmentAntennaModule&#45;&gt;o&#45;ran&#45;smo&#45;teiv&#45;ranAntennaCapability</title>
<path fill="none" stroke="#528b8b" d="M1212.93,-347.7C1216.65,-320.38 1220.27,-266.41 1199,-228 1173.3,-181.58 1121.68,-147.77 1083.18,-127.67"/>
<polygon fill="#528b8b" stroke="#528b8b" points="1074.2,-123.1 1085.15,-123.62 1078.65,-125.37 1083.11,-127.64 1083.11,-127.64 1083.11,-127.64 1078.65,-125.37 1081.07,-131.65 1074.2,-123.1 1074.2,-123.1"/>
<text text-anchor="middle" x="1232.5" y="-231.8" font-family="Arial" font-size="14.00">SERVES</text>
<text text-anchor="middle" x="1063.7" y="-126.9" font-family="Arial" font-size="14.00">0..*</text>
<text text-anchor="middle" x="1202.43" y="-336.5" font-family="Arial" font-size="14.00">0..*</text>
</g>
<!-- o&#45;ran&#45;smo&#45;teiv&#45;ranNRCellDU -->
<g id="node13" class="node">
<title>o&#45;ran&#45;smo&#45;teiv&#45;ranNRCellDU</title>
<polygon fill="#366f34" fill-opacity="0.254902" stroke="black" points="1090.5,-297 1011.5,-297 1011.5,-261 1090.5,-261 1090.5,-297"/>
<text text-anchor="middle" x="1051" y="-275.3" font-family="Arial" font-size="14.00">NRCellDU</text>
</g>
<!-- o&#45;ran&#45;smo&#45;teiv&#45;equipmentAntennaModule&#45;&gt;o&#45;ran&#45;smo&#45;teiv&#45;ranNRCellDU -->
<g id="edge10" class="edge">
<title>o&#45;ran&#45;smo&#45;teiv&#45;equipmentAntennaModule&#45;&gt;o&#45;ran&#45;smo&#45;teiv&#45;ranNRCellDU</title>
<path fill="none" stroke="#528b8b" d="M1177.82,-347.8C1153.07,-334.56 1118.68,-316.18 1091.96,-301.9"/>
<polygon fill="#528b8b" stroke="#528b8b" points="1082.86,-297.03 1093.8,-297.78 1087.27,-299.39 1091.68,-301.74 1091.68,-301.74 1091.68,-301.74 1087.27,-299.39 1089.55,-305.71 1082.86,-297.03 1082.86,-297.03"/>
<text text-anchor="middle" x="1167.5" y="-318.8" font-family="Arial" font-size="14.00">SERVES</text>
<text text-anchor="middle" x="1072.36" y="-300.83" font-family="Arial" font-size="14.00">1..*</text>
<text text-anchor="middle" x="1167.32" y="-336.6" font-family="Arial" font-size="14.00">0..*</text>
</g>
<!-- o&#45;ran&#45;smo&#45;teiv&#45;oamManagedElement&#45;&gt;o&#45;ran&#45;smo&#45;teiv&#45;cloudCloudifiedNF -->
<g id="edge18" class="edge">
<title>o&#45;ran&#45;smo&#45;teiv&#45;oamManagedElement&#45;&gt;o&#45;ran&#45;smo&#45;teiv&#45;cloudCloudifiedNF</title>
<path fill="none" stroke="#528b8b" d="M552.82,-558.43C554.86,-585.46 555.78,-638.48 537,-678 535.35,-681.46 533.22,-684.78 530.81,-687.9"/>
<polygon fill="#528b8b" stroke="#528b8b" points="523.97,-695.66 527.21,-685.18 527.28,-691.91 530.59,-688.16 530.59,-688.16 530.59,-688.16 527.28,-691.91 533.96,-691.14 523.97,-695.66 523.97,-695.66"/>
<text text-anchor="middle" x="590.5" y="-623.3" font-family="Arial" font-size="14.00">DEPLOYED</text>
<text text-anchor="middle" x="512.47" y="-684.46" font-family="Arial" font-size="14.00">1..1</text>
<text text-anchor="middle" x="541.32" y="-562.23" font-family="Arial" font-size="14.00">0..1</text>
</g>
<!-- o&#45;ran&#45;smo&#45;teiv&#45;oamManagedElement&#45;&gt;o&#45;ran&#45;smo&#45;teiv&#45;ranNearRTRICFunction -->
<g id="edge17" class="edge">
<title>o&#45;ran&#45;smo&#45;teiv&#45;oamManagedElement&#45;&gt;o&#45;ran&#45;smo&#45;teiv&#45;ranNearRTRICFunction</title>
<path fill="none" stroke="#528b8b" d="M558.44,-521.74C575.08,-483.61 617.2,-389.67 660,-315 664.78,-306.66 669.21,-306.2 672,-297 676.64,-281.69 675.49,-276.61 672,-261 662.66,-219.29 661.59,-203.85 631,-174 609.01,-152.55 579.12,-137.25 551.52,-126.66"/>
<polygon fill="#528b8b" stroke="#528b8b" points="541.87,-123.12 552.81,-122.34 546.56,-124.84 551.26,-126.57 551.26,-126.57 551.26,-126.57 546.56,-124.84 549.7,-130.79 541.87,-123.12 541.87,-123.12"/>
<text text-anchor="middle" x="695" y="-318.8" font-family="Arial" font-size="14.00">MANAGES</text>
<text text-anchor="middle" x="530.37" y="-126.92" font-family="Arial" font-size="14.00">1..1</text>
<text text-anchor="middle" x="568.94" y="-510.54" font-family="Arial" font-size="14.00">0..*</text>
</g>
<!-- o&#45;ran&#45;smo&#45;teiv&#45;oamManagedElement&#45;&gt;o&#45;ran&#45;smo&#45;teiv&#45;ranOCUCPFunction -->
<g id="edge16" class="edge">
<title>o&#45;ran&#45;smo&#45;teiv&#45;oamManagedElement&#45;&gt;o&#45;ran&#45;smo&#45;teiv&#45;ranOCUCPFunction</title>
<path fill="none" stroke="#528b8b" d="M545.78,-521.8C538.85,-498.33 526.71,-454.87 520,-417 513.34,-379.38 509.54,-335.35 507.62,-307.57"/>
<polygon fill="#528b8b" stroke="#528b8b" points="506.96,-297.41 512.1,-307.1 507.28,-302.4 507.61,-307.39 507.61,-307.39 507.61,-307.39 507.28,-302.4 503.12,-307.69 506.96,-297.41 506.96,-297.41"/>
<text text-anchor="middle" x="555" y="-405.8" font-family="Arial" font-size="14.00">MANAGES</text>
<text text-anchor="middle" x="518.46" y="-301.21" font-family="Arial" font-size="14.00">1..1</text>
<text text-anchor="middle" x="535.28" y="-510.6" font-family="Arial" font-size="14.00">0..*</text>
</g>
<!-- o&#45;ran&#45;smo&#45;teiv&#45;oamManagedElement&#45;&gt;o&#45;ran&#45;smo&#45;teiv&#45;ranOCUUPFunction -->
<g id="edge15" class="edge">
<title>o&#45;ran&#45;smo&#45;teiv&#45;oamManagedElement&#45;&gt;o&#45;ran&#45;smo&#45;teiv&#45;ranOCUUPFunction</title>
<path fill="none" stroke="#528b8b" d="M541.83,-521.72C528.53,-498.36 501.63,-457.11 467,-435 439.2,-417.25 416.04,-442.4 395,-417 348.31,-360.65 363.15,-266.37 374.35,-220.18"/>
<polygon fill="#528b8b" stroke="#528b8b" points="376.87,-210.3 378.76,-221.1 375.64,-215.15 374.4,-219.99 374.4,-219.99 374.4,-219.99 375.64,-215.15 370.04,-218.88 376.87,-210.3 376.87,-210.3"/>
<text text-anchor="middle" x="411" y="-362.3" font-family="Arial" font-size="14.00">MANAGES</text>
<text text-anchor="middle" x="365.37" y="-214.1" font-family="Arial" font-size="14.00">1..1</text>
<text text-anchor="middle" x="552.33" y="-510.52" font-family="Arial" font-size="14.00">0..*</text>
</g>
<!-- o&#45;ran&#45;smo&#45;teiv&#45;oamManagedElement&#45;&gt;o&#45;ran&#45;smo&#45;teiv&#45;ranODUFunction -->
<g id="edge14" class="edge">
<title>o&#45;ran&#45;smo&#45;teiv&#45;oamManagedElement&#45;&gt;o&#45;ran&#45;smo&#45;teiv&#45;ranODUFunction</title>
<path fill="none" stroke="#528b8b" d="M575.92,-521.8C582.34,-516.58 588.87,-510.5 594,-504 625.14,-464.51 606.43,-436.53 643,-402 650.4,-395.01 659.38,-389.34 668.7,-384.75"/>
<polygon fill="#528b8b" stroke="#528b8b" points="678.09,-380.52 670.82,-388.73 673.53,-382.57 668.97,-384.63 668.97,-384.63 668.97,-384.63 673.53,-382.57 667.13,-380.53 678.09,-380.52 678.09,-380.52"/>
<text text-anchor="middle" x="655" y="-449.3" font-family="Arial" font-size="14.00">MANAGES</text>
<text text-anchor="middle" x="666.59" y="-369.32" font-family="Arial" font-size="14.00">1..1</text>
<text text-anchor="middle" x="586.42" y="-510.6" font-family="Arial" font-size="14.00">0..*</text>
</g>
<!-- o&#45;ran&#45;smo&#45;teiv&#45;ranORUFunction -->
<g id="node19" class="node">
<title>o&#45;ran&#45;smo&#45;teiv&#45;ranORUFunction</title>
<polygon fill="#366f34" fill-opacity="0.254902" stroke="black" points="923.5,-471 824.5,-471 824.5,-435 923.5,-435 923.5,-471"/>
<text text-anchor="middle" x="874" y="-449.3" font-family="Arial" font-size="14.00">ORUFunction</text>
</g>
<!-- o&#45;ran&#45;smo&#45;teiv&#45;oamManagedElement&#45;&gt;o&#45;ran&#45;smo&#45;teiv&#45;ranORUFunction -->
<g id="edge13" class="edge">
<title>o&#45;ran&#45;smo&#45;teiv&#45;oamManagedElement&#45;&gt;o&#45;ran&#45;smo&#45;teiv&#45;ranORUFunction</title>
<path fill="none" stroke="#528b8b" d="M585.96,-521.87C596.69,-516.39 608.44,-510.14 619,-504 629.55,-497.87 630.59,-493.34 642,-489 698.03,-467.66 766.33,-459.29 814.27,-456.03"/>
<polygon fill="#528b8b" stroke="#528b8b" points="824.48,-455.39 814.78,-460.51 819.49,-455.7 814.5,-456.02 814.5,-456.02 814.5,-456.02 819.49,-455.7 814.22,-451.52 824.48,-455.39 824.48,-455.39"/>
<text text-anchor="middle" x="677" y="-492.8" font-family="Arial" font-size="14.00">MANAGES</text>
<text text-anchor="middle" x="812.98" y="-459.19" font-family="Arial" font-size="14.00">1..1</text>
<text text-anchor="middle" x="596.46" y="-510.67" font-family="Arial" font-size="14.00">0..*</text>
</g>
<!-- o&#45;ran&#45;smo&#45;teiv&#45;physicalPhysicalAppliance -->
<g id="node9" class="node">
<title>o&#45;ran&#45;smo&#45;teiv&#45;physicalPhysicalAppliance</title>
<polygon fill="#074ee2" fill-opacity="0.254902" stroke="black" points="330,-471 204,-471 204,-435 330,-435 330,-471"/>
<text text-anchor="middle" x="267" y="-449.3" font-family="Arial" font-size="14.00">PhysicalAppliance</text>
</g>
<!-- o&#45;ran&#45;smo&#45;teiv&#45;physicalSite -->
<g id="node10" class="node">
<title>o&#45;ran&#45;smo&#45;teiv&#45;physicalSite</title>
<polygon fill="#074ee2" fill-opacity="0.254902" stroke="black" points="211,-384 157,-384 157,-348 211,-348 211,-384"/>
<text text-anchor="middle" x="184" y="-362.3" font-family="Arial" font-size="14.00">Site</text>
</g>
<!-- o&#45;ran&#45;smo&#45;teiv&#45;physicalPhysicalAppliance&#45;&gt;o&#45;ran&#45;smo&#45;teiv&#45;physicalSite -->
<g id="edge23" class="edge">
<title>o&#45;ran&#45;smo&#45;teiv&#45;physicalPhysicalAppliance&#45;&gt;o&#45;ran&#45;smo&#45;teiv&#45;physicalSite</title>
<path fill="none" stroke="#528b8b" d="M203.79,-444.07C187.95,-438.91 172.73,-430.54 163,-417 157.81,-409.78 159.31,-401.08 163.27,-392.98"/>
<polygon fill="#528b8b" stroke="#528b8b" points="168.56,-384.19 167.25,-395.08 165.98,-388.47 163.4,-392.76 163.4,-392.76 163.4,-392.76 165.98,-388.47 159.54,-390.44 168.56,-384.19 168.56,-384.19"/>
<text text-anchor="middle" x="208" y="-405.8" font-family="Arial" font-size="14.00">INSTALLEDAT</text>
<text text-anchor="middle" x="158.06" y="-387.99" font-family="Arial" font-size="14.00">0..*</text>
<text text-anchor="middle" x="193.29" y="-447.87" font-family="Arial" font-size="14.00">0..*</text>
</g>
<!-- o&#45;ran&#45;smo&#45;teiv&#45;physicalPhysicalAppliance&#45;&gt;o&#45;ran&#45;smo&#45;teiv&#45;ranNearRTRICFunction -->
<g id="edge22" class="edge">
<title>o&#45;ran&#45;smo&#45;teiv&#45;physicalPhysicalAppliance&#45;&gt;o&#45;ran&#45;smo&#45;teiv&#45;ranNearRTRICFunction</title>
<path fill="none" stroke="#528b8b" d="M203.75,-441.11C186.91,-435.91 169.63,-428.26 156,-417 136.53,-400.91 129,-392.26 129,-367 129,-367 129,-367 129,-191 129,-136.08 294.64,-116.48 397.37,-109.61"/>
<polygon fill="#528b8b" stroke="#528b8b" points="407.41,-108.96 397.72,-114.09 402.42,-109.28 397.43,-109.6 397.43,-109.6 397.43,-109.6 402.42,-109.28 397.15,-105.11 407.41,-108.96 407.41,-108.96"/>
<text text-anchor="middle" x="156.5" y="-275.3" font-family="Arial" font-size="14.00">SERVES</text>
<text text-anchor="middle" x="396.91" y="-97.76" font-family="Arial" font-size="14.00">0..*</text>
<text text-anchor="middle" x="193.25" y="-429.91" font-family="Arial" font-size="14.00">0..*</text>
</g>
<!-- o&#45;ran&#45;smo&#45;teiv&#45;physicalPhysicalAppliance&#45;&gt;o&#45;ran&#45;smo&#45;teiv&#45;ranOCUCPFunction -->
<g id="edge21" class="edge">
<title>o&#45;ran&#45;smo&#45;teiv&#45;physicalPhysicalAppliance&#45;&gt;o&#45;ran&#45;smo&#45;teiv&#45;ranOCUCPFunction</title>
<path fill="none" stroke="#528b8b" d="M272.56,-434.77C281.7,-406.88 299.53,-354.27 306,-348 341.23,-313.85 394.25,-296.82 436.85,-288.35"/>
<polygon fill="#528b8b" stroke="#528b8b" points="446.88,-286.47 437.88,-292.73 441.97,-287.39 437.05,-288.31 437.05,-288.31 437.05,-288.31 441.97,-287.39 436.23,-283.89 446.88,-286.47 446.88,-286.47"/>
<text text-anchor="middle" x="333.5" y="-362.3" font-family="Arial" font-size="14.00">SERVES</text>
<text text-anchor="middle" x="436.38" y="-290.27" font-family="Arial" font-size="14.00">0..*</text>
<text text-anchor="middle" x="262.06" y="-423.57" font-family="Arial" font-size="14.00">0..*</text>
</g>
<!-- o&#45;ran&#45;smo&#45;teiv&#45;physicalPhysicalAppliance&#45;&gt;o&#45;ran&#45;smo&#45;teiv&#45;ranOCUUPFunction -->
<g id="edge20" class="edge">
<title>o&#45;ran&#45;smo&#45;teiv&#45;physicalPhysicalAppliance&#45;&gt;o&#45;ran&#45;smo&#45;teiv&#45;ranOCUUPFunction</title>
<path fill="none" stroke="#528b8b" d="M268.39,-434.91C270.53,-413.87 275.63,-377.31 287,-348 306.11,-298.72 340.87,-247.58 362.63,-218.11"/>
<polygon fill="#528b8b" stroke="#528b8b" points="368.67,-210.04 366.28,-220.74 365.67,-214.04 362.68,-218.05 362.68,-218.05 362.68,-218.05 365.67,-214.04 359.07,-215.35 368.67,-210.04 368.67,-210.04"/>
<text text-anchor="middle" x="328.5" y="-318.8" font-family="Arial" font-size="14.00">SERVES</text>
<text text-anchor="middle" x="379.17" y="-213.84" font-family="Arial" font-size="14.00">0..*</text>
<text text-anchor="middle" x="278.89" y="-423.71" font-family="Arial" font-size="14.00">0..*</text>
</g>
<!-- o&#45;ran&#45;smo&#45;teiv&#45;physicalPhysicalAppliance&#45;&gt;o&#45;ran&#45;smo&#45;teiv&#45;ranODUFunction -->
<g id="edge19" class="edge">
<title>o&#45;ran&#45;smo&#45;teiv&#45;physicalPhysicalAppliance&#45;&gt;o&#45;ran&#45;smo&#45;teiv&#45;ranODUFunction</title>
<path fill="none" stroke="#528b8b" d="M318.55,-434.97C353.13,-424.12 399.88,-410.54 442,-402 519.35,-386.32 609.99,-376.67 668.16,-371.58"/>
<polygon fill="#528b8b" stroke="#528b8b" points="678.28,-370.71 668.7,-376.05 673.3,-371.14 668.31,-371.56 668.31,-371.56 668.31,-371.56 673.3,-371.14 667.93,-367.08 678.28,-370.71 678.28,-370.71"/>
<text text-anchor="middle" x="469.5" y="-405.8" font-family="Arial" font-size="14.00">SERVES</text>
<text text-anchor="middle" x="667.78" y="-359.51" font-family="Arial" font-size="14.00">0..*</text>
<text text-anchor="middle" x="308.05" y="-423.77" font-family="Arial" font-size="14.00">0..*</text>
</g>
<!-- o&#45;ran&#45;smo&#45;teiv&#45;ranNRCellCU -->
<g id="node12" class="node">
<title>o&#45;ran&#45;smo&#45;teiv&#45;ranNRCellCU</title>
<polygon fill="#366f34" fill-opacity="0.254902" stroke="black" points="621.5,-210 542.5,-210 542.5,-174 621.5,-174 621.5,-210"/>
<text text-anchor="middle" x="582" y="-188.3" font-family="Arial" font-size="14.00">NRCellCU</text>
</g>
<!-- o&#45;ran&#45;smo&#45;teiv&#45;ranNRSectorCarrier -->
<g id="node14" class="node">
<title>o&#45;ran&#45;smo&#45;teiv&#45;ranNRSectorCarrier</title>
<polygon fill="#366f34" fill-opacity="0.254902" stroke="black" points="1093,-210 977,-210 977,-174 1093,-174 1093,-210"/>
<text text-anchor="middle" x="1035" y="-188.3" font-family="Arial" font-size="14.00">NRSectorCarrier</text>
</g>
<!-- o&#45;ran&#45;smo&#45;teiv&#45;ranNRCellDU&#45;&gt;o&#45;ran&#45;smo&#45;teiv&#45;ranNRSectorCarrier -->
<g id="edge24" class="edge">
<title>o&#45;ran&#45;smo&#45;teiv&#45;ranNRCellDU&#45;&gt;o&#45;ran&#45;smo&#45;teiv&#45;ranNRSectorCarrier</title>
<path fill="none" stroke="#528b8b" d="M1047.76,-260.8C1045.57,-249.16 1042.63,-233.55 1040.13,-220.24"/>
<polygon fill="#528b8b" stroke="#528b8b" points="1038.23,-210.18 1044.51,-219.17 1039.16,-215.09 1040.08,-220 1040.08,-220 1040.08,-220 1039.16,-215.09 1035.66,-220.84 1038.23,-210.18 1038.23,-210.18"/>
<text text-anchor="middle" x="1061.5" y="-231.8" font-family="Arial" font-size="14.00">USES</text>
<text text-anchor="middle" x="1026.73" y="-213.98" font-family="Arial" font-size="14.00">0..1</text>
<text text-anchor="middle" x="1037.26" y="-249.6" font-family="Arial" font-size="14.00">0..*</text>
</g>
<!-- o&#45;ran&#45;smo&#45;teiv&#45;ranNRSectorCarrier&#45;&gt;o&#45;ran&#45;smo&#45;teiv&#45;ranAntennaCapability -->
<g id="edge25" class="edge">
<title>o&#45;ran&#45;smo&#45;teiv&#45;ranNRSectorCarrier&#45;&gt;o&#45;ran&#45;smo&#45;teiv&#45;ranAntennaCapability</title>
<path fill="none" stroke="#528b8b" d="M1035,-173.8C1035,-162.16 1035,-146.55 1035,-133.24"/>
<polygon fill="#528b8b" stroke="#528b8b" points="1035,-123.18 1039.5,-133.18 1035,-128.18 1035,-133.18 1035,-133.18 1035,-133.18 1035,-128.18 1030.5,-133.18 1035,-123.18 1035,-123.18"/>
<text text-anchor="middle" x="1053.5" y="-144.8" font-family="Arial" font-size="14.00">USES</text>
<text text-anchor="middle" x="1024.5" y="-126.98" font-family="Arial" font-size="14.00">0..*</text>
<text text-anchor="middle" x="1023.5" y="-162.6" font-family="Arial" font-size="14.00">0..1</text>
</g>
<!-- o&#45;ran&#45;smo&#45;teiv&#45;ranSMO -->
<g id="node20" class="node">
<title>o&#45;ran&#45;smo&#45;teiv&#45;ranSMO</title>
<polygon fill="#366f34" fill-opacity="0.254902" stroke="black" points="826,-36 772,-36 772,0 826,0 826,-36"/>
<text text-anchor="middle" x="799" y="-14.3" font-family="Arial" font-size="14.00">SMO</text>
</g>
<!-- o&#45;ran&#45;smo&#45;teiv&#45;ranNearRTRICFunction&#45;&gt;o&#45;ran&#45;smo&#45;teiv&#45;ranSMO -->
<g id="edge26" class="edge">
<title>o&#45;ran&#45;smo&#45;teiv&#45;ranNearRTRICFunction&#45;&gt;o&#45;ran&#45;smo&#45;teiv&#45;ranSMO</title>
<path fill="none" stroke="#528b8b" d="M541.77,-86.9C607.85,-69.46 708.09,-43 761.85,-28.81"/>
<polygon fill="#528b8b" stroke="#528b8b" points="771.64,-26.22 763.12,-33.13 766.8,-27.5 761.97,-28.78 761.97,-28.78 761.97,-28.78 766.8,-27.5 760.82,-24.42 771.64,-26.22 771.64,-26.22"/>
<text text-anchor="middle" x="681.5" y="-57.8" font-family="Arial" font-size="14.00">O1LINK</text>
<text text-anchor="middle" x="761.14" y="-30.02" font-family="Arial" font-size="14.00">0..*</text>
<text text-anchor="middle" x="530.27" y="-75.7" font-family="Arial" font-size="14.00">0..1</text>
</g>
<!-- o&#45;ran&#45;smo&#45;teiv&#45;ranOCUCPFunction&#45;&gt;o&#45;ran&#45;smo&#45;teiv&#45;ranNRCellCU -->
<g id="edge27" class="edge">
<title>o&#45;ran&#45;smo&#45;teiv&#45;ranOCUCPFunction&#45;&gt;o&#45;ran&#45;smo&#45;teiv&#45;ranNRCellCU</title>
<path fill="none" stroke="#528b8b" d="M521.38,-260.8C532.4,-248.47 547.42,-231.68 559.75,-217.89"/>
<polygon fill="#528b8b" stroke="#528b8b" points="566.64,-210.18 563.33,-220.63 563.31,-213.9 559.98,-217.63 559.98,-217.63 559.98,-217.63 563.31,-213.9 556.62,-214.63 566.64,-210.18 566.64,-210.18"/>
<text text-anchor="middle" x="584.5" y="-231.8" font-family="Arial" font-size="14.00">PROVIDES</text>
<text text-anchor="middle" x="555.14" y="-213.98" font-family="Arial" font-size="14.00">1..1</text>
<text text-anchor="middle" x="510.88" y="-249.6" font-family="Arial" font-size="14.00">0..*</text>
</g>
<!-- o&#45;ran&#45;smo&#45;teiv&#45;ranOCUCPFunction&#45;&gt;o&#45;ran&#45;smo&#45;teiv&#45;ranNearRTRICFunction -->
<g id="edge29" class="edge">
<title>o&#45;ran&#45;smo&#45;teiv&#45;ranOCUCPFunction&#45;&gt;o&#45;ran&#45;smo&#45;teiv&#45;ranNearRTRICFunction</title>
<path fill="none" stroke="#528b8b" d="M500.31,-260.87C496,-247.24 490.28,-227.59 487,-210 482.19,-184.19 479.62,-154.31 478.3,-133.22"/>
<polygon fill="#528b8b" stroke="#528b8b" points="477.72,-123.06 482.78,-132.79 478,-128.05 478.29,-133.04 478.29,-133.04 478.29,-133.04 478,-128.05 473.8,-133.3 477.72,-123.06 477.72,-123.06"/>
<text text-anchor="middle" x="510.5" y="-188.3" font-family="Arial" font-size="14.00">E2LINK</text>
<text text-anchor="middle" x="467.22" y="-126.86" font-family="Arial" font-size="14.00">0..*</text>
<text text-anchor="middle" x="488.81" y="-249.67" font-family="Arial" font-size="14.00">0..1</text>
</g>
<!-- o&#45;ran&#45;smo&#45;teiv&#45;ranOCUCPFunction&#45;&gt;o&#45;ran&#45;smo&#45;teiv&#45;ranOCUUPFunction -->
<g id="edge30" class="edge">
<title>o&#45;ran&#45;smo&#45;teiv&#45;ranOCUCPFunction&#45;&gt;o&#45;ran&#45;smo&#45;teiv&#45;ranOCUUPFunction</title>
<path fill="none" stroke="#528b8b" d="M450.15,-260.86C439.21,-256.07 428.27,-250.17 419,-243 410.5,-236.43 403.02,-227.42 397.05,-218.86"/>
<polygon fill="#528b8b" stroke="#528b8b" points="391.4,-210.21 400.64,-216.12 394.14,-214.4 396.87,-218.58 396.87,-218.58 396.87,-218.58 394.14,-214.4 393.11,-221.05 391.4,-210.21 391.4,-210.21"/>
<text text-anchor="middle" x="442.5" y="-231.8" font-family="Arial" font-size="14.00">E1LINK</text>
<text text-anchor="middle" x="401.9" y="-214.01" font-family="Arial" font-size="14.00">0..*</text>
<text text-anchor="middle" x="438.65" y="-249.66" font-family="Arial" font-size="14.00">0..1</text>
</g>
<!-- o&#45;ran&#45;smo&#45;teiv&#45;ranOCUCPFunction&#45;&gt;o&#45;ran&#45;smo&#45;teiv&#45;ranSMO -->
<g id="edge28" class="edge">
<title>o&#45;ran&#45;smo&#45;teiv&#45;ranOCUCPFunction&#45;&gt;o&#45;ran&#45;smo&#45;teiv&#45;ranSMO</title>
<path fill="none" stroke="#528b8b" d="M565.05,-262.19C591.78,-254.72 618.64,-246.65 624,-243 701.65,-190.11 760.59,-92 785.71,-45.18"/>
<polygon fill="#528b8b" stroke="#528b8b" points="790.41,-36.27 789.72,-47.21 788.08,-40.69 785.74,-45.11 785.74,-45.11 785.74,-45.11 788.08,-40.69 781.76,-43.01 790.41,-36.27 790.41,-36.27"/>
<text text-anchor="middle" x="747.5" y="-144.8" font-family="Arial" font-size="14.00">O1LINK</text>
<text text-anchor="middle" x="800.91" y="-40.07" font-family="Arial" font-size="14.00">0..*</text>
<text text-anchor="middle" x="576.55" y="-265.99" font-family="Arial" font-size="14.00">0..1</text>
</g>
<!-- o&#45;ran&#45;smo&#45;teiv&#45;ranOCUUPFunction&#45;&gt;o&#45;ran&#45;smo&#45;teiv&#45;ranNearRTRICFunction -->
<g id="edge31" class="edge">
<title>o&#45;ran&#45;smo&#45;teiv&#45;ranOCUUPFunction&#45;&gt;o&#45;ran&#45;smo&#45;teiv&#45;ranNearRTRICFunction</title>
<path fill="none" stroke="#528b8b" d="M391.05,-173.8C397.11,-163.42 405.84,-150.42 416,-141 420.93,-136.43 426.57,-132.2 432.38,-128.39"/>
<polygon fill="#528b8b" stroke="#528b8b" points="440.95,-123.1 434.8,-132.18 436.69,-125.72 432.44,-128.35 432.44,-128.35 432.44,-128.35 436.69,-125.72 430.07,-124.52 440.95,-123.1 440.95,-123.1"/>
<text text-anchor="middle" x="439.5" y="-144.8" font-family="Arial" font-size="14.00">E2LINK</text>
<text text-anchor="middle" x="430.45" y="-126.9" font-family="Arial" font-size="14.00">0..*</text>
<text text-anchor="middle" x="379.55" y="-162.6" font-family="Arial" font-size="14.00">0..1</text>
</g>
<!-- o&#45;ran&#45;smo&#45;teiv&#45;ranODUFunction&#45;&gt;o&#45;ran&#45;smo&#45;teiv&#45;ranNRCellDU -->
<g id="edge33" class="edge">
<title>o&#45;ran&#45;smo&#45;teiv&#45;ranODUFunction&#45;&gt;o&#45;ran&#45;smo&#45;teiv&#45;ranNRCellDU</title>
<path fill="none" stroke="#528b8b" d="M777.74,-354.56C808.23,-347.96 848,-339.01 883,-330 934.08,-316.85 946.51,-312.25 997,-297 998.44,-296.56 999.9,-296.12 1001.38,-295.67"/>
<polygon fill="#528b8b" stroke="#528b8b" points="1011.22,-292.64 1002.99,-299.88 1006.44,-294.11 1001.66,-295.58 1001.66,-295.58 1001.66,-295.58 1006.44,-294.11 1000.34,-291.28 1011.22,-292.64 1011.22,-292.64"/>
<text text-anchor="middle" x="971.5" y="-318.8" font-family="Arial" font-size="14.00">PROVIDES</text>
<text text-anchor="middle" x="999.72" y="-296.44" font-family="Arial" font-size="14.00">1..1</text>
<text text-anchor="middle" x="788.24" y="-358.36" font-family="Arial" font-size="14.00">0..*</text>
</g>
<!-- o&#45;ran&#45;smo&#45;teiv&#45;ranODUFunction&#45;&gt;o&#45;ran&#45;smo&#45;teiv&#45;ranNRSectorCarrier -->
<g id="edge32" class="edge">
<title>o&#45;ran&#45;smo&#45;teiv&#45;ranODUFunction&#45;&gt;o&#45;ran&#45;smo&#45;teiv&#45;ranNRSectorCarrier</title>
<path fill="none" stroke="#528b8b" d="M773.17,-347.99C786.22,-342.65 800.35,-336.45 813,-330 849.8,-311.22 946.9,-249.63 999.66,-215.78"/>
<polygon fill="#528b8b" stroke="#528b8b" points="1008.36,-210.2 1002.37,-219.39 1004.15,-212.9 999.94,-215.6 999.94,-215.6 999.94,-215.6 1004.15,-212.9 997.51,-211.82 1008.36,-210.2 1008.36,-210.2"/>
<text text-anchor="middle" x="961.5" y="-275.3" font-family="Arial" font-size="14.00">PROVIDES</text>
<text text-anchor="middle" x="996.86" y="-214" font-family="Arial" font-size="14.00">1..1</text>
<text text-anchor="middle" x="783.67" y="-336.79" font-family="Arial" font-size="14.00">0..*</text>
</g>
<!-- o&#45;ran&#45;smo&#45;teiv&#45;ranODUFunction&#45;&gt;o&#45;ran&#45;smo&#45;teiv&#45;ranNearRTRICFunction -->
<g id="edge37" class="edge">
<title>o&#45;ran&#45;smo&#45;teiv&#45;ranODUFunction&#45;&gt;o&#45;ran&#45;smo&#45;teiv&#45;ranNearRTRICFunction</title>
<path fill="none" stroke="#528b8b" d="M731.45,-347.84C739,-304.6 751.63,-191.1 688,-141 667.79,-125.09 607.68,-116.15 556.76,-111.3"/>
<polygon fill="#528b8b" stroke="#528b8b" points="546.72,-110.38 557.08,-106.81 551.69,-110.83 556.67,-111.29 556.67,-111.29 556.67,-111.29 551.69,-110.83 556.26,-115.77 546.72,-110.38 546.72,-110.38"/>
<text text-anchor="middle" x="758.5" y="-231.8" font-family="Arial" font-size="14.00">E2LINK</text>
<text text-anchor="middle" x="557.22" y="-114.18" font-family="Arial" font-size="14.00">0..*</text>
<text text-anchor="middle" x="742.95" y="-336.64" font-family="Arial" font-size="14.00">0..1</text>
</g>
<!-- o&#45;ran&#45;smo&#45;teiv&#45;ranODUFunction&#45;&gt;o&#45;ran&#45;smo&#45;teiv&#45;ranOCUCPFunction -->
<g id="edge36" class="edge">
<title>o&#45;ran&#45;smo&#45;teiv&#45;ranODUFunction&#45;&gt;o&#45;ran&#45;smo&#45;teiv&#45;ranOCUCPFunction</title>
<path fill="none" stroke="#528b8b" d="M678.34,-360.11C630.54,-354.63 562.3,-344.58 540,-330 531,-324.12 523.76,-314.94 518.31,-306.04"/>
<polygon fill="#528b8b" stroke="#528b8b" points="513.28,-297.03 522.08,-303.57 515.72,-301.39 518.15,-305.76 518.15,-305.76 518.15,-305.76 515.72,-301.39 514.22,-307.95 513.28,-297.03 513.28,-297.03"/>
<text text-anchor="middle" x="568" y="-318.8" font-family="Arial" font-size="14.00">F1CLINK</text>
<text text-anchor="middle" x="524.78" y="-300.83" font-family="Arial" font-size="14.00">0..1</text>
<text text-anchor="middle" x="666.84" y="-348.91" font-family="Arial" font-size="14.00">0..1</text>
</g>
<!-- o&#45;ran&#45;smo&#45;teiv&#45;ranODUFunction&#45;&gt;o&#45;ran&#45;smo&#45;teiv&#45;ranOCUUPFunction -->
<g id="edge35" class="edge">
<title>o&#45;ran&#45;smo&#45;teiv&#45;ranODUFunction&#45;&gt;o&#45;ran&#45;smo&#45;teiv&#45;ranOCUUPFunction</title>
<path fill="none" stroke="#528b8b" d="M717.41,-347.55C710.37,-337.08 700.36,-324.07 689,-315 677.97,-306.19 587.06,-266.36 574,-261 531.36,-243.49 482.36,-226.18 444.54,-213.41"/>
<polygon fill="#528b8b" stroke="#528b8b" points="434.68,-210.1 445.59,-209.01 439.42,-211.69 444.16,-213.28 444.16,-213.28 444.16,-213.28 439.42,-211.69 442.73,-217.55 434.68,-210.1 434.68,-210.1"/>
<text text-anchor="middle" x="682" y="-275.3" font-family="Arial" font-size="14.00">F1ULINK</text>
<text text-anchor="middle" x="424.18" y="-213.9" font-family="Arial" font-size="14.00">0..*</text>
<text text-anchor="middle" x="705.91" y="-336.35" font-family="Arial" font-size="14.00">0..1</text>
</g>
<!-- o&#45;ran&#45;smo&#45;teiv&#45;ranODUFunction&#45;&gt;o&#45;ran&#45;smo&#45;teiv&#45;ranSMO -->
<g id="edge34" class="edge">
<title>o&#45;ran&#45;smo&#45;teiv&#45;ranODUFunction&#45;&gt;o&#45;ran&#45;smo&#45;teiv&#45;ranSMO</title>
<path fill="none" stroke="#528b8b" d="M754.84,-347.88C774.95,-332.74 799,-308.65 799,-280 799,-280 799,-280 799,-104 799,-84.75 799,-63.05 799,-46.4"/>
<polygon fill="#528b8b" stroke="#528b8b" points="799,-36.26 803.5,-46.26 799,-41.26 799,-46.26 799,-46.26 799,-46.26 799,-41.26 794.5,-46.26 799,-36.26 799,-36.26"/>
<text text-anchor="middle" x="823.5" y="-188.3" font-family="Arial" font-size="14.00">O1LINK</text>
<text text-anchor="middle" x="788.5" y="-40.06" font-family="Arial" font-size="14.00">0..*</text>
<text text-anchor="middle" x="766.34" y="-336.68" font-family="Arial" font-size="14.00">0..1</text>
</g>
<!-- o&#45;ran&#45;smo&#45;teiv&#45;ranORUFunction&#45;&gt;o&#45;ran&#45;smo&#45;teiv&#45;ranODUFunction -->
<g id="edge38" class="edge">
<title>o&#45;ran&#45;smo&#45;teiv&#45;ranORUFunction&#45;&gt;o&#45;ran&#45;smo&#45;teiv&#45;ranODUFunction</title>
<path fill="none" stroke="#528b8b" d="M923.71,-435.88C942.35,-427.23 956.53,-415.54 945,-402 925.13,-378.67 844.78,-370.84 787.66,-368.24"/>
<polygon fill="#528b8b" stroke="#528b8b" points="777.64,-367.83 787.82,-363.74 782.64,-368.03 787.63,-368.24 787.63,-368.24 787.63,-368.24 782.64,-368.03 787.45,-372.73 777.64,-367.83 777.64,-367.83"/>
<text text-anchor="middle" x="984" y="-405.8" font-family="Arial" font-size="14.00">OFHULINK</text>
<text text-anchor="middle" x="788.14" y="-371.63" font-family="Arial" font-size="14.00">0..*</text>
<text text-anchor="middle" x="912.21" y="-424.68" font-family="Arial" font-size="14.00">0..1</text>
</g>
<!-- o&#45;ran&#45;smo&#45;teiv&#45;ranORUFunction&#45;&gt;o&#45;ran&#45;smo&#45;teiv&#45;ranODUFunction -->
<g id="edge39" class="edge">
<title>o&#45;ran&#45;smo&#45;teiv&#45;ranORUFunction&#45;&gt;o&#45;ran&#45;smo&#45;teiv&#45;ranODUFunction</title>
<path fill="none" stroke="#528b8b" d="M824.43,-445.96C772.33,-439.1 696.71,-427.5 688,-417 680.96,-408.51 685.38,-399.09 693.45,-390.74"/>
<polygon fill="#528b8b" stroke="#528b8b" points="700.9,-384.01 696.49,-394.05 697.19,-387.36 693.47,-390.71 693.47,-390.71 693.47,-390.71 697.19,-387.36 690.46,-387.37 700.9,-384.01 700.9,-384.01"/>
<text text-anchor="middle" x="722.5" y="-405.8" font-family="Arial" font-size="14.00">OFHSLINK</text>
<text text-anchor="middle" x="711.4" y="-387.81" font-family="Arial" font-size="14.00">0..*</text>
<text text-anchor="middle" x="812.93" y="-434.76" font-family="Arial" font-size="14.00">0..1</text>
</g>
<!-- o&#45;ran&#45;smo&#45;teiv&#45;ranORUFunction&#45;&gt;o&#45;ran&#45;smo&#45;teiv&#45;ranODUFunction -->
<g id="edge41" class="edge">
<title>o&#45;ran&#45;smo&#45;teiv&#45;ranORUFunction&#45;&gt;o&#45;ran&#45;smo&#45;teiv&#45;ranODUFunction</title>
<path fill="none" stroke="#528b8b" d="M824.4,-437.81C809.52,-432.44 793.56,-425.53 780,-417 768.9,-410.02 758.18,-400.39 749.39,-391.44"/>
<polygon fill="#528b8b" stroke="#528b8b" points="742.49,-384.16 752.64,-388.32 745.93,-387.79 749.37,-391.42 749.37,-391.42 749.37,-391.42 745.93,-387.79 746.1,-394.51 742.49,-384.16 742.49,-384.16"/>
<text text-anchor="middle" x="816" y="-405.8" font-family="Arial" font-size="14.00">OFHMLINK</text>
<text text-anchor="middle" x="731.99" y="-387.96" font-family="Arial" font-size="14.00">0..*</text>
<text text-anchor="middle" x="835.9" y="-426.61" font-family="Arial" font-size="14.00">0..1</text>
</g>
<!-- o&#45;ran&#45;smo&#45;teiv&#45;ranORUFunction&#45;&gt;o&#45;ran&#45;smo&#45;teiv&#45;ranODUFunction -->
<g id="edge42" class="edge">
<title>o&#45;ran&#45;smo&#45;teiv&#45;ranORUFunction&#45;&gt;o&#45;ran&#45;smo&#45;teiv&#45;ranODUFunction</title>
<path fill="none" stroke="#528b8b" d="M870.45,-434.92C867.33,-424.05 861.73,-410.46 852,-402 834.21,-386.54 810.06,-377.87 787.8,-373.03"/>
<polygon fill="#528b8b" stroke="#528b8b" points="777.73,-371.06 788.41,-368.56 782.64,-372.02 787.55,-372.98 787.55,-372.98 787.55,-372.98 782.64,-372.02 786.69,-377.4 777.73,-371.06 777.73,-371.06"/>
<text text-anchor="middle" x="897" y="-405.8" font-family="Arial" font-size="14.00">OFHCLINK</text>
<text text-anchor="middle" x="788.23" y="-374.86" font-family="Arial" font-size="14.00">0..*</text>
<text text-anchor="middle" x="858.95" y="-423.72" font-family="Arial" font-size="14.00">0..1</text>
</g>
<!-- o&#45;ran&#45;smo&#45;teiv&#45;ranORUFunction&#45;&gt;o&#45;ran&#45;smo&#45;teiv&#45;ranSMO -->
<g id="edge40" class="edge">
<title>o&#45;ran&#45;smo&#45;teiv&#45;ranORUFunction&#45;&gt;o&#45;ran&#45;smo&#45;teiv&#45;ranSMO</title>
<path fill="none" stroke="#528b8b" d="M923.85,-448.95C963.65,-445.11 1020.15,-436.46 1066,-417 1089.16,-407.17 1098.04,-404.94 1112,-384 1127.31,-361.04 1126,-351.1 1126,-323.5 1126,-323.5 1126,-323.5 1126,-104 1126,-44.66 921.77,-26.03 836.11,-20.82"/>
<polygon fill="#528b8b" stroke="#528b8b" points="826.04,-20.23 836.28,-16.32 831.03,-20.52 836.02,-20.81 836.02,-20.81 836.02,-20.81 831.03,-20.52 835.76,-25.31 826.04,-20.23 826.04,-20.23"/>
<text text-anchor="middle" x="1162" y="-231.8" font-family="Arial" font-size="14.00">OFHMLINK</text>
<text text-anchor="middle" x="836.54" y="-9.03" font-family="Arial" font-size="14.00">0..*</text>
<text text-anchor="middle" x="935.35" y="-452.75" font-family="Arial" font-size="14.00">0..1</text>
</g>
<!-- o&#45;ran&#45;smo&#45;teiv&#45;ranORUFunction&#45;&gt;o&#45;ran&#45;smo&#45;teiv&#45;ranSMO -->
<g id="edge43" class="edge">
<title>o&#45;ran&#45;smo&#45;teiv&#45;ranORUFunction&#45;&gt;o&#45;ran&#45;smo&#45;teiv&#45;ranSMO</title>
<path fill="none" stroke="#528b8b" d="M923.5,-446.95C961.92,-441.89 1010.66,-432.57 1023,-417 1049.1,-384.06 1083.76,-395.19 977,-315 945.43,-291.29 918.25,-324.59 890,-297 870.26,-277.71 876,-264.1 876,-236.5 876,-236.5 876,-236.5 876,-104 876,-77.22 854.75,-55.12 834.58,-40.18"/>
<polygon fill="#528b8b" stroke="#528b8b" points="826.36,-34.41 837.14,-36.47 830.46,-37.28 834.55,-40.15 834.55,-40.15 834.55,-40.15 830.46,-37.28 831.97,-43.84 826.36,-34.41 826.36,-34.41"/>
<text text-anchor="middle" x="900.5" y="-231.8" font-family="Arial" font-size="14.00">O1LINK</text>
<text text-anchor="middle" x="836.86" y="-38.21" font-family="Arial" font-size="14.00">0..*</text>
<text text-anchor="middle" x="935" y="-435.75" font-family="Arial" font-size="14.00">0..1</text>
</g>
<!-- o&#45;ran&#45;smo&#45;teiv&#45;ranSector -->
<g id="node21" class="node">
<title>o&#45;ran&#45;smo&#45;teiv&#45;ranSector</title>
<polygon fill="#366f34" fill-opacity="0.254902" stroke="black" points="1181,-471 1125,-471 1125,-435 1181,-435 1181,-471"/>
<text text-anchor="middle" x="1153" y="-449.3" font-family="Arial" font-size="14.00">Sector</text>
</g>
<!-- o&#45;ran&#45;smo&#45;teiv&#45;ranSector&#45;&gt;o&#45;ran&#45;smo&#45;teiv&#45;equipmentAntennaModule -->
<g id="edge45" class="edge">
<title>o&#45;ran&#45;smo&#45;teiv&#45;ranSector&#45;&gt;o&#45;ran&#45;smo&#45;teiv&#45;equipmentAntennaModule</title>
<path fill="none" stroke="#528b8b" d="M1164.53,-434.8C1172.65,-422.7 1183.64,-406.3 1192.79,-392.67"/>
<polygon fill="#528b8b" stroke="#528b8b" points="1198.48,-384.18 1196.65,-394.99 1195.7,-388.33 1192.91,-392.48 1192.91,-392.48 1192.91,-392.48 1195.7,-388.33 1189.18,-389.97 1198.48,-384.18 1198.48,-384.18"/>
<text text-anchor="middle" x="1214.5" y="-405.8" font-family="Arial" font-size="14.00">GROUPS</text>
<text text-anchor="middle" x="1186.98" y="-387.98" font-family="Arial" font-size="14.00">0..1</text>
<text text-anchor="middle" x="1154.03" y="-423.6" font-family="Arial" font-size="14.00">0..*</text>
</g>
<!-- o&#45;ran&#45;smo&#45;teiv&#45;ranSector&#45;&gt;o&#45;ran&#45;smo&#45;teiv&#45;ranNRCellDU -->
<g id="edge44" class="edge">
<title>o&#45;ran&#45;smo&#45;teiv&#45;ranSector&#45;&gt;o&#45;ran&#45;smo&#45;teiv&#45;ranNRCellDU</title>
<path fill="none" stroke="#528b8b" d="M1130.59,-434.86C1115.51,-422.27 1096.22,-403.93 1084,-384 1069.37,-360.13 1060.63,-329.15 1055.86,-307.23"/>
<polygon fill="#528b8b" stroke="#528b8b" points="1053.83,-297.27 1060.23,-306.17 1054.83,-302.17 1055.83,-307.07 1055.83,-307.07 1055.83,-307.07 1054.83,-302.17 1051.42,-307.97 1053.83,-297.27 1053.83,-297.27"/>
<text text-anchor="middle" x="1114.5" y="-362.3" font-family="Arial" font-size="14.00">GROUPS</text>
<text text-anchor="middle" x="1042.33" y="-301.07" font-family="Arial" font-size="14.00">0..1</text>
<text text-anchor="middle" x="1120.09" y="-423.66" font-family="Arial" font-size="14.00">0..*</text>
</g>
</g>
</svg>
