<svg width="1414px" height="740px"
 viewBox="0.00 0.00 1414.00 740.00" xmlns="http://www.w3.org/2000/svg" xmlns:xlink="http://www.w3.org/1999/xlink">
<g id="graph0" class="graph" transform="scale(1.0 1.0) rotate(0.0) translate(4.0 736.0)">
<title>moduleName</title>
<polygon fill="white" stroke="transparent" points="-4,4 -4,-736 1410,-736 1410,4 -4,4"/>
<!-- o&#45;ran&#45;smo&#45;teiv&#45;cloudCloudifiedNF -->
<g id="node1" class="node">
<title>o&#45;ran&#45;smo&#45;teiv&#45;cloudCloudifiedNF</title>
<polygon fill="#89240a" fill-opacity="0.254902" stroke="black" points="571,-732 471,-732 471,-696 571,-696 571,-732"/>
<text text-anchor="middle" x="521" y="-710.3" font-family="Arial" font-size="14.00">CloudifiedNF</text>
</g>
<!-- o&#45;ran&#45;smo&#45;teiv&#45;cloudNFDeployment -->
<g id="node2" class="node">
<title>o&#45;ran&#45;smo&#45;teiv&#45;cloudNFDeployment</title>
<polygon fill="#89240a" fill-opacity="0.254902" stroke="black" points="526,-645 414,-645 414,-609 526,-609 526,-645"/>
<text text-anchor="middle" x="470" y="-623.3" font-family="Arial" font-size="14.00">NFDeployment</text>
</g>
<!-- o&#45;ran&#45;smo&#45;teiv&#45;cloudCloudifiedNF&#45;&gt;o&#45;ran&#45;smo&#45;teiv&#45;cloudNFDeployment -->
<g id="edge1" class="edge">
<title>o&#45;ran&#45;smo&#45;teiv&#45;cloudCloudifiedNF&#45;&gt;o&#45;ran&#45;smo&#45;teiv&#45;cloudNFDeployment</title>
<path fill="none" stroke="#528b8b" d="M487.23,-695.96C480.74,-691.08 474.79,-685.11 471,-678 467.35,-671.15 466.12,-662.99 466.08,-655.27"/>
<polygon fill="#528b8b" stroke="#528b8b" points="466.63,-645.18 470.58,-655.41 466.36,-650.17 466.08,-655.16 466.08,-655.16 466.08,-655.16 466.36,-650.17 461.59,-654.92 466.63,-645.18 466.63,-645.18"/>
<text text-anchor="middle" x="515" y="-666.8" font-family="Arial" font-size="14.00">COMPRISES</text>
<text text-anchor="middle" x="454.13" y="-648.98" font-family="Arial" font-size="14.00">1..1</text>
<text text-anchor="middle" x="476.23" y="-684.76" font-family="Arial" font-size="14.00">1..*</text>
</g>
<!-- o&#45;ran&#45;smo&#45;teiv&#45;cloudOCloudNamespace -->
<g id="node4" class="node">
<title>o&#45;ran&#45;smo&#45;teiv&#45;cloudOCloudNamespace</title>
<polygon fill="#89240a" fill-opacity="0.254902" stroke="black" points="1037,-558 895,-558 895,-522 1037,-522 1037,-558"/>
<text text-anchor="middle" x="966" y="-536.3" font-family="Arial" font-size="14.00">OCloudNamespace</text>
</g>
<!-- o&#45;ran&#45;smo&#45;teiv&#45;cloudNFDeployment&#45;&gt;o&#45;ran&#45;smo&#45;teiv&#45;cloudOCloudNamespace -->
<g id="edge7" class="edge">
<title>o&#45;ran&#45;smo&#45;teiv&#45;cloudNFDeployment&#45;&gt;o&#45;ran&#45;smo&#45;teiv&#45;cloudOCloudNamespace</title>
<path fill="none" stroke="#528b8b" d="M526.05,-613.28C534.38,-611.67 542.89,-610.17 551,-609 648.97,-594.81 675.39,-607.47 773,-591 816.24,-583.7 863.94,-571.38 901.11,-560.8"/>
<polygon fill="#528b8b" stroke="#528b8b" points="910.81,-558.01 902.44,-565.1 906,-559.39 901.2,-560.77 901.2,-560.77 901.2,-560.77 906,-559.39 899.95,-556.45 910.81,-558.01 910.81,-558.01"/>
<text text-anchor="middle" x="881.5" y="-579.8" font-family="Arial" font-size="14.00">DEPLOYED</text>
<text text-anchor="middle" x="899.81" y="-561.81" font-family="Arial" font-size="14.00">1..*</text>
<text text-anchor="middle" x="537.05" y="-617.08" font-family="Arial" font-size="14.00">1..*</text>
</g>
<!-- o&#45;ran&#45;smo&#45;teiv&#45;oamManagedElement -->
<g id="node8" class="node">
<title>o&#45;ran&#45;smo&#45;teiv&#45;oamManagedElement</title>
<polygon fill="#3663f0" fill-opacity="0.254902" stroke="black" points="637,-558 509,-558 509,-522 637,-522 637,-558"/>
<text text-anchor="middle" x="573" y="-536.3" font-family="Arial" font-size="14.00">ManagedElement</text>
</g>
<!-- o&#45;ran&#45;smo&#45;teiv&#45;cloudNFDeployment&#45;&gt;o&#45;ran&#45;smo&#45;teiv&#45;oamManagedElement -->
<g id="edge6" class="edge">
<title>o&#45;ran&#45;smo&#45;teiv&#45;cloudNFDeployment&#45;&gt;o&#45;ran&#45;smo&#45;teiv&#45;oamManagedElement</title>
<path fill="none" stroke="#528b8b" d="M476.74,-608.96C481.62,-598.37 489.1,-585.1 499,-576 504.32,-571.11 510.45,-566.78 516.86,-562.98"/>
<polygon fill="#528b8b" stroke="#528b8b" points="525.71,-558.12 519.11,-566.88 521.33,-560.53 516.94,-562.93 516.94,-562.93 516.94,-562.93 521.33,-560.53 514.78,-558.98 525.71,-558.12 525.71,-558.12"/>
<text text-anchor="middle" x="529" y="-579.8" font-family="Arial" font-size="14.00">SERVES</text>
<text text-anchor="middle" x="514.71" y="-561.92" font-family="Arial" font-size="14.00">1..*</text>
<text text-anchor="middle" x="489.24" y="-597.76" font-family="Arial" font-size="14.00">1..1</text>
</g>
<!-- o&#45;ran&#45;smo&#45;teiv&#45;ranNearRTRICFunction -->
<g id="node15" class="node">
<title>o&#45;ran&#45;smo&#45;teiv&#45;ranNearRTRICFunction</title>
<polygon fill="#366f34" fill-opacity="0.254902" stroke="black" points="551,-123 405,-123 405,-87 551,-87 551,-123"/>
<text text-anchor="middle" x="478" y="-101.3" font-family="Arial" font-size="14.00">NearRTRICFunction</text>
</g>
<!-- o&#45;ran&#45;smo&#45;teiv&#45;cloudNFDeployment&#45;&gt;o&#45;ran&#45;smo&#45;teiv&#45;ranNearRTRICFunction -->
<g id="edge5" class="edge">
<title>o&#45;ran&#45;smo&#45;teiv&#45;cloudNFDeployment&#45;&gt;o&#45;ran&#45;smo&#45;teiv&#45;ranNearRTRICFunction</title>
<path fill="none" stroke="#528b8b" d="M413.77,-621.65C289.02,-611.23 0,-582.62 0,-541 0,-541 0,-541 0,-191 0,-151.38 257.91,-124.1 394.84,-112.41"/>
<polygon fill="#528b8b" stroke="#528b8b" points="404.88,-111.56 395.3,-116.89 399.9,-111.98 394.92,-112.41 394.92,-112.41 394.92,-112.41 399.9,-111.98 394.54,-107.92 404.88,-111.56 404.88,-111.56"/>
<text text-anchor="middle" x="30" y="-362.3" font-family="Arial" font-size="14.00">SERVES</text>
<text text-anchor="middle" x="393.88" y="-115.36" font-family="Arial" font-size="14.00">0..*</text>
<text text-anchor="middle" x="402.77" y="-625.45" font-family="Arial" font-size="14.00">0..*</text>
</g>
<!-- o&#45;ran&#45;smo&#45;teiv&#45;ranOCUCPFunction -->
<g id="node16" class="node">
<title>o&#45;ran&#45;smo&#45;teiv&#45;ranOCUCPFunction</title>
<polygon fill="#366f34" fill-opacity="0.254902" stroke="black" points="570,-297 448,-297 448,-261 570,-261 570,-297"/>
<text text-anchor="middle" x="509" y="-275.3" font-family="Arial" font-size="14.00">OCUCPFunction</text>
</g>
<!-- o&#45;ran&#45;smo&#45;teiv&#45;cloudNFDeployment&#45;&gt;o&#45;ran&#45;smo&#45;teiv&#45;ranOCUCPFunction -->
<g id="edge4" class="edge">
<title>o&#45;ran&#45;smo&#45;teiv&#45;cloudNFDeployment&#45;&gt;o&#45;ran&#45;smo&#45;teiv&#45;ranOCUCPFunction</title>
<path fill="none" stroke="#528b8b" d="M468.82,-608.77C466.99,-574.83 465.23,-497.24 482,-435 484.33,-426.36 488.38,-425.55 491,-417 502.29,-380.15 506.5,-335.59 508.07,-307.51"/>
<polygon fill="#528b8b" stroke="#528b8b" points="508.56,-297.26 512.57,-307.47 508.32,-302.25 508.08,-307.25 508.08,-307.25 508.08,-307.25 508.32,-302.25 503.58,-307.03 508.56,-297.26 508.56,-297.26"/>
<text text-anchor="middle" x="512" y="-449.3" font-family="Arial" font-size="14.00">SERVES</text>
<text text-anchor="middle" x="497.56" y="-301.06" font-family="Arial" font-size="14.00">0..*</text>
<text text-anchor="middle" x="457.82" y="-597.57" font-family="Arial" font-size="14.00">0..*</text>
</g>
<!-- o&#45;ran&#45;smo&#45;teiv&#45;ranOCUUPFunction -->
<g id="node17" class="node">
<title>o&#45;ran&#45;smo&#45;teiv&#45;ranOCUUPFunction</title>
<polygon fill="#366f34" fill-opacity="0.254902" stroke="black" points="442,-210 320,-210 320,-174 442,-174 442,-210"/>
<text text-anchor="middle" x="381" y="-188.3" font-family="Arial" font-size="14.00">OCUUPFunction</text>
</g>
<!-- o&#45;ran&#45;smo&#45;teiv&#45;cloudNFDeployment&#45;&gt;o&#45;ran&#45;smo&#45;teiv&#45;ranOCUUPFunction -->
<g id="edge3" class="edge">
<title>o&#45;ran&#45;smo&#45;teiv&#45;cloudNFDeployment&#45;&gt;o&#45;ran&#45;smo&#45;teiv&#45;ranOCUUPFunction</title>
<path fill="none" stroke="#528b8b" d="M413.77,-614.73C324.88,-593.56 154.57,-538.53 82,-417 75.71,-406.46 61.86,-313.08 112,-261 139.07,-232.89 239.63,-213.12 309.82,-202.4"/>
<polygon fill="#528b8b" stroke="#528b8b" points="319.94,-200.88 310.71,-206.81 314.99,-201.62 310.05,-202.36 310.05,-202.36 310.05,-202.36 314.99,-201.62 309.38,-197.91 319.94,-200.88 319.94,-200.88"/>
<text text-anchor="middle" x="112" y="-405.8" font-family="Arial" font-size="14.00">SERVES</text>
<text text-anchor="middle" x="308.94" y="-204.68" font-family="Arial" font-size="14.00">0..*</text>
<text text-anchor="middle" x="402.77" y="-603.53" font-family="Arial" font-size="14.00">0..*</text>
</g>
<!-- o&#45;ran&#45;smo&#45;teiv&#45;ranODUFunction -->
<g id="node18" class="node">
<title>o&#45;ran&#45;smo&#45;teiv&#45;ranODUFunction</title>
<polygon fill="#366f34" fill-opacity="0.254902" stroke="black" points="807,-384 705,-384 705,-348 807,-348 807,-384"/>
<text text-anchor="middle" x="756" y="-362.3" font-family="Arial" font-size="14.00">ODUFunction</text>
</g>
<!-- o&#45;ran&#45;smo&#45;teiv&#45;cloudNFDeployment&#45;&gt;o&#45;ran&#45;smo&#45;teiv&#45;ranODUFunction -->
<g id="edge2" class="edge">
<title>o&#45;ran&#45;smo&#45;teiv&#45;cloudNFDeployment&#45;&gt;o&#45;ran&#45;smo&#45;teiv&#45;ranODUFunction</title>
<path fill="none" stroke="#528b8b" d="M526.04,-608.92C597.6,-585.78 714.87,-542.86 737,-504 747.49,-485.58 732.69,-458.68 719,-435 713.64,-425.73 706.8,-427 703,-417 700.63,-410.77 699.84,-407.87 703,-402 705.3,-397.73 708.36,-393.9 711.87,-390.48"/>
<polygon fill="#528b8b" stroke="#528b8b" points="719.59,-384.02 714.81,-393.89 715.75,-387.23 711.92,-390.44 711.92,-390.44 711.92,-390.44 715.75,-387.23 709.03,-386.99 719.59,-384.02 719.59,-384.02"/>
<text text-anchor="middle" x="770" y="-492.8" font-family="Arial" font-size="14.00">SERVES</text>
<text text-anchor="middle" x="708.59" y="-387.82" font-family="Arial" font-size="14.00">0..*</text>
<text text-anchor="middle" x="515.04" y="-597.72" font-family="Arial" font-size="14.00">0..*</text>
</g>
<!-- o&#45;ran&#45;smo&#45;teiv&#45;cloudNodeCluster -->
<g id="node3" class="node">
<title>o&#45;ran&#45;smo&#45;teiv&#45;cloudNodeCluster</title>
<polygon fill="#89240a" fill-opacity="0.254902" stroke="black" points="1365,-471 1269,-471 1269,-435 1365,-435 1365,-471"/>
<text text-anchor="middle" x="1317" y="-449.3" font-family="Arial" font-size="14.00">NodeCluster</text>
</g>
<!-- o&#45;ran&#45;smo&#45;teiv&#45;cloudOCloudSite -->
<g id="node5" class="node">
<title>o&#45;ran&#45;smo&#45;teiv&#45;cloudOCloudSite</title>
<polygon fill="#89240a" fill-opacity="0.254902" stroke="black" points="1396,-384 1306,-384 1306,-348 1396,-348 1396,-384"/>
<text text-anchor="middle" x="1351" y="-362.3" font-family="Arial" font-size="14.00">OCloudSite</text>
</g>
<!-- o&#45;ran&#45;smo&#45;teiv&#45;cloudNodeCluster&#45;&gt;o&#45;ran&#45;smo&#45;teiv&#45;cloudOCloudSite -->
<g id="edge8" class="edge">
<title>o&#45;ran&#45;smo&#45;teiv&#45;cloudNodeCluster&#45;&gt;o&#45;ran&#45;smo&#45;teiv&#45;cloudOCloudSite</title>
<path fill="none" stroke="#528b8b" d="M1323.88,-434.8C1328.58,-423.05 1334.9,-407.24 1340.26,-393.84"/>
<polygon fill="#528b8b" stroke="#528b8b" points="1344.13,-384.18 1344.59,-395.13 1342.27,-388.82 1340.42,-393.46 1340.42,-393.46 1340.42,-393.46 1342.27,-388.82 1336.24,-391.79 1344.13,-384.18 1344.13,-384.18"/>
<text text-anchor="middle" x="1371" y="-405.8" font-family="Arial" font-size="14.00">LOCATED</text>
<text text-anchor="middle" x="1333.13" y="-387.98" font-family="Arial" font-size="14.00">1..*</text>
<text text-anchor="middle" x="1312.88" y="-423.6" font-family="Arial" font-size="14.00">1..*</text>
</g>
<!-- o&#45;ran&#45;smo&#45;teiv&#45;cloudOCloudNamespace&#45;&gt;o&#45;ran&#45;smo&#45;teiv&#45;cloudNodeCluster -->
<g id="edge9" class="edge">
<title>o&#45;ran&#45;smo&#45;teiv&#45;cloudOCloudNamespace&#45;&gt;o&#45;ran&#45;smo&#45;teiv&#45;cloudNodeCluster</title>
<path fill="none" stroke="#528b8b" d="M1036.61,-521.9C1101.94,-506.08 1197.89,-482.84 1258.9,-468.07"/>
<polygon fill="#528b8b" stroke="#528b8b" points="1268.75,-465.68 1260.09,-472.41 1263.89,-466.86 1259.03,-468.04 1259.03,-468.04 1259.03,-468.04 1263.89,-466.86 1257.97,-463.66 1268.75,-465.68 1268.75,-465.68"/>
<text text-anchor="middle" x="1201.5" y="-492.8" font-family="Arial" font-size="14.00">DEPLOYED</text>
<text text-anchor="middle" x="1257.75" y="-469.48" font-family="Arial" font-size="14.00">1..*</text>
<text text-anchor="middle" x="1024.11" y="-510.7" font-family="Arial" font-size="14.00">1..1</text>
</g>
<!-- o&#45;ran&#45;smo&#45;teiv&#45;equipmentAntennaModule -->
<g id="node6" class="node">
<title>o&#45;ran&#45;smo&#45;teiv&#45;equipmentAntennaModule</title>
<polygon fill="#9a38e3" fill-opacity="0.254902" stroke="black" points="1287.5,-384 1172.5,-384 1172.5,-348 1287.5,-348 1287.5,-384"/>
<text text-anchor="middle" x="1230" y="-362.3" font-family="Arial" font-size="14.00">AntennaModule</text>
</g>
<!-- o&#45;ran&#45;smo&#45;teiv&#45;equipmentSite -->
<g id="node7" class="node">
<title>o&#45;ran&#45;smo&#45;teiv&#45;equipmentSite</title>
<polygon fill="#9a38e3" fill-opacity="0.254902" stroke="black" points="1323,-297 1269,-297 1269,-261 1323,-261 1323,-297"/>
<text text-anchor="middle" x="1296" y="-275.3" font-family="Arial" font-size="14.00">Site</text>
</g>
<!-- o&#45;ran&#45;smo&#45;teiv&#45;equipmentAntennaModule&#45;&gt;o&#45;ran&#45;smo&#45;teiv&#45;equipmentSite -->
<g id="edge12" class="edge">
<title>o&#45;ran&#45;smo&#45;teiv&#45;equipmentAntennaModule&#45;&gt;o&#45;ran&#45;smo&#45;teiv&#45;equipmentSite</title>
<path fill="none" stroke="#528b8b" d="M1243.36,-347.8C1252.84,-335.59 1265.72,-318.99 1276.37,-305.28"/>
<polygon fill="#528b8b" stroke="#528b8b" points="1282.66,-297.18 1280.09,-307.83 1279.6,-301.12 1276.53,-305.07 1276.53,-305.07 1276.53,-305.07 1279.6,-301.12 1272.98,-302.31 1282.66,-297.18 1282.66,-297.18"/>
<text text-anchor="middle" x="1306" y="-318.8" font-family="Arial" font-size="14.00">INSTALLED</text>
<text text-anchor="middle" x="1271.66" y="-300.98" font-family="Arial" font-size="14.00">0..*</text>
<text text-anchor="middle" x="1255.86" y="-336.6" font-family="Arial" font-size="14.00">0..1</text>
</g>
<!-- o&#45;ran&#45;smo&#45;teiv&#45;ranAntennaCapability -->
<g id="node11" class="node">
<title>o&#45;ran&#45;smo&#45;teiv&#45;ranAntennaCapability</title>
<polygon fill="#366f34" fill-opacity="0.254902" stroke="black" points="1116,-123 986,-123 986,-87 1116,-87 1116,-123"/>
<text text-anchor="middle" x="1051" y="-101.3" font-family="Arial" font-size="14.00">AntennaCapability</text>
</g>
<!-- o&#45;ran&#45;smo&#45;teiv&#45;equipmentAntennaModule&#45;&gt;o&#45;ran&#45;smo&#45;teiv&#45;ranAntennaCapability -->
<g id="edge11" class="edge">
<title>o&#45;ran&#45;smo&#45;teiv&#45;equipmentAntennaModule&#45;&gt;o&#45;ran&#45;smo&#45;teiv&#45;ranAntennaCapability</title>
<path fill="none" stroke="#528b8b" d="M1232.98,-347.67C1236.77,-320.31 1240.49,-266.29 1219,-228 1192.71,-181.15 1140.08,-147.5 1100.7,-127.56"/>
<polygon fill="#528b8b" stroke="#528b8b" points="1091.5,-123.02 1102.46,-123.41 1095.99,-125.23 1100.47,-127.44 1100.47,-127.44 1100.47,-127.44 1095.99,-125.23 1098.48,-131.48 1091.5,-123.02 1091.5,-123.02"/>
<text text-anchor="middle" x="1255" y="-231.8" font-family="Arial" font-size="14.00">SERVES</text>
<text text-anchor="middle" x="1080.5" y="-126.82" font-family="Arial" font-size="14.00">0..*</text>
<text text-anchor="middle" x="1221.98" y="-336.47" font-family="Arial" font-size="14.00">0..*</text>
</g>
<!-- o&#45;ran&#45;smo&#45;teiv&#45;ranNRCellDU -->
<g id="node13" class="node">
<title>o&#45;ran&#45;smo&#45;teiv&#45;ranNRCellDU</title>
<polygon fill="#366f34" fill-opacity="0.254902" stroke="black" points="1106,-297 1024,-297 1024,-261 1106,-261 1106,-297"/>
<text text-anchor="middle" x="1065" y="-275.3" font-family="Arial" font-size="14.00">NRCellDU</text>
</g>
<!-- o&#45;ran&#45;smo&#45;teiv&#45;equipmentAntennaModule&#45;&gt;o&#45;ran&#45;smo&#45;teiv&#45;ranNRCellDU -->
<g id="edge10" class="edge">
<title>o&#45;ran&#45;smo&#45;teiv&#45;equipmentAntennaModule&#45;&gt;o&#45;ran&#45;smo&#45;teiv&#45;ranNRCellDU</title>
<path fill="none" stroke="#528b8b" d="M1196.61,-347.8C1170.81,-334.51 1134.92,-316.02 1107.14,-301.71"/>
<polygon fill="#528b8b" stroke="#528b8b" points="1098.06,-297.03 1109.01,-297.61 1102.5,-299.32 1106.95,-301.61 1106.95,-301.61 1106.95,-301.61 1102.5,-299.32 1104.89,-305.61 1098.06,-297.03 1098.06,-297.03"/>
<text text-anchor="middle" x="1187" y="-318.8" font-family="Arial" font-size="14.00">SERVES</text>
<text text-anchor="middle" x="1087.06" y="-300.83" font-family="Arial" font-size="14.00">1..*</text>
<text text-anchor="middle" x="1185.61" y="-336.6" font-family="Arial" font-size="14.00">0..*</text>
</g>
<!-- o&#45;ran&#45;smo&#45;teiv&#45;oamManagedElement&#45;&gt;o&#45;ran&#45;smo&#45;teiv&#45;cloudCloudifiedNF -->
<g id="edge18" class="edge">
<title>o&#45;ran&#45;smo&#45;teiv&#45;oamManagedElement&#45;&gt;o&#45;ran&#45;smo&#45;teiv&#45;cloudCloudifiedNF</title>
<path fill="none" stroke="#528b8b" d="M574.97,-558.08C577.31,-585.1 578.69,-638.66 559,-678 557.1,-681.79 554.61,-685.37 551.81,-688.7"/>
<polygon fill="#528b8b" stroke="#528b8b" points="544.84,-695.96 548.52,-685.62 548.31,-692.35 551.77,-688.74 551.77,-688.74 551.77,-688.74 548.31,-692.35 555.01,-691.86 544.84,-695.96 544.84,-695.96"/>
<text text-anchor="middle" x="614.5" y="-623.3" font-family="Arial" font-size="14.00">DEPLOYED</text>
<text text-anchor="middle" x="532.34" y="-684.76" font-family="Arial" font-size="14.00">1..1</text>
<text text-anchor="middle" x="562.47" y="-561.88" font-family="Arial" font-size="14.00">0..1</text>
</g>
<!-- o&#45;ran&#45;smo&#45;teiv&#45;oamManagedElement&#45;&gt;o&#45;ran&#45;smo&#45;teiv&#45;ranNearRTRICFunction -->
<g id="edge17" class="edge">
<title>o&#45;ran&#45;smo&#45;teiv&#45;oamManagedElement&#45;&gt;o&#45;ran&#45;smo&#45;teiv&#45;ranNearRTRICFunction</title>
<path fill="none" stroke="#528b8b" d="M580.56,-521.85C597.12,-484.34 637.8,-392.16 672,-315 675.55,-307 678.18,-305.56 680,-297 683.32,-281.35 683.57,-276.6 680,-261 670.43,-219.14 669.08,-203.63 638,-174 615.23,-152.3 584.48,-136.99 556.03,-126.48"/>
<polygon fill="#528b8b" stroke="#528b8b" points="546.48,-123.09 557.41,-122.19 551.19,-124.76 555.9,-126.43 555.9,-126.43 555.9,-126.43 551.19,-124.76 554.4,-130.68 546.48,-123.09 546.48,-123.09"/>
<text text-anchor="middle" x="708" y="-318.8" font-family="Arial" font-size="14.00">MANAGES</text>
<text text-anchor="middle" x="533.98" y="-126.89" font-family="Arial" font-size="14.00">1..1</text>
<text text-anchor="middle" x="591.56" y="-510.65" font-family="Arial" font-size="14.00">0..*</text>
</g>
<!-- o&#45;ran&#45;smo&#45;teiv&#45;oamManagedElement&#45;&gt;o&#45;ran&#45;smo&#45;teiv&#45;ranOCUCPFunction -->
<g id="edge16" class="edge">
<title>o&#45;ran&#45;smo&#45;teiv&#45;oamManagedElement&#45;&gt;o&#45;ran&#45;smo&#45;teiv&#45;ranOCUCPFunction</title>
<path fill="none" stroke="#528b8b" d="M568.29,-521.66C561.92,-498.04 550.27,-454.41 541,-417 531.61,-379.12 521.47,-335.15 515.18,-307.45"/>
<polygon fill="#528b8b" stroke="#528b8b" points="512.89,-297.34 519.49,-306.1 514,-302.21 515.1,-307.09 515.1,-307.09 515.1,-307.09 514,-302.21 510.71,-308.08 512.89,-297.34 512.89,-297.34"/>
<text text-anchor="middle" x="577" y="-405.8" font-family="Arial" font-size="14.00">MANAGES</text>
<text text-anchor="middle" x="525.39" y="-301.14" font-family="Arial" font-size="14.00">1..1</text>
<text text-anchor="middle" x="557.29" y="-510.46" font-family="Arial" font-size="14.00">0..*</text>
</g>
<!-- o&#45;ran&#45;smo&#45;teiv&#45;oamManagedElement&#45;&gt;o&#45;ran&#45;smo&#45;teiv&#45;ranOCUUPFunction -->
<g id="edge15" class="edge">
<title>o&#45;ran&#45;smo&#45;teiv&#45;oamManagedElement&#45;&gt;o&#45;ran&#45;smo&#45;teiv&#45;ranOCUUPFunction</title>
<path fill="none" stroke="#528b8b" d="M563.72,-521.64C550.25,-498.2 523.02,-456.84 488,-435 458.18,-416.4 434.62,-443.02 411,-417 385.28,-388.67 381.34,-273.46 380.92,-220.22"/>
<polygon fill="#528b8b" stroke="#528b8b" points="380.88,-210.15 385.42,-220.13 380.9,-215.15 380.92,-220.15 380.92,-220.15 380.92,-220.15 380.9,-215.15 376.42,-220.16 380.88,-210.15 380.88,-210.15"/>
<text text-anchor="middle" x="433" y="-362.3" font-family="Arial" font-size="14.00">MANAGES</text>
<text text-anchor="middle" x="368.38" y="-213.95" font-family="Arial" font-size="14.00">1..1</text>
<text text-anchor="middle" x="574.72" y="-510.44" font-family="Arial" font-size="14.00">0..*</text>
</g>
<!-- o&#45;ran&#45;smo&#45;teiv&#45;oamManagedElement&#45;&gt;o&#45;ran&#45;smo&#45;teiv&#45;ranODUFunction -->
<g id="edge14" class="edge">
<title>o&#45;ran&#45;smo&#45;teiv&#45;oamManagedElement&#45;&gt;o&#45;ran&#45;smo&#45;teiv&#45;ranODUFunction</title>
<path fill="none" stroke="#528b8b" d="M598.51,-521.88C605.08,-516.67 611.77,-510.56 617,-504 648.36,-464.68 629.1,-436.17 666,-402 674.37,-394.25 684.66,-388.14 695.24,-383.36"/>
<polygon fill="#528b8b" stroke="#528b8b" points="704.58,-379.49 697.07,-387.47 699.96,-381.4 695.34,-383.32 695.34,-383.32 695.34,-383.32 699.96,-381.4 693.62,-379.16 704.58,-379.49 704.58,-379.49"/>
<text text-anchor="middle" x="679" y="-449.3" font-family="Arial" font-size="14.00">MANAGES</text>
<text text-anchor="middle" x="692.08" y="-368.29" font-family="Arial" font-size="14.00">1..1</text>
<text text-anchor="middle" x="609.51" y="-510.68" font-family="Arial" font-size="14.00">0..*</text>
</g>
<!-- o&#45;ran&#45;smo&#45;teiv&#45;ranORUFunction -->
<g id="node19" class="node">
<title>o&#45;ran&#45;smo&#45;teiv&#45;ranORUFunction</title>
<polygon fill="#366f34" fill-opacity="0.254902" stroke="black" points="954,-471 852,-471 852,-435 954,-435 954,-471"/>
<text text-anchor="middle" x="903" y="-449.3" font-family="Arial" font-size="14.00">ORUFunction</text>
</g>
<!-- o&#45;ran&#45;smo&#45;teiv&#45;oamManagedElement&#45;&gt;o&#45;ran&#45;smo&#45;teiv&#45;ranORUFunction -->
<g id="edge13" class="edge">
<title>o&#45;ran&#45;smo&#45;teiv&#45;oamManagedElement&#45;&gt;o&#45;ran&#45;smo&#45;teiv&#45;ranORUFunction</title>
<path fill="none" stroke="#528b8b" d="M608.5,-521.92C619.38,-516.44 631.3,-510.18 642,-504 652.57,-497.9 653.59,-493.32 665,-489 696.43,-477.1 782.41,-466.33 841.92,-459.97"/>
<polygon fill="#528b8b" stroke="#528b8b" points="851.97,-458.91 842.5,-464.44 847,-459.44 842.03,-459.96 842.03,-459.96 842.03,-459.96 847,-459.44 841.55,-455.49 851.97,-458.91 851.97,-458.91"/>
<text text-anchor="middle" x="701" y="-492.8" font-family="Arial" font-size="14.00">MANAGES</text>
<text text-anchor="middle" x="839.47" y="-462.71" font-family="Arial" font-size="14.00">1..1</text>
<text text-anchor="middle" x="619.5" y="-510.72" font-family="Arial" font-size="14.00">0..*</text>
</g>
<!-- o&#45;ran&#45;smo&#45;teiv&#45;physicalPhysicalAppliance -->
<g id="node9" class="node">
<title>o&#45;ran&#45;smo&#45;teiv&#45;physicalPhysicalAppliance</title>
<polygon fill="#074ee2" fill-opacity="0.254902" stroke="black" points="347,-471 215,-471 215,-435 347,-435 347,-471"/>
<text text-anchor="middle" x="281" y="-449.3" font-family="Arial" font-size="14.00">PhysicalAppliance</text>
</g>
<!-- o&#45;ran&#45;smo&#45;teiv&#45;physicalSite -->
<g id="node10" class="node">
<title>o&#45;ran&#45;smo&#45;teiv&#45;physicalSite</title>
<polygon fill="#074ee2" fill-opacity="0.254902" stroke="black" points="216,-384 162,-384 162,-348 216,-348 216,-384"/>
<text text-anchor="middle" x="189" y="-362.3" font-family="Arial" font-size="14.00">Site</text>
</g>
<!-- o&#45;ran&#45;smo&#45;teiv&#45;physicalPhysicalAppliance&#45;&gt;o&#45;ran&#45;smo&#45;teiv&#45;physicalSite -->
<g id="edge23" class="edge">
<title>o&#45;ran&#45;smo&#45;teiv&#45;physicalPhysicalAppliance&#45;&gt;o&#45;ran&#45;smo&#45;teiv&#45;physicalSite</title>
<path fill="none" stroke="#528b8b" d="M214.8,-445.95C196.77,-440.91 179.15,-432.13 168,-417 162.72,-409.84 164.2,-401.16 168.16,-393.05"/>
<polygon fill="#528b8b" stroke="#528b8b" points="173.47,-384.25 172.16,-395.14 170.89,-388.54 168.3,-392.82 168.3,-392.82 168.3,-392.82 170.89,-388.54 164.45,-390.49 173.47,-384.25 173.47,-384.25"/>
<text text-anchor="middle" x="217.5" y="-405.8" font-family="Arial" font-size="14.00">INSTALLEDAT</text>
<text text-anchor="middle" x="162.47" y="-388.05" font-family="Arial" font-size="14.00">0..*</text>
<text text-anchor="middle" x="203.8" y="-449.75" font-family="Arial" font-size="14.00">0..*</text>
</g>
<!-- o&#45;ran&#45;smo&#45;teiv&#45;physicalPhysicalAppliance&#45;&gt;o&#45;ran&#45;smo&#45;teiv&#45;ranNearRTRICFunction -->
<g id="edge22" class="edge">
<title>o&#45;ran&#45;smo&#45;teiv&#45;physicalPhysicalAppliance&#45;&gt;o&#45;ran&#45;smo&#45;teiv&#45;ranNearRTRICFunction</title>
<path fill="none" stroke="#528b8b" d="M214.85,-442.59C195.96,-437.42 176.36,-429.41 161,-417 141.36,-401.13 134,-392.26 134,-367 134,-367 134,-367 134,-191 134,-137.55 292.52,-117.5 394.34,-110.13"/>
<polygon fill="#528b8b" stroke="#528b8b" points="404.63,-109.42 394.96,-114.6 399.64,-109.76 394.65,-110.11 394.65,-110.11 394.65,-110.11 399.64,-109.76 394.34,-105.62 404.63,-109.42 404.63,-109.42"/>
<text text-anchor="middle" x="164" y="-275.3" font-family="Arial" font-size="14.00">SERVES</text>
<text text-anchor="middle" x="393.63" y="-98.22" font-family="Arial" font-size="14.00">0..*</text>
<text text-anchor="middle" x="203.85" y="-431.39" font-family="Arial" font-size="14.00">0..*</text>
</g>
<!-- o&#45;ran&#45;smo&#45;teiv&#45;physicalPhysicalAppliance&#45;&gt;o&#45;ran&#45;smo&#45;teiv&#45;ranOCUCPFunction -->
<g id="edge21" class="edge">
<title>o&#45;ran&#45;smo&#45;teiv&#45;physicalPhysicalAppliance&#45;&gt;o&#45;ran&#45;smo&#45;teiv&#45;ranOCUCPFunction</title>
<path fill="none" stroke="#528b8b" d="M286.57,-434.79C295.73,-406.91 313.58,-354.33 320,-348 351.69,-316.73 398.79,-299.74 438.03,-290.56"/>
<polygon fill="#528b8b" stroke="#528b8b" points="447.83,-288.39 439.04,-294.94 442.95,-289.47 438.07,-290.55 438.07,-290.55 438.07,-290.55 442.95,-289.47 437.09,-286.16 447.83,-288.39 447.83,-288.39"/>
<text text-anchor="middle" x="350" y="-362.3" font-family="Arial" font-size="14.00">SERVES</text>
<text text-anchor="middle" x="436.83" y="-292.19" font-family="Arial" font-size="14.00">0..*</text>
<text text-anchor="middle" x="297.57" y="-423.59" font-family="Arial" font-size="14.00">0..*</text>
</g>
<!-- o&#45;ran&#45;smo&#45;teiv&#45;physicalPhysicalAppliance&#45;&gt;o&#45;ran&#45;smo&#45;teiv&#45;ranOCUUPFunction -->
<g id="edge20" class="edge">
<title>o&#45;ran&#45;smo&#45;teiv&#45;physicalPhysicalAppliance&#45;&gt;o&#45;ran&#45;smo&#45;teiv&#45;ranOCUUPFunction</title>
<path fill="none" stroke="#528b8b" d="M282.3,-434.59C284.73,-408.03 291.22,-356.14 307,-315 320.75,-279.16 344.97,-242 361.95,-218.26"/>
<polygon fill="#528b8b" stroke="#528b8b" points="367.84,-210.15 365.6,-220.88 364.9,-214.19 361.96,-218.24 361.96,-218.24 361.96,-218.24 364.9,-214.19 358.32,-215.59 367.84,-210.15 367.84,-210.15"/>
<text text-anchor="middle" x="337" y="-318.8" font-family="Arial" font-size="14.00">SERVES</text>
<text text-anchor="middle" x="356.84" y="-213.95" font-family="Arial" font-size="14.00">0..*</text>
<text text-anchor="middle" x="271.3" y="-423.39" font-family="Arial" font-size="14.00">0..*</text>
</g>
<!-- o&#45;ran&#45;smo&#45;teiv&#45;physicalPhysicalAppliance&#45;&gt;o&#45;ran&#45;smo&#45;teiv&#45;ranODUFunction -->
<g id="edge19" class="edge">
<title>o&#45;ran&#45;smo&#45;teiv&#45;physicalPhysicalAppliance&#45;&gt;o&#45;ran&#45;smo&#45;teiv&#45;ranODUFunction</title>
<path fill="none" stroke="#528b8b" d="M333.14,-434.92C368.11,-424.04 415.41,-410.46 458,-402 539.14,-385.88 634.29,-376.29 694.85,-371.33"/>
<polygon fill="#528b8b" stroke="#528b8b" points="705,-370.52 695.39,-375.8 700.01,-370.92 695.03,-371.32 695.03,-371.32 695.03,-371.32 700.01,-370.92 694.67,-366.83 705,-370.52 705,-370.52"/>
<text text-anchor="middle" x="488" y="-405.8" font-family="Arial" font-size="14.00">SERVES</text>
<text text-anchor="middle" x="694" y="-359.32" font-family="Arial" font-size="14.00">0..*</text>
<text text-anchor="middle" x="322.14" y="-423.72" font-family="Arial" font-size="14.00">0..*</text>
</g>
<!-- o&#45;ran&#45;smo&#45;teiv&#45;ranNRCellCU -->
<g id="node12" class="node">
<title>o&#45;ran&#45;smo&#45;teiv&#45;ranNRCellCU</title>
<polygon fill="#366f34" fill-opacity="0.254902" stroke="black" points="629,-210 547,-210 547,-174 629,-174 629,-210"/>
<text text-anchor="middle" x="588" y="-188.3" font-family="Arial" font-size="14.00">NRCellCU</text>
</g>
<!-- o&#45;ran&#45;smo&#45;teiv&#45;ranNRSectorCarrier -->
<g id="node14" class="node">
<title>o&#45;ran&#45;smo&#45;teiv&#45;ranNRSectorCarrier</title>
<polygon fill="#366f34" fill-opacity="0.254902" stroke="black" points="1112,-210 990,-210 990,-174 1112,-174 1112,-210"/>
<text text-anchor="middle" x="1051" y="-188.3" font-family="Arial" font-size="14.00">NRSectorCarrier</text>
</g>
<!-- o&#45;ran&#45;smo&#45;teiv&#45;ranNRCellDU&#45;&gt;o&#45;ran&#45;smo&#45;teiv&#45;ranNRSectorCarrier -->
<g id="edge24" class="edge">
<title>o&#45;ran&#45;smo&#45;teiv&#45;ranNRCellDU&#45;&gt;o&#45;ran&#45;smo&#45;teiv&#45;ranNRSectorCarrier</title>
<path fill="none" stroke="#528b8b" d="M1062.17,-260.8C1060.25,-249.16 1057.68,-233.55 1055.49,-220.24"/>
<polygon fill="#528b8b" stroke="#528b8b" points="1053.83,-210.18 1059.89,-219.31 1054.64,-215.11 1055.45,-220.04 1055.45,-220.04 1055.45,-220.04 1054.64,-215.11 1051.01,-220.77 1053.83,-210.18 1053.83,-210.18"/>
<text text-anchor="middle" x="1078" y="-231.8" font-family="Arial" font-size="14.00">USES</text>
<text text-anchor="middle" x="1041.33" y="-213.98" font-family="Arial" font-size="14.00">0..1</text>
<text text-anchor="middle" x="1051.17" y="-249.6" font-family="Arial" font-size="14.00">0..*</text>
</g>
<!-- o&#45;ran&#45;smo&#45;teiv&#45;ranNRSectorCarrier&#45;&gt;o&#45;ran&#45;smo&#45;teiv&#45;ranAntennaCapability -->
<g id="edge25" class="edge">
<title>o&#45;ran&#45;smo&#45;teiv&#45;ranNRSectorCarrier&#45;&gt;o&#45;ran&#45;smo&#45;teiv&#45;ranAntennaCapability</title>
<path fill="none" stroke="#528b8b" d="M1051,-173.8C1051,-162.16 1051,-146.55 1051,-133.24"/>
<polygon fill="#528b8b" stroke="#528b8b" points="1051,-123.18 1055.5,-133.18 1051,-128.18 1051,-133.18 1051,-133.18 1051,-133.18 1051,-128.18 1046.5,-133.18 1051,-123.18 1051,-123.18"/>
<text text-anchor="middle" x="1071" y="-144.8" font-family="Arial" font-size="14.00">USES</text>
<text text-anchor="middle" x="1040" y="-126.98" font-family="Arial" font-size="14.00">0..*</text>
<text text-anchor="middle" x="1038.5" y="-162.6" font-family="Arial" font-size="14.00">0..1</text>
</g>
<!-- o&#45;ran&#45;smo&#45;teiv&#45;ranSMO -->
<g id="node20" class="node">
<title>o&#45;ran&#45;smo&#45;teiv&#45;ranSMO</title>
<polygon fill="#366f34" fill-opacity="0.254902" stroke="black" points="831,-36 777,-36 777,0 831,0 831,-36"/>
<text text-anchor="middle" x="804" y="-14.3" font-family="Arial" font-size="14.00">SMO</text>
</g>
<!-- o&#45;ran&#45;smo&#45;teiv&#45;ranNearRTRICFunction&#45;&gt;o&#45;ran&#45;smo&#45;teiv&#45;ranSMO -->
<g id="edge26" class="edge">
<title>o&#45;ran&#45;smo&#45;teiv&#45;ranNearRTRICFunction&#45;&gt;o&#45;ran&#45;smo&#45;teiv&#45;ranSMO</title>
<path fill="none" stroke="#528b8b" d="M543.58,-86.9C610.65,-69.41 712.49,-42.86 766.81,-28.7"/>
<polygon fill="#528b8b" stroke="#528b8b" points="776.7,-26.12 768.16,-33 771.86,-27.38 767.02,-28.64 767.02,-28.64 767.02,-28.64 771.86,-27.38 765.88,-24.29 776.7,-26.12 776.7,-26.12"/>
<text text-anchor="middle" x="686" y="-57.8" font-family="Arial" font-size="14.00">O1LINK</text>
<text text-anchor="middle" x="765.7" y="-29.92" font-family="Arial" font-size="14.00">0..*</text>
<text text-anchor="middle" x="531.08" y="-75.7" font-family="Arial" font-size="14.00">0..1</text>
</g>
<!-- o&#45;ran&#45;smo&#45;teiv&#45;ranOCUCPFunction&#45;&gt;o&#45;ran&#45;smo&#45;teiv&#45;ranNRCellCU -->
<g id="edge27" class="edge">
<title>o&#45;ran&#45;smo&#45;teiv&#45;ranOCUCPFunction&#45;&gt;o&#45;ran&#45;smo&#45;teiv&#45;ranNRCellCU</title>
<path fill="none" stroke="#528b8b" d="M524.99,-260.8C536.55,-248.36 552.34,-231.36 565.23,-217.5"/>
<polygon fill="#528b8b" stroke="#528b8b" points="572.04,-210.18 568.53,-220.56 568.63,-213.84 565.23,-217.5 565.23,-217.5 565.23,-217.5 568.63,-213.84 561.93,-214.44 572.04,-210.18 572.04,-210.18"/>
<text text-anchor="middle" x="592" y="-231.8" font-family="Arial" font-size="14.00">PROVIDES</text>
<text text-anchor="middle" x="559.54" y="-213.98" font-family="Arial" font-size="14.00">1..1</text>
<text text-anchor="middle" x="513.99" y="-249.6" font-family="Arial" font-size="14.00">0..*</text>
</g>
<!-- o&#45;ran&#45;smo&#45;teiv&#45;ranOCUCPFunction&#45;&gt;o&#45;ran&#45;smo&#45;teiv&#45;ranNearRTRICFunction -->
<g id="edge29" class="edge">
<title>o&#45;ran&#45;smo&#45;teiv&#45;ranOCUCPFunction&#45;&gt;o&#45;ran&#45;smo&#45;teiv&#45;ranNearRTRICFunction</title>
<path fill="none" stroke="#528b8b" d="M502.29,-260.96C497.24,-247.38 490.59,-227.76 487,-210 481.8,-184.29 479.6,-154.4 478.67,-133.28"/>
<polygon fill="#528b8b" stroke="#528b8b" points="478.3,-123.1 483.16,-132.93 478.48,-128.1 478.67,-133.09 478.67,-133.09 478.67,-133.09 478.48,-128.1 474.17,-133.26 478.3,-123.1 478.3,-123.1"/>
<text text-anchor="middle" x="512.5" y="-188.3" font-family="Arial" font-size="14.00">E2LINK</text>
<text text-anchor="middle" x="467.3" y="-126.9" font-family="Arial" font-size="14.00">0..*</text>
<text text-anchor="middle" x="489.79" y="-249.76" font-family="Arial" font-size="14.00">0..1</text>
</g>
<!-- o&#45;ran&#45;smo&#45;teiv&#45;ranOCUCPFunction&#45;&gt;o&#45;ran&#45;smo&#45;teiv&#45;ranOCUUPFunction -->
<g id="edge30" class="edge">
<title>o&#45;ran&#45;smo&#45;teiv&#45;ranOCUCPFunction&#45;&gt;o&#45;ran&#45;smo&#45;teiv&#45;ranOCUUPFunction</title>
<path fill="none" stroke="#528b8b" d="M448.9,-260.96C437.66,-256.21 426.49,-250.29 417,-243 408.56,-236.52 401.25,-227.53 395.46,-218.95"/>
<polygon fill="#528b8b" stroke="#528b8b" points="389.99,-210.29 399.13,-216.35 392.66,-214.52 395.33,-218.75 395.33,-218.75 395.33,-218.75 392.66,-214.52 391.52,-221.15 389.99,-210.29 389.99,-210.29"/>
<text text-anchor="middle" x="442.5" y="-231.8" font-family="Arial" font-size="14.00">E1LINK</text>
<text text-anchor="middle" x="400.99" y="-214.09" font-family="Arial" font-size="14.00">0..*</text>
<text text-anchor="middle" x="436.4" y="-249.76" font-family="Arial" font-size="14.00">0..1</text>
</g>
<!-- o&#45;ran&#45;smo&#45;teiv&#45;ranOCUCPFunction&#45;&gt;o&#45;ran&#45;smo&#45;teiv&#45;ranSMO -->
<g id="edge28" class="edge">
<title>o&#45;ran&#45;smo&#45;teiv&#45;ranOCUCPFunction&#45;&gt;o&#45;ran&#45;smo&#45;teiv&#45;ranSMO</title>
<path fill="none" stroke="#528b8b" d="M570.34,-261.73C600.5,-253.57 631.05,-245 634,-243 710.88,-190.71 767.46,-92.24 791.39,-45.25"/>
<polygon fill="#528b8b" stroke="#528b8b" points="796,-36.04 795.55,-47 793.76,-40.51 791.53,-44.98 791.53,-44.98 791.53,-44.98 793.76,-40.51 787.5,-42.97 796,-36.04 796,-36.04"/>
<text text-anchor="middle" x="757" y="-144.8" font-family="Arial" font-size="14.00">O1LINK</text>
<text text-anchor="middle" x="807" y="-39.84" font-family="Arial" font-size="14.00">0..*</text>
<text text-anchor="middle" x="557.84" y="-250.53" font-family="Arial" font-size="14.00">0..1</text>
</g>
<!-- o&#45;ran&#45;smo&#45;teiv&#45;ranOCUUPFunction&#45;&gt;o&#45;ran&#45;smo&#45;teiv&#45;ranNearRTRICFunction -->
<g id="edge31" class="edge">
<title>o&#45;ran&#45;smo&#45;teiv&#45;ranOCUUPFunction&#45;&gt;o&#45;ran&#45;smo&#45;teiv&#45;ranNearRTRICFunction</title>
<path fill="none" stroke="#528b8b" d="M389.23,-173.68C394.83,-163.25 403.02,-150.25 413,-141 417.99,-136.37 423.7,-132.16 429.63,-128.39"/>
<polygon fill="#528b8b" stroke="#528b8b" points="438.4,-123.18 432.1,-132.16 434.1,-125.74 429.8,-128.29 429.8,-128.29 429.8,-128.29 434.1,-125.74 427.5,-124.42 438.4,-123.18 438.4,-123.18"/>
<text text-anchor="middle" x="438.5" y="-144.8" font-family="Arial" font-size="14.00">E2LINK</text>
<text text-anchor="middle" x="427.4" y="-126.98" font-family="Arial" font-size="14.00">0..*</text>
<text text-anchor="middle" x="376.73" y="-162.48" font-family="Arial" font-size="14.00">0..1</text>
</g>
<!-- o&#45;ran&#45;smo&#45;teiv&#45;ranODUFunction&#45;&gt;o&#45;ran&#45;smo&#45;teiv&#45;ranNRCellDU -->
<g id="edge33" class="edge">
<title>o&#45;ran&#45;smo&#45;teiv&#45;ranODUFunction&#45;&gt;o&#45;ran&#45;smo&#45;teiv&#45;ranNRCellDU</title>
<path fill="none" stroke="#528b8b" d="M807.22,-352.43C833.26,-345.93 865.37,-337.76 894,-330 917.22,-323.71 922.87,-321.59 946,-315 974.42,-306.91 981.66,-305.36 1010,-297 1011.41,-296.58 1012.84,-296.16 1014.28,-295.73"/>
<polygon fill="#528b8b" stroke="#528b8b" points="1023.89,-292.83 1015.61,-300.03 1019.1,-294.28 1014.31,-295.72 1014.31,-295.72 1014.31,-295.72 1019.1,-294.28 1013.02,-291.41 1023.89,-292.83 1023.89,-292.83"/>
<text text-anchor="middle" x="984" y="-318.8" font-family="Arial" font-size="14.00">PROVIDES</text>
<text text-anchor="middle" x="1011.39" y="-296.63" font-family="Arial" font-size="14.00">1..1</text>
<text text-anchor="middle" x="818.22" y="-356.23" font-family="Arial" font-size="14.00">0..*</text>
</g>
<!-- o&#45;ran&#45;smo&#45;teiv&#45;ranODUFunction&#45;&gt;o&#45;ran&#45;smo&#45;teiv&#45;ranNRSectorCarrier -->
<g id="edge32" class="edge">
<title>o&#45;ran&#45;smo&#45;teiv&#45;ranODUFunction&#45;&gt;o&#45;ran&#45;smo&#45;teiv&#45;ranNRSectorCarrier</title>
<path fill="none" stroke="#528b8b" d="M786.65,-347.84C796.66,-342.19 807.83,-335.86 818,-330 887.37,-290.03 967.78,-242.48 1013.69,-215.21"/>
<polygon fill="#528b8b" stroke="#528b8b" points="1022.4,-210.04 1016.1,-219.01 1018.1,-212.59 1013.8,-215.14 1013.8,-215.14 1013.8,-215.14 1018.1,-212.59 1011.5,-211.28 1022.4,-210.04 1022.4,-210.04"/>
<text text-anchor="middle" x="972" y="-275.3" font-family="Arial" font-size="14.00">PROVIDES</text>
<text text-anchor="middle" x="1009.9" y="-213.84" font-family="Arial" font-size="14.00">1..1</text>
<text text-anchor="middle" x="797.65" y="-336.64" font-family="Arial" font-size="14.00">0..*</text>
</g>
<!-- o&#45;ran&#45;smo&#45;teiv&#45;ranODUFunction&#45;&gt;o&#45;ran&#45;smo&#45;teiv&#45;ranNearRTRICFunction -->
<g id="edge37" class="edge">
<title>o&#45;ran&#45;smo&#45;teiv&#45;ranODUFunction&#45;&gt;o&#45;ran&#45;smo&#45;teiv&#45;ranNearRTRICFunction</title>
<path fill="none" stroke="#528b8b" d="M753.71,-347.91C746.88,-299.8 724.91,-165.19 690,-141 669.28,-126.64 611.32,-117.68 561.24,-112.43"/>
<polygon fill="#528b8b" stroke="#528b8b" points="551.01,-111.4 561.41,-107.93 555.98,-111.9 560.96,-112.4 560.96,-112.4 560.96,-112.4 555.98,-111.9 560.51,-116.88 551.01,-111.4 551.01,-111.4"/>
<text text-anchor="middle" x="759.5" y="-231.8" font-family="Arial" font-size="14.00">E2LINK</text>
<text text-anchor="middle" x="562.01" y="-115.2" font-family="Arial" font-size="14.00">0..*</text>
<text text-anchor="middle" x="759.96" y="-336.71" font-family="Arial" font-size="14.00">0..1</text>
</g>
<!-- o&#45;ran&#45;smo&#45;teiv&#45;ranODUFunction&#45;&gt;o&#45;ran&#45;smo&#45;teiv&#45;ranOCUCPFunction -->
<g id="edge36" class="edge">
<title>o&#45;ran&#45;smo&#45;teiv&#45;ranODUFunction&#45;&gt;o&#45;ran&#45;smo&#45;teiv&#45;ranOCUCPFunction</title>
<path fill="none" stroke="#528b8b" d="M704.96,-363.89C664.04,-361.16 606.19,-353.05 561,-330 548.97,-323.86 537.85,-314.03 529.01,-304.7"/>
<polygon fill="#528b8b" stroke="#528b8b" points="522.15,-297.07 532.18,-301.49 525.49,-300.79 528.83,-304.5 528.83,-304.5 528.83,-304.5 525.49,-300.79 525.49,-307.51 522.15,-297.07 522.15,-297.07"/>
<text text-anchor="middle" x="591.5" y="-318.8" font-family="Arial" font-size="14.00">F1CLINK</text>
<text text-anchor="middle" x="534.65" y="-300.87" font-family="Arial" font-size="14.00">0..1</text>
<text text-anchor="middle" x="692.46" y="-352.69" font-family="Arial" font-size="14.00">0..1</text>
</g>
<!-- o&#45;ran&#45;smo&#45;teiv&#45;ranODUFunction&#45;&gt;o&#45;ran&#45;smo&#45;teiv&#45;ranOCUUPFunction -->
<g id="edge35" class="edge">
<title>o&#45;ran&#45;smo&#45;teiv&#45;ranODUFunction&#45;&gt;o&#45;ran&#45;smo&#45;teiv&#45;ranOCUUPFunction</title>
<path fill="none" stroke="#528b8b" d="M745.93,-347.76C738.96,-337.1 728.83,-323.82 717,-315 703.8,-305.16 594.46,-266.68 579,-261 533.39,-244.25 481.43,-226.46 442.18,-213.27"/>
<polygon fill="#528b8b" stroke="#528b8b" points="432.49,-210.02 443.4,-208.93 437.23,-211.61 441.97,-213.2 441.97,-213.2 441.97,-213.2 437.23,-211.61 440.54,-217.47 432.49,-210.02 432.49,-210.02"/>
<text text-anchor="middle" x="704" y="-275.3" font-family="Arial" font-size="14.00">F1ULINK</text>
<text text-anchor="middle" x="443.49" y="-213.82" font-family="Arial" font-size="14.00">0..*</text>
<text text-anchor="middle" x="733.43" y="-336.56" font-family="Arial" font-size="14.00">0..1</text>
</g>
<!-- o&#45;ran&#45;smo&#45;teiv&#45;ranODUFunction&#45;&gt;o&#45;ran&#45;smo&#45;teiv&#45;ranSMO -->
<g id="edge34" class="edge">
<title>o&#45;ran&#45;smo&#45;teiv&#45;ranODUFunction&#45;&gt;o&#45;ran&#45;smo&#45;teiv&#45;ranSMO</title>
<path fill="none" stroke="#528b8b" d="M772.79,-347.7C786.63,-331.56 804,-306.1 804,-280 804,-280 804,-280 804,-104 804,-84.75 804,-63.05 804,-46.4"/>
<polygon fill="#528b8b" stroke="#528b8b" points="804,-36.26 808.5,-46.26 804,-41.26 804,-46.26 804,-46.26 804,-46.26 804,-41.26 799.5,-46.26 804,-36.26 804,-36.26"/>
<text text-anchor="middle" x="830" y="-188.3" font-family="Arial" font-size="14.00">O1LINK</text>
<text text-anchor="middle" x="793" y="-40.06" font-family="Arial" font-size="14.00">0..*</text>
<text text-anchor="middle" x="785.29" y="-336.5" font-family="Arial" font-size="14.00">0..1</text>
</g>
<!-- o&#45;ran&#45;smo&#45;teiv&#45;ranORUFunction&#45;&gt;o&#45;ran&#45;smo&#45;teiv&#45;ranODUFunction -->
<g id="edge38" class="edge">
<title>o&#45;ran&#45;smo&#45;teiv&#45;ranORUFunction&#45;&gt;o&#45;ran&#45;smo&#45;teiv&#45;ranODUFunction</title>
<path fill="none" stroke="#528b8b" d="M954.19,-436.42C973.84,-427.82 988.98,-416.03 977,-402 956.8,-378.35 875.4,-370.59 817.26,-368.1"/>
<polygon fill="#528b8b" stroke="#528b8b" points="807.06,-367.7 817.23,-363.59 812.06,-367.9 817.05,-368.09 817.05,-368.09 817.05,-368.09 812.06,-367.9 816.88,-372.59 807.06,-367.7 807.06,-367.7"/>
<text text-anchor="middle" x="1017.5" y="-405.8" font-family="Arial" font-size="14.00">OFHULINK</text>
<text text-anchor="middle" x="818.06" y="-371.5" font-family="Arial" font-size="14.00">0..*</text>
<text text-anchor="middle" x="966.69" y="-440.22" font-family="Arial" font-size="14.00">0..1</text>
</g>
<!-- o&#45;ran&#45;smo&#45;teiv&#45;ranORUFunction&#45;&gt;o&#45;ran&#45;smo&#45;teiv&#45;ranODUFunction -->
<g id="edge39" class="edge">
<title>o&#45;ran&#45;smo&#45;teiv&#45;ranORUFunction&#45;&gt;o&#45;ran&#45;smo&#45;teiv&#45;ranODUFunction</title>
<path fill="none" stroke="#528b8b" d="M851.83,-446.07C798.06,-439.31 720.01,-427.8 711,-417 703.62,-408.15 708.61,-398.7 717.53,-390.43"/>
<polygon fill="#528b8b" stroke="#528b8b" points="725.36,-384.07 720.43,-393.87 721.48,-387.22 717.6,-390.37 717.6,-390.37 717.6,-390.37 721.48,-387.22 714.76,-386.88 725.36,-384.07 725.36,-384.07"/>
<text text-anchor="middle" x="747.5" y="-405.8" font-family="Arial" font-size="14.00">OFHSLINK</text>
<text text-anchor="middle" x="736.36" y="-387.87" font-family="Arial" font-size="14.00">0..*</text>
<text text-anchor="middle" x="839.33" y="-434.87" font-family="Arial" font-size="14.00">0..1</text>
</g>
<!-- o&#45;ran&#45;smo&#45;teiv&#45;ranORUFunction&#45;&gt;o&#45;ran&#45;smo&#45;teiv&#45;ranODUFunction -->
<g id="edge41" class="edge">
<title>o&#45;ran&#45;smo&#45;teiv&#45;ranORUFunction&#45;&gt;o&#45;ran&#45;smo&#45;teiv&#45;ranODUFunction</title>
<path fill="none" stroke="#528b8b" d="M851.79,-437.85C836.73,-432.52 820.66,-425.61 807,-417 796.13,-410.15 785.7,-400.65 777.14,-391.77"/>
<polygon fill="#528b8b" stroke="#528b8b" points="770.13,-384.21 780.23,-388.48 773.53,-387.87 776.93,-391.54 776.93,-391.54 776.93,-391.54 773.53,-387.87 773.63,-394.6 770.13,-384.21 770.13,-384.21"/>
<text text-anchor="middle" x="844" y="-405.8" font-family="Arial" font-size="14.00">OFHMLINK</text>
<text text-anchor="middle" x="759.13" y="-388.01" font-family="Arial" font-size="14.00">0..*</text>
<text text-anchor="middle" x="864.29" y="-426.65" font-family="Arial" font-size="14.00">0..1</text>
</g>
<!-- o&#45;ran&#45;smo&#45;teiv&#45;ranORUFunction&#45;&gt;o&#45;ran&#45;smo&#45;teiv&#45;ranODUFunction -->
<g id="edge42" class="edge">
<title>o&#45;ran&#45;smo&#45;teiv&#45;ranORUFunction&#45;&gt;o&#45;ran&#45;smo&#45;teiv&#45;ranODUFunction</title>
<path fill="none" stroke="#528b8b" d="M899.45,-434.91C896.34,-424.04 890.74,-410.45 881,-402 863.29,-386.63 839.32,-377.97 817.11,-373.11"/>
<polygon fill="#528b8b" stroke="#528b8b" points="807.06,-371.13 817.74,-368.65 811.96,-372.1 816.87,-373.06 816.87,-373.06 816.87,-373.06 811.96,-372.1 816,-377.48 807.06,-371.13 807.06,-371.13"/>
<text text-anchor="middle" x="927.5" y="-405.8" font-family="Arial" font-size="14.00">OFHCLINK</text>
<text text-anchor="middle" x="818.06" y="-374.93" font-family="Arial" font-size="14.00">0..*</text>
<text text-anchor="middle" x="911.95" y="-423.71" font-family="Arial" font-size="14.00">0..1</text>
</g>
<!-- o&#45;ran&#45;smo&#45;teiv&#45;ranORUFunction&#45;&gt;o&#45;ran&#45;smo&#45;teiv&#45;ranSMO -->
<g id="edge40" class="edge">
<title>o&#45;ran&#45;smo&#45;teiv&#45;ranORUFunction&#45;&gt;o&#45;ran&#45;smo&#45;teiv&#45;ranSMO</title>
<path fill="none" stroke="#528b8b" d="M954.1,-452.13C996.03,-450.17 1055.67,-442.5 1101,-417 1140.87,-394.58 1144,-369.24 1144,-323.5 1144,-323.5 1144,-323.5 1144,-104 1144,-42.17 929.71,-24.94 841.37,-20.46"/>
<polygon fill="#528b8b" stroke="#528b8b" points="831.25,-19.98 841.45,-15.96 836.24,-20.22 841.24,-20.46 841.24,-20.46 841.24,-20.46 836.24,-20.22 841.02,-24.95 831.25,-19.98 831.25,-19.98"/>
<text text-anchor="middle" x="1181" y="-231.8" font-family="Arial" font-size="14.00">OFHMLINK</text>
<text text-anchor="middle" x="842.25" y="-23.78" font-family="Arial" font-size="14.00">0..*</text>
<text text-anchor="middle" x="966.6" y="-455.93" font-family="Arial" font-size="14.00">0..1</text>
</g>
<!-- o&#45;ran&#45;smo&#45;teiv&#45;ranORUFunction&#45;&gt;o&#45;ran&#45;smo&#45;teiv&#45;ranSMO -->
<g id="edge43" class="edge">
<title>o&#45;ran&#45;smo&#45;teiv&#45;ranORUFunction&#45;&gt;o&#45;ran&#45;smo&#45;teiv&#45;ranSMO</title>
<path fill="none" stroke="#528b8b" d="M954.07,-447.28C994.09,-442.4 1045.08,-433.16 1058,-417 1062.16,-411.79 1060.1,-408.33 1058,-402 1042.78,-356.2 1033.94,-340.56 993,-315 956.55,-292.24 928.99,-326.77 898,-297 878.1,-277.88 884,-264.1 884,-236.5 884,-236.5 884,-236.5 884,-104 884,-76.09 860.85,-53.61 839.45,-38.8"/>
<polygon fill="#528b8b" stroke="#528b8b" points="831.08,-33.31 841.91,-35.03 835.27,-36.05 839.45,-38.79 839.45,-38.79 839.45,-38.79 835.27,-36.05 836.98,-42.55 831.08,-33.31 831.08,-33.31"/>
<text text-anchor="middle" x="910" y="-231.8" font-family="Arial" font-size="14.00">O1LINK</text>
<text text-anchor="middle" x="842.08" y="-37.11" font-family="Arial" font-size="14.00">0..*</text>
<text text-anchor="middle" x="966.57" y="-436.08" font-family="Arial" font-size="14.00">0..1</text>
</g>
<!-- o&#45;ran&#45;smo&#45;teiv&#45;ranSector -->
<g id="node21" class="node">
<title>o&#45;ran&#45;smo&#45;teiv&#45;ranSector</title>
<polygon fill="#366f34" fill-opacity="0.254902" stroke="black" points="1202.5,-471 1143.5,-471 1143.5,-435 1202.5,-435 1202.5,-471"/>
<text text-anchor="middle" x="1173" y="-449.3" font-family="Arial" font-size="14.00">Sector</text>
</g>
<!-- o&#45;ran&#45;smo&#45;teiv&#45;ranSector&#45;&gt;o&#45;ran&#45;smo&#45;teiv&#45;equipmentAntennaModule -->
<g id="edge45" class="edge">
<title>o&#45;ran&#45;smo&#45;teiv&#45;ranSector&#45;&gt;o&#45;ran&#45;smo&#45;teiv&#45;equipmentAntennaModule</title>
<path fill="none" stroke="#528b8b" d="M1184.53,-434.8C1192.65,-422.7 1203.64,-406.3 1212.79,-392.67"/>
<polygon fill="#528b8b" stroke="#528b8b" points="1218.48,-384.18 1216.65,-394.99 1215.7,-388.33 1212.91,-392.48 1212.91,-392.48 1212.91,-392.48 1215.7,-388.33 1209.18,-389.97 1218.48,-384.18 1218.48,-384.18"/>
<text text-anchor="middle" x="1235.5" y="-405.8" font-family="Arial" font-size="14.00">GROUPS</text>
<text text-anchor="middle" x="1205.98" y="-387.98" font-family="Arial" font-size="14.00">0..1</text>
<text text-anchor="middle" x="1173.53" y="-423.6" font-family="Arial" font-size="14.00">0..*</text>
</g>
<!-- o&#45;ran&#45;smo&#45;teiv&#45;ranSector&#45;&gt;o&#45;ran&#45;smo&#45;teiv&#45;ranNRCellDU -->
<g id="edge44" class="edge">
<title>o&#45;ran&#45;smo&#45;teiv&#45;ranSector&#45;&gt;o&#45;ran&#45;smo&#45;teiv&#45;ranNRCellDU</title>
<path fill="none" stroke="#528b8b" d="M1149.76,-434.95C1134.08,-422.4 1113.97,-404.07 1101,-384 1085.67,-360.28 1076.04,-329.28 1070.64,-307.31"/>
<polygon fill="#528b8b" stroke="#528b8b" points="1068.32,-297.33 1074.97,-306.05 1069.46,-302.2 1070.59,-307.07 1070.59,-307.07 1070.59,-307.07 1069.46,-302.2 1066.2,-308.09 1068.32,-297.33 1068.32,-297.33"/>
<text text-anchor="middle" x="1132.5" y="-362.3" font-family="Arial" font-size="14.00">GROUPS</text>
<text text-anchor="middle" x="1055.82" y="-301.13" font-family="Arial" font-size="14.00">0..1</text>
<text text-anchor="middle" x="1138.76" y="-423.75" font-family="Arial" font-size="14.00">0..*</text>
</g>
</g>
</svg>
