<svg width="1247px" height="653px"
 viewBox="0.00 0.00 1247.00 653.00" xmlns="http://www.w3.org/2000/svg" xmlns:xlink="http://www.w3.org/1999/xlink">
<g id="graph0" class="graph" transform="scale(1.0 1.0) rotate(0.0) translate(4.0 649.0)">
<title>moduleName</title>
<polygon fill="white" stroke="transparent" points="-4,4 -4,-649 1243,-649 1243,4 -4,4"/>
<!-- CloudifiedNF -->
<g id="node1" class="node">
<title>CloudifiedNF</title>
<polygon fill="#89240a" fill-opacity="0.254902" stroke="black" points="722.5,-645 627.5,-645 627.5,-609 722.5,-609 722.5,-645"/>
<text text-anchor="middle" x="675" y="-623.3" font-family="Arial" font-size="14.00">CloudifiedNF</text>
</g>
<!-- NFDeployment -->
<g id="node2" class="node">
<title>NFDeployment</title>
<polygon fill="#89240a" fill-opacity="0.254902" stroke="black" points="383.5,-558 276.5,-558 276.5,-522 383.5,-522 383.5,-558"/>
<text text-anchor="middle" x="330" y="-536.3" font-family="Arial" font-size="14.00">NFDeployment</text>
</g>
<!-- CloudifiedNF&#45;&gt;NFDeployment -->
<g id="edge1" class="edge">
<title>CloudifiedNF&#45;&gt;NFDeployment</title>
<path fill="none" stroke="#528b8b" d="M627.39,-614.27C566.64,-599.3 461.36,-573.36 393.74,-556.7"/>
<polygon fill="#528b8b" stroke="#528b8b" points="383.63,-554.21 394.42,-552.24 388.49,-555.41 393.34,-556.61 393.34,-556.61 393.34,-556.61 388.49,-555.41 392.27,-560.98 383.63,-554.21 383.63,-554.21"/>
<text text-anchor="middle" x="565.5" y="-579.8" font-family="Arial" font-size="14.00">COMPRISES</text>
<text text-anchor="middle" x="395.13" y="-558.01" font-family="Arial" font-size="14.00">1..1</text>
<text text-anchor="middle" x="616.89" y="-618.07" font-family="Arial" font-size="14.00">1..*</text>
</g>
<!-- OCloudNamespace -->
<g id="node4" class="node">
<title>OCloudNamespace</title>
<polygon fill="#89240a" fill-opacity="0.254902" stroke="black" points="173,-471 37,-471 37,-435 173,-435 173,-471"/>
<text text-anchor="middle" x="105" y="-449.3" font-family="Arial" font-size="14.00">OCloudNamespace</text>
</g>
<!-- NFDeployment&#45;&gt;OCloudNamespace -->
<g id="edge7" class="edge">
<title>NFDeployment&#45;&gt;OCloudNamespace</title>
<path fill="none" stroke="#528b8b" d="M276.37,-537.49C219.32,-534.69 134.27,-526.72 112,-504 106.13,-498.01 103.67,-489.52 102.89,-481.23"/>
<polygon fill="#528b8b" stroke="#528b8b" points="102.67,-471.05 107.39,-480.95 102.78,-476.05 102.89,-481.05 102.89,-481.05 102.89,-481.05 102.78,-476.05 98.39,-481.14 102.67,-471.05 102.67,-471.05"/>
<text text-anchor="middle" x="149.5" y="-492.8" font-family="Arial" font-size="14.00">DEPLOYED</text>
<text text-anchor="middle" x="92.17" y="-474.85" font-family="Arial" font-size="14.00">1..*</text>
<text text-anchor="middle" x="265.87" y="-541.29" font-family="Arial" font-size="14.00">1..*</text>
</g>
<!-- ManagedElement -->
<g id="node8" class="node">
<title>ManagedElement</title>
<polygon fill="#3663f0" fill-opacity="0.254902" stroke="black" points="523,-471 399,-471 399,-435 523,-435 523,-471"/>
<text text-anchor="middle" x="461" y="-449.3" font-family="Arial" font-size="14.00">ManagedElement</text>
</g>
<!-- NFDeployment&#45;&gt;ManagedElement -->
<g id="edge6" class="edge">
<title>NFDeployment&#45;&gt;ManagedElement</title>
<path fill="none" stroke="#528b8b" d="M356.51,-521.8C376.49,-508.84 404.07,-490.94 425.88,-476.79"/>
<polygon fill="#528b8b" stroke="#528b8b" points="434.53,-471.18 428.59,-480.39 430.34,-473.9 426.14,-476.62 426.14,-476.62 426.14,-476.62 430.34,-473.9 423.69,-472.84 434.53,-471.18 434.53,-471.18"/>
<text text-anchor="middle" x="431.5" y="-492.8" font-family="Arial" font-size="14.00">SERVES</text>
<text text-anchor="middle" x="424.03" y="-474.98" font-family="Arial" font-size="14.00">1..*</text>
<text text-anchor="middle" x="345.01" y="-510.6" font-family="Arial" font-size="14.00">1..1</text>
</g>
<!-- NearRTRICFunction -->
<g id="node13" class="node">
<title>NearRTRICFunction</title>
<polygon fill="#366f34" fill-opacity="0.254902" stroke="black" points="240.5,-210 101.5,-210 101.5,-174 240.5,-174 240.5,-210"/>
<text text-anchor="middle" x="171" y="-188.3" font-family="Arial" font-size="14.00">NearRTRICFunction</text>
</g>
<!-- NFDeployment&#45;&gt;NearRTRICFunction -->
<g id="edge5" class="edge">
<title>NFDeployment&#45;&gt;NearRTRICFunction</title>
<path fill="none" stroke="#528b8b" d="M276.25,-536.22C182.74,-529.9 0,-510.35 0,-454 0,-454 0,-454 0,-278 0,-233.62 46.76,-212.41 91.38,-202.27"/>
<polygon fill="#528b8b" stroke="#528b8b" points="101.45,-200.16 92.59,-206.62 96.55,-201.19 91.66,-202.22 91.66,-202.22 91.66,-202.22 96.55,-201.19 90.74,-197.81 101.45,-200.16 101.45,-200.16"/>
<text text-anchor="middle" x="27.5" y="-362.3" font-family="Arial" font-size="14.00">SERVES</text>
<text text-anchor="middle" x="90.95" y="-203.96" font-family="Arial" font-size="14.00">0..*</text>
<text text-anchor="middle" x="265.75" y="-525.02" font-family="Arial" font-size="14.00">0..*</text>
</g>
<!-- OCUCPFunction -->
<g id="node14" class="node">
<title>OCUCPFunction</title>
<polygon fill="#366f34" fill-opacity="0.254902" stroke="black" points="513,-210 395,-210 395,-174 513,-174 513,-210"/>
<text text-anchor="middle" x="454" y="-188.3" font-family="Arial" font-size="14.00">OCUCPFunction</text>
</g>
<!-- NFDeployment&#45;&gt;OCUCPFunction -->
<g id="edge4" class="edge">
<title>NFDeployment&#45;&gt;OCUCPFunction</title>
<path fill="none" stroke="#528b8b" d="M330,-521.74C330,-504.57 330,-477.46 330,-454 330,-454 330,-454 330,-321.5 330,-307.63 390.6,-250.35 427.07,-217.14"/>
<polygon fill="#528b8b" stroke="#528b8b" points="434.9,-210.04 430.51,-220.09 431.19,-213.4 427.49,-216.76 427.49,-216.76 427.49,-216.76 431.19,-213.4 424.47,-213.43 434.9,-210.04 434.9,-210.04"/>
<text text-anchor="middle" x="357.5" y="-362.3" font-family="Arial" font-size="14.00">SERVES</text>
<text text-anchor="middle" x="424.4" y="-213.84" font-family="Arial" font-size="14.00">0..*</text>
<text text-anchor="middle" x="319.5" y="-510.54" font-family="Arial" font-size="14.00">0..*</text>
</g>
<!-- OCUUPFunction -->
<g id="node15" class="node">
<title>OCUUPFunction</title>
<polygon fill="#366f34" fill-opacity="0.254902" stroke="black" points="377,-210 259,-210 259,-174 377,-174 377,-210"/>
<text text-anchor="middle" x="318" y="-188.3" font-family="Arial" font-size="14.00">OCUUPFunction</text>
</g>
<!-- NFDeployment&#45;&gt;OCUUPFunction -->
<g id="edge3" class="edge">
<title>NFDeployment&#45;&gt;OCUUPFunction</title>
<path fill="none" stroke="#528b8b" d="M308.97,-521.64C279.1,-495.47 225.71,-442.68 205,-384 181.98,-318.77 246.82,-251.1 287.61,-216.49"/>
<polygon fill="#528b8b" stroke="#528b8b" points="295.42,-210.01 290.59,-219.86 291.57,-213.21 287.72,-216.4 287.72,-216.4 287.72,-216.4 291.57,-213.21 284.85,-212.93 295.42,-210.01 295.42,-210.01"/>
<text text-anchor="middle" x="232.5" y="-362.3" font-family="Arial" font-size="14.00">SERVES</text>
<text text-anchor="middle" x="284.92" y="-213.81" font-family="Arial" font-size="14.00">0..*</text>
<text text-anchor="middle" x="298.47" y="-510.44" font-family="Arial" font-size="14.00">0..*</text>
</g>
<!-- ODUFunction -->
<g id="node16" class="node">
<title>ODUFunction</title>
<polygon fill="#366f34" fill-opacity="0.254902" stroke="black" points="840.5,-297 741.5,-297 741.5,-261 840.5,-261 840.5,-297"/>
<text text-anchor="middle" x="791" y="-275.3" font-family="Arial" font-size="14.00">ODUFunction</text>
</g>
<!-- NFDeployment&#45;&gt;ODUFunction -->
<g id="edge2" class="edge">
<title>NFDeployment&#45;&gt;ODUFunction</title>
<path fill="none" stroke="#528b8b" d="M383.56,-534.46C524.88,-521.28 902.05,-477.8 976,-384 996.19,-358.39 978.48,-332.57 951,-315 921.17,-295.93 882.5,-287.13 850.65,-283.12"/>
<polygon fill="#528b8b" stroke="#528b8b" points="840.57,-281.98 851.01,-278.63 845.54,-282.54 850.51,-283.1 850.51,-283.1 850.51,-283.1 845.54,-282.54 850,-287.57 840.57,-281.98 840.57,-281.98"/>
<text text-anchor="middle" x="985.5" y="-405.8" font-family="Arial" font-size="14.00">SERVES</text>
<text text-anchor="middle" x="851.07" y="-285.78" font-family="Arial" font-size="14.00">0..*</text>
<text text-anchor="middle" x="394.06" y="-538.26" font-family="Arial" font-size="14.00">0..*</text>
</g>
<!-- NodeCluster -->
<g id="node3" class="node">
<title>NodeCluster</title>
<polygon fill="#89240a" fill-opacity="0.254902" stroke="black" points="165,-384 73,-384 73,-348 165,-348 165,-384"/>
<text text-anchor="middle" x="119" y="-362.3" font-family="Arial" font-size="14.00">NodeCluster</text>
</g>
<!-- OCloudSite -->
<g id="node5" class="node">
<title>OCloudSite</title>
<polygon fill="#89240a" fill-opacity="0.254902" stroke="black" points="162,-297 76,-297 76,-261 162,-261 162,-297"/>
<text text-anchor="middle" x="119" y="-275.3" font-family="Arial" font-size="14.00">OCloudSite</text>
</g>
<!-- NodeCluster&#45;&gt;OCloudSite -->
<g id="edge8" class="edge">
<title>NodeCluster&#45;&gt;OCloudSite</title>
<path fill="none" stroke="#528b8b" d="M119,-347.8C119,-336.16 119,-320.55 119,-307.24"/>
<polygon fill="#528b8b" stroke="#528b8b" points="119,-297.18 123.5,-307.18 119,-302.18 119,-307.18 119,-307.18 119,-307.18 119,-302.18 114.5,-307.18 119,-297.18 119,-297.18"/>
<text text-anchor="middle" x="151" y="-318.8" font-family="Arial" font-size="14.00">LOCATED</text>
<text text-anchor="middle" x="108.5" y="-300.98" font-family="Arial" font-size="14.00">1..*</text>
<text text-anchor="middle" x="108.5" y="-336.6" font-family="Arial" font-size="14.00">1..*</text>
</g>
<!-- OCloudNamespace&#45;&gt;NodeCluster -->
<g id="edge9" class="edge">
<title>OCloudNamespace&#45;&gt;NodeCluster</title>
<path fill="none" stroke="#528b8b" d="M107.15,-434.84C108.43,-425.17 110.15,-412.89 112,-402 112.44,-399.43 112.92,-396.77 113.42,-394.1"/>
<polygon fill="#528b8b" stroke="#528b8b" points="115.38,-384.05 117.88,-394.73 114.42,-388.96 113.46,-393.87 113.46,-393.87 113.46,-393.87 114.42,-388.96 109.05,-393 115.38,-384.05 115.38,-384.05"/>
<text text-anchor="middle" x="149.5" y="-405.8" font-family="Arial" font-size="14.00">DEPLOYED</text>
<text text-anchor="middle" x="104.88" y="-387.85" font-family="Arial" font-size="14.00">1..*</text>
<text text-anchor="middle" x="95.65" y="-423.64" font-family="Arial" font-size="14.00">1..1</text>
</g>
<!-- AntennaModule -->
<g id="node6" class="node">
<title>AntennaModule</title>
<polygon fill="#9a38e3" fill-opacity="0.254902" stroke="black" points="1210,-297 1098,-297 1098,-261 1210,-261 1210,-297"/>
<text text-anchor="middle" x="1154" y="-275.3" font-family="Arial" font-size="14.00">AntennaModule</text>
</g>
<!-- Site -->
<g id="node7" class="node">
<title>Site</title>
<polygon fill="#9a38e3" fill-opacity="0.254902" stroke="black" points="1204,-210 1150,-210 1150,-174 1204,-174 1204,-210"/>
<text text-anchor="middle" x="1177" y="-188.3" font-family="Arial" font-size="14.00">Site</text>
</g>
<!-- AntennaModule&#45;&gt;Site -->
<g id="edge12" class="edge">
<title>AntennaModule&#45;&gt;Site</title>
<path fill="none" stroke="#528b8b" d="M1158.65,-260.8C1161.83,-249.05 1166.11,-233.24 1169.74,-219.84"/>
<polygon fill="#528b8b" stroke="#528b8b" points="1172.35,-210.18 1174.08,-221 1171.05,-215 1169.74,-219.83 1169.74,-219.83 1169.74,-219.83 1171.05,-215 1165.4,-218.65 1172.35,-210.18 1172.35,-210.18"/>
<text text-anchor="middle" x="1202.5" y="-231.8" font-family="Arial" font-size="14.00">INSTALLED</text>
<text text-anchor="middle" x="1161.85" y="-213.98" font-family="Arial" font-size="14.00">0..*</text>
<text text-anchor="middle" x="1170.15" y="-249.6" font-family="Arial" font-size="14.00">0..1</text>
</g>
<!-- AntennaCapability -->
<g id="node9" class="node">
<title>AntennaCapability</title>
<polygon fill="#366f34" fill-opacity="0.254902" stroke="black" points="1134,-36 1008,-36 1008,0 1134,0 1134,-36"/>
<text text-anchor="middle" x="1071" y="-14.3" font-family="Arial" font-size="14.00">AntennaCapability</text>
</g>
<!-- AntennaModule&#45;&gt;AntennaCapability -->
<g id="edge11" class="edge">
<title>AntennaModule&#45;&gt;AntennaCapability</title>
<path fill="none" stroke="#528b8b" d="M1150.2,-260.77C1141.54,-222.7 1118.79,-128.87 1089,-54 1087.85,-51.11 1086.54,-48.14 1085.16,-45.21"/>
<polygon fill="#528b8b" stroke="#528b8b" points="1080.65,-36.14 1089.13,-43.09 1082.88,-40.62 1085.1,-45.09 1085.1,-45.09 1085.1,-45.09 1082.88,-40.62 1081.07,-47.1 1080.65,-36.14 1080.65,-36.14"/>
<text text-anchor="middle" x="1149.5" y="-144.8" font-family="Arial" font-size="14.00">SERVES</text>
<text text-anchor="middle" x="1091.15" y="-39.94" font-family="Arial" font-size="14.00">0..*</text>
<text text-anchor="middle" x="1139.7" y="-249.57" font-family="Arial" font-size="14.00">0..*</text>
</g>
<!-- NRCellDU -->
<g id="node11" class="node">
<title>NRCellDU</title>
<polygon fill="#366f34" fill-opacity="0.254902" stroke="black" points="1058.5,-210 979.5,-210 979.5,-174 1058.5,-174 1058.5,-210"/>
<text text-anchor="middle" x="1019" y="-188.3" font-family="Arial" font-size="14.00">NRCellDU</text>
</g>
<!-- AntennaModule&#45;&gt;NRCellDU -->
<g id="edge10" class="edge">
<title>AntennaModule&#45;&gt;NRCellDU</title>
<path fill="none" stroke="#528b8b" d="M1097.87,-265.57C1082.31,-260.33 1066.11,-253.04 1053,-243 1044.71,-236.65 1037.73,-227.69 1032.29,-219.1"/>
<polygon fill="#528b8b" stroke="#528b8b" points="1027.2,-210.42 1036.14,-216.76 1029.73,-214.73 1032.26,-219.04 1032.26,-219.04 1032.26,-219.04 1029.73,-214.73 1028.38,-221.32 1027.2,-210.42 1027.2,-210.42"/>
<text text-anchor="middle" x="1080.5" y="-231.8" font-family="Arial" font-size="14.00">SERVES</text>
<text text-anchor="middle" x="1016.7" y="-214.22" font-family="Arial" font-size="14.00">1..*</text>
<text text-anchor="middle" x="1087.37" y="-254.37" font-family="Arial" font-size="14.00">0..*</text>
</g>
<!-- ManagedElement&#45;&gt;CloudifiedNF -->
<g id="edge18" class="edge">
<title>ManagedElement&#45;&gt;CloudifiedNF</title>
<path fill="none" stroke="#528b8b" d="M482.22,-471.05C520.69,-501.97 602.02,-567.34 645.74,-602.48"/>
<polygon fill="#528b8b" stroke="#528b8b" points="653.7,-608.88 643.08,-606.12 649.8,-605.75 645.9,-602.61 645.9,-602.61 645.9,-602.61 649.8,-605.75 648.72,-599.11 653.7,-608.88 653.7,-608.88"/>
<text text-anchor="middle" x="627.5" y="-536.3" font-family="Arial" font-size="14.00">DEPLOYED</text>
<text text-anchor="middle" x="642.2" y="-597.68" font-family="Arial" font-size="14.00">1..1</text>
<text text-anchor="middle" x="470.72" y="-474.85" font-family="Arial" font-size="14.00">0..1</text>
</g>
<!-- ManagedElement&#45;&gt;NearRTRICFunction -->
<g id="edge17" class="edge">
<title>ManagedElement&#45;&gt;NearRTRICFunction</title>
<path fill="none" stroke="#528b8b" d="M408.36,-434.93C359.53,-416.49 288.24,-382.5 246,-330 218.02,-295.23 195.02,-248.54 182.16,-219.63"/>
<polygon fill="#528b8b" stroke="#528b8b" points="178.04,-210.19 186.16,-217.56 180.04,-214.77 182.04,-219.36 182.04,-219.36 182.04,-219.36 180.04,-214.77 177.91,-221.16 178.04,-210.19 178.04,-210.19"/>
<text text-anchor="middle" x="281" y="-318.8" font-family="Arial" font-size="14.00">MANAGES</text>
<text text-anchor="middle" x="166.54" y="-213.99" font-family="Arial" font-size="14.00">1..1</text>
<text text-anchor="middle" x="397.86" y="-423.73" font-family="Arial" font-size="14.00">0..*</text>
</g>
<!-- ManagedElement&#45;&gt;OCUCPFunction -->
<g id="edge16" class="edge">
<title>ManagedElement&#45;&gt;OCUCPFunction</title>
<path fill="none" stroke="#528b8b" d="M459.58,-434.95C456.69,-399.33 450.22,-314.4 448,-243 447.79,-236.34 447.43,-234.64 448,-228 448.22,-225.42 448.53,-222.74 448.89,-220.07"/>
<polygon fill="#528b8b" stroke="#528b8b" points="450.49,-210.02 453.37,-220.6 449.7,-214.95 448.92,-219.89 448.92,-219.89 448.92,-219.89 449.7,-214.95 444.48,-219.19 450.49,-210.02 450.49,-210.02"/>
<text text-anchor="middle" x="488" y="-318.8" font-family="Arial" font-size="14.00">MANAGES</text>
<text text-anchor="middle" x="461.99" y="-213.82" font-family="Arial" font-size="14.00">1..1</text>
<text text-anchor="middle" x="470.08" y="-423.75" font-family="Arial" font-size="14.00">0..*</text>
</g>
<!-- ManagedElement&#45;&gt;OCUUPFunction -->
<g id="edge15" class="edge">
<title>ManagedElement&#45;&gt;OCUUPFunction</title>
<path fill="none" stroke="#528b8b" d="M448.68,-434.72C418.73,-392.4 343.43,-284.06 328,-243 325.26,-235.71 323.22,-227.52 321.73,-219.92"/>
<polygon fill="#528b8b" stroke="#528b8b" points="320.01,-210.04 326.16,-219.13 320.87,-214.97 321.72,-219.9 321.72,-219.9 321.72,-219.9 320.87,-214.97 317.29,-220.67 320.01,-210.04 320.01,-210.04"/>
<text text-anchor="middle" x="412" y="-318.8" font-family="Arial" font-size="14.00">MANAGES</text>
<text text-anchor="middle" x="308.51" y="-213.84" font-family="Arial" font-size="14.00">1..1</text>
<text text-anchor="middle" x="438.18" y="-423.52" font-family="Arial" font-size="14.00">0..*</text>
</g>
<!-- ManagedElement&#45;&gt;ODUFunction -->
<g id="edge14" class="edge">
<title>ManagedElement&#45;&gt;ODUFunction</title>
<path fill="none" stroke="#528b8b" d="M523.08,-440.39C645.59,-416.86 908.82,-362.99 934,-330 958.85,-297.43 900.52,-285.99 851.03,-282.02"/>
<polygon fill="#528b8b" stroke="#528b8b" points="840.96,-281.3 851.25,-277.52 845.94,-281.65 850.93,-282.01 850.93,-282.01 850.93,-282.01 845.94,-281.65 850.61,-286.5 840.96,-281.3 840.96,-281.3"/>
<text text-anchor="middle" x="937" y="-362.3" font-family="Arial" font-size="14.00">MANAGES</text>
<text text-anchor="middle" x="852.46" y="-270.1" font-family="Arial" font-size="14.00">1..1</text>
<text text-anchor="middle" x="533.58" y="-444.19" font-family="Arial" font-size="14.00">0..*</text>
</g>
<!-- ORUFunction -->
<g id="node17" class="node">
<title>ORUFunction</title>
<polygon fill="#366f34" fill-opacity="0.254902" stroke="black" points="653.5,-384 554.5,-384 554.5,-348 653.5,-348 653.5,-384"/>
<text text-anchor="middle" x="604" y="-362.3" font-family="Arial" font-size="14.00">ORUFunction</text>
</g>
<!-- ManagedElement&#45;&gt;ORUFunction -->
<g id="edge13" class="edge">
<title>ManagedElement&#45;&gt;ORUFunction</title>
<path fill="none" stroke="#528b8b" d="M489.94,-434.8C511.94,-421.72 542.39,-403.62 566.29,-389.41"/>
<polygon fill="#528b8b" stroke="#528b8b" points="575.1,-384.18 568.81,-393.15 570.81,-386.73 566.51,-389.29 566.51,-389.29 566.51,-389.29 570.81,-386.73 564.21,-385.42 575.1,-384.18 575.1,-384.18"/>
<text text-anchor="middle" x="577" y="-405.8" font-family="Arial" font-size="14.00">MANAGES</text>
<text text-anchor="middle" x="563.6" y="-387.98" font-family="Arial" font-size="14.00">1..1</text>
<text text-anchor="middle" x="500.44" y="-423.6" font-family="Arial" font-size="14.00">0..*</text>
</g>
<!-- NRCellCU -->
<g id="node10" class="node">
<title>NRCellCU</title>
<polygon fill="#366f34" fill-opacity="0.254902" stroke="black" points="427.5,-123 348.5,-123 348.5,-87 427.5,-87 427.5,-123"/>
<text text-anchor="middle" x="388" y="-101.3" font-family="Arial" font-size="14.00">NRCellCU</text>
</g>
<!-- NRSectorCarrier -->
<g id="node12" class="node">
<title>NRSectorCarrier</title>
<polygon fill="#366f34" fill-opacity="0.254902" stroke="black" points="1077,-123 961,-123 961,-87 1077,-87 1077,-123"/>
<text text-anchor="middle" x="1019" y="-101.3" font-family="Arial" font-size="14.00">NRSectorCarrier</text>
</g>
<!-- NRCellDU&#45;&gt;NRSectorCarrier -->
<g id="edge19" class="edge">
<title>NRCellDU&#45;&gt;NRSectorCarrier</title>
<path fill="none" stroke="#528b8b" d="M1019,-173.8C1019,-162.16 1019,-146.55 1019,-133.24"/>
<polygon fill="#528b8b" stroke="#528b8b" points="1019,-123.18 1023.5,-133.18 1019,-128.18 1019,-133.18 1019,-133.18 1019,-133.18 1019,-128.18 1014.5,-133.18 1019,-123.18 1019,-123.18"/>
<text text-anchor="middle" x="1037.5" y="-144.8" font-family="Arial" font-size="14.00">USES</text>
<text text-anchor="middle" x="1007.5" y="-126.98" font-family="Arial" font-size="14.00">0..1</text>
<text text-anchor="middle" x="1008.5" y="-162.6" font-family="Arial" font-size="14.00">0..*</text>
</g>
<!-- NRSectorCarrier&#45;&gt;AntennaCapability -->
<g id="edge20" class="edge">
<title>NRSectorCarrier&#45;&gt;AntennaCapability</title>
<path fill="none" stroke="#528b8b" d="M1029.52,-86.8C1036.85,-74.82 1046.76,-58.62 1055.06,-45.06"/>
<polygon fill="#528b8b" stroke="#528b8b" points="1060.49,-36.18 1059.11,-47.05 1057.88,-40.44 1055.27,-44.71 1055.27,-44.71 1055.27,-44.71 1057.88,-40.44 1051.44,-42.36 1060.49,-36.18 1060.49,-36.18"/>
<text text-anchor="middle" x="1066.5" y="-57.8" font-family="Arial" font-size="14.00">USES</text>
<text text-anchor="middle" x="1049.99" y="-39.98" font-family="Arial" font-size="14.00">0..*</text>
<text text-anchor="middle" x="1018.02" y="-75.6" font-family="Arial" font-size="14.00">0..1</text>
</g>
<!-- SMO -->
<g id="node18" class="node">
<title>SMO</title>
<polygon fill="#366f34" fill-opacity="0.254902" stroke="black" points="573,-123 519,-123 519,-87 573,-87 573,-123"/>
<text text-anchor="middle" x="546" y="-101.3" font-family="Arial" font-size="14.00">SMO</text>
</g>
<!-- NearRTRICFunction&#45;&gt;SMO -->
<g id="edge21" class="edge">
<title>NearRTRICFunction&#45;&gt;SMO</title>
<path fill="none" stroke="#528b8b" d="M219.84,-173.89C251.51,-163.28 293.83,-150 332,-141 348.86,-137.02 452.08,-120.67 508.78,-111.8"/>
<polygon fill="#528b8b" stroke="#528b8b" points="518.79,-110.23 509.61,-116.22 513.85,-111.01 508.91,-111.78 508.91,-111.78 508.91,-111.78 513.85,-111.01 508.22,-107.33 518.79,-110.23 518.79,-110.23"/>
<text text-anchor="middle" x="356.5" y="-144.8" font-family="Arial" font-size="14.00">O1LINK</text>
<text text-anchor="middle" x="508.29" y="-99.03" font-family="Arial" font-size="14.00">0..*</text>
<text text-anchor="middle" x="208.34" y="-162.69" font-family="Arial" font-size="14.00">0..1</text>
</g>
<!-- OCUCPFunction&#45;&gt;NRCellCU -->
<g id="edge22" class="edge">
<title>OCUCPFunction&#45;&gt;NRCellCU</title>
<path fill="none" stroke="#528b8b" d="M407.35,-173.92C400.06,-169.22 393.48,-163.33 389,-156 384.95,-149.38 383.61,-141.29 383.58,-133.56"/>
<polygon fill="#528b8b" stroke="#528b8b" points="384.21,-123.41 388.08,-133.68 383.9,-128.4 383.59,-133.39 383.59,-133.39 383.59,-133.39 383.9,-128.4 379.1,-133.11 384.21,-123.41 384.21,-123.41"/>
<text text-anchor="middle" x="424.5" y="-144.8" font-family="Arial" font-size="14.00">PROVIDES</text>
<text text-anchor="middle" x="372.71" y="-127.21" font-family="Arial" font-size="14.00">1..1</text>
<text text-anchor="middle" x="396.85" y="-162.72" font-family="Arial" font-size="14.00">0..*</text>
</g>
<!-- OCUCPFunction&#45;&gt;SMO -->
<g id="edge23" class="edge">
<title>OCUCPFunction&#45;&gt;SMO</title>
<path fill="none" stroke="#528b8b" d="M461.17,-173.7C466.13,-163.28 473.55,-150.28 483,-141 490.71,-133.43 500.4,-126.98 509.84,-121.76"/>
<polygon fill="#528b8b" stroke="#528b8b" points="518.75,-117.14 511.95,-125.74 514.31,-119.44 509.87,-121.74 509.87,-121.74 509.87,-121.74 514.31,-119.44 507.8,-117.75 518.75,-117.14 518.75,-117.14"/>
<text text-anchor="middle" x="507.5" y="-144.8" font-family="Arial" font-size="14.00">O1LINK</text>
<text text-anchor="middle" x="508.25" y="-120.94" font-family="Arial" font-size="14.00">0..*</text>
<text text-anchor="middle" x="449.67" y="-162.5" font-family="Arial" font-size="14.00">0..1</text>
</g>
<!-- ODUFunction&#45;&gt;NRCellDU -->
<g id="edge25" class="edge">
<title>ODUFunction&#45;&gt;NRCellDU</title>
<path fill="none" stroke="#528b8b" d="M840.7,-261.7C857.67,-255.98 876.73,-249.38 894,-243 919.13,-233.71 946.82,-222.72 969.73,-213.41"/>
<polygon fill="#528b8b" stroke="#528b8b" points="979.24,-209.53 971.68,-217.47 974.61,-211.42 969.98,-213.31 969.98,-213.31 969.98,-213.31 974.61,-211.42 968.28,-209.14 979.24,-209.53 979.24,-209.53"/>
<text text-anchor="middle" x="968.5" y="-231.8" font-family="Arial" font-size="14.00">PROVIDES</text>
<text text-anchor="middle" x="967.74" y="-213.33" font-family="Arial" font-size="14.00">1..1</text>
<text text-anchor="middle" x="830.2" y="-250.5" font-family="Arial" font-size="14.00">0..*</text>
</g>
<!-- ODUFunction&#45;&gt;NRSectorCarrier -->
<g id="edge24" class="edge">
<title>ODUFunction&#45;&gt;NRSectorCarrier</title>
<path fill="none" stroke="#528b8b" d="M806.5,-260.82C826.7,-239.03 863.72,-201.04 900,-174 923.5,-156.49 951.92,-140.09 975.1,-127.78"/>
<polygon fill="#528b8b" stroke="#528b8b" points="984.03,-123.11 977.26,-131.73 979.6,-125.43 975.17,-127.75 975.17,-127.75 975.17,-127.75 979.6,-125.43 973.09,-123.76 984.03,-123.11 984.03,-123.11"/>
<text text-anchor="middle" x="935.5" y="-188.3" font-family="Arial" font-size="14.00">PROVIDES</text>
<text text-anchor="middle" x="972.53" y="-126.91" font-family="Arial" font-size="14.00">1..1</text>
<text text-anchor="middle" x="806.5" y="-249.62" font-family="Arial" font-size="14.00">0..*</text>
</g>
<!-- ODUFunction&#45;&gt;NearRTRICFunction -->
<g id="edge29" class="edge">
<title>ODUFunction&#45;&gt;NearRTRICFunction</title>
<path fill="none" stroke="#528b8b" d="M741.22,-276.72C661.06,-274.04 498.61,-266.02 363,-243 319.98,-235.7 272.52,-223.38 235.55,-212.8"/>
<polygon fill="#528b8b" stroke="#528b8b" points="225.9,-210 236.76,-208.46 230.71,-211.39 235.51,-212.78 235.51,-212.78 235.51,-212.78 230.71,-211.39 234.26,-217.11 225.9,-210 225.9,-210"/>
<text text-anchor="middle" x="386.5" y="-231.8" font-family="Arial" font-size="14.00">E2LINK</text>
<text text-anchor="middle" x="215.4" y="-213.8" font-family="Arial" font-size="14.00">0..*</text>
<text text-anchor="middle" x="729.72" y="-265.52" font-family="Arial" font-size="14.00">0..1</text>
</g>
<!-- ODUFunction&#45;&gt;OCUCPFunction -->
<g id="edge28" class="edge">
<title>ODUFunction&#45;&gt;OCUCPFunction</title>
<path fill="none" stroke="#528b8b" d="M755.01,-260.83C743.73,-255.29 731.27,-249.02 720,-243 708.23,-236.71 706.6,-232.37 694,-228 638.48,-208.73 572.16,-200.07 523.32,-196.18"/>
<polygon fill="#528b8b" stroke="#528b8b" points="513.17,-195.42 523.48,-191.68 518.16,-195.79 523.14,-196.16 523.14,-196.16 523.14,-196.16 518.16,-195.79 522.81,-200.65 513.17,-195.42 513.17,-195.42"/>
<text text-anchor="middle" x="748" y="-231.8" font-family="Arial" font-size="14.00">F1CLINK</text>
<text text-anchor="middle" x="523.67" y="-199.22" font-family="Arial" font-size="14.00">0..*</text>
<text text-anchor="middle" x="743.51" y="-249.63" font-family="Arial" font-size="14.00">0..1</text>
</g>
<!-- ODUFunction&#45;&gt;OCUUPFunction -->
<g id="edge27" class="edge">
<title>ODUFunction&#45;&gt;OCUUPFunction</title>
<path fill="none" stroke="#528b8b" d="M741.5,-275.92C677.66,-272.5 563.47,-263.83 468,-243 435.01,-235.8 399.1,-223.98 370.68,-213.64"/>
<polygon fill="#528b8b" stroke="#528b8b" points="360.96,-210.05 371.9,-209.29 365.65,-211.78 370.34,-213.51 370.34,-213.51 370.34,-213.51 365.65,-211.78 368.79,-217.73 360.96,-210.05 360.96,-210.05"/>
<text text-anchor="middle" x="496" y="-231.8" font-family="Arial" font-size="14.00">F1ULINK</text>
<text text-anchor="middle" x="350.46" y="-213.85" font-family="Arial" font-size="14.00">0..*</text>
<text text-anchor="middle" x="730" y="-279.72" font-family="Arial" font-size="14.00">0..1</text>
</g>
<!-- ODUFunction&#45;&gt;SMO -->
<g id="edge26" class="edge">
<title>ODUFunction&#45;&gt;SMO</title>
<path fill="none" stroke="#528b8b" d="M788.65,-260.56C786.6,-250.34 782.84,-237.59 776,-228 737.54,-174.07 714.14,-170.82 655,-141 632.17,-129.49 604.77,-120.71 583.15,-114.82"/>
<polygon fill="#528b8b" stroke="#528b8b" points="573.35,-112.24 584.17,-110.44 578.19,-113.52 583.02,-114.79 583.02,-114.79 583.02,-114.79 578.19,-113.52 581.87,-119.14 573.35,-112.24 573.35,-112.24"/>
<text text-anchor="middle" x="786.5" y="-188.3" font-family="Arial" font-size="14.00">O1LINK</text>
<text text-anchor="middle" x="583.85" y="-116.04" font-family="Arial" font-size="14.00">0..*</text>
<text text-anchor="middle" x="777.15" y="-249.36" font-family="Arial" font-size="14.00">0..1</text>
</g>
<!-- ORUFunction&#45;&gt;ODUFunction -->
<g id="edge30" class="edge">
<title>ORUFunction&#45;&gt;ODUFunction</title>
<path fill="none" stroke="#528b8b" d="M653.73,-359.64C696,-354.18 752.52,-344.44 770,-330 777.1,-324.14 781.83,-315.46 784.98,-306.98"/>
<polygon fill="#528b8b" stroke="#528b8b" points="787.99,-297.28 789.32,-308.17 786.51,-302.06 785.03,-306.83 785.03,-306.83 785.03,-306.83 786.51,-302.06 780.73,-305.5 787.99,-297.28 787.99,-297.28"/>
<text text-anchor="middle" x="817" y="-318.8" font-family="Arial" font-size="14.00">OFHULINK</text>
<text text-anchor="middle" x="777.49" y="-301.08" font-family="Arial" font-size="14.00">0..*</text>
<text text-anchor="middle" x="665.23" y="-363.44" font-family="Arial" font-size="14.00">0..1</text>
</g>
<!-- ORUFunction&#45;&gt;ODUFunction -->
<g id="edge31" class="edge">
<title>ORUFunction&#45;&gt;ODUFunction</title>
<path fill="none" stroke="#528b8b" d="M653.57,-365.48C719.38,-364.94 830.29,-359.52 856,-330 864.89,-319.79 858.21,-310.27 846.31,-302.33"/>
<polygon fill="#528b8b" stroke="#528b8b" points="837.35,-297.1 848.26,-298.26 841.67,-299.63 845.99,-302.15 845.99,-302.15 845.99,-302.15 841.67,-299.63 843.72,-306.03 837.35,-297.1 837.35,-297.1"/>
<text text-anchor="middle" x="895.5" y="-318.8" font-family="Arial" font-size="14.00">OFHSLINK</text>
<text text-anchor="middle" x="826.85" y="-300.9" font-family="Arial" font-size="14.00">0..*</text>
<text text-anchor="middle" x="665.07" y="-354.28" font-family="Arial" font-size="14.00">0..1</text>
</g>
<!-- ORUFunction&#45;&gt;ODUFunction -->
<g id="edge33" class="edge">
<title>ORUFunction&#45;&gt;ODUFunction</title>
<path fill="none" stroke="#528b8b" d="M599.34,-347.81C597.56,-337.16 597.48,-323.88 605,-315 621.05,-296.03 683.06,-287.26 731.12,-283.26"/>
<polygon fill="#528b8b" stroke="#528b8b" points="741.14,-282.47 731.52,-287.74 736.15,-282.86 731.17,-283.25 731.17,-283.25 731.17,-283.25 736.15,-282.86 730.82,-278.77 741.14,-282.47 741.14,-282.47"/>
<text text-anchor="middle" x="641" y="-318.8" font-family="Arial" font-size="14.00">OFHMLINK</text>
<text text-anchor="middle" x="730.64" y="-286.27" font-family="Arial" font-size="14.00">0..*</text>
<text text-anchor="middle" x="610.84" y="-336.61" font-family="Arial" font-size="14.00">0..1</text>
</g>
<!-- ORUFunction&#45;&gt;ODUFunction -->
<g id="edge34" class="edge">
<title>ORUFunction&#45;&gt;ODUFunction</title>
<path fill="none" stroke="#528b8b" d="M643.87,-347.84C654.87,-342.59 666.62,-336.47 677,-330 686.13,-324.31 686.61,-320.26 696,-315 707.13,-308.76 719.59,-303.25 731.73,-298.55"/>
<polygon fill="#528b8b" stroke="#528b8b" points="741.36,-294.96 733.56,-302.67 736.67,-296.71 731.99,-298.45 731.99,-298.45 731.99,-298.45 736.67,-296.71 730.42,-294.24 741.36,-294.96 741.36,-294.96"/>
<text text-anchor="middle" x="731" y="-318.8" font-family="Arial" font-size="14.00">OFHCLINK</text>
<text text-anchor="middle" x="730.86" y="-298.76" font-family="Arial" font-size="14.00">0..*</text>
<text text-anchor="middle" x="655.37" y="-336.64" font-family="Arial" font-size="14.00">0..1</text>
</g>
<!-- ORUFunction&#45;&gt;SMO -->
<g id="edge32" class="edge">
<title>ORUFunction&#45;&gt;SMO</title>
<path fill="none" stroke="#528b8b" d="M575.74,-347.71C569.67,-342.72 563.9,-336.76 560,-330 523.82,-267.34 532.76,-177.73 540.4,-133.23"/>
<polygon fill="#528b8b" stroke="#528b8b" points="542.24,-123.18 544.87,-133.83 541.34,-128.1 540.44,-133.02 540.44,-133.02 540.44,-133.02 541.34,-128.1 536.01,-132.21 542.24,-123.18 542.24,-123.18"/>
<text text-anchor="middle" x="571" y="-231.8" font-family="Arial" font-size="14.00">OFHMLINK</text>
<text text-anchor="middle" x="531.74" y="-126.98" font-family="Arial" font-size="14.00">0..*</text>
<text text-anchor="middle" x="564.24" y="-336.51" font-family="Arial" font-size="14.00">0..1</text>
</g>
<!-- ORUFunction&#45;&gt;SMO -->
<g id="edge35" class="edge">
<title>ORUFunction&#45;&gt;SMO</title>
<path fill="none" stroke="#528b8b" d="M598.64,-347.72C597.15,-342.12 595.74,-335.85 595,-330 589.24,-284.48 622.12,-272.52 611,-228 602.03,-192.08 580.26,-155.14 564.38,-131.46"/>
<polygon fill="#528b8b" stroke="#528b8b" points="558.62,-123.06 567.99,-128.76 561.45,-127.19 564.28,-131.31 564.28,-131.31 564.28,-131.31 561.45,-127.19 560.57,-133.85 558.62,-123.06 558.62,-123.06"/>
<text text-anchor="middle" x="638.5" y="-231.8" font-family="Arial" font-size="14.00">O1LINK</text>
<text text-anchor="middle" x="569.12" y="-126.86" font-family="Arial" font-size="14.00">0..*</text>
<text text-anchor="middle" x="587.14" y="-336.52" font-family="Arial" font-size="14.00">0..1</text>
</g>
<!-- Sector -->
<g id="node19" class="node">
<title>Sector</title>
<polygon fill="#366f34" fill-opacity="0.254902" stroke="black" points="1130,-384 1074,-384 1074,-348 1130,-348 1130,-384"/>
<text text-anchor="middle" x="1102" y="-362.3" font-family="Arial" font-size="14.00">Sector</text>
</g>
<!-- Sector&#45;&gt;AntennaModule -->
<g id="edge37" class="edge">
<title>Sector&#45;&gt;AntennaModule</title>
<path fill="none" stroke="#528b8b" d="M1112.52,-347.8C1119.85,-335.82 1129.76,-319.62 1138.06,-306.06"/>
<polygon fill="#528b8b" stroke="#528b8b" points="1143.49,-297.18 1142.11,-308.05 1140.88,-301.44 1138.27,-305.71 1138.27,-305.71 1138.27,-305.71 1140.88,-301.44 1134.44,-303.36 1143.49,-297.18 1143.49,-297.18"/>
<text text-anchor="middle" x="1161.5" y="-318.8" font-family="Arial" font-size="14.00">GROUPS</text>
<text text-anchor="middle" x="1131.99" y="-300.98" font-family="Arial" font-size="14.00">0..1</text>
<text text-anchor="middle" x="1102.02" y="-336.6" font-family="Arial" font-size="14.00">0..*</text>
</g>
<!-- Sector&#45;&gt;NRCellDU -->
<g id="edge36" class="edge">
<title>Sector&#45;&gt;NRCellDU</title>
<path fill="none" stroke="#528b8b" d="M1075,-347.95C1058.4,-335.89 1038.39,-318.14 1028,-297 1016.23,-273.07 1015.02,-242.29 1016.12,-220.44"/>
<polygon fill="#528b8b" stroke="#528b8b" points="1016.83,-210.21 1020.62,-220.5 1016.48,-215.2 1016.13,-220.18 1016.13,-220.18 1016.13,-220.18 1016.48,-215.2 1011.64,-219.87 1016.83,-210.21 1016.83,-210.21"/>
<text text-anchor="middle" x="1058.5" y="-275.3" font-family="Arial" font-size="14.00">GROUPS</text>
<text text-anchor="middle" x="1005.33" y="-214.01" font-family="Arial" font-size="14.00">0..1</text>
<text text-anchor="middle" x="1064.5" y="-351.75" font-family="Arial" font-size="14.00">0..*</text>
</g>
</g>
</svg>
