<svg width="894px" height="566px"
 viewBox="0.00 0.00 894.00 566.00" xmlns="http://www.w3.org/2000/svg" xmlns:xlink="http://www.w3.org/1999/xlink">
<g id="graph0" class="graph" transform="scale(1.0 1.0) rotate(0.0) translate(4.0 562.0)">
<title>moduleName</title>
<polygon fill="white" stroke="transparent" points="-4,4 -4,-562 890,-562 890,4 -4,4"/>
<!-- CloudifiedNF -->
<g id="node1" class="node">
<title>CloudifiedNF</title>
<polygon fill="#89240a" fill-opacity="0.254902" stroke="black" points="753.5,-558 658.5,-558 658.5,-522 753.5,-522 753.5,-558"/>
<text text-anchor="middle" x="706" y="-536.3" font-family="Arial" font-size="14.00">CloudifiedNF</text>
</g>
<!-- NFDeployment -->
<g id="node2" class="node">
<title>NFDeployment</title>
<polygon fill="#89240a" fill-opacity="0.254902" stroke="black" points="578.5,-471 471.5,-471 471.5,-435 578.5,-435 578.5,-471"/>
<text text-anchor="middle" x="525" y="-449.3" font-family="Arial" font-size="14.00">NFDeployment</text>
</g>
<!-- CloudifiedNF&#45;&gt;NFDeployment -->
<g id="edge1" class="edge">
<title>CloudifiedNF&#45;&gt;NFDeployment</title>
<path fill="none" stroke="#528b8b" d="M669.37,-521.8C640.82,-508.39 601.02,-489.7 570.44,-475.34"/>
<polygon fill="#528b8b" stroke="#528b8b" points="561.26,-471.03 572.23,-471.21 565.79,-473.16 570.32,-475.28 570.32,-475.28 570.32,-475.28 565.79,-473.16 568.4,-479.35 561.26,-471.03 561.26,-471.03"/>
<text text-anchor="middle" x="668.5" y="-492.8" font-family="Arial" font-size="14.00">COMPRISES</text>
<text text-anchor="middle" x="549.76" y="-474.83" font-family="Arial" font-size="14.00">1..1</text>
<text text-anchor="middle" x="658.87" y="-510.6" font-family="Arial" font-size="14.00">1..*</text>
</g>
<!-- OCloudNamespace -->
<g id="node4" class="node">
<title>OCloudNamespace</title>
<polygon fill="#89240a" fill-opacity="0.254902" stroke="black" points="136,-384 0,-384 0,-348 136,-348 136,-384"/>
<text text-anchor="middle" x="68" y="-362.3" font-family="Arial" font-size="14.00">OCloudNamespace</text>
</g>
<!-- NFDeployment&#45;&gt;OCloudNamespace -->
<g id="edge7" class="edge">
<title>NFDeployment&#45;&gt;OCloudNamespace</title>
<path fill="none" stroke="#528b8b" d="M471.36,-451.1C360.21,-448.76 112.61,-440.9 83,-417 76.01,-411.35 72.18,-402.58 70.12,-393.94"/>
<polygon fill="#528b8b" stroke="#528b8b" points="68.42,-384.07 74.55,-393.16 69.27,-389 70.11,-393.92 70.11,-393.92 70.11,-393.92 69.27,-389 65.68,-394.69 68.42,-384.07 68.42,-384.07"/>
<text text-anchor="middle" x="120.5" y="-405.8" font-family="Arial" font-size="14.00">DEPLOYED</text>
<text text-anchor="middle" x="57.92" y="-387.87" font-family="Arial" font-size="14.00">1..*</text>
<text text-anchor="middle" x="460.86" y="-454.9" font-family="Arial" font-size="14.00">1..*</text>
</g>
<!-- ManagedElement -->
<g id="node8" class="node">
<title>ManagedElement</title>
<polygon fill="#3663f0" fill-opacity="0.254902" stroke="black" points="587,-384 463,-384 463,-348 587,-348 587,-384"/>
<text text-anchor="middle" x="525" y="-362.3" font-family="Arial" font-size="14.00">ManagedElement</text>
</g>
<!-- NFDeployment&#45;&gt;ManagedElement -->
<g id="edge6" class="edge">
<title>NFDeployment&#45;&gt;ManagedElement</title>
<path fill="none" stroke="#528b8b" d="M525,-434.8C525,-423.16 525,-407.55 525,-394.24"/>
<polygon fill="#528b8b" stroke="#528b8b" points="525,-384.18 529.5,-394.18 525,-389.18 525,-394.18 525,-394.18 525,-394.18 525,-389.18 520.5,-394.18 525,-384.18 525,-384.18"/>
<text text-anchor="middle" x="552.5" y="-405.8" font-family="Arial" font-size="14.00">SERVES</text>
<text text-anchor="middle" x="514.5" y="-387.98" font-family="Arial" font-size="14.00">1..*</text>
<text text-anchor="middle" x="513.5" y="-423.6" font-family="Arial" font-size="14.00">1..1</text>
</g>
<!-- NearRTRICFunction -->
<g id="node13" class="node">
<title>NearRTRICFunction</title>
<polygon fill="#366f34" fill-opacity="0.254902" stroke="black" points="284.5,-297 145.5,-297 145.5,-261 284.5,-261 284.5,-297"/>
<text text-anchor="middle" x="215" y="-275.3" font-family="Arial" font-size="14.00">NearRTRICFunction</text>
</g>
<!-- NFDeployment&#45;&gt;NearRTRICFunction -->
<g id="edge5" class="edge">
<title>NFDeployment&#45;&gt;NearRTRICFunction</title>
<path fill="none" stroke="#528b8b" d="M471.47,-447.1C395.08,-438.92 260.5,-419.75 229,-384 210.7,-363.23 209.19,-330.48 210.99,-307.29"/>
<polygon fill="#528b8b" stroke="#528b8b" points="212.04,-297.07 215.49,-307.48 211.53,-302.05 211.02,-307.02 211.02,-307.02 211.02,-307.02 211.53,-302.05 206.54,-306.56 212.04,-297.07 212.04,-297.07"/>
<text text-anchor="middle" x="256.5" y="-362.3" font-family="Arial" font-size="14.00">SERVES</text>
<text text-anchor="middle" x="201.54" y="-300.87" font-family="Arial" font-size="14.00">0..*</text>
<text text-anchor="middle" x="460.97" y="-435.9" font-family="Arial" font-size="14.00">0..*</text>
</g>
<!-- OCUCPFunction -->
<g id="node14" class="node">
<title>OCUCPFunction</title>
<polygon fill="#366f34" fill-opacity="0.254902" stroke="black" points="874,-297 756,-297 756,-261 874,-261 874,-297"/>
<text text-anchor="middle" x="815" y="-275.3" font-family="Arial" font-size="14.00">OCUCPFunction</text>
</g>
<!-- NFDeployment&#45;&gt;OCUCPFunction -->
<g id="edge4" class="edge">
<title>NFDeployment&#45;&gt;OCUCPFunction</title>
<path fill="none" stroke="#528b8b" d="M578.66,-443.81C644.54,-432.75 751.13,-411.23 780,-384 801.15,-364.05 809.52,-330.92 812.83,-307.42"/>
<polygon fill="#528b8b" stroke="#528b8b" points="814.03,-297.38 817.32,-307.84 813.44,-302.35 812.85,-307.31 812.85,-307.31 812.85,-307.31 813.44,-302.35 808.38,-306.78 814.03,-297.38 814.03,-297.38"/>
<text text-anchor="middle" x="830.5" y="-362.3" font-family="Arial" font-size="14.00">SERVES</text>
<text text-anchor="middle" x="803.53" y="-301.18" font-family="Arial" font-size="14.00">0..*</text>
<text text-anchor="middle" x="589.16" y="-447.61" font-family="Arial" font-size="14.00">0..*</text>
</g>
<!-- OCUUPFunction -->
<g id="node15" class="node">
<title>OCUUPFunction</title>
<polygon fill="#366f34" fill-opacity="0.254902" stroke="black" points="738,-297 620,-297 620,-261 738,-261 738,-297"/>
<text text-anchor="middle" x="679" y="-275.3" font-family="Arial" font-size="14.00">OCUUPFunction</text>
</g>
<!-- NFDeployment&#45;&gt;OCUUPFunction -->
<g id="edge3" class="edge">
<title>NFDeployment&#45;&gt;OCUUPFunction</title>
<path fill="none" stroke="#528b8b" d="M578.67,-437.6C629.11,-420.89 701.66,-387.92 735,-330 740.79,-319.94 735.77,-310.83 726.77,-303.22"/>
<polygon fill="#528b8b" stroke="#528b8b" points="718.42,-297.2 729.16,-299.4 722.47,-300.12 726.53,-303.05 726.53,-303.05 726.53,-303.05 722.47,-300.12 723.9,-306.7 718.42,-297.2 718.42,-297.2"/>
<text text-anchor="middle" x="748.5" y="-362.3" font-family="Arial" font-size="14.00">SERVES</text>
<text text-anchor="middle" x="707.92" y="-301" font-family="Arial" font-size="14.00">0..*</text>
<text text-anchor="middle" x="589.17" y="-426.4" font-family="Arial" font-size="14.00">0..*</text>
</g>
<!-- ODUFunction -->
<g id="node16" class="node">
<title>ODUFunction</title>
<polygon fill="#366f34" fill-opacity="0.254902" stroke="black" points="407.5,-297 308.5,-297 308.5,-261 407.5,-261 407.5,-297"/>
<text text-anchor="middle" x="358" y="-275.3" font-family="Arial" font-size="14.00">ODUFunction</text>
</g>
<!-- NFDeployment&#45;&gt;ODUFunction -->
<g id="edge2" class="edge">
<title>NFDeployment&#45;&gt;ODUFunction</title>
<path fill="none" stroke="#528b8b" d="M471.25,-443.13C411.06,-430.02 316.31,-399.09 273,-330 269.46,-324.35 269.29,-320.54 273,-315 276.64,-309.56 286.69,-304.01 298.66,-298.98"/>
<polygon fill="#528b8b" stroke="#528b8b" points="308.11,-295.24 300.46,-303.1 303.46,-297.08 298.81,-298.92 298.81,-298.92 298.81,-298.92 303.46,-297.08 297.15,-294.73 308.11,-295.24 308.11,-295.24"/>
<text text-anchor="middle" x="352.5" y="-362.3" font-family="Arial" font-size="14.00">SERVES</text>
<text text-anchor="middle" x="297.61" y="-299.04" font-family="Arial" font-size="14.00">0..*</text>
<text text-anchor="middle" x="481.75" y="-431.93" font-family="Arial" font-size="14.00">0..*</text>
</g>
<!-- NodeCluster -->
<g id="node3" class="node">
<title>NodeCluster</title>
<polygon fill="#89240a" fill-opacity="0.254902" stroke="black" points="114,-297 22,-297 22,-261 114,-261 114,-297"/>
<text text-anchor="middle" x="68" y="-275.3" font-family="Arial" font-size="14.00">NodeCluster</text>
</g>
<!-- OCloudSite -->
<g id="node5" class="node">
<title>OCloudSite</title>
<polygon fill="#89240a" fill-opacity="0.254902" stroke="black" points="111,-210 25,-210 25,-174 111,-174 111,-210"/>
<text text-anchor="middle" x="68" y="-188.3" font-family="Arial" font-size="14.00">OCloudSite</text>
</g>
<!-- NodeCluster&#45;&gt;OCloudSite -->
<g id="edge8" class="edge">
<title>NodeCluster&#45;&gt;OCloudSite</title>
<path fill="none" stroke="#528b8b" d="M68,-260.8C68,-249.16 68,-233.55 68,-220.24"/>
<polygon fill="#528b8b" stroke="#528b8b" points="68,-210.18 72.5,-220.18 68,-215.18 68,-220.18 68,-220.18 68,-220.18 68,-215.18 63.5,-220.18 68,-210.18 68,-210.18"/>
<text text-anchor="middle" x="100" y="-231.8" font-family="Arial" font-size="14.00">LOCATED</text>
<text text-anchor="middle" x="57.5" y="-213.98" font-family="Arial" font-size="14.00">1..*</text>
<text text-anchor="middle" x="57.5" y="-249.6" font-family="Arial" font-size="14.00">1..*</text>
</g>
<!-- OCloudNamespace&#45;&gt;NodeCluster -->
<g id="edge9" class="edge">
<title>OCloudNamespace&#45;&gt;NodeCluster</title>
<path fill="none" stroke="#528b8b" d="M68,-347.8C68,-336.16 68,-320.55 68,-307.24"/>
<polygon fill="#528b8b" stroke="#528b8b" points="68,-297.18 72.5,-307.18 68,-302.18 68,-307.18 68,-307.18 68,-307.18 68,-302.18 63.5,-307.18 68,-297.18 68,-297.18"/>
<text text-anchor="middle" x="105.5" y="-318.8" font-family="Arial" font-size="14.00">DEPLOYED</text>
<text text-anchor="middle" x="57.5" y="-300.98" font-family="Arial" font-size="14.00">1..*</text>
<text text-anchor="middle" x="56.5" y="-336.6" font-family="Arial" font-size="14.00">1..1</text>
</g>
<!-- AntennaModule -->
<g id="node6" class="node">
<title>AntennaModule</title>
<polygon fill="#9a38e3" fill-opacity="0.254902" stroke="black" points="647,-210 535,-210 535,-174 647,-174 647,-210"/>
<text text-anchor="middle" x="591" y="-188.3" font-family="Arial" font-size="14.00">AntennaModule</text>
</g>
<!-- Site -->
<g id="node7" class="node">
<title>Site</title>
<polygon fill="#9a38e3" fill-opacity="0.254902" stroke="black" points="648,-123 594,-123 594,-87 648,-87 648,-123"/>
<text text-anchor="middle" x="621" y="-101.3" font-family="Arial" font-size="14.00">Site</text>
</g>
<!-- AntennaModule&#45;&gt;Site -->
<g id="edge11" class="edge">
<title>AntennaModule&#45;&gt;Site</title>
<path fill="none" stroke="#528b8b" d="M597.07,-173.8C601.22,-162.05 606.8,-146.24 611.53,-132.84"/>
<polygon fill="#528b8b" stroke="#528b8b" points="614.94,-123.18 615.85,-134.1 613.27,-127.89 611.61,-132.61 611.61,-132.61 611.61,-132.61 613.27,-127.89 607.37,-131.11 614.94,-123.18 614.94,-123.18"/>
<text text-anchor="middle" x="644.5" y="-144.8" font-family="Arial" font-size="14.00">INSTALLED</text>
<text text-anchor="middle" x="604.44" y="-126.98" font-family="Arial" font-size="14.00">0..*</text>
<text text-anchor="middle" x="585.57" y="-162.6" font-family="Arial" font-size="14.00">0..1</text>
</g>
<!-- AntennaCapability -->
<g id="node9" class="node">
<title>AntennaCapability</title>
<polygon fill="#366f34" fill-opacity="0.254902" stroke="black" points="537,-36 411,-36 411,0 537,0 537,-36"/>
<text text-anchor="middle" x="474" y="-14.3" font-family="Arial" font-size="14.00">AntennaCapability</text>
</g>
<!-- AntennaModule&#45;&gt;AntennaCapability -->
<g id="edge10" class="edge">
<title>AntennaModule&#45;&gt;AntennaCapability</title>
<path fill="none" stroke="#528b8b" d="M573.33,-173.89C560.34,-160.74 542.81,-141.71 530,-123 510.58,-94.63 511.63,-84.1 495,-54 493.39,-51.09 491.66,-48.06 489.91,-45.07"/>
<polygon fill="#528b8b" stroke="#528b8b" points="484.71,-36.3 493.69,-42.61 487.27,-40.6 489.82,-44.9 489.82,-44.9 489.82,-44.9 487.27,-40.6 485.95,-47.2 484.71,-36.3 484.71,-36.3"/>
<text text-anchor="middle" x="557.5" y="-101.3" font-family="Arial" font-size="14.00">SERVES</text>
<text text-anchor="middle" x="474.21" y="-40.1" font-family="Arial" font-size="14.00">0..*</text>
<text text-anchor="middle" x="562.83" y="-162.69" font-family="Arial" font-size="14.00">0..*</text>
</g>
<!-- ManagedElement&#45;&gt;CloudifiedNF -->
<g id="edge17" class="edge">
<title>ManagedElement&#45;&gt;CloudifiedNF</title>
<path fill="none" stroke="#528b8b" d="M576.73,-384.05C622.21,-402.14 685.48,-435.6 714,-489 717.74,-496.01 717.85,-504.3 716.41,-512.1"/>
<polygon fill="#528b8b" stroke="#528b8b" points="713.82,-521.91 712.02,-511.09 715.1,-517.08 716.37,-512.24 716.37,-512.24 716.37,-512.24 715.1,-517.08 720.72,-513.39 713.82,-521.91 713.82,-521.91"/>
<text text-anchor="middle" x="739.5" y="-449.3" font-family="Arial" font-size="14.00">DEPLOYED</text>
<text text-anchor="middle" x="702.32" y="-510.71" font-family="Arial" font-size="14.00">1..1</text>
<text text-anchor="middle" x="565.23" y="-387.85" font-family="Arial" font-size="14.00">0..1</text>
</g>
<!-- ManagedElement&#45;&gt;NearRTRICFunction -->
<g id="edge16" class="edge">
<title>ManagedElement&#45;&gt;NearRTRICFunction</title>
<path fill="none" stroke="#528b8b" d="M462.87,-360.1C419.48,-355.42 360.65,-346.52 311,-330 290.2,-323.08 268.42,-312.08 250.87,-302.16"/>
<polygon fill="#528b8b" stroke="#528b8b" points="242.11,-297.1 253.02,-298.21 246.44,-299.6 250.77,-302.1 250.77,-302.1 250.77,-302.1 246.44,-299.6 248.52,-306 242.11,-297.1 242.11,-297.1"/>
<text text-anchor="middle" x="346" y="-318.8" font-family="Arial" font-size="14.00">MANAGES</text>
<text text-anchor="middle" x="230.61" y="-300.9" font-family="Arial" font-size="14.00">1..1</text>
<text text-anchor="middle" x="452.37" y="-363.9" font-family="Arial" font-size="14.00">0..*</text>
</g>
<!-- ManagedElement&#45;&gt;OCUCPFunction -->
<g id="edge15" class="edge">
<title>ManagedElement&#45;&gt;OCUCPFunction</title>
<path fill="none" stroke="#528b8b" d="M583.34,-347.9C630.63,-334.04 697.35,-314.48 747.05,-299.92"/>
<polygon fill="#528b8b" stroke="#528b8b" points="756.76,-297.07 748.43,-304.2 751.96,-298.48 747.16,-299.88 747.16,-299.88 747.16,-299.88 751.96,-298.48 745.89,-295.57 756.76,-297.07 756.76,-297.07"/>
<text text-anchor="middle" x="723" y="-318.8" font-family="Arial" font-size="14.00">MANAGES</text>
<text text-anchor="middle" x="745.26" y="-300.87" font-family="Arial" font-size="14.00">1..1</text>
<text text-anchor="middle" x="572.84" y="-336.7" font-family="Arial" font-size="14.00">0..*</text>
</g>
<!-- ManagedElement&#45;&gt;OCUUPFunction -->
<g id="edge14" class="edge">
<title>ManagedElement&#45;&gt;OCUUPFunction</title>
<path fill="none" stroke="#528b8b" d="M537.67,-347.59C546.28,-336.86 558.53,-323.56 572,-315 579.2,-310.42 593.95,-304.89 610.25,-299.59"/>
<polygon fill="#528b8b" stroke="#528b8b" points="619.99,-296.51 611.81,-303.82 615.22,-298.02 610.45,-299.53 610.45,-299.53 610.45,-299.53 615.22,-298.02 609.1,-295.24 619.99,-296.51 619.99,-296.51"/>
<text text-anchor="middle" x="607" y="-318.8" font-family="Arial" font-size="14.00">MANAGES</text>
<text text-anchor="middle" x="608.49" y="-300.31" font-family="Arial" font-size="14.00">1..1</text>
<text text-anchor="middle" x="527.17" y="-336.39" font-family="Arial" font-size="14.00">0..*</text>
</g>
<!-- ManagedElement&#45;&gt;ODUFunction -->
<g id="edge13" class="edge">
<title>ManagedElement&#45;&gt;ODUFunction</title>
<path fill="none" stroke="#528b8b" d="M462.72,-354.93C441.98,-349.68 419.48,-341.79 401,-330 390.95,-323.59 381.96,-314.12 374.83,-305.14"/>
<polygon fill="#528b8b" stroke="#528b8b" points="368.83,-297.14 378.43,-302.44 371.83,-301.14 374.83,-305.14 374.83,-305.14 374.83,-305.14 371.83,-301.14 371.23,-307.84 368.83,-297.14 368.83,-297.14"/>
<text text-anchor="middle" x="436" y="-318.8" font-family="Arial" font-size="14.00">MANAGES</text>
<text text-anchor="middle" x="357.33" y="-300.94" font-family="Arial" font-size="14.00">1..1</text>
<text text-anchor="middle" x="452.22" y="-343.73" font-family="Arial" font-size="14.00">0..*</text>
</g>
<!-- ORUFunction -->
<g id="node17" class="node">
<title>ORUFunction</title>
<polygon fill="#366f34" fill-opacity="0.254902" stroke="black" points="527.5,-297 428.5,-297 428.5,-261 527.5,-261 527.5,-297"/>
<text text-anchor="middle" x="478" y="-275.3" font-family="Arial" font-size="14.00">ORUFunction</text>
</g>
<!-- ManagedElement&#45;&gt;ORUFunction -->
<g id="edge12" class="edge">
<title>ManagedElement&#45;&gt;ORUFunction</title>
<path fill="none" stroke="#528b8b" d="M494.35,-347.89C488.2,-342.95 482.55,-336.98 479,-330 475.48,-323.08 474.3,-314.9 474.25,-307.18"/>
<polygon fill="#528b8b" stroke="#528b8b" points="474.77,-297.1 478.75,-307.32 474.51,-302.09 474.26,-307.09 474.26,-307.09 474.26,-307.09 474.51,-302.09 469.76,-306.86 474.77,-297.1 474.77,-297.1"/>
<text text-anchor="middle" x="514" y="-318.8" font-family="Arial" font-size="14.00">MANAGES</text>
<text text-anchor="middle" x="463.27" y="-300.9" font-family="Arial" font-size="14.00">1..1</text>
<text text-anchor="middle" x="483.85" y="-336.69" font-family="Arial" font-size="14.00">0..*</text>
</g>
<!-- NRCellCU -->
<g id="node10" class="node">
<title>NRCellCU</title>
<polygon fill="#366f34" fill-opacity="0.254902" stroke="black" points="854.5,-210 775.5,-210 775.5,-174 854.5,-174 854.5,-210"/>
<text text-anchor="middle" x="815" y="-188.3" font-family="Arial" font-size="14.00">NRCellCU</text>
</g>
<!-- NRCellDU -->
<g id="node11" class="node">
<title>NRCellDU</title>
<polygon fill="#366f34" fill-opacity="0.254902" stroke="black" points="517.5,-210 438.5,-210 438.5,-174 517.5,-174 517.5,-210"/>
<text text-anchor="middle" x="478" y="-188.3" font-family="Arial" font-size="14.00">NRCellDU</text>
</g>
<!-- NRSectorCarrier -->
<g id="node12" class="node">
<title>NRSectorCarrier</title>
<polygon fill="#366f34" fill-opacity="0.254902" stroke="black" points="485,-123 369,-123 369,-87 485,-87 485,-123"/>
<text text-anchor="middle" x="427" y="-101.3" font-family="Arial" font-size="14.00">NRSectorCarrier</text>
</g>
<!-- NRCellDU&#45;&gt;NRSectorCarrier -->
<g id="edge18" class="edge">
<title>NRCellDU&#45;&gt;NRSectorCarrier</title>
<path fill="none" stroke="#528b8b" d="M467.68,-173.8C460.49,-161.82 450.77,-145.62 442.63,-132.06"/>
<polygon fill="#528b8b" stroke="#528b8b" points="437.31,-123.18 446.31,-129.44 439.88,-127.46 442.45,-131.75 442.45,-131.75 442.45,-131.75 439.88,-127.46 438.59,-134.07 437.31,-123.18 437.31,-123.18"/>
<text text-anchor="middle" x="474.5" y="-144.8" font-family="Arial" font-size="14.00">USES</text>
<text text-anchor="middle" x="425.81" y="-126.98" font-family="Arial" font-size="14.00">0..1</text>
<text text-anchor="middle" x="457.18" y="-162.6" font-family="Arial" font-size="14.00">0..*</text>
</g>
<!-- NRSectorCarrier&#45;&gt;AntennaCapability -->
<g id="edge19" class="edge">
<title>NRSectorCarrier&#45;&gt;AntennaCapability</title>
<path fill="none" stroke="#528b8b" d="M436.51,-86.8C443.14,-74.82 452.09,-58.62 459.59,-45.06"/>
<polygon fill="#528b8b" stroke="#528b8b" points="464.5,-36.18 463.6,-47.1 462.08,-40.55 459.66,-44.93 459.66,-44.93 459.66,-44.93 462.08,-40.55 455.73,-42.75 464.5,-36.18 464.5,-36.18"/>
<text text-anchor="middle" x="472.5" y="-57.8" font-family="Arial" font-size="14.00">USES</text>
<text text-anchor="middle" x="454" y="-39.98" font-family="Arial" font-size="14.00">0..*</text>
<text text-anchor="middle" x="425.01" y="-75.6" font-family="Arial" font-size="14.00">0..1</text>
</g>
<!-- OCUCPFunction&#45;&gt;NRCellCU -->
<g id="edge20" class="edge">
<title>OCUCPFunction&#45;&gt;NRCellCU</title>
<path fill="none" stroke="#528b8b" d="M815,-260.8C815,-249.16 815,-233.55 815,-220.24"/>
<polygon fill="#528b8b" stroke="#528b8b" points="815,-210.18 819.5,-220.18 815,-215.18 815,-220.18 815,-220.18 815,-220.18 815,-215.18 810.5,-220.18 815,-210.18 815,-210.18"/>
<text text-anchor="middle" x="850.5" y="-231.8" font-family="Arial" font-size="14.00">PROVIDES</text>
<text text-anchor="middle" x="803.5" y="-213.98" font-family="Arial" font-size="14.00">1..1</text>
<text text-anchor="middle" x="804.5" y="-249.6" font-family="Arial" font-size="14.00">0..*</text>
</g>
<!-- ODUFunction&#45;&gt;NRCellDU -->
<g id="edge22" class="edge">
<title>ODUFunction&#45;&gt;NRCellDU</title>
<path fill="none" stroke="#528b8b" d="M382.28,-260.8C400.5,-247.9 425.62,-230.1 445.56,-215.98"/>
<polygon fill="#528b8b" stroke="#528b8b" points="453.75,-210.18 448.19,-219.63 449.67,-213.07 445.59,-215.96 445.59,-215.96 445.59,-215.96 449.67,-213.07 442.99,-212.28 453.75,-210.18 453.75,-210.18"/>
<text text-anchor="middle" x="461.5" y="-231.8" font-family="Arial" font-size="14.00">PROVIDES</text>
<text text-anchor="middle" x="442.25" y="-213.98" font-family="Arial" font-size="14.00">1..1</text>
<text text-anchor="middle" x="371.78" y="-249.6" font-family="Arial" font-size="14.00">0..*</text>
</g>
<!-- ODUFunction&#45;&gt;NRSectorCarrier -->
<g id="edge21" class="edge">
<title>ODUFunction&#45;&gt;NRSectorCarrier</title>
<path fill="none" stroke="#528b8b" d="M354.06,-260.64C350.08,-239.32 346.08,-202.48 358,-174 365.33,-156.49 379.6,-141.2 393.28,-129.58"/>
<polygon fill="#528b8b" stroke="#528b8b" points="401.2,-123.18 396.26,-132.96 397.31,-126.32 393.43,-129.46 393.43,-129.46 393.43,-129.46 397.31,-126.32 390.6,-125.96 401.2,-123.18 401.2,-123.18"/>
<text text-anchor="middle" x="393.5" y="-188.3" font-family="Arial" font-size="14.00">PROVIDES</text>
<text text-anchor="middle" x="389.7" y="-126.98" font-family="Arial" font-size="14.00">1..1</text>
<text text-anchor="middle" x="343.56" y="-249.44" font-family="Arial" font-size="14.00">0..*</text>
</g>
<!-- Sector -->
<g id="node18" class="node">
<title>Sector</title>
<polygon fill="#366f34" fill-opacity="0.254902" stroke="black" points="602,-297 546,-297 546,-261 602,-261 602,-297"/>
<text text-anchor="middle" x="574" y="-275.3" font-family="Arial" font-size="14.00">Sector</text>
</g>
<!-- Sector&#45;&gt;AntennaModule -->
<g id="edge24" class="edge">
<title>Sector&#45;&gt;AntennaModule</title>
<path fill="none" stroke="#528b8b" d="M577.44,-260.8C579.77,-249.16 582.89,-233.55 585.55,-220.24"/>
<polygon fill="#528b8b" stroke="#528b8b" points="587.56,-210.18 590.02,-220.86 586.58,-215.08 585.6,-219.98 585.6,-219.98 585.6,-219.98 586.58,-215.08 581.19,-219.1 587.56,-210.18 587.56,-210.18"/>
<text text-anchor="middle" x="614.5" y="-231.8" font-family="Arial" font-size="14.00">GROUPS</text>
<text text-anchor="middle" x="576.06" y="-213.98" font-family="Arial" font-size="14.00">0..1</text>
<text text-anchor="middle" x="566.94" y="-249.6" font-family="Arial" font-size="14.00">0..*</text>
</g>
<!-- Sector&#45;&gt;NRCellDU -->
<g id="edge23" class="edge">
<title>Sector&#45;&gt;NRCellDU</title>
<path fill="none" stroke="#528b8b" d="M545.94,-263.47C536.25,-257.77 525.66,-250.74 517,-243 508.88,-235.74 501.2,-226.61 494.85,-218.15"/>
<polygon fill="#528b8b" stroke="#528b8b" points="488.96,-210.01 498.47,-215.48 491.89,-214.06 494.82,-218.12 494.82,-218.12 494.82,-218.12 491.89,-214.06 491.17,-220.75 488.96,-210.01 488.96,-210.01"/>
<text text-anchor="middle" x="547.5" y="-231.8" font-family="Arial" font-size="14.00">GROUPS</text>
<text text-anchor="middle" x="477.46" y="-213.81" font-family="Arial" font-size="14.00">0..1</text>
<text text-anchor="middle" x="535.44" y="-252.27" font-family="Arial" font-size="14.00">0..*</text>
</g>
</g>
</svg>
