<svg width="1080px" height="566px"
 viewBox="0.00 0.00 1080.00 566.00" xmlns="http://www.w3.org/2000/svg" xmlns:xlink="http://www.w3.org/1999/xlink">
<g id="graph0" class="graph" transform="scale(1.0 1.0) rotate(0.0) translate(4.0 562.0)">
<title>moduleName</title>
<polygon fill="white" stroke="transparent" points="-4,4 -4,-562 1076,-562 1076,4 -4,4"/>
<!-- CloudifiedNF -->
<g id="node1" class="node">
<title>CloudifiedNF</title>
<polygon fill="#89240a" fill-opacity="0.254902" stroke="black" points="642.5,-558 547.5,-558 547.5,-522 642.5,-522 642.5,-558"/>
<text text-anchor="middle" x="595" y="-536.3" font-family="Arial" font-size="14.00">CloudifiedNF</text>
</g>
<!-- NFDeployment -->
<g id="node2" class="node">
<title>NFDeployment</title>
<polygon fill="#89240a" fill-opacity="0.254902" stroke="black" points="437.5,-471 330.5,-471 330.5,-435 437.5,-435 437.5,-471"/>
<text text-anchor="middle" x="384" y="-449.3" font-family="Arial" font-size="14.00">NFDeployment</text>
</g>
<!-- CloudifiedNF&#45;&gt;NFDeployment -->
<g id="edge1" class="edge">
<title>CloudifiedNF&#45;&gt;NFDeployment</title>
<path fill="none" stroke="#528b8b" d="M552.55,-521.9C518.86,-508.33 471.61,-489.29 435.71,-474.83"/>
<polygon fill="#528b8b" stroke="#528b8b" points="426.38,-471.07 437.33,-470.63 431.02,-472.94 435.65,-474.81 435.65,-474.81 435.65,-474.81 431.02,-472.94 433.97,-478.98 426.38,-471.07 426.38,-471.07"/>
<text text-anchor="middle" x="544.5" y="-492.8" font-family="Arial" font-size="14.00">COMPRISES</text>
<text text-anchor="middle" x="414.88" y="-474.87" font-family="Arial" font-size="14.00">1..1</text>
<text text-anchor="middle" x="542.05" y="-510.7" font-family="Arial" font-size="14.00">1..*</text>
</g>
<!-- OCloudNamespace -->
<g id="node4" class="node">
<title>OCloudNamespace</title>
<polygon fill="#89240a" fill-opacity="0.254902" stroke="black" points="136,-384 0,-384 0,-348 136,-348 136,-384"/>
<text text-anchor="middle" x="68" y="-362.3" font-family="Arial" font-size="14.00">OCloudNamespace</text>
</g>
<!-- NFDeployment&#45;&gt;OCloudNamespace -->
<g id="edge7" class="edge">
<title>NFDeployment&#45;&gt;OCloudNamespace</title>
<path fill="none" stroke="#528b8b" d="M330.2,-452.28C254.76,-451.6 122.67,-446.11 86,-417 78.83,-411.31 74.52,-402.52 71.92,-393.89"/>
<polygon fill="#528b8b" stroke="#528b8b" points="69.59,-384.03 76.27,-392.73 70.74,-388.9 71.89,-393.76 71.89,-393.76 71.89,-393.76 70.74,-388.9 67.51,-394.8 69.59,-384.03 69.59,-384.03"/>
<text text-anchor="middle" x="123.5" y="-405.8" font-family="Arial" font-size="14.00">DEPLOYED</text>
<text text-anchor="middle" x="59.09" y="-387.83" font-family="Arial" font-size="14.00">1..*</text>
<text text-anchor="middle" x="319.7" y="-456.08" font-family="Arial" font-size="14.00">1..*</text>
</g>
<!-- ManagedElement -->
<g id="node8" class="node">
<title>ManagedElement</title>
<polygon fill="#3663f0" fill-opacity="0.254902" stroke="black" points="581,-384 457,-384 457,-348 581,-348 581,-384"/>
<text text-anchor="middle" x="519" y="-362.3" font-family="Arial" font-size="14.00">ManagedElement</text>
</g>
<!-- NFDeployment&#45;&gt;ManagedElement -->
<g id="edge6" class="edge">
<title>NFDeployment&#45;&gt;ManagedElement</title>
<path fill="none" stroke="#528b8b" d="M411.32,-434.8C432,-421.78 460.58,-403.78 483.11,-389.6"/>
<polygon fill="#528b8b" stroke="#528b8b" points="491.72,-384.18 485.66,-393.31 487.49,-386.84 483.26,-389.5 483.26,-389.5 483.26,-389.5 487.49,-386.84 480.86,-385.7 491.72,-384.18 491.72,-384.18"/>
<text text-anchor="middle" x="487.5" y="-405.8" font-family="Arial" font-size="14.00">SERVES</text>
<text text-anchor="middle" x="481.22" y="-387.98" font-family="Arial" font-size="14.00">1..*</text>
<text text-anchor="middle" x="399.82" y="-423.6" font-family="Arial" font-size="14.00">1..1</text>
</g>
<!-- NearRTRICFunction -->
<g id="node13" class="node">
<title>NearRTRICFunction</title>
<polygon fill="#366f34" fill-opacity="0.254902" stroke="black" points="262.5,-297 123.5,-297 123.5,-261 262.5,-261 262.5,-297"/>
<text text-anchor="middle" x="193" y="-275.3" font-family="Arial" font-size="14.00">NearRTRICFunction</text>
</g>
<!-- NFDeployment&#45;&gt;NearRTRICFunction -->
<g id="edge5" class="edge">
<title>NFDeployment&#45;&gt;NearRTRICFunction</title>
<path fill="none" stroke="#528b8b" d="M330.41,-440.76C296.51,-431.06 254.11,-413.75 227,-384 207.67,-362.79 199.31,-330.39 195.71,-307.4"/>
<polygon fill="#528b8b" stroke="#528b8b" points="194.33,-297.27 200.14,-306.57 195.01,-302.22 195.68,-307.18 195.68,-307.18 195.68,-307.18 195.01,-302.22 191.22,-307.78 194.33,-297.27 194.33,-297.27"/>
<text text-anchor="middle" x="254.5" y="-362.3" font-family="Arial" font-size="14.00">SERVES</text>
<text text-anchor="middle" x="183.83" y="-301.07" font-family="Arial" font-size="14.00">0..*</text>
<text text-anchor="middle" x="319.91" y="-429.56" font-family="Arial" font-size="14.00">0..*</text>
</g>
<!-- OCUCPFunction -->
<g id="node14" class="node">
<title>OCUCPFunction</title>
<polygon fill="#366f34" fill-opacity="0.254902" stroke="black" points="399,-297 281,-297 281,-261 399,-261 399,-297"/>
<text text-anchor="middle" x="340" y="-275.3" font-family="Arial" font-size="14.00">OCUCPFunction</text>
</g>
<!-- NFDeployment&#45;&gt;OCUCPFunction -->
<g id="edge4" class="edge">
<title>NFDeployment&#45;&gt;OCUCPFunction</title>
<path fill="none" stroke="#528b8b" d="M360.27,-434.96C343.82,-422.27 322.22,-403.79 307,-384 290.64,-362.73 286.16,-356.12 280,-330 278.47,-323.51 276.68,-320.78 280,-315 282.46,-310.72 285.67,-306.91 289.33,-303.53"/>
<polygon fill="#528b8b" stroke="#528b8b" points="297.36,-297.19 292.3,-306.92 293.44,-300.29 289.51,-303.39 289.51,-303.39 289.51,-303.39 293.44,-300.29 286.72,-299.85 297.36,-297.19 297.36,-297.19"/>
<text text-anchor="middle" x="334.5" y="-362.3" font-family="Arial" font-size="14.00">SERVES</text>
<text text-anchor="middle" x="286.86" y="-300.99" font-family="Arial" font-size="14.00">0..*</text>
<text text-anchor="middle" x="349.77" y="-423.76" font-family="Arial" font-size="14.00">0..*</text>
</g>
<!-- OCUUPFunction -->
<g id="node15" class="node">
<title>OCUUPFunction</title>
<polygon fill="#366f34" fill-opacity="0.254902" stroke="black" points="535,-297 417,-297 417,-261 535,-261 535,-297"/>
<text text-anchor="middle" x="476" y="-275.3" font-family="Arial" font-size="14.00">OCUUPFunction</text>
</g>
<!-- NFDeployment&#45;&gt;OCUUPFunction -->
<g id="edge3" class="edge">
<title>NFDeployment&#45;&gt;OCUUPFunction</title>
<path fill="none" stroke="#528b8b" d="M380.53,-434.81C375.9,-406.69 371.1,-350.41 398,-315 401.57,-310.31 405.9,-306.23 410.69,-302.68"/>
<polygon fill="#528b8b" stroke="#528b8b" points="419.1,-297.21 413.17,-306.44 414.91,-299.94 410.72,-302.66 410.72,-302.66 410.72,-302.66 414.91,-299.94 408.26,-298.89 419.1,-297.21 419.1,-297.21"/>
<text text-anchor="middle" x="409.5" y="-362.3" font-family="Arial" font-size="14.00">SERVES</text>
<text text-anchor="middle" x="408.6" y="-301.01" font-family="Arial" font-size="14.00">0..*</text>
<text text-anchor="middle" x="375.28" y="-423.61" font-family="Arial" font-size="14.00">0..*</text>
</g>
<!-- ODUFunction -->
<g id="node16" class="node">
<title>ODUFunction</title>
<polygon fill="#366f34" fill-opacity="0.254902" stroke="black" points="799.5,-297 700.5,-297 700.5,-261 799.5,-261 799.5,-297"/>
<text text-anchor="middle" x="750" y="-275.3" font-family="Arial" font-size="14.00">ODUFunction</text>
</g>
<!-- NFDeployment&#45;&gt;ODUFunction -->
<g id="edge2" class="edge">
<title>NFDeployment&#45;&gt;ODUFunction</title>
<path fill="none" stroke="#528b8b" d="M437.51,-439.24C462.42,-433.01 492.37,-425.13 519,-417 630.32,-383.03 698.75,-424.99 766,-330 770.92,-323.05 770.12,-314.51 767.11,-306.47"/>
<polygon fill="#528b8b" stroke="#528b8b" points="762.79,-297.39 771.15,-304.48 764.94,-301.9 767.09,-306.42 767.09,-306.42 767.09,-306.42 764.94,-301.9 763.02,-308.35 762.79,-297.39 762.79,-297.39"/>
<text text-anchor="middle" x="778.5" y="-362.3" font-family="Arial" font-size="14.00">SERVES</text>
<text text-anchor="middle" x="752.29" y="-301.19" font-family="Arial" font-size="14.00">0..*</text>
<text text-anchor="middle" x="448.01" y="-443.04" font-family="Arial" font-size="14.00">0..*</text>
</g>
<!-- NodeCluster -->
<g id="node3" class="node">
<title>NodeCluster</title>
<polygon fill="#89240a" fill-opacity="0.254902" stroke="black" points="105,-297 13,-297 13,-261 105,-261 105,-297"/>
<text text-anchor="middle" x="59" y="-275.3" font-family="Arial" font-size="14.00">NodeCluster</text>
</g>
<!-- OCloudSite -->
<g id="node5" class="node">
<title>OCloudSite</title>
<polygon fill="#89240a" fill-opacity="0.254902" stroke="black" points="102,-210 16,-210 16,-174 102,-174 102,-210"/>
<text text-anchor="middle" x="59" y="-188.3" font-family="Arial" font-size="14.00">OCloudSite</text>
</g>
<!-- NodeCluster&#45;&gt;OCloudSite -->
<g id="edge8" class="edge">
<title>NodeCluster&#45;&gt;OCloudSite</title>
<path fill="none" stroke="#528b8b" d="M59,-260.8C59,-249.16 59,-233.55 59,-220.24"/>
<polygon fill="#528b8b" stroke="#528b8b" points="59,-210.18 63.5,-220.18 59,-215.18 59,-220.18 59,-220.18 59,-220.18 59,-215.18 54.5,-220.18 59,-210.18 59,-210.18"/>
<text text-anchor="middle" x="91" y="-231.8" font-family="Arial" font-size="14.00">LOCATED</text>
<text text-anchor="middle" x="48.5" y="-213.98" font-family="Arial" font-size="14.00">1..*</text>
<text text-anchor="middle" x="48.5" y="-249.6" font-family="Arial" font-size="14.00">1..*</text>
</g>
<!-- OCloudNamespace&#45;&gt;NodeCluster -->
<g id="edge9" class="edge">
<title>OCloudNamespace&#45;&gt;NodeCluster</title>
<path fill="none" stroke="#528b8b" d="M66.18,-347.8C64.95,-336.16 63.29,-320.55 61.88,-307.24"/>
<polygon fill="#528b8b" stroke="#528b8b" points="60.82,-297.18 66.35,-306.65 61.35,-302.15 61.87,-307.12 61.87,-307.12 61.87,-307.12 61.35,-302.15 57.4,-307.59 60.82,-297.18 60.82,-297.18"/>
<text text-anchor="middle" x="102.5" y="-318.8" font-family="Arial" font-size="14.00">DEPLOYED</text>
<text text-anchor="middle" x="50.32" y="-300.98" font-family="Arial" font-size="14.00">1..*</text>
<text text-anchor="middle" x="54.68" y="-336.6" font-family="Arial" font-size="14.00">1..1</text>
</g>
<!-- AntennaModule -->
<g id="node6" class="node">
<title>AntennaModule</title>
<polygon fill="#9a38e3" fill-opacity="0.254902" stroke="black" points="1043,-297 931,-297 931,-261 1043,-261 1043,-297"/>
<text text-anchor="middle" x="987" y="-275.3" font-family="Arial" font-size="14.00">AntennaModule</text>
</g>
<!-- Site -->
<g id="node7" class="node">
<title>Site</title>
<polygon fill="#9a38e3" fill-opacity="0.254902" stroke="black" points="990,-210 936,-210 936,-174 990,-174 990,-210"/>
<text text-anchor="middle" x="963" y="-188.3" font-family="Arial" font-size="14.00">Site</text>
</g>
<!-- AntennaModule&#45;&gt;Site -->
<g id="edge12" class="edge">
<title>AntennaModule&#45;&gt;Site</title>
<path fill="none" stroke="#528b8b" d="M972.97,-260.82C969.36,-255.43 965.94,-249.25 964,-243 961.76,-235.79 960.93,-227.7 960.81,-220.17"/>
<polygon fill="#528b8b" stroke="#528b8b" points="961.03,-210.04 965.31,-220.14 960.92,-215.04 960.81,-220.04 960.81,-220.04 960.81,-220.04 960.92,-215.04 956.31,-219.94 961.03,-210.04 961.03,-210.04"/>
<text text-anchor="middle" x="1000.5" y="-231.8" font-family="Arial" font-size="14.00">INSTALLED</text>
<text text-anchor="middle" x="950.53" y="-213.84" font-family="Arial" font-size="14.00">0..*</text>
<text text-anchor="middle" x="961.47" y="-249.62" font-family="Arial" font-size="14.00">0..1</text>
</g>
<!-- AntennaCapability -->
<g id="node9" class="node">
<title>AntennaCapability</title>
<polygon fill="#366f34" fill-opacity="0.254902" stroke="black" points="1020,-36 894,-36 894,0 1020,0 1020,-36"/>
<text text-anchor="middle" x="957" y="-14.3" font-family="Arial" font-size="14.00">AntennaCapability</text>
</g>
<!-- AntennaModule&#45;&gt;AntennaCapability -->
<g id="edge11" class="edge">
<title>AntennaModule&#45;&gt;AntennaCapability</title>
<path fill="none" stroke="#528b8b" d="M1021.14,-260.82C1027.52,-255.97 1033.33,-250.05 1037,-243 1040.08,-237.09 1038.21,-234.56 1037,-228 1024.3,-159.32 989.99,-84.04 970.68,-45.29"/>
<polygon fill="#528b8b" stroke="#528b8b" points="966.12,-36.25 974.64,-43.15 968.37,-40.72 970.62,-45.18 970.62,-45.18 970.62,-45.18 968.37,-40.72 966.61,-47.21 966.12,-36.25 966.12,-36.25"/>
<text text-anchor="middle" x="1044.5" y="-144.8" font-family="Arial" font-size="14.00">SERVES</text>
<text text-anchor="middle" x="955.62" y="-40.05" font-family="Arial" font-size="14.00">0..*</text>
<text text-anchor="middle" x="1010.64" y="-249.62" font-family="Arial" font-size="14.00">0..*</text>
</g>
<!-- NRCellDU -->
<g id="node11" class="node">
<title>NRCellDU</title>
<polygon fill="#366f34" fill-opacity="0.254902" stroke="black" points="901.5,-210 822.5,-210 822.5,-174 901.5,-174 901.5,-210"/>
<text text-anchor="middle" x="862" y="-188.3" font-family="Arial" font-size="14.00">NRCellDU</text>
</g>
<!-- AntennaModule&#45;&gt;NRCellDU -->
<g id="edge10" class="edge">
<title>AntennaModule&#45;&gt;NRCellDU</title>
<path fill="none" stroke="#528b8b" d="M933.53,-260.82C922.54,-256 911.45,-250.08 902,-243 893.06,-236.3 884.98,-227.15 878.45,-218.51"/>
<polygon fill="#528b8b" stroke="#528b8b" points="872.47,-210.16 881.95,-215.67 875.38,-214.22 878.29,-218.29 878.29,-218.29 878.29,-218.29 875.38,-214.22 874.63,-220.91 872.47,-210.16 872.47,-210.16"/>
<text text-anchor="middle" x="929.5" y="-231.8" font-family="Arial" font-size="14.00">SERVES</text>
<text text-anchor="middle" x="861.97" y="-213.96" font-family="Arial" font-size="14.00">1..*</text>
<text text-anchor="middle" x="923.03" y="-249.62" font-family="Arial" font-size="14.00">0..*</text>
</g>
<!-- ManagedElement&#45;&gt;CloudifiedNF -->
<g id="edge18" class="edge">
<title>ManagedElement&#45;&gt;CloudifiedNF</title>
<path fill="none" stroke="#528b8b" d="M532.14,-384.05C548.78,-406.65 576.86,-448.44 590,-489 592.34,-496.22 593.67,-504.31 594.4,-511.84"/>
<polygon fill="#528b8b" stroke="#528b8b" points="595.08,-521.97 589.92,-512.29 594.75,-516.98 594.41,-511.99 594.41,-511.99 594.41,-511.99 594.75,-516.98 598.9,-511.69 595.08,-521.97 595.08,-521.97"/>
<text text-anchor="middle" x="620.5" y="-449.3" font-family="Arial" font-size="14.00">DEPLOYED</text>
<text text-anchor="middle" x="583.58" y="-510.77" font-family="Arial" font-size="14.00">1..1</text>
<text text-anchor="middle" x="520.64" y="-387.85" font-family="Arial" font-size="14.00">0..1</text>
</g>
<!-- ManagedElement&#45;&gt;NearRTRICFunction -->
<g id="edge17" class="edge">
<title>ManagedElement&#45;&gt;NearRTRICFunction</title>
<path fill="none" stroke="#528b8b" d="M456.86,-350.7C452.18,-349.75 447.52,-348.84 443,-348 388.67,-337.96 373.39,-344.21 320,-330 292.53,-322.69 262.91,-311.25 239.2,-301.15"/>
<polygon fill="#528b8b" stroke="#528b8b" points="229.75,-297.07 240.72,-296.91 234.34,-299.06 238.93,-301.04 238.93,-301.04 238.93,-301.04 234.34,-299.06 237.15,-305.17 229.75,-297.07 229.75,-297.07"/>
<text text-anchor="middle" x="355" y="-318.8" font-family="Arial" font-size="14.00">MANAGES</text>
<text text-anchor="middle" x="218.25" y="-300.87" font-family="Arial" font-size="14.00">1..1</text>
<text text-anchor="middle" x="446.36" y="-339.5" font-family="Arial" font-size="14.00">0..*</text>
</g>
<!-- ManagedElement&#45;&gt;OCUCPFunction -->
<g id="edge16" class="edge">
<title>ManagedElement&#45;&gt;OCUCPFunction</title>
<path fill="none" stroke="#528b8b" d="M464.76,-347.92C450.29,-342.75 434.84,-336.65 421,-330 404.72,-322.17 387.57,-311.92 373.27,-302.73"/>
<polygon fill="#528b8b" stroke="#528b8b" points="364.76,-297.18 375.6,-298.87 368.95,-299.91 373.14,-302.64 373.14,-302.64 373.14,-302.64 368.95,-299.91 370.68,-306.41 364.76,-297.18 364.76,-297.18"/>
<text text-anchor="middle" x="456" y="-318.8" font-family="Arial" font-size="14.00">MANAGES</text>
<text text-anchor="middle" x="353.26" y="-300.98" font-family="Arial" font-size="14.00">1..1</text>
<text text-anchor="middle" x="475.26" y="-336.72" font-family="Arial" font-size="14.00">0..*</text>
</g>
<!-- ManagedElement&#45;&gt;OCUUPFunction -->
<g id="edge15" class="edge">
<title>ManagedElement&#45;&gt;OCUUPFunction</title>
<path fill="none" stroke="#528b8b" d="M510.3,-347.8C504.3,-335.93 496.2,-319.93 489.38,-306.45"/>
<polygon fill="#528b8b" stroke="#528b8b" points="484.69,-297.18 493.22,-304.07 486.95,-301.64 489.2,-306.1 489.2,-306.1 489.2,-306.1 486.95,-301.64 485.19,-308.13 484.69,-297.18 484.69,-297.18"/>
<text text-anchor="middle" x="536" y="-318.8" font-family="Arial" font-size="14.00">MANAGES</text>
<text text-anchor="middle" x="473.19" y="-300.98" font-family="Arial" font-size="14.00">1..1</text>
<text text-anchor="middle" x="499.8" y="-336.6" font-family="Arial" font-size="14.00">0..*</text>
</g>
<!-- ManagedElement&#45;&gt;ODUFunction -->
<g id="edge14" class="edge">
<title>ManagedElement&#45;&gt;ODUFunction</title>
<path fill="none" stroke="#528b8b" d="M581.29,-353.47C606.52,-347.82 635.62,-340.04 661,-330 679.6,-322.64 699.09,-312.05 715.08,-302.51"/>
<polygon fill="#528b8b" stroke="#528b8b" points="724.06,-297.05 717.86,-306.1 719.79,-299.65 715.52,-302.25 715.52,-302.25 715.52,-302.25 719.79,-299.65 713.18,-298.41 724.06,-297.05 724.06,-297.05"/>
<text text-anchor="middle" x="727" y="-318.8" font-family="Arial" font-size="14.00">MANAGES</text>
<text text-anchor="middle" x="712.56" y="-300.85" font-family="Arial" font-size="14.00">1..1</text>
<text text-anchor="middle" x="591.79" y="-357.27" font-family="Arial" font-size="14.00">0..*</text>
</g>
<!-- ORUFunction -->
<g id="node17" class="node">
<title>ORUFunction</title>
<polygon fill="#366f34" fill-opacity="0.254902" stroke="black" points="652.5,-297 553.5,-297 553.5,-261 652.5,-261 652.5,-297"/>
<text text-anchor="middle" x="603" y="-275.3" font-family="Arial" font-size="14.00">ORUFunction</text>
</g>
<!-- ManagedElement&#45;&gt;ORUFunction -->
<g id="edge13" class="edge">
<title>ManagedElement&#45;&gt;ORUFunction</title>
<path fill="none" stroke="#528b8b" d="M552.46,-347.9C560.44,-342.84 568.51,-336.81 575,-330 581.58,-323.09 587.16,-314.34 591.57,-306.1"/>
<polygon fill="#528b8b" stroke="#528b8b" points="596.03,-297.14 595.6,-308.09 593.8,-301.61 591.57,-306.09 591.57,-306.09 591.57,-306.09 593.8,-301.61 587.55,-304.08 596.03,-297.14 596.03,-297.14"/>
<text text-anchor="middle" x="622" y="-318.8" font-family="Arial" font-size="14.00">MANAGES</text>
<text text-anchor="middle" x="584.53" y="-300.94" font-family="Arial" font-size="14.00">1..1</text>
<text text-anchor="middle" x="541.96" y="-336.7" font-family="Arial" font-size="14.00">0..*</text>
</g>
<!-- NRCellCU -->
<g id="node10" class="node">
<title>NRCellCU</title>
<polygon fill="#366f34" fill-opacity="0.254902" stroke="black" points="379.5,-210 300.5,-210 300.5,-174 379.5,-174 379.5,-210"/>
<text text-anchor="middle" x="340" y="-188.3" font-family="Arial" font-size="14.00">NRCellCU</text>
</g>
<!-- NRSectorCarrier -->
<g id="node12" class="node">
<title>NRSectorCarrier</title>
<polygon fill="#366f34" fill-opacity="0.254902" stroke="black" points="920,-123 804,-123 804,-87 920,-87 920,-123"/>
<text text-anchor="middle" x="862" y="-101.3" font-family="Arial" font-size="14.00">NRSectorCarrier</text>
</g>
<!-- NRCellDU&#45;&gt;NRSectorCarrier -->
<g id="edge19" class="edge">
<title>NRCellDU&#45;&gt;NRSectorCarrier</title>
<path fill="none" stroke="#528b8b" d="M862,-173.8C862,-162.16 862,-146.55 862,-133.24"/>
<polygon fill="#528b8b" stroke="#528b8b" points="862,-123.18 866.5,-133.18 862,-128.18 862,-133.18 862,-133.18 862,-133.18 862,-128.18 857.5,-133.18 862,-123.18 862,-123.18"/>
<text text-anchor="middle" x="880.5" y="-144.8" font-family="Arial" font-size="14.00">USES</text>
<text text-anchor="middle" x="850.5" y="-126.98" font-family="Arial" font-size="14.00">0..1</text>
<text text-anchor="middle" x="851.5" y="-162.6" font-family="Arial" font-size="14.00">0..*</text>
</g>
<!-- NRSectorCarrier&#45;&gt;AntennaCapability -->
<g id="edge20" class="edge">
<title>NRSectorCarrier&#45;&gt;AntennaCapability</title>
<path fill="none" stroke="#528b8b" d="M881.22,-86.8C895.26,-74.24 914.47,-57.05 930.04,-43.12"/>
<polygon fill="#528b8b" stroke="#528b8b" points="937.8,-36.18 933.35,-46.2 934.08,-39.51 930.35,-42.84 930.35,-42.84 930.35,-42.84 934.08,-39.51 927.35,-39.49 937.8,-36.18 937.8,-36.18"/>
<text text-anchor="middle" x="933.5" y="-57.8" font-family="Arial" font-size="14.00">USES</text>
<text text-anchor="middle" x="927.3" y="-39.98" font-family="Arial" font-size="14.00">0..*</text>
<text text-anchor="middle" x="869.72" y="-75.6" font-family="Arial" font-size="14.00">0..1</text>
</g>
<!-- OCUCPFunction&#45;&gt;NRCellCU -->
<g id="edge21" class="edge">
<title>OCUCPFunction&#45;&gt;NRCellCU</title>
<path fill="none" stroke="#528b8b" d="M340,-260.8C340,-249.16 340,-233.55 340,-220.24"/>
<polygon fill="#528b8b" stroke="#528b8b" points="340,-210.18 344.5,-220.18 340,-215.18 340,-220.18 340,-220.18 340,-220.18 340,-215.18 335.5,-220.18 340,-210.18 340,-210.18"/>
<text text-anchor="middle" x="375.5" y="-231.8" font-family="Arial" font-size="14.00">PROVIDES</text>
<text text-anchor="middle" x="328.5" y="-213.98" font-family="Arial" font-size="14.00">1..1</text>
<text text-anchor="middle" x="329.5" y="-249.6" font-family="Arial" font-size="14.00">0..*</text>
</g>
<!-- ODUFunction&#45;&gt;NRCellDU -->
<g id="edge23" class="edge">
<title>ODUFunction&#45;&gt;NRCellDU</title>
<path fill="none" stroke="#528b8b" d="M752.06,-260.75C754.17,-250.08 758.42,-236.8 767,-228 770.66,-224.25 791.52,-216.4 812.76,-209.08"/>
<polygon fill="#528b8b" stroke="#528b8b" points="822.49,-205.77 814.47,-213.25 817.76,-207.38 813.02,-208.99 813.02,-208.99 813.02,-208.99 817.76,-207.38 811.57,-204.73 822.49,-205.77 822.49,-205.77"/>
<text text-anchor="middle" x="802.5" y="-231.8" font-family="Arial" font-size="14.00">PROVIDES</text>
<text text-anchor="middle" x="810.99" y="-209.57" font-family="Arial" font-size="14.00">1..1</text>
<text text-anchor="middle" x="741.56" y="-249.55" font-family="Arial" font-size="14.00">0..*</text>
</g>
<!-- ODUFunction&#45;&gt;NRSectorCarrier -->
<g id="edge22" class="edge">
<title>ODUFunction&#45;&gt;NRSectorCarrier</title>
<path fill="none" stroke="#528b8b" d="M743.31,-260.83C736.01,-239.05 727.29,-201.08 743,-174 755.23,-152.93 776.71,-137.84 798.08,-127.31"/>
<polygon fill="#528b8b" stroke="#528b8b" points="807.21,-123.08 800.03,-131.37 802.67,-125.18 798.14,-127.29 798.14,-127.29 798.14,-127.29 802.67,-125.18 796.24,-123.2 807.21,-123.08 807.21,-123.08"/>
<text text-anchor="middle" x="778.5" y="-188.3" font-family="Arial" font-size="14.00">PROVIDES</text>
<text text-anchor="middle" x="795.71" y="-126.88" font-family="Arial" font-size="14.00">1..1</text>
<text text-anchor="middle" x="753.81" y="-249.63" font-family="Arial" font-size="14.00">0..*</text>
</g>
<!-- Sector -->
<g id="node18" class="node">
<title>Sector</title>
<polygon fill="#366f34" fill-opacity="0.254902" stroke="black" points="939,-384 883,-384 883,-348 939,-348 939,-384"/>
<text text-anchor="middle" x="911" y="-362.3" font-family="Arial" font-size="14.00">Sector</text>
</g>
<!-- Sector&#45;&gt;AntennaModule -->
<g id="edge25" class="edge">
<title>Sector&#45;&gt;AntennaModule</title>
<path fill="none" stroke="#528b8b" d="M926.38,-347.8C937.4,-335.47 952.42,-318.68 964.75,-304.89"/>
<polygon fill="#528b8b" stroke="#528b8b" points="971.64,-297.18 968.33,-307.63 968.31,-300.9 964.98,-304.63 964.98,-304.63 964.98,-304.63 968.31,-300.9 961.62,-301.63 971.64,-297.18 971.64,-297.18"/>
<text text-anchor="middle" x="983.5" y="-318.8" font-family="Arial" font-size="14.00">GROUPS</text>
<text text-anchor="middle" x="960.14" y="-300.98" font-family="Arial" font-size="14.00">0..1</text>
<text text-anchor="middle" x="915.88" y="-336.6" font-family="Arial" font-size="14.00">0..*</text>
</g>
<!-- Sector&#45;&gt;NRCellDU -->
<g id="edge24" class="edge">
<title>Sector&#45;&gt;NRCellDU</title>
<path fill="none" stroke="#528b8b" d="M893.44,-347.77C881.75,-335 867.4,-316.49 861,-297 852.77,-271.9 854.27,-241.53 857.07,-220.1"/>
<polygon fill="#528b8b" stroke="#528b8b" points="858.56,-210.08 861.54,-220.63 857.82,-215.03 857.09,-219.97 857.09,-219.97 857.09,-219.97 857.82,-215.03 852.64,-219.31 858.56,-210.08 858.56,-210.08"/>
<text text-anchor="middle" x="891.5" y="-275.3" font-family="Arial" font-size="14.00">GROUPS</text>
<text text-anchor="middle" x="847.06" y="-213.88" font-family="Arial" font-size="14.00">0..1</text>
<text text-anchor="middle" x="882.94" y="-336.57" font-family="Arial" font-size="14.00">0..*</text>
</g>
</g>
</svg>
