<svg width="1345px" height="566px"
 viewBox="0.00 0.00 1345.00 566.00" xmlns="http://www.w3.org/2000/svg" xmlns:xlink="http://www.w3.org/1999/xlink">
<g id="graph0" class="graph" transform="scale(1.0 1.0) rotate(0.0) translate(4.0 562.0)">
<title>moduleName</title>
<polygon fill="white" stroke="transparent" points="-4,4 -4,-562 1341,-562 1341,4 -4,4"/>
<!-- o&#45;ran&#45;smo&#45;teiv&#45;cloudCloudifiedNF -->
<g id="node1" class="node">
<title>o&#45;ran&#45;smo&#45;teiv&#45;cloudCloudifiedNF</title>
<polygon fill="#89240a" fill-opacity="0.254902" stroke="black" points="910.5,-558 815.5,-558 815.5,-522 910.5,-522 910.5,-558"/>
<text text-anchor="middle" x="863" y="-536.3" font-family="Arial" font-size="14.00">CloudifiedNF</text>
</g>
<!-- o&#45;ran&#45;smo&#45;teiv&#45;cloudNFDeployment -->
<g id="node2" class="node">
<title>o&#45;ran&#45;smo&#45;teiv&#45;cloudNFDeployment</title>
<polygon fill="#89240a" fill-opacity="0.254902" stroke="black" points="854.5,-471 747.5,-471 747.5,-435 854.5,-435 854.5,-471"/>
<text text-anchor="middle" x="801" y="-449.3" font-family="Arial" font-size="14.00">NFDeployment</text>
</g>
<!-- o&#45;ran&#45;smo&#45;teiv&#45;cloudCloudifiedNF&#45;&gt;o&#45;ran&#45;smo&#45;teiv&#45;cloudNFDeployment -->
<g id="edge1" class="edge">
<title>o&#45;ran&#45;smo&#45;teiv&#45;cloudCloudifiedNF&#45;&gt;o&#45;ran&#45;smo&#45;teiv&#45;cloudNFDeployment</title>
<path fill="none" stroke="#528b8b" d="M843.13,-521.88C837.52,-516.49 831.68,-510.29 827,-504 821.69,-496.86 816.87,-488.47 812.86,-480.63"/>
<polygon fill="#528b8b" stroke="#528b8b" points="808.39,-471.46 816.82,-478.49 810.58,-475.96 812.77,-480.46 812.77,-480.46 812.77,-480.46 810.58,-475.96 808.72,-482.42 808.39,-471.46 808.39,-471.46"/>
<text text-anchor="middle" x="868.5" y="-492.8" font-family="Arial" font-size="14.00">COMPRISES</text>
<text text-anchor="middle" x="796.89" y="-475.26" font-family="Arial" font-size="14.00">1..1</text>
<text text-anchor="middle" x="832.63" y="-510.68" font-family="Arial" font-size="14.00">1..*</text>
</g>
<!-- o&#45;ran&#45;smo&#45;teiv&#45;cloudOCloudNamespace -->
<g id="node4" class="node">
<title>o&#45;ran&#45;smo&#45;teiv&#45;cloudOCloudNamespace</title>
<polygon fill="#89240a" fill-opacity="0.254902" stroke="black" points="1243,-384 1107,-384 1107,-348 1243,-348 1243,-384"/>
<text text-anchor="middle" x="1175" y="-362.3" font-family="Arial" font-size="14.00">OCloudNamespace</text>
</g>
<!-- o&#45;ran&#45;smo&#45;teiv&#45;cloudNFDeployment&#45;&gt;o&#45;ran&#45;smo&#45;teiv&#45;cloudOCloudNamespace -->
<g id="edge7" class="edge">
<title>o&#45;ran&#45;smo&#45;teiv&#45;cloudNFDeployment&#45;&gt;o&#45;ran&#45;smo&#45;teiv&#45;cloudOCloudNamespace</title>
<path fill="none" stroke="#528b8b" d="M854.59,-439.82C918.05,-425.4 1024.3,-401.25 1096.91,-384.75"/>
<polygon fill="#528b8b" stroke="#528b8b" points="1106.93,-382.47 1098.18,-389.08 1102.05,-383.58 1097.18,-384.69 1097.18,-384.69 1097.18,-384.69 1102.05,-383.58 1096.18,-380.3 1106.93,-382.47 1106.93,-382.47"/>
<text text-anchor="middle" x="1047.5" y="-405.8" font-family="Arial" font-size="14.00">DEPLOYED</text>
<text text-anchor="middle" x="1096.43" y="-386.27" font-family="Arial" font-size="14.00">1..*</text>
<text text-anchor="middle" x="865.09" y="-443.62" font-family="Arial" font-size="14.00">1..*</text>
</g>
<!-- o&#45;ran&#45;smo&#45;teiv&#45;oamManagedElement -->
<g id="node8" class="node">
<title>o&#45;ran&#45;smo&#45;teiv&#45;oamManagedElement</title>
<polygon fill="#3663f0" fill-opacity="0.254902" stroke="black" points="863,-384 739,-384 739,-348 863,-348 863,-384"/>
<text text-anchor="middle" x="801" y="-362.3" font-family="Arial" font-size="14.00">ManagedElement</text>
</g>
<!-- o&#45;ran&#45;smo&#45;teiv&#45;cloudNFDeployment&#45;&gt;o&#45;ran&#45;smo&#45;teiv&#45;oamManagedElement -->
<g id="edge6" class="edge">
<title>o&#45;ran&#45;smo&#45;teiv&#45;cloudNFDeployment&#45;&gt;o&#45;ran&#45;smo&#45;teiv&#45;oamManagedElement</title>
<path fill="none" stroke="#528b8b" d="M801,-434.8C801,-423.16 801,-407.55 801,-394.24"/>
<polygon fill="#528b8b" stroke="#528b8b" points="801,-384.18 805.5,-394.18 801,-389.18 801,-394.18 801,-394.18 801,-394.18 801,-389.18 796.5,-394.18 801,-384.18 801,-384.18"/>
<text text-anchor="middle" x="828.5" y="-405.8" font-family="Arial" font-size="14.00">SERVES</text>
<text text-anchor="middle" x="790.5" y="-387.98" font-family="Arial" font-size="14.00">1..*</text>
<text text-anchor="middle" x="789.5" y="-423.6" font-family="Arial" font-size="14.00">1..1</text>
</g>
<!-- o&#45;ran&#45;smo&#45;teiv&#45;ranNearRTRICFunction -->
<g id="node15" class="node">
<title>o&#45;ran&#45;smo&#45;teiv&#45;ranNearRTRICFunction</title>
<polygon fill="#366f34" fill-opacity="0.254902" stroke="black" points="438.5,-297 299.5,-297 299.5,-261 438.5,-261 438.5,-297"/>
<text text-anchor="middle" x="369" y="-275.3" font-family="Arial" font-size="14.00">NearRTRICFunction</text>
</g>
<!-- o&#45;ran&#45;smo&#45;teiv&#45;cloudNFDeployment&#45;&gt;o&#45;ran&#45;smo&#45;teiv&#45;ranNearRTRICFunction -->
<g id="edge5" class="edge">
<title>o&#45;ran&#45;smo&#45;teiv&#45;cloudNFDeployment&#45;&gt;o&#45;ran&#45;smo&#45;teiv&#45;ranNearRTRICFunction</title>
<path fill="none" stroke="#528b8b" d="M747.41,-451.68C602.89,-449.44 212.05,-433.74 154,-330 150.74,-324.18 149.68,-320.08 154,-315 162.96,-304.47 231.82,-294.55 289.24,-287.98"/>
<polygon fill="#528b8b" stroke="#528b8b" points="299.44,-286.83 290.01,-292.42 294.47,-287.39 289.5,-287.95 289.5,-287.95 289.5,-287.95 294.47,-287.39 289,-283.48 299.44,-286.83 299.44,-286.83"/>
<text text-anchor="middle" x="254.5" y="-362.3" font-family="Arial" font-size="14.00">SERVES</text>
<text text-anchor="middle" x="288.94" y="-290.63" font-family="Arial" font-size="14.00">0..*</text>
<text text-anchor="middle" x="736.91" y="-455.48" font-family="Arial" font-size="14.00">0..*</text>
</g>
<!-- o&#45;ran&#45;smo&#45;teiv&#45;ranOCUCPFunction -->
<g id="node16" class="node">
<title>o&#45;ran&#45;smo&#45;teiv&#45;ranOCUCPFunction</title>
<polygon fill="#366f34" fill-opacity="0.254902" stroke="black" points="747,-297 629,-297 629,-261 747,-261 747,-297"/>
<text text-anchor="middle" x="688" y="-275.3" font-family="Arial" font-size="14.00">OCUCPFunction</text>
</g>
<!-- o&#45;ran&#45;smo&#45;teiv&#45;cloudNFDeployment&#45;&gt;o&#45;ran&#45;smo&#45;teiv&#45;ranOCUCPFunction -->
<g id="edge4" class="edge">
<title>o&#45;ran&#45;smo&#45;teiv&#45;cloudNFDeployment&#45;&gt;o&#45;ran&#45;smo&#45;teiv&#45;ranOCUCPFunction</title>
<path fill="none" stroke="#528b8b" d="M747.32,-437.39C720.61,-427.12 690.73,-410.36 675,-384 667.47,-371.38 674.62,-333.27 680.92,-306.87"/>
<polygon fill="#528b8b" stroke="#528b8b" points="683.35,-297.06 685.32,-307.85 682.15,-301.91 680.95,-306.77 680.95,-306.77 680.95,-306.77 682.15,-301.91 676.58,-305.68 683.35,-297.06 683.35,-297.06"/>
<text text-anchor="middle" x="702.5" y="-362.3" font-family="Arial" font-size="14.00">SERVES</text>
<text text-anchor="middle" x="672.85" y="-300.86" font-family="Arial" font-size="14.00">0..*</text>
<text text-anchor="middle" x="736.82" y="-426.19" font-family="Arial" font-size="14.00">0..*</text>
</g>
<!-- o&#45;ran&#45;smo&#45;teiv&#45;ranOCUUPFunction -->
<g id="node17" class="node">
<title>o&#45;ran&#45;smo&#45;teiv&#45;ranOCUUPFunction</title>
<polygon fill="#366f34" fill-opacity="0.254902" stroke="black" points="118,-297 0,-297 0,-261 118,-261 118,-297"/>
<text text-anchor="middle" x="59" y="-275.3" font-family="Arial" font-size="14.00">OCUUPFunction</text>
</g>
<!-- o&#45;ran&#45;smo&#45;teiv&#45;cloudNFDeployment&#45;&gt;o&#45;ran&#45;smo&#45;teiv&#45;ranOCUUPFunction -->
<g id="edge3" class="edge">
<title>o&#45;ran&#45;smo&#45;teiv&#45;cloudNFDeployment&#45;&gt;o&#45;ran&#45;smo&#45;teiv&#45;ranOCUUPFunction</title>
<path fill="none" stroke="#528b8b" d="M747.31,-449.64C594.38,-442.53 164.15,-419.54 112,-384 85.77,-366.13 71.8,-331.19 64.9,-306.77"/>
<polygon fill="#528b8b" stroke="#528b8b" points="62.36,-297.02 69.24,-305.57 63.62,-301.86 64.88,-306.7 64.88,-306.7 64.88,-306.7 63.62,-301.86 60.53,-307.83 62.36,-297.02 62.36,-297.02"/>
<text text-anchor="middle" x="139.5" y="-362.3" font-family="Arial" font-size="14.00">SERVES</text>
<text text-anchor="middle" x="51.86" y="-300.82" font-family="Arial" font-size="14.00">0..*</text>
<text text-anchor="middle" x="736.81" y="-438.44" font-family="Arial" font-size="14.00">0..*</text>
</g>
<!-- o&#45;ran&#45;smo&#45;teiv&#45;ranODUFunction -->
<g id="node18" class="node">
<title>o&#45;ran&#45;smo&#45;teiv&#45;ranODUFunction</title>
<polygon fill="#366f34" fill-opacity="0.254902" stroke="black" points="864.5,-297 765.5,-297 765.5,-261 864.5,-261 864.5,-297"/>
<text text-anchor="middle" x="815" y="-275.3" font-family="Arial" font-size="14.00">ODUFunction</text>
</g>
<!-- o&#45;ran&#45;smo&#45;teiv&#45;cloudNFDeployment&#45;&gt;o&#45;ran&#45;smo&#45;teiv&#45;ranODUFunction -->
<g id="edge2" class="edge">
<title>o&#45;ran&#45;smo&#45;teiv&#45;cloudNFDeployment&#45;&gt;o&#45;ran&#45;smo&#45;teiv&#45;ranODUFunction</title>
<path fill="none" stroke="#528b8b" d="M838.61,-434.95C846.48,-430.04 854.15,-424.06 860,-417 885.52,-386.21 878.99,-369.79 883,-330 883.67,-323.37 886.47,-320.69 883,-315 880.26,-310.51 876.74,-306.57 872.75,-303.12"/>
<polygon fill="#528b8b" stroke="#528b8b" points="864.57,-297.07 875.29,-299.4 868.59,-300.05 872.61,-303.02 872.61,-303.02 872.61,-303.02 868.59,-300.05 869.93,-306.64 864.57,-297.07 864.57,-297.07"/>
<text text-anchor="middle" x="909.5" y="-362.3" font-family="Arial" font-size="14.00">SERVES</text>
<text text-anchor="middle" x="854.07" y="-300.87" font-family="Arial" font-size="14.00">0..*</text>
<text text-anchor="middle" x="828.11" y="-423.75" font-family="Arial" font-size="14.00">0..*</text>
</g>
<!-- o&#45;ran&#45;smo&#45;teiv&#45;cloudNodeCluster -->
<g id="node3" class="node">
<title>o&#45;ran&#45;smo&#45;teiv&#45;cloudNodeCluster</title>
<polygon fill="#89240a" fill-opacity="0.254902" stroke="black" points="1319,-297 1227,-297 1227,-261 1319,-261 1319,-297"/>
<text text-anchor="middle" x="1273" y="-275.3" font-family="Arial" font-size="14.00">NodeCluster</text>
</g>
<!-- o&#45;ran&#45;smo&#45;teiv&#45;cloudOCloudSite -->
<g id="node5" class="node">
<title>o&#45;ran&#45;smo&#45;teiv&#45;cloudOCloudSite</title>
<polygon fill="#89240a" fill-opacity="0.254902" stroke="black" points="1316,-210 1230,-210 1230,-174 1316,-174 1316,-210"/>
<text text-anchor="middle" x="1273" y="-188.3" font-family="Arial" font-size="14.00">OCloudSite</text>
</g>
<!-- o&#45;ran&#45;smo&#45;teiv&#45;cloudNodeCluster&#45;&gt;o&#45;ran&#45;smo&#45;teiv&#45;cloudOCloudSite -->
<g id="edge8" class="edge">
<title>o&#45;ran&#45;smo&#45;teiv&#45;cloudNodeCluster&#45;&gt;o&#45;ran&#45;smo&#45;teiv&#45;cloudOCloudSite</title>
<path fill="none" stroke="#528b8b" d="M1273,-260.8C1273,-249.16 1273,-233.55 1273,-220.24"/>
<polygon fill="#528b8b" stroke="#528b8b" points="1273,-210.18 1277.5,-220.18 1273,-215.18 1273,-220.18 1273,-220.18 1273,-220.18 1273,-215.18 1268.5,-220.18 1273,-210.18 1273,-210.18"/>
<text text-anchor="middle" x="1305" y="-231.8" font-family="Arial" font-size="14.00">LOCATED</text>
<text text-anchor="middle" x="1262.5" y="-213.98" font-family="Arial" font-size="14.00">1..*</text>
<text text-anchor="middle" x="1262.5" y="-249.6" font-family="Arial" font-size="14.00">1..*</text>
</g>
<!-- o&#45;ran&#45;smo&#45;teiv&#45;cloudOCloudNamespace&#45;&gt;o&#45;ran&#45;smo&#45;teiv&#45;cloudNodeCluster -->
<g id="edge9" class="edge">
<title>o&#45;ran&#45;smo&#45;teiv&#45;cloudOCloudNamespace&#45;&gt;o&#45;ran&#45;smo&#45;teiv&#45;cloudNodeCluster</title>
<path fill="none" stroke="#528b8b" d="M1194.83,-347.8C1209.44,-335.13 1229.5,-317.73 1245.63,-303.74"/>
<polygon fill="#528b8b" stroke="#528b8b" points="1253.2,-297.18 1248.59,-307.13 1249.42,-300.45 1245.64,-303.73 1245.64,-303.73 1245.64,-303.73 1249.42,-300.45 1242.69,-300.33 1253.2,-297.18 1253.2,-297.18"/>
<text text-anchor="middle" x="1266.5" y="-318.8" font-family="Arial" font-size="14.00">DEPLOYED</text>
<text text-anchor="middle" x="1242.7" y="-300.98" font-family="Arial" font-size="14.00">1..*</text>
<text text-anchor="middle" x="1183.33" y="-336.6" font-family="Arial" font-size="14.00">1..1</text>
</g>
<!-- o&#45;ran&#45;smo&#45;teiv&#45;equipmentAntennaModule -->
<g id="node6" class="node">
<title>o&#45;ran&#45;smo&#45;teiv&#45;equipmentAntennaModule</title>
<polygon fill="#9a38e3" fill-opacity="0.254902" stroke="black" points="1209,-297 1097,-297 1097,-261 1209,-261 1209,-297"/>
<text text-anchor="middle" x="1153" y="-275.3" font-family="Arial" font-size="14.00">AntennaModule</text>
</g>
<!-- o&#45;ran&#45;smo&#45;teiv&#45;equipmentSite -->
<g id="node7" class="node">
<title>o&#45;ran&#45;smo&#45;teiv&#45;equipmentSite</title>
<polygon fill="#9a38e3" fill-opacity="0.254902" stroke="black" points="1203,-210 1149,-210 1149,-174 1203,-174 1203,-210"/>
<text text-anchor="middle" x="1176" y="-188.3" font-family="Arial" font-size="14.00">Site</text>
</g>
<!-- o&#45;ran&#45;smo&#45;teiv&#45;equipmentAntennaModule&#45;&gt;o&#45;ran&#45;smo&#45;teiv&#45;equipmentSite -->
<g id="edge12" class="edge">
<title>o&#45;ran&#45;smo&#45;teiv&#45;equipmentAntennaModule&#45;&gt;o&#45;ran&#45;smo&#45;teiv&#45;equipmentSite</title>
<path fill="none" stroke="#528b8b" d="M1157.65,-260.8C1160.83,-249.05 1165.11,-233.24 1168.74,-219.84"/>
<polygon fill="#528b8b" stroke="#528b8b" points="1171.35,-210.18 1173.08,-221 1170.05,-215 1168.74,-219.83 1168.74,-219.83 1168.74,-219.83 1170.05,-215 1164.4,-218.65 1171.35,-210.18 1171.35,-210.18"/>
<text text-anchor="middle" x="1201.5" y="-231.8" font-family="Arial" font-size="14.00">INSTALLED</text>
<text text-anchor="middle" x="1160.85" y="-213.98" font-family="Arial" font-size="14.00">0..*</text>
<text text-anchor="middle" x="1169.15" y="-249.6" font-family="Arial" font-size="14.00">0..1</text>
</g>
<!-- o&#45;ran&#45;smo&#45;teiv&#45;ranAntennaCapability -->
<g id="node11" class="node">
<title>o&#45;ran&#45;smo&#45;teiv&#45;ranAntennaCapability</title>
<polygon fill="#366f34" fill-opacity="0.254902" stroke="black" points="1133,-36 1007,-36 1007,0 1133,0 1133,-36"/>
<text text-anchor="middle" x="1070" y="-14.3" font-family="Arial" font-size="14.00">AntennaCapability</text>
</g>
<!-- o&#45;ran&#45;smo&#45;teiv&#45;equipmentAntennaModule&#45;&gt;o&#45;ran&#45;smo&#45;teiv&#45;ranAntennaCapability -->
<g id="edge11" class="edge">
<title>o&#45;ran&#45;smo&#45;teiv&#45;equipmentAntennaModule&#45;&gt;o&#45;ran&#45;smo&#45;teiv&#45;ranAntennaCapability</title>
<path fill="none" stroke="#528b8b" d="M1149.2,-260.77C1140.54,-222.7 1117.79,-128.87 1088,-54 1086.85,-51.11 1085.54,-48.14 1084.16,-45.21"/>
<polygon fill="#528b8b" stroke="#528b8b" points="1079.65,-36.14 1088.13,-43.09 1081.88,-40.62 1084.1,-45.09 1084.1,-45.09 1084.1,-45.09 1081.88,-40.62 1080.07,-47.1 1079.65,-36.14 1079.65,-36.14"/>
<text text-anchor="middle" x="1148.5" y="-144.8" font-family="Arial" font-size="14.00">SERVES</text>
<text text-anchor="middle" x="1090.15" y="-39.94" font-family="Arial" font-size="14.00">0..*</text>
<text text-anchor="middle" x="1138.7" y="-249.57" font-family="Arial" font-size="14.00">0..*</text>
</g>
<!-- o&#45;ran&#45;smo&#45;teiv&#45;ranNRCellDU -->
<g id="node13" class="node">
<title>o&#45;ran&#45;smo&#45;teiv&#45;ranNRCellDU</title>
<polygon fill="#366f34" fill-opacity="0.254902" stroke="black" points="1057.5,-210 978.5,-210 978.5,-174 1057.5,-174 1057.5,-210"/>
<text text-anchor="middle" x="1018" y="-188.3" font-family="Arial" font-size="14.00">NRCellDU</text>
</g>
<!-- o&#45;ran&#45;smo&#45;teiv&#45;equipmentAntennaModule&#45;&gt;o&#45;ran&#45;smo&#45;teiv&#45;ranNRCellDU -->
<g id="edge10" class="edge">
<title>o&#45;ran&#45;smo&#45;teiv&#45;equipmentAntennaModule&#45;&gt;o&#45;ran&#45;smo&#45;teiv&#45;ranNRCellDU</title>
<path fill="none" stroke="#528b8b" d="M1096.87,-265.57C1081.31,-260.33 1065.11,-253.04 1052,-243 1043.71,-236.65 1036.73,-227.69 1031.29,-219.1"/>
<polygon fill="#528b8b" stroke="#528b8b" points="1026.2,-210.42 1035.14,-216.76 1028.73,-214.73 1031.26,-219.04 1031.26,-219.04 1031.26,-219.04 1028.73,-214.73 1027.38,-221.32 1026.2,-210.42 1026.2,-210.42"/>
<text text-anchor="middle" x="1079.5" y="-231.8" font-family="Arial" font-size="14.00">SERVES</text>
<text text-anchor="middle" x="1015.7" y="-214.22" font-family="Arial" font-size="14.00">1..*</text>
<text text-anchor="middle" x="1086.37" y="-254.37" font-family="Arial" font-size="14.00">0..*</text>
</g>
<!-- o&#45;ran&#45;smo&#45;teiv&#45;oamManagedElement&#45;&gt;o&#45;ran&#45;smo&#45;teiv&#45;cloudCloudifiedNF -->
<g id="edge18" class="edge">
<title>o&#45;ran&#45;smo&#45;teiv&#45;oamManagedElement&#45;&gt;o&#45;ran&#45;smo&#45;teiv&#45;cloudCloudifiedNF</title>
<path fill="none" stroke="#528b8b" d="M836.52,-384.08C844.83,-389.11 853.23,-395.13 860,-402 891.32,-433.75 898.5,-445.91 910,-489 911.72,-495.44 912.99,-498.04 910,-504 908.05,-507.89 905.44,-511.45 902.44,-514.69"/>
<polygon fill="#528b8b" stroke="#528b8b" points="894.89,-521.67 899.18,-511.58 898.56,-518.28 902.23,-514.89 902.23,-514.89 902.23,-514.89 898.56,-518.28 905.29,-518.19 894.89,-521.67 894.89,-521.67"/>
<text text-anchor="middle" x="942.5" y="-449.3" font-family="Arial" font-size="14.00">DEPLOYED</text>
<text text-anchor="middle" x="883.39" y="-510.47" font-family="Arial" font-size="14.00">1..1</text>
<text text-anchor="middle" x="825.02" y="-387.88" font-family="Arial" font-size="14.00">0..1</text>
</g>
<!-- o&#45;ran&#45;smo&#45;teiv&#45;oamManagedElement&#45;&gt;o&#45;ran&#45;smo&#45;teiv&#45;ranNearRTRICFunction -->
<g id="edge17" class="edge">
<title>o&#45;ran&#45;smo&#45;teiv&#45;oamManagedElement&#45;&gt;o&#45;ran&#45;smo&#45;teiv&#45;ranNearRTRICFunction</title>
<path fill="none" stroke="#528b8b" d="M738.91,-350.42C734.22,-349.53 729.54,-348.71 725,-348 637.26,-334.28 609.9,-359.12 526,-330 514.47,-326 514.16,-319.94 503,-315 485.85,-307.41 466.72,-301.2 448.4,-296.23"/>
<polygon fill="#528b8b" stroke="#528b8b" points="438.62,-293.66 449.43,-291.84 443.45,-294.93 448.29,-296.2 448.29,-296.2 448.29,-296.2 443.45,-294.93 447.15,-300.55 438.62,-293.66 438.62,-293.66"/>
<text text-anchor="middle" x="561" y="-318.8" font-family="Arial" font-size="14.00">MANAGES</text>
<text text-anchor="middle" x="450.12" y="-297.46" font-family="Arial" font-size="14.00">1..1</text>
<text text-anchor="middle" x="728.41" y="-339.22" font-family="Arial" font-size="14.00">0..*</text>
</g>
<!-- o&#45;ran&#45;smo&#45;teiv&#45;oamManagedElement&#45;&gt;o&#45;ran&#45;smo&#45;teiv&#45;ranOCUCPFunction -->
<g id="edge16" class="edge">
<title>o&#45;ran&#45;smo&#45;teiv&#45;oamManagedElement&#45;&gt;o&#45;ran&#45;smo&#45;teiv&#45;ranOCUCPFunction</title>
<path fill="none" stroke="#528b8b" d="M762.75,-347.92C752.97,-342.78 742.75,-336.71 734,-330 724.54,-322.75 715.38,-313.43 707.76,-304.8"/>
<polygon fill="#528b8b" stroke="#528b8b" points="701.23,-297.16 711.14,-301.84 704.47,-300.96 707.72,-304.76 707.72,-304.76 707.72,-304.76 704.47,-300.96 704.3,-307.69 701.23,-297.16 701.23,-297.16"/>
<text text-anchor="middle" x="769" y="-318.8" font-family="Arial" font-size="14.00">MANAGES</text>
<text text-anchor="middle" x="712.73" y="-300.96" font-family="Arial" font-size="14.00">1..1</text>
<text text-anchor="middle" x="752.25" y="-336.72" font-family="Arial" font-size="14.00">0..*</text>
</g>
<!-- o&#45;ran&#45;smo&#45;teiv&#45;oamManagedElement&#45;&gt;o&#45;ran&#45;smo&#45;teiv&#45;ranOCUUPFunction -->
<g id="edge15" class="edge">
<title>o&#45;ran&#45;smo&#45;teiv&#45;oamManagedElement&#45;&gt;o&#45;ran&#45;smo&#45;teiv&#45;ranOCUUPFunction</title>
<path fill="none" stroke="#528b8b" d="M738.95,-350.17C734.25,-349.34 729.56,-348.6 725,-348 535.36,-323.02 482.61,-367.3 295,-330 275.97,-326.22 272.82,-319.72 254,-315 201.62,-301.86 184.72,-307.27 128.1,-297.06"/>
<polygon fill="#528b8b" stroke="#528b8b" points="118.26,-295.2 128.92,-292.63 123.17,-296.13 128.08,-297.05 128.08,-297.05 128.08,-297.05 123.17,-296.13 127.25,-301.48 118.26,-295.2 118.26,-295.2"/>
<text text-anchor="middle" x="330" y="-318.8" font-family="Arial" font-size="14.00">MANAGES</text>
<text text-anchor="middle" x="129.76" y="-299" font-family="Arial" font-size="14.00">1..1</text>
<text text-anchor="middle" x="728.45" y="-353.97" font-family="Arial" font-size="14.00">0..*</text>
</g>
<!-- o&#45;ran&#45;smo&#45;teiv&#45;oamManagedElement&#45;&gt;o&#45;ran&#45;smo&#45;teiv&#45;ranODUFunction -->
<g id="edge14" class="edge">
<title>o&#45;ran&#45;smo&#45;teiv&#45;oamManagedElement&#45;&gt;o&#45;ran&#45;smo&#45;teiv&#45;ranODUFunction</title>
<path fill="none" stroke="#528b8b" d="M803.83,-347.8C805.75,-336.16 808.32,-320.55 810.51,-307.24"/>
<polygon fill="#528b8b" stroke="#528b8b" points="812.17,-297.18 814.99,-307.77 811.36,-302.11 810.55,-307.04 810.55,-307.04 810.55,-307.04 811.36,-302.11 806.11,-306.31 812.17,-297.18 812.17,-297.18"/>
<text text-anchor="middle" x="844" y="-318.8" font-family="Arial" font-size="14.00">MANAGES</text>
<text text-anchor="middle" x="800.67" y="-300.98" font-family="Arial" font-size="14.00">1..1</text>
<text text-anchor="middle" x="793.33" y="-336.6" font-family="Arial" font-size="14.00">0..*</text>
</g>
<!-- o&#45;ran&#45;smo&#45;teiv&#45;ranORUFunction -->
<g id="node19" class="node">
<title>o&#45;ran&#45;smo&#45;teiv&#45;ranORUFunction</title>
<polygon fill="#366f34" fill-opacity="0.254902" stroke="black" points="981.5,-297 882.5,-297 882.5,-261 981.5,-261 981.5,-297"/>
<text text-anchor="middle" x="932" y="-275.3" font-family="Arial" font-size="14.00">ORUFunction</text>
</g>
<!-- o&#45;ran&#45;smo&#45;teiv&#45;oamManagedElement&#45;&gt;o&#45;ran&#45;smo&#45;teiv&#45;ranORUFunction -->
<g id="edge13" class="edge">
<title>o&#45;ran&#45;smo&#45;teiv&#45;oamManagedElement&#45;&gt;o&#45;ran&#45;smo&#45;teiv&#45;ranORUFunction</title>
<path fill="none" stroke="#528b8b" d="M849.91,-347.84C861.23,-342.87 872.9,-336.9 883,-330 893.24,-323 903.11,-313.63 911.27,-304.9"/>
<polygon fill="#528b8b" stroke="#528b8b" points="917.97,-297.46 914.62,-307.9 914.63,-301.17 911.28,-304.89 911.28,-304.89 911.28,-304.89 914.63,-301.17 907.94,-301.88 917.97,-297.46 917.97,-297.46"/>
<text text-anchor="middle" x="936" y="-318.8" font-family="Arial" font-size="14.00">MANAGES</text>
<text text-anchor="middle" x="906.47" y="-301.26" font-family="Arial" font-size="14.00">1..1</text>
<text text-anchor="middle" x="839.41" y="-336.64" font-family="Arial" font-size="14.00">0..*</text>
</g>
<!-- o&#45;ran&#45;smo&#45;teiv&#45;physicalPhysicalAppliance -->
<g id="node9" class="node">
<title>o&#45;ran&#45;smo&#45;teiv&#45;physicalPhysicalAppliance</title>
<polygon fill="#074ee2" fill-opacity="0.254902" stroke="black" points="432,-384 306,-384 306,-348 432,-348 432,-384"/>
<text text-anchor="middle" x="369" y="-362.3" font-family="Arial" font-size="14.00">PhysicalAppliance</text>
</g>
<!-- o&#45;ran&#45;smo&#45;teiv&#45;physicalSite -->
<g id="node10" class="node">
<title>o&#45;ran&#45;smo&#45;teiv&#45;physicalSite</title>
<polygon fill="#074ee2" fill-opacity="0.254902" stroke="black" points="190,-297 136,-297 136,-261 190,-261 190,-297"/>
<text text-anchor="middle" x="163" y="-275.3" font-family="Arial" font-size="14.00">Site</text>
</g>
<!-- o&#45;ran&#45;smo&#45;teiv&#45;physicalPhysicalAppliance&#45;&gt;o&#45;ran&#45;smo&#45;teiv&#45;physicalSite -->
<g id="edge23" class="edge">
<title>o&#45;ran&#45;smo&#45;teiv&#45;physicalPhysicalAppliance&#45;&gt;o&#45;ran&#45;smo&#45;teiv&#45;physicalSite</title>
<path fill="none" stroke="#528b8b" d="M305.94,-362.79C252.64,-359.45 182.14,-351.07 164,-330 158.66,-323.8 157.12,-315.39 157.3,-307.24"/>
<polygon fill="#528b8b" stroke="#528b8b" points="158.29,-297.24 161.78,-307.63 157.8,-302.21 157.3,-307.19 157.3,-307.19 157.3,-307.19 157.8,-302.21 152.83,-306.74 158.29,-297.24 158.29,-297.24"/>
<text text-anchor="middle" x="209" y="-318.8" font-family="Arial" font-size="14.00">INSTALLEDAT</text>
<text text-anchor="middle" x="168.79" y="-301.04" font-family="Arial" font-size="14.00">0..*</text>
<text text-anchor="middle" x="295.44" y="-366.59" font-family="Arial" font-size="14.00">0..*</text>
</g>
<!-- o&#45;ran&#45;smo&#45;teiv&#45;physicalPhysicalAppliance&#45;&gt;o&#45;ran&#45;smo&#45;teiv&#45;ranNearRTRICFunction -->
<g id="edge22" class="edge">
<title>o&#45;ran&#45;smo&#45;teiv&#45;physicalPhysicalAppliance&#45;&gt;o&#45;ran&#45;smo&#45;teiv&#45;ranNearRTRICFunction</title>
<path fill="none" stroke="#528b8b" d="M369,-347.8C369,-336.16 369,-320.55 369,-307.24"/>
<polygon fill="#528b8b" stroke="#528b8b" points="369,-297.18 373.5,-307.18 369,-302.18 369,-307.18 369,-307.18 369,-307.18 369,-302.18 364.5,-307.18 369,-297.18 369,-297.18"/>
<text text-anchor="middle" x="396.5" y="-318.8" font-family="Arial" font-size="14.00">SERVES</text>
<text text-anchor="middle" x="358.5" y="-300.98" font-family="Arial" font-size="14.00">0..*</text>
<text text-anchor="middle" x="358.5" y="-336.6" font-family="Arial" font-size="14.00">0..*</text>
</g>
<!-- o&#45;ran&#45;smo&#45;teiv&#45;physicalPhysicalAppliance&#45;&gt;o&#45;ran&#45;smo&#45;teiv&#45;ranOCUCPFunction -->
<g id="edge21" class="edge">
<title>o&#45;ran&#45;smo&#45;teiv&#45;physicalPhysicalAppliance&#45;&gt;o&#45;ran&#45;smo&#45;teiv&#45;ranOCUCPFunction</title>
<path fill="none" stroke="#528b8b" d="M396.7,-347.84C405.74,-342.19 415.82,-335.86 425,-330 435.29,-323.43 436.58,-319.31 448,-315 502.97,-294.22 569.34,-285.7 618.34,-282.24"/>
<polygon fill="#528b8b" stroke="#528b8b" points="628.52,-281.58 618.84,-286.72 623.53,-281.9 618.54,-282.23 618.54,-282.23 618.54,-282.23 623.53,-281.9 618.25,-277.74 628.52,-281.58 628.52,-281.58"/>
<text text-anchor="middle" x="475.5" y="-318.8" font-family="Arial" font-size="14.00">SERVES</text>
<text text-anchor="middle" x="618.02" y="-285.38" font-family="Arial" font-size="14.00">0..*</text>
<text text-anchor="middle" x="386.2" y="-336.64" font-family="Arial" font-size="14.00">0..*</text>
</g>
<!-- o&#45;ran&#45;smo&#45;teiv&#45;physicalPhysicalAppliance&#45;&gt;o&#45;ran&#45;smo&#45;teiv&#45;ranOCUUPFunction -->
<g id="edge20" class="edge">
<title>o&#45;ran&#45;smo&#45;teiv&#45;physicalPhysicalAppliance&#45;&gt;o&#45;ran&#45;smo&#45;teiv&#45;ranOCUUPFunction</title>
<path fill="none" stroke="#528b8b" d="M305.94,-359.33C231.83,-352.27 116.66,-339.94 99,-330 88.87,-324.3 80.34,-314.91 73.79,-305.8"/>
<polygon fill="#528b8b" stroke="#528b8b" points="68.14,-297.28 77.42,-303.13 70.9,-301.45 73.67,-305.61 73.67,-305.61 73.67,-305.61 70.9,-301.45 69.92,-308.1 68.14,-297.28 68.14,-297.28"/>
<text text-anchor="middle" x="126.5" y="-318.8" font-family="Arial" font-size="14.00">SERVES</text>
<text text-anchor="middle" x="78.64" y="-301.08" font-family="Arial" font-size="14.00">0..*</text>
<text text-anchor="middle" x="295.44" y="-348.13" font-family="Arial" font-size="14.00">0..*</text>
</g>
<!-- o&#45;ran&#45;smo&#45;teiv&#45;physicalPhysicalAppliance&#45;&gt;o&#45;ran&#45;smo&#45;teiv&#45;ranODUFunction -->
<g id="edge19" class="edge">
<title>o&#45;ran&#45;smo&#45;teiv&#45;physicalPhysicalAppliance&#45;&gt;o&#45;ran&#45;smo&#45;teiv&#45;ranODUFunction</title>
<path fill="none" stroke="#528b8b" d="M432.35,-356.63C478.01,-350.26 541.02,-340.77 596,-330 624.25,-324.47 630.84,-320.96 659,-315 699.05,-306.52 711.67,-306.97 755.38,-297.01"/>
<polygon fill="#528b8b" stroke="#528b8b" points="765.2,-294.72 756.48,-301.37 760.33,-295.85 755.46,-296.99 755.46,-296.99 755.46,-296.99 760.33,-295.85 754.44,-292.61 765.2,-294.72 765.2,-294.72"/>
<text text-anchor="middle" x="686.5" y="-318.8" font-family="Arial" font-size="14.00">SERVES</text>
<text text-anchor="middle" x="754.7" y="-298.52" font-family="Arial" font-size="14.00">0..*</text>
<text text-anchor="middle" x="442.85" y="-360.43" font-family="Arial" font-size="14.00">0..*</text>
</g>
<!-- o&#45;ran&#45;smo&#45;teiv&#45;ranNRCellCU -->
<g id="node12" class="node">
<title>o&#45;ran&#45;smo&#45;teiv&#45;ranNRCellCU</title>
<polygon fill="#366f34" fill-opacity="0.254902" stroke="black" points="727.5,-210 648.5,-210 648.5,-174 727.5,-174 727.5,-210"/>
<text text-anchor="middle" x="688" y="-188.3" font-family="Arial" font-size="14.00">NRCellCU</text>
</g>
<!-- o&#45;ran&#45;smo&#45;teiv&#45;ranNRSectorCarrier -->
<g id="node14" class="node">
<title>o&#45;ran&#45;smo&#45;teiv&#45;ranNRSectorCarrier</title>
<polygon fill="#366f34" fill-opacity="0.254902" stroke="black" points="1076,-123 960,-123 960,-87 1076,-87 1076,-123"/>
<text text-anchor="middle" x="1018" y="-101.3" font-family="Arial" font-size="14.00">NRSectorCarrier</text>
</g>
<!-- o&#45;ran&#45;smo&#45;teiv&#45;ranNRCellDU&#45;&gt;o&#45;ran&#45;smo&#45;teiv&#45;ranNRSectorCarrier -->
<g id="edge24" class="edge">
<title>o&#45;ran&#45;smo&#45;teiv&#45;ranNRCellDU&#45;&gt;o&#45;ran&#45;smo&#45;teiv&#45;ranNRSectorCarrier</title>
<path fill="none" stroke="#528b8b" d="M1018,-173.8C1018,-162.16 1018,-146.55 1018,-133.24"/>
<polygon fill="#528b8b" stroke="#528b8b" points="1018,-123.18 1022.5,-133.18 1018,-128.18 1018,-133.18 1018,-133.18 1018,-133.18 1018,-128.18 1013.5,-133.18 1018,-123.18 1018,-123.18"/>
<text text-anchor="middle" x="1036.5" y="-144.8" font-family="Arial" font-size="14.00">USES</text>
<text text-anchor="middle" x="1006.5" y="-126.98" font-family="Arial" font-size="14.00">0..1</text>
<text text-anchor="middle" x="1007.5" y="-162.6" font-family="Arial" font-size="14.00">0..*</text>
</g>
<!-- o&#45;ran&#45;smo&#45;teiv&#45;ranNRSectorCarrier&#45;&gt;o&#45;ran&#45;smo&#45;teiv&#45;ranAntennaCapability -->
<g id="edge25" class="edge">
<title>o&#45;ran&#45;smo&#45;teiv&#45;ranNRSectorCarrier&#45;&gt;o&#45;ran&#45;smo&#45;teiv&#45;ranAntennaCapability</title>
<path fill="none" stroke="#528b8b" d="M1028.52,-86.8C1035.85,-74.82 1045.76,-58.62 1054.06,-45.06"/>
<polygon fill="#528b8b" stroke="#528b8b" points="1059.49,-36.18 1058.11,-47.05 1056.88,-40.44 1054.27,-44.71 1054.27,-44.71 1054.27,-44.71 1056.88,-40.44 1050.44,-42.36 1059.49,-36.18 1059.49,-36.18"/>
<text text-anchor="middle" x="1065.5" y="-57.8" font-family="Arial" font-size="14.00">USES</text>
<text text-anchor="middle" x="1048.99" y="-39.98" font-family="Arial" font-size="14.00">0..*</text>
<text text-anchor="middle" x="1017.02" y="-75.6" font-family="Arial" font-size="14.00">0..1</text>
</g>
<!-- o&#45;ran&#45;smo&#45;teiv&#45;ranOCUCPFunction&#45;&gt;o&#45;ran&#45;smo&#45;teiv&#45;ranNRCellCU -->
<g id="edge26" class="edge">
<title>o&#45;ran&#45;smo&#45;teiv&#45;ranOCUCPFunction&#45;&gt;o&#45;ran&#45;smo&#45;teiv&#45;ranNRCellCU</title>
<path fill="none" stroke="#528b8b" d="M688,-260.8C688,-249.16 688,-233.55 688,-220.24"/>
<polygon fill="#528b8b" stroke="#528b8b" points="688,-210.18 692.5,-220.18 688,-215.18 688,-220.18 688,-220.18 688,-220.18 688,-215.18 683.5,-220.18 688,-210.18 688,-210.18"/>
<text text-anchor="middle" x="723.5" y="-231.8" font-family="Arial" font-size="14.00">PROVIDES</text>
<text text-anchor="middle" x="676.5" y="-213.98" font-family="Arial" font-size="14.00">1..1</text>
<text text-anchor="middle" x="677.5" y="-249.6" font-family="Arial" font-size="14.00">0..*</text>
</g>
<!-- o&#45;ran&#45;smo&#45;teiv&#45;ranODUFunction&#45;&gt;o&#45;ran&#45;smo&#45;teiv&#45;ranNRCellDU -->
<g id="edge28" class="edge">
<title>o&#45;ran&#45;smo&#45;teiv&#45;ranODUFunction&#45;&gt;o&#45;ran&#45;smo&#45;teiv&#45;ranNRCellDU</title>
<path fill="none" stroke="#528b8b" d="M855.1,-260.89C877.91,-251.18 907.03,-238.85 933,-228 944.62,-223.15 957.15,-217.96 968.93,-213.11"/>
<polygon fill="#528b8b" stroke="#528b8b" points="978.18,-209.3 970.65,-217.27 973.56,-211.2 968.93,-213.1 968.93,-213.1 968.93,-213.1 973.56,-211.2 967.22,-208.94 978.18,-209.3 978.18,-209.3"/>
<text text-anchor="middle" x="968.5" y="-231.8" font-family="Arial" font-size="14.00">PROVIDES</text>
<text text-anchor="middle" x="966.68" y="-213.1" font-family="Arial" font-size="14.00">1..1</text>
<text text-anchor="middle" x="844.6" y="-249.69" font-family="Arial" font-size="14.00">0..*</text>
</g>
<!-- o&#45;ran&#45;smo&#45;teiv&#45;ranODUFunction&#45;&gt;o&#45;ran&#45;smo&#45;teiv&#45;ranNRSectorCarrier -->
<g id="edge27" class="edge">
<title>o&#45;ran&#45;smo&#45;teiv&#45;ranODUFunction&#45;&gt;o&#45;ran&#45;smo&#45;teiv&#45;ranNRSectorCarrier</title>
<path fill="none" stroke="#528b8b" d="M825.87,-260.88C840.49,-238.82 868.25,-200.18 899,-174 920.58,-155.63 947.83,-139.64 970.81,-127.78"/>
<polygon fill="#528b8b" stroke="#528b8b" points="980.04,-123.12 973.14,-131.65 975.58,-125.38 971.11,-127.63 971.11,-127.63 971.11,-127.63 975.58,-125.38 969.09,-123.61 980.04,-123.12 980.04,-123.12"/>
<text text-anchor="middle" x="934.5" y="-188.3" font-family="Arial" font-size="14.00">PROVIDES</text>
<text text-anchor="middle" x="968.54" y="-126.92" font-family="Arial" font-size="14.00">1..1</text>
<text text-anchor="middle" x="815.37" y="-249.68" font-family="Arial" font-size="14.00">0..*</text>
</g>
<!-- o&#45;ran&#45;smo&#45;teiv&#45;ranSector -->
<g id="node20" class="node">
<title>o&#45;ran&#45;smo&#45;teiv&#45;ranSector</title>
<polygon fill="#366f34" fill-opacity="0.254902" stroke="black" points="1088,-384 1032,-384 1032,-348 1088,-348 1088,-384"/>
<text text-anchor="middle" x="1060" y="-362.3" font-family="Arial" font-size="14.00">Sector</text>
</g>
<!-- o&#45;ran&#45;smo&#45;teiv&#45;ranSector&#45;&gt;o&#45;ran&#45;smo&#45;teiv&#45;equipmentAntennaModule -->
<g id="edge30" class="edge">
<title>o&#45;ran&#45;smo&#45;teiv&#45;ranSector&#45;&gt;o&#45;ran&#45;smo&#45;teiv&#45;equipmentAntennaModule</title>
<path fill="none" stroke="#528b8b" d="M1078.82,-347.8C1092.56,-335.24 1111.37,-318.05 1126.61,-304.12"/>
<polygon fill="#528b8b" stroke="#528b8b" points="1134.21,-297.18 1129.86,-307.24 1130.52,-300.55 1126.83,-303.92 1126.83,-303.92 1126.83,-303.92 1130.52,-300.55 1123.79,-300.6 1134.21,-297.18 1134.21,-297.18"/>
<text text-anchor="middle" x="1142.5" y="-318.8" font-family="Arial" font-size="14.00">GROUPS</text>
<text text-anchor="middle" x="1122.71" y="-300.98" font-family="Arial" font-size="14.00">0..1</text>
<text text-anchor="middle" x="1068.32" y="-336.6" font-family="Arial" font-size="14.00">0..*</text>
</g>
<!-- o&#45;ran&#45;smo&#45;teiv&#45;ranSector&#45;&gt;o&#45;ran&#45;smo&#45;teiv&#45;ranNRCellDU -->
<g id="edge29" class="edge">
<title>o&#45;ran&#45;smo&#45;teiv&#45;ranSector&#45;&gt;o&#45;ran&#45;smo&#45;teiv&#45;ranNRCellDU</title>
<path fill="none" stroke="#528b8b" d="M1049.46,-347.8C1041.84,-334.45 1032.02,-315.22 1027,-297 1020.03,-271.71 1018.06,-241.76 1017.67,-220.52"/>
<polygon fill="#528b8b" stroke="#528b8b" points="1017.59,-210.27 1022.17,-220.23 1017.63,-215.27 1017.67,-220.27 1017.67,-220.27 1017.67,-220.27 1017.63,-215.27 1013.17,-220.3 1017.59,-210.27 1017.59,-210.27"/>
<text text-anchor="middle" x="1057.5" y="-275.3" font-family="Arial" font-size="14.00">GROUPS</text>
<text text-anchor="middle" x="1029.09" y="-214.07" font-family="Arial" font-size="14.00">0..1</text>
<text text-anchor="middle" x="1038.96" y="-336.6" font-family="Arial" font-size="14.00">0..*</text>
</g>
</g>
</svg>
