<svg width="2358" height="1445" xmlns="http://www.w3.org/2000/svg" xmlns:xlink="http://www.w3.org/1999/xlink" xml:space="preserve" overflow="hidden"><defs><clipPath id="clip0"><rect x="41" y="1417" width="2358" height="1445"/></clipPath></defs><g clip-path="url(#clip0)" transform="translate(-41 -1417)"><rect x="40.9999" y="1417" width="2358" height="1437" fill="#FAFAFA"/><rect x="40.9999" y="2782" width="2358" height="72.0002" fill="#3B3838"/><text fill="#FFFFFF" font-family="Hilda_MSFontService,sans-serif" font-weight="400" font-size="37" transform="matrix(1 0 0 1 1017.96 2831)">RAN </text><text fill="#FFFFFF" font-family="Hilda_MSFontService,sans-serif" font-weight="400" font-size="37" transform="matrix(1 0 0 1 1098.16 2831)">Object </text><text fill="#FFFFFF" font-family="Hilda_MSFontService,sans-serif" font-weight="400" font-size="37" transform="matrix(1 0 0 1 1208.16 2831)">R</text><text fill="#FFFFFF" font-family="Hilda_MSFontService,sans-serif" font-weight="400" font-size="37" transform="matrix(1 0 0 1 1231.65 2831)">elationships</text><rect x="0" y="0" width="345" height="80.0001" stroke="#000000" stroke-width="5.72917" stroke-miterlimit="8" fill="#D0CECE" transform="matrix(-1 0 0 1 436 1879)"/><text font-family="Hilda_MSFontService,sans-serif" font-weight="400" font-size="37" transform="matrix(1 0 0 1 132.843 1932)">GNBDUFunction</text><rect x="0" y="0" width="455" height="79.0001" stroke="#000000" stroke-width="5.72917" stroke-miterlimit="8" fill="#D0CECE" transform="matrix(-1 0 0 1 1559 1531)"/><text font-family="Hilda_MSFontService,sans-serif" font-weight="400" font-size="37" transform="matrix(1 0 0 1 1254.78 1584)">NRCellCU</text><rect x="0" y="0" width="455" height="79.0001" stroke="#000000" stroke-width="5.72917" stroke-miterlimit="8" fill="#D0CECE" transform="matrix(-1 0 0 1 1559 1752)"/><text font-family="Hilda_MSFontService,sans-serif" font-weight="400" font-size="37" transform="matrix(1 0 0 1 1253.35 1804)">NRCellDU</text><rect x="0" y="0" width="374" height="79.0001" stroke="#000000" stroke-width="5.72917" stroke-miterlimit="8" fill="#D0CECE" transform="matrix(-1 0 0 1 465 2253)"/><text font-family="Hilda_MSFontService,sans-serif" font-weight="400" font-size="37" transform="matrix(1 0 0 1 143.919 2306)">ENodeBFunction</text><rect x="0" y="0" width="455" height="78.9997" stroke="#000000" stroke-width="5.72917" stroke-miterlimit="8" fill="#D0CECE" transform="matrix(-1 0 0 1 1559 2139)"/><text font-family="Hilda_MSFontService,sans-serif" font-weight="400" font-size="37" transform="matrix(1 0 0 1 1246.47 2191)">EUtranCell</text><rect x="0" y="0" width="455" height="79.0001" stroke="#000000" stroke-width="5.72917" stroke-miterlimit="8" fill="#D0CECE" transform="matrix(-1 0 0 1 1559 1964)"/><text font-family="Hilda_MSFontService,sans-serif" font-weight="400" font-size="37" transform="matrix(1 0 0 1 1208.95 2016)">NrSectorCarrier</text><rect x="0" y="0" width="455" height="78.9997" stroke="#000000" stroke-width="5.72917" stroke-miterlimit="8" fill="#D0CECE" transform="matrix(-1 0 0 1 1559 2369)"/><text font-family="Hilda_MSFontService,sans-serif" font-weight="400" font-size="37" transform="matrix(1 0 0 1 1196.63 2422)">LTESectorCarrier</text><rect x="0" y="0" width="455" height="79.0001" stroke="#000000" stroke-width="5.72917" stroke-miterlimit="8" fill="#D0CECE" transform="matrix(-1 0 0 1 1559 2592)"/><text font-family="Hilda_MSFontService,sans-serif" font-weight="400" font-size="37" transform="matrix(1 0 0 1 1184.03 2644)">AntennaCapability</text><path d="M470.672 2290.14 644.338 2290.14 644.338 2408.79 641.474 2405.93 1099 2405.93 1099 2411.66 638.609 2411.66 638.609 2293 641.474 2295.86 470.672 2295.86ZM496.729 2311.52 464.987 2293 496.729 2274.48C498.095 2273.69 499.849 2274.15 500.646 2275.52 501.443 2276.88 500.982 2278.64 499.615 2279.43L472.115 2295.47 472.115 2290.53 499.615 2306.57C500.982 2307.36 501.443 2309.12 500.646 2310.49 499.849 2311.85 498.095 2312.31 496.729 2311.52ZM1072.95 2390.28 1104.69 2408.79 1072.95 2427.31C1071.58 2428.11 1069.83 2427.64 1069.03 2426.28 1068.23 2424.91 1068.69 2423.16 1070.06 2422.36L1097.56 2406.32 1097.56 2411.27 1070.06 2395.23C1068.69 2394.43 1068.23 2392.67 1069.03 2391.31 1069.83 2389.94 1071.58 2389.48 1072.95 2390.28Z"/><path d="M5.67176-2.86458 179.338-2.86458 179.338 114.591 176.474 111.726 634.003 111.726 634.003 117.455 173.609 117.455 173.609 0 176.474 2.86458 5.67176 2.86458ZM31.7285 18.516-0.0132769 0 31.7285-18.516C33.0951-19.3132 34.8491-18.8516 35.6462-17.485 36.4434-16.1185 35.9818-14.3645 34.6153-13.5673L7.11526 2.47437 7.11526-2.47437 34.6153 13.5673C35.9818 14.3645 36.4434 16.1185 35.6462 17.485 34.8491 18.8516 33.0951 19.3132 31.7285 18.516ZM607.946 96.0749 639.687 114.591 607.946 133.107C606.579 133.904 604.825 133.443 604.028 132.076 603.231 130.709 603.692 128.955 605.059 128.158L632.559 112.117 632.559 117.065 605.059 101.024C603.692 100.226 603.231 98.4724 604.028 97.1059 604.825 95.7393 606.579 95.2777 607.946 96.0749Z" transform="matrix(1 0 0 -1 465 2292.59)"/><rect x="0" y="0" width="255" height="39.9999" fill="#FAFAFA" transform="matrix(-1 0 0 1 958 2159)"/><text font-family="Hilda_MSFontService,sans-serif" font-weight="400" font-size="28" transform="matrix(1 0 0 1 764.288 2192)">PROVIDES</text><path d="M5.67192-2.86458 209.92-2.86458 209.92 127.788 207.056 124.924 662.703 124.924 662.703 130.653 204.191 130.653 204.191 0 207.056 2.86458 5.67192 2.86458ZM31.7285 18.516-0.0132769 0 31.7285-18.516C33.0951-19.3132 34.8491-18.8516 35.6462-17.485 36.4434-16.1185 35.9818-14.3645 34.6153-13.5673L7.11526 2.47437 7.11526-2.47437 34.6153 13.5673C35.9818 14.3645 36.4434 16.1185 35.6462 17.485 34.8491 18.8516 33.0951 19.3132 31.7285 18.516ZM636.646 109.272 668.387 127.788 636.646 146.304C635.279 147.102 633.525 146.64 632.728 145.273 631.931 143.907 632.392 142.153 633.759 141.356L661.259 125.314 661.259 130.263 633.759 114.221C632.392 113.424 631.931 111.67 632.728 110.303 633.525 108.937 635.279 108.475 636.646 109.272Z" transform="matrix(1 0 0 -1 436 1918.79)"/><path d="M441.672 1916.14 645.92 1916.14 645.92 2003.45 643.056 2000.59 1098.7 2000.59 1098.7 2006.32 640.191 2006.32 640.191 1919 643.056 1921.86 441.672 1921.86ZM467.728 1937.52 435.987 1919 467.728 1900.48C469.095 1899.69 470.849 1900.15 471.646 1901.52 472.443 1902.88 471.982 1904.64 470.615 1905.43L443.115 1921.47 443.115 1916.53 470.615 1932.57C471.982 1933.36 472.443 1935.12 471.646 1936.49 470.849 1937.85 469.095 1938.31 467.728 1937.52ZM1072.65 1984.94 1104.39 2003.45 1072.65 2021.97C1071.28 2022.77 1069.53 2022.3 1068.73 2020.94 1067.93 2019.57 1068.39 2017.82 1069.76 2017.02L1097.26 2000.98 1097.26 2005.93 1069.76 1989.89C1068.39 1989.09 1067.93 1987.33 1068.73 1985.97 1069.53 1984.6 1071.28 1984.14 1072.65 1984.94Z"/><rect x="0" y="0" width="255" height="39.9999" fill="#FAFAFA" transform="matrix(-1 0 0 1 958 1765)"/><text font-family="Hilda_MSFontService,sans-serif" font-weight="400" font-size="28" transform="matrix(1 0 0 1 764.288 1799)">PROVIDES</text><rect x="0" y="0" width="255" height="39.9999" fill="#FAFAFA" transform="matrix(-1 0 0 1 958 1982)"/><text font-family="Hilda_MSFontService,sans-serif" font-weight="400" font-size="28" transform="matrix(1 0 0 1 764.288 2016)">PROVIDES</text><rect x="0" y="0" width="255" height="39.9999" fill="#FAFAFA" transform="matrix(-1 0 0 1 958 2390)"/><text font-family="Hilda_MSFontService,sans-serif" font-weight="400" font-size="28" transform="matrix(1 0 0 1 764.288 2423)">PROVIDES</text><path d="M-5.6718 2.86458-82.5 2.86458-79.6354 0-79.6354 628.044-82.5 625.18-5.67152 625.18-5.67152 630.909-85.3646 630.909-85.3646-2.86458-5.6718-2.86458ZM-31.7285-18.516 0.0132769 0-31.7285 18.516C-33.0951 19.3132-34.8491 18.8516-35.6462 17.485-36.4434 16.1185-35.9818 14.3645-34.6153 13.5673L-7.11526-2.47437-7.11526 2.47437-34.6153-13.5673C-35.9818-14.3645-36.4434-16.1185-35.6462-17.485-34.8491-18.8516-33.0951-19.3132-31.7285-18.516ZM-31.7281 609.528 0.0136378 628.044-31.7281 646.56C-33.0947 647.358-34.8487 646.896-35.6459 645.529-36.443 644.163-35.9814 642.409-34.6149 641.612L-7.11489 625.57-7.11489 630.519-34.6149 614.477C-35.9814 613.68-36.443 611.926-35.6459 610.559-34.8487 609.193-33.0947 608.731-31.7281 609.528Z" transform="matrix(-1 0 0 1 1559 2003)"/><rect x="0" y="0" width="153" height="54" fill="#FAFAFA" transform="matrix(-1 0 0 1 1713 2266)"/><text font-family="Hilda_MSFontService,sans-serif" font-weight="400" font-size="28" transform="matrix(1 0 0 1 1603.85 2302)">USES</text><path d="M1334.86 1836.67 1334.86 1958.28 1329.14 1958.28 1329.14 1836.67ZM1313.48 1862.73 1332 1830.99 1350.52 1862.73C1351.31 1864.1 1350.85 1865.85 1349.49 1866.65 1348.12 1867.44 1346.36 1866.98 1345.57 1865.62L1329.53 1838.12 1334.47 1838.12 1318.43 1865.62C1317.64 1866.98 1315.88 1867.44 1314.52 1866.65 1313.15 1865.85 1312.69 1864.1 1313.48 1862.73ZM1350.52 1932.22 1332 1963.96 1313.48 1932.22C1312.69 1930.85 1313.15 1929.1 1314.52 1928.3 1315.88 1927.51 1317.64 1927.97 1318.43 1929.33L1334.47 1956.83 1329.53 1956.83 1345.57 1929.33C1346.36 1927.97 1348.12 1927.51 1349.49 1928.3 1350.85 1929.1 1351.31 1930.85 1350.52 1932.22Z"/><rect x="0" y="0" width="153" height="30.9999" fill="#FAFAFA" transform="matrix(-1 0 0 1 1408 1879)"/><text font-family="Hilda_MSFontService,sans-serif" font-weight="400" font-size="28" transform="matrix(1 0 0 1 1298.78 1904)">USES</text><path d="M1334.86 2223.67 1334.86 2363.42 1329.14 2363.42 1329.14 2223.67ZM1313.48 2249.73 1332 2217.99 1350.52 2249.73C1351.31 2251.09 1350.85 2252.85 1349.49 2253.65 1348.12 2254.44 1346.36 2253.98 1345.57 2252.61L1329.53 2225.11 1334.47 2225.11 1318.43 2252.61C1317.64 2253.98 1315.88 2254.44 1314.52 2253.65 1313.15 2252.85 1312.69 2251.09 1313.48 2249.73ZM1350.52 2337.36 1332 2369.1 1313.48 2337.36C1312.69 2336 1313.15 2334.24 1314.52 2333.45 1315.88 2332.65 1317.64 2333.11 1318.43 2334.48L1334.47 2361.98 1329.53 2361.98 1345.57 2334.48C1346.36 2333.11 1348.12 2332.65 1349.49 2333.45 1350.85 2334.24 1351.31 2336 1350.52 2337.36Z"/><rect x="0" y="0" width="153" height="40.9999" fill="#FAFAFA" transform="matrix(-1 0 0 1 1409 2275)"/><text font-family="Hilda_MSFontService,sans-serif" font-weight="400" font-size="28" transform="matrix(1 0 0 1 1299.9 2305)">USES</text><path d="M2.8646 5.67192 2.86493 137.894-2.86424 137.894-2.86457 5.67194ZM-18.516 31.7285 1.34955e-07-0.0132769 18.5161 31.7284C19.3133 33.095 18.8517 34.849 17.4851 35.6462 16.1186 36.4434 14.3645 35.9818 13.5674 34.6152L-2.47435 7.11526 2.47438 7.11525-13.5672 34.6153C-14.3644 35.9818-16.1184 36.4434-17.485 35.6463-18.8515 34.8491-19.3131 33.0951-18.516 31.7285ZM18.5163 111.837 0.000361542 143.579-18.5158 111.837C-19.3129 110.471-18.8513 108.717-17.4848 107.92-16.1182 107.123-14.3642 107.584-13.567 108.951L2.47471 136.451-2.47402 136.451 13.5676 108.951C14.3647 107.584 16.1188 107.122 17.4853 107.92 18.8519 108.717 19.3135 110.471 18.5163 111.837Z" transform="matrix(-1 0 0 1 1332 2448)"/><rect x="0" y="0" width="153" height="41.9999" fill="#FAFAFA" transform="matrix(-1 0 0 1 1408 2496)"/><text font-family="Hilda_MSFontService,sans-serif" font-weight="400" font-size="28" transform="matrix(1 0 0 1 1298.78 2526)">USES</text><rect x="0" y="0" width="405" height="79.0001" stroke="#000000" stroke-width="5.72917" stroke-miterlimit="8" fill="#D0CECE" transform="matrix(-1 0 0 1 496 1531)"/><text font-family="Hilda_MSFontService,sans-serif" font-weight="400" font-size="37" transform="matrix(1 0 0 1 142.092 1584)">GNBCUCPFunction</text><path d="M5.67168-2.86362 602.709-2.76269 602.708 2.96648 5.67071 2.86554ZM31.7254 18.5214-0.0132765-2.23773e-06 31.7316-18.5107C33.0983-19.3076 34.8523-18.8457 35.6492-17.479 36.4461-16.1123 35.9842-14.3584 34.6175-13.5614L7.11484 2.47557 7.11567-2.47316 34.613 13.5732C35.9794 14.3705 36.4407 16.1247 35.6433 17.4911 34.8459 18.8575 33.0918 19.3188 31.7254 18.5214ZM576.654-18.4185 608.393 0.102856 576.648 18.6135C575.281 19.4104 573.527 18.9486 572.73 17.5819 571.933 16.2152 572.395 14.4612 573.762 13.6643L601.265-2.37271 601.264 2.57602 573.766-13.4703C572.4-14.2677 571.939-16.0218 572.736-17.3882 573.533-18.7546 575.288-19.2159 576.654-18.4185Z" transform="matrix(1 0 0 -1 496 1571.1)"/><rect x="0" y="0" width="255" height="39.9999" fill="#FAFAFA" transform="matrix(-1 0 0 1 958 1545)"/><text font-family="Hilda_MSFontService,sans-serif" font-weight="400" font-size="28" transform="matrix(1 0 0 1 764.288 1578)">PROVIDES</text><rect x="0" y="0" width="405" height="79.0001" stroke="#000000" stroke-width="5.72917" stroke-miterlimit="8" fill="#D0CECE" transform="matrix(-1 0 0 1 2358 1954)"/><text font-family="Hilda_MSFontService,sans-serif" font-weight="400" font-size="37" transform="matrix(1 0 0 1 2105.82 2007)">Sector</text><path d="M1947.89 1996.39 1753.42 1996.39 1753.42 1791 1756.28 1793.86 1564.67 1793.86 1564.67 1788.14 1759.15 1788.14 1759.15 1993.53 1756.28 1990.66 1947.89 1990.66ZM1921.84 1975.01 1953.58 1993.53 1921.84 2012.05C1920.47 2012.84 1918.72 2012.38 1917.92 2011.01 1917.12 2009.65 1917.58 2007.89 1918.95 2007.1L1946.45 1991.06 1946.45 1996 1918.95 1979.96C1917.58 1979.17 1917.12 1977.41 1917.92 1976.04 1918.72 1974.68 1920.47 1974.22 1921.84 1975.01ZM1590.73 1809.52 1558.99 1791 1590.73 1772.48C1592.09 1771.69 1593.85 1772.15 1594.65 1773.51 1595.44 1774.88 1594.98 1776.64 1593.62 1777.43L1566.12 1793.47 1566.12 1788.53 1593.62 1804.57C1594.98 1805.36 1595.44 1807.12 1594.65 1808.48 1593.85 1809.85 1592.09 1810.31 1590.73 1809.52Z"/><path d="M5.67192-2.86458 200.147-2.86458 200.147 184.515 197.283 181.65 388.893 181.65 388.893 187.379 194.418 187.379 194.418 0 197.283 2.86458 5.67192 2.86458ZM31.7285 18.516-0.0132769 0 31.7285-18.516C33.0951-19.3132 34.8491-18.8516 35.6462-17.485 36.4434-16.1185 35.9818-14.3645 34.6153-13.5673L7.11526 2.47437 7.11526-2.47437 34.6153 13.5673C35.9818 14.3645 36.4434 16.1185 35.6462 17.485 34.8491 18.8516 33.0951 19.3132 31.7285 18.516ZM362.837 165.999 394.578 184.515 362.837 203.031C361.47 203.828 359.716 203.366 358.919 202 358.122 200.633 358.583 198.879 359.95 198.082L387.45 182.041 387.45 186.989 359.95 170.948C358.583 170.15 358.122 168.396 358.919 167.03 359.716 165.663 361.47 165.202 362.837 165.999Z" transform="matrix(-1 1.22465e-16 1.22465e-16 1 1953.56 1994)"/><rect x="0" y="0" width="255" height="40.0002" fill="#FAFAFA" transform="matrix(-1 0 0 1 1884 1843)"/><text font-family="Hilda_MSFontService,sans-serif" font-weight="400" font-size="28" transform="matrix(1 0 0 1 1703.14 1877)">GROUPS</text><rect x="0" y="0" width="184" height="47.9998" fill="#FAFAFA" transform="matrix(-1 0 0 1 1848 2062)"/><text font-family="Hilda_MSFontService,sans-serif" font-weight="400" font-size="28" transform="matrix(1 0 0 1 1703.08 2095)">GROUPS</text></g></svg>