<svg width="2365" height="4045" xmlns="http://www.w3.org/2000/svg" xmlns:xlink="http://www.w3.org/1999/xlink" xml:space="preserve" overflow="hidden"><g transform="translate(-58 -321)"><rect x="58.0001" y="321" width="2362" height="4036" fill="#FAFAFA"/><rect x="58.0001" y="4286" width="2362" height="71" fill="#3B3838"/><text fill="#FFFFFF" font-family="Hilda_MSFontService,sans-serif" font-weight="400" font-size="37" transform="matrix(1 0 0 1 944.909 4334)">RAN </text><text fill="#FFFFFF" font-family="Hilda_MSFontService,sans-serif" font-weight="400" font-size="37" transform="matrix(1 0 0 1 1025.12 4334)">Managed </text><text fill="#FFFFFF" font-family="Hilda_MSFontService,sans-serif" font-weight="400" font-size="37" transform="matrix(1 0 0 1 1181.52 4334)">O</text><text fill="#FFFFFF" font-family="Hilda_MSFontService,sans-serif" font-weight="400" font-size="37" transform="matrix(1 0 0 1 1207.3 4334)">bjects </text><text fill="#FFFFFF" font-family="Hilda_MSFontService,sans-serif" font-weight="400" font-size="37" transform="matrix(1 0 0 1 1307.57 4334)">and </text><text fill="#FFFFFF" font-family="Hilda_MSFontService,sans-serif" font-weight="400" font-size="37" transform="matrix(1 0 0 1 1375.74 4334)">Attributes</text><rect x="215" y="396" width="496" height="61.9999" fill="#0050CA"/><text fill="#FFFFFF" font-family="Hilda_MSFontService,sans-serif" font-weight="400" font-size="37" transform="matrix(1 0 0 1 310.072 440)">o</text><text fill="#FFFFFF" font-family="Hilda_MSFontService,sans-serif" font-weight="400" font-size="37" transform="matrix(1 0 0 1 330.124 440)">-</text><text fill="#FFFFFF" font-family="Hilda_MSFontService,sans-serif" font-weight="400" font-size="37" transform="matrix(1 0 0 1 343.874 440)">ran</text><text fill="#FFFFFF" font-family="Hilda_MSFontService,sans-serif" font-weight="400" font-size="37" transform="matrix(1 0 0 1 396.583 440)">-</text><text fill="#FFFFFF" font-family="Hilda_MSFontService,sans-serif" font-weight="400" font-size="37" transform="matrix(1 0 0 1 410.333 440)">smo</text><text fill="#FFFFFF" font-family="Hilda_MSFontService,sans-serif" font-weight="400" font-size="37" transform="matrix(1 0 0 1 476.791 440)">-</text><text fill="#FFFFFF" font-family="Hilda_MSFontService,sans-serif" font-weight="400" font-size="37" transform="matrix(1 0 0 1 490.541 440)">teiv</text><text fill="#FFFFFF" font-family="Hilda_MSFontService,sans-serif" font-weight="400" font-size="37" transform="matrix(1 0 0 1 548.978 440)">-</text><text fill="#FFFFFF" font-family="Hilda_MSFontService,sans-serif" font-weight="400" font-size="37" transform="matrix(1 0 0 1 562.728 440)">ran</text><rect x="228" y="654" width="451" height="78.9997" stroke="#000000" stroke-width="5.72917" stroke-miterlimit="8" fill="#D0CECE"/><text font-family="Hilda_MSFontService,sans-serif" font-weight="400" font-size="37" transform="matrix(1 0 0 1 323.096 707)">GNBDUFunction</text><rect x="228" y="1308" width="496" height="79.0001" stroke="#000000" stroke-width="5.72917" stroke-miterlimit="8" fill="#D0CECE"/><text font-family="Hilda_MSFontService,sans-serif" font-weight="400" font-size="37" transform="matrix(1 0 0 1 323.385 1361)">GNBCUUP</text><text font-family="Hilda_MSFontService,sans-serif" font-weight="400" font-size="37" transform="matrix(1 0 0 1 490.104 1361)">Function</text><rect x="228" y="1598" width="358" height="79.0001" stroke="#000000" stroke-width="5.72917" stroke-miterlimit="8" fill="#D0CECE"/><text font-family="Hilda_MSFontService,sans-serif" font-weight="400" font-size="37" transform="matrix(1 0 0 1 330.413 1651)">NRCellCU</text><rect x="228" y="1927" width="358" height="79.0001" stroke="#000000" stroke-width="5.72917" stroke-miterlimit="8" fill="#D0CECE"/><text font-family="Hilda_MSFontService,sans-serif" font-weight="400" font-size="37" transform="matrix(1 0 0 1 328.98 1980)">NRCellDU</text><rect x="228" y="2259" width="452" height="78.9998" stroke="#000000" stroke-width="5.72917" stroke-miterlimit="8" fill="#D0CECE"/><text font-family="Hilda_MSFontService,sans-serif" font-weight="400" font-size="37" transform="matrix(1 0 0 1 320.218 2312)">ENodeBFunction</text><path d="M215 429.865 132.5 429.865 135.365 427 135.365 693.706 132.5 690.841 228.313 690.841 228.313 696.57 129.635 696.57 129.635 424.135 215 424.135ZM228.313 679.956C235.907 679.956 242.063 686.112 242.063 693.706 242.063 701.299 235.907 707.456 228.313 707.456 220.719 707.456 214.563 701.299 214.563 693.706 214.563 686.112 220.719 679.956 228.313 679.956Z"/><path d="M215 429.865 132.5 429.865 135.364 427 135.364 1347.55 132.5 1344.68 228.313 1344.68 228.313 1350.41 129.635 1350.41 129.635 424.135 215 424.135ZM228.313 1333.8C235.907 1333.8 242.063 1339.95 242.063 1347.55 242.063 1355.14 235.907 1361.3 228.313 1361.3 220.719 1361.3 214.563 1355.14 214.563 1347.55 214.563 1339.95 220.719 1333.8 228.313 1333.8Z"/><path d="M215 429.865 132.5 429.865 135.365 427 135.365 1637.72 132.5 1634.86 228.313 1634.86 228.313 1640.58 129.636 1640.58 129.636 424.135 215 424.135ZM228.313 1623.97C235.907 1623.97 242.063 1630.13 242.063 1637.72 242.063 1645.31 235.907 1651.47 228.313 1651.47 220.719 1651.47 214.563 1645.31 214.563 1637.72 214.563 1630.13 220.719 1623.97 228.313 1623.97Z"/><path d="M215 429.865 132.5 429.865 135.364 427 135.364 1966.88 132.5 1964.02 228.313 1964.02 228.313 1969.75 129.635 1969.75 129.635 424.135 215 424.135ZM228.313 1953.13C235.907 1953.13 242.063 1959.29 242.063 1966.88 242.063 1974.47 235.907 1980.63 228.313 1980.63 220.719 1980.63 214.563 1974.47 214.563 1966.88 214.563 1959.29 220.719 1953.13 228.313 1953.13Z"/><path d="M215 429.865 132.5 429.865 135.364 427 135.364 2298.89 132.5 2296.02 228.313 2296.02 228.313 2301.75 129.635 2301.75 129.635 424.135 215 424.135ZM228.313 2285.14C235.907 2285.14 242.063 2291.29 242.063 2298.89 242.063 2306.48 235.907 2312.64 228.313 2312.64 220.719 2312.64 214.563 2306.48 214.563 2298.89 214.563 2291.29 220.719 2285.14 228.313 2285.14Z"/><rect x="828" y="581" width="682" height="225" stroke="#000000" stroke-width="5.72917" stroke-miterlimit="8" fill="none"/><rect x="228" y="993" width="452" height="79.0001" stroke="#000000" stroke-width="5.72917" stroke-miterlimit="8" fill="#D0CECE"/><text font-family="Hilda_MSFontService,sans-serif" font-weight="400" font-size="37" transform="matrix(1 0 0 1 302.744 1046)">GNBCUCP</text><text font-family="Hilda_MSFontService,sans-serif" font-weight="400" font-size="37" transform="matrix(1 0 0 1 466.598 1046)">Function</text><path d="M215 429.865 132.499 429.865 135.364 427 135.364 1032.7 132.499 1029.84 228.313 1029.84 228.313 1035.57 129.635 1035.57 129.635 424.135 215 424.135ZM228.313 1018.95C235.907 1018.95 242.063 1025.11 242.063 1032.7 242.063 1040.3 235.907 1046.45 228.313 1046.45 220.719 1046.45 214.563 1040.3 214.563 1032.7 214.563 1025.11 220.719 1018.95 228.313 1018.95Z"/><rect x="228" y="2538" width="384" height="79" stroke="#000000" stroke-width="5.72917" stroke-miterlimit="8" fill="#D0CECE"/><text font-family="Hilda_MSFontService,sans-serif" font-weight="400" font-size="37" transform="matrix(1 0 0 1 335.071 2591)">EUtranCell</text><path d="M215 429.865 132.5 429.865 135.364 427 135.364 2577.69 132.5 2574.83 228.313 2574.83 228.313 2580.56 129.635 2580.56 129.635 424.135 215 424.135ZM228.313 2563.94C235.907 2563.94 242.063 2570.1 242.063 2577.69 242.063 2585.29 235.907 2591.44 228.313 2591.44 220.719 2591.44 214.563 2585.29 214.563 2577.69 214.563 2570.1 220.719 2563.94 228.313 2563.94Z"/><rect x="228" y="2896" width="420" height="79" stroke="#000000" stroke-width="5.72917" stroke-miterlimit="8" fill="#D0CECE"/><text font-family="Hilda_MSFontService,sans-serif" font-weight="400" font-size="37" transform="matrix(1 0 0 1 315.529 2949)">NrSectorCarrier</text><path d="M215 429.865 132.5 429.865 135.364 427 135.364 2935.58 132.5 2932.72 228.313 2932.72 228.313 2938.45 129.635 2938.45 129.635 424.135 215 424.135ZM228.313 2921.83C235.907 2921.83 242.063 2927.99 242.063 2935.58 242.063 2943.18 235.907 2949.33 228.313 2949.33 220.719 2949.33 214.563 2943.18 214.563 2935.58 214.563 2927.99 220.719 2921.83 228.313 2921.83Z"/><rect x="228" y="3190" width="452" height="80" stroke="#000000" stroke-width="5.72917" stroke-miterlimit="8" fill="#D0CECE"/><text font-family="Hilda_MSFontService,sans-serif" font-weight="400" font-size="37" transform="matrix(1 0 0 1 319.072 3243)">LTESectorCarrier</text><path d="M215 429.865 132.5 429.865 135.364 427 135.364 3230.02 132.5 3227.15 228.313 3227.15 228.313 3232.88 129.635 3232.88 129.635 424.135 215 424.135ZM228.313 3216.27C235.907 3216.27 242.063 3222.42 242.063 3230.02 242.063 3237.61 235.907 3243.77 228.313 3243.77 220.719 3243.77 214.563 3237.61 214.563 3230.02 214.563 3222.42 220.719 3216.27 228.313 3216.27Z"/><rect x="228" y="3452" width="452" height="80" stroke="#000000" stroke-width="5.72917" stroke-miterlimit="8" fill="#D0CECE"/><text font-family="Hilda_MSFontService,sans-serif" font-weight="400" font-size="37" transform="matrix(1 0 0 1 306.468 3505)">AntennaCapability</text><path d="M215 429.865 132.5 429.865 135.364 427 135.364 3492.12 132.5 3489.25 228.313 3489.25 228.313 3494.98 129.635 3494.98 129.635 424.135 215 424.135ZM228.313 3478.37C235.907 3478.37 242.063 3484.52 242.063 3492.12 242.063 3499.71 235.907 3505.87 228.313 3505.87 220.719 3505.87 214.563 3499.71 214.563 3492.12 214.563 3484.52 220.719 3478.37 228.313 3478.37Z"/><rect x="1770" y="642" width="472" height="105" stroke="#000000" stroke-width="5.72917" stroke-miterlimit="8" fill="none"/><rect x="852" y="920" width="682" height="225" stroke="#000000" stroke-width="5.72917" stroke-miterlimit="8" fill="none"/><rect x="1749" y="979" width="472" height="105" stroke="#000000" stroke-width="5.72917" stroke-miterlimit="8" fill="none"/><rect x="850" y="1265" width="681" height="165" stroke="#000000" stroke-width="5.72917" stroke-miterlimit="8" fill="none"/><rect x="854" y="1541" width="682" height="193" stroke="#000000" stroke-width="5.72917" stroke-miterlimit="8" fill="none"/><rect x="1749" y="1586" width="472" height="105" stroke="#000000" stroke-width="5.72917" stroke-miterlimit="8" fill="none"/><rect x="848" y="1813" width="681" height="308" stroke="#000000" stroke-width="5.72917" stroke-miterlimit="8" fill="none"/><rect x="841" y="2233" width="681" height="132" stroke="#000000" stroke-width="5.72917" stroke-miterlimit="8" fill="none"/><rect x="1742" y="2237" width="591" height="125" stroke="#000000" stroke-width="5.72917" stroke-miterlimit="8" fill="none"/><rect x="839" y="2411" width="682" height="332" stroke="#000000" stroke-width="5.72917" stroke-miterlimit="8" fill="none"/><rect x="839" y="2797" width="682" height="277" stroke="#000000" stroke-width="5.72917" stroke-miterlimit="8" fill="none"/><rect x="834" y="3122" width="812" height="216" stroke="#000000" stroke-width="5.72917" stroke-miterlimit="8" fill="none"/><rect x="844" y="3387" width="734" height="210" stroke="#000000" stroke-width="5.72917" stroke-miterlimit="8" fill="none"/><path d="M586 1964.14 847.258 1964.14 847.258 1969.86 586 1969.86ZM847.258 1953.25C854.852 1953.25 861.008 1959.41 861.008 1967 861.008 1974.59 854.852 1980.75 847.258 1980.75 839.664 1980.75 833.508 1974.59 833.508 1967 833.508 1959.41 839.664 1953.25 847.258 1953.25Z"/><path d="M586 1635.14 854.059 1635.14 854.059 1640.86 586 1640.86ZM854.059 1624.25C861.653 1624.25 867.809 1630.41 867.809 1638 867.809 1645.59 861.653 1651.75 854.059 1651.75 846.465 1651.75 840.309 1645.59 840.309 1638 840.309 1630.41 846.465 1624.25 854.059 1624.25Z"/><path d="M680 2296.14 840.88 2296.14 840.88 2301.86 680 2301.86ZM840.88 2285.25C848.474 2285.25 854.63 2291.41 854.63 2299 854.63 2306.59 848.474 2312.75 840.88 2312.75 833.286 2312.75 827.13 2306.59 827.13 2299 827.13 2291.41 833.286 2285.25 840.88 2285.25Z"/><path d="M0.00878827-2.86457 226.925-2.16841 226.908 3.56073-0.00878827 2.86457ZM226.959-13.0538C234.553-13.0305 240.69-6.85554 240.666 0.738345 240.643 8.33222 234.468 14.4694 226.874 14.4461 219.28 14.4228 213.143 8.24786 213.167 0.653978 213.19-6.9399 219.365-13.0771 226.959-13.0538Z" transform="matrix(1 0 0 -1 612 2577.7)"/><path d="M680 3489.14 843.833 3489.14 843.833 3494.87 680 3494.86ZM843.833 3478.25C851.427 3478.25 857.583 3484.41 857.583 3492 857.583 3499.59 851.427 3505.75 843.833 3505.75 836.239 3505.75 830.083 3499.59 830.083 3492 830.083 3484.41 836.239 3478.25 843.833 3478.25Z"/><path d="M680 3227.14 833.681 3227.14 833.681 3232.86 680 3232.86ZM833.681 3216.25C841.275 3216.25 847.431 3222.41 847.431 3230 847.431 3237.59 841.275 3243.75 833.681 3243.75 826.087 3243.75 819.931 3237.59 819.931 3230 819.931 3222.41 826.087 3216.25 833.681 3216.25Z"/><path d="M648 2933.14 838.947 2933.14 838.947 2938.86 648 2938.86ZM838.947 2922.25C846.541 2922.25 852.697 2928.41 852.697 2936 852.697 2943.59 846.541 2949.75 838.947 2949.75 831.353 2949.75 825.197 2943.59 825.197 2936 825.197 2928.41 831.354 2922.25 838.947 2922.25Z"/><path d="M724 1345.14 849.57 1345.14 849.57 1350.86 724 1350.86ZM849.57 1334.25C857.164 1334.25 863.32 1340.41 863.32 1348 863.32 1355.59 857.163 1361.75 849.57 1361.75 841.976 1361.75 835.82 1355.59 835.82 1348 835.82 1340.41 841.976 1334.25 849.57 1334.25Z"/><path d="M6.95498e-06-2.86458 148.643-2.86422 148.643 2.86494-6.95498e-06 2.86458ZM148.643-13.7496C156.237-13.7496 162.393-7.59352 162.393 0.000394276 162.393 7.59431 156.236 13.7504 148.643 13.7504 141.049 13.7503 134.893 7.59424 134.893 0.000327508 134.893-7.59359 141.049-13.7497 148.643-13.7496Z" transform="matrix(1 0 0 -1 679 694)"/><path d="M0.00869083-2.86457 172.253-2.342 172.236 3.38714-0.00869083 2.86457ZM172.286-13.2274C179.88-13.2043 186.017-7.02959 185.994 0.564288 185.971 8.15817 179.796 14.2955 172.202 14.2725 164.609 14.2495 158.471 8.07474 158.494 0.480856 158.517-7.11303 164.692-13.2504 172.286-13.2274Z" transform="matrix(1 0 0 -1 680 1032.52)"/><g><text font-family="Hilda_MSFontService,sans-serif" font-weight="400" font-size="28" transform="matrix(1 0 0 1 1114.82 648)">string {key}</text></g><g><text font-family="Hilda_MSFontService,sans-serif" font-weight="700" font-size="28" transform="matrix(1 0 0 1 894.234 648)">id:</text></g><g><text font-family="Hilda_MSFontService,sans-serif" font-weight="400" font-size="28" transform="matrix(1 0 0 1 1114.82 684)">uint32</text></g><g><text font-family="Hilda_MSFontService,sans-serif" font-weight="700" font-size="28" transform="matrix(1 0 0 1 894.234 684)">gNBDUId: </text></g><g><text font-family="Hilda_MSFontService,sans-serif" font-weight="400" font-size="28" transform="matrix(1 0 0 1 1114.82 720)">uint32</text></g><g><text font-family="Hilda_MSFontService,sans-serif" font-weight="700" font-size="28" transform="matrix(1 0 0 1 894.234 720)">gNBId: </text></g><g><text font-family="Hilda_MSFontService,sans-serif" font-weight="400" font-size="28" transform="matrix(1 0 0 1 1114.82 756)">uint32</text></g><g><text font-family="Hilda_MSFontService,sans-serif" font-weight="700" font-size="28" transform="matrix(1 0 0 1 894.234 756)">gNBIdLength:</text></g><g><text font-family="Hilda_MSFontService,sans-serif" font-weight="400" font-size="28" transform="matrix(1 0 0 1 1132.35 993)">string {key}</text></g><g><text font-family="Hilda_MSFontService,sans-serif" font-weight="700" font-size="28" transform="matrix(1 0 0 1 894.234 993)">id:</text></g><g><text font-family="Hilda_MSFontService,sans-serif" font-weight="400" font-size="28" transform="matrix(1 0 0 1 1132.35 1029)">string</text></g><g><text font-family="Hilda_MSFontService,sans-serif" font-weight="700" font-size="28" transform="matrix(1 0 0 1 894.234 1029)">gNBCUName: </text></g><g><text font-family="Hilda_MSFontService,sans-serif" font-weight="400" font-size="28" transform="matrix(1 0 0 1 1132.35 1065)">uint32</text></g><g><text font-family="Hilda_MSFontService,sans-serif" font-weight="700" font-size="28" transform="matrix(1 0 0 1 894.234 1065)">gNBId: </text></g><g><text font-family="Hilda_MSFontService,sans-serif" font-weight="400" font-size="28" transform="matrix(1 0 0 1 1132.35 1101)">uint32</text></g><g><text font-family="Hilda_MSFontService,sans-serif" font-weight="700" font-size="28" transform="matrix(1 0 0 1 894.234 1101)">gNBIdLength:</text></g><g><text font-family="Hilda_MSFontService,sans-serif" font-weight="400" font-size="28" transform="matrix(1 0 0 1 1114.82 1325)">string {key}</text></g><g><text font-family="Hilda_MSFontService,sans-serif" font-weight="700" font-size="28" transform="matrix(1 0 0 1 894.234 1325)">id:</text></g><g><text font-family="Hilda_MSFontService,sans-serif" font-weight="400" font-size="28" transform="matrix(1 0 0 1 1114.82 1358)">uint32</text></g><g><text font-family="Hilda_MSFontService,sans-serif" font-weight="700" font-size="28" transform="matrix(1 0 0 1 894.234 1358)">gNBId: </text></g><g><text font-family="Hilda_MSFontService,sans-serif" font-weight="400" font-size="28" transform="matrix(1 0 0 1 1114.82 1391)">uint32</text></g><g><text font-family="Hilda_MSFontService,sans-serif" font-weight="700" font-size="28" transform="matrix(1 0 0 1 894.234 1391)">gNBIdLength:</text></g><g><text font-family="Hilda_MSFontService,sans-serif" font-weight="700" font-size="28" transform="matrix(1 0 0 1 1973.53 687)">mcc: </text></g><text font-family="Hilda_MSFontService,sans-serif" font-weight="400" font-size="28" transform="matrix(1 0 0 1 2041.71 687)">Mcc</text><g><text font-family="Hilda_MSFontService,sans-serif" font-weight="700" font-size="28" transform="matrix(1 0 0 1 1973.53 720)">mnc: </text></g><text font-family="Hilda_MSFontService,sans-serif" font-weight="400" font-size="28" transform="matrix(1 0 0 1 2038.27 720)">Mnc</text><g><text font-family="Hilda_MSFontService,sans-serif" font-weight="700" font-size="28" transform="matrix(1 0 0 1 1798.55 687)">dUpLMNId:</text></g><g><text font-family="Hilda_MSFontService,sans-serif" font-weight="700" font-size="28" transform="matrix(1 0 0 1 1952.67 1027)">mcc: </text></g><text font-family="Hilda_MSFontService,sans-serif" font-weight="400" font-size="28" transform="matrix(1 0 0 1 2014.55 1027)">Mcc</text><g><text font-family="Hilda_MSFontService,sans-serif" font-weight="700" font-size="28" transform="matrix(1 0 0 1 1952.67 1060)">mnc: </text></g><text font-family="Hilda_MSFontService,sans-serif" font-weight="400" font-size="28" transform="matrix(1 0 0 1 2017.41 1060)">Mnc</text><g><text font-family="Hilda_MSFontService,sans-serif" font-weight="700" font-size="28" transform="matrix(1 0 0 1 1787.05 1027)">pLMNId:</text></g><g><text font-family="Hilda_MSFontService,sans-serif" font-weight="400" font-size="28" transform="matrix(1 0 0 1 1092.52 1606)">string {key}</text></g><g><text font-family="Hilda_MSFontService,sans-serif" font-weight="700" font-size="28" transform="matrix(1 0 0 1 894.234 1606)">id:</text></g><g><text font-family="Hilda_MSFontService,sans-serif" font-weight="400" font-size="28" transform="matrix(1 0 0 1 1092.52 1639)">u</text></g><g><text font-family="Hilda_MSFontService,sans-serif" font-weight="400" font-size="28" transform="matrix(1 0 0 1 1107.42 1639)">int32</text></g><g><text font-family="Hilda_MSFontService,sans-serif" font-weight="700" font-size="28" transform="matrix(1 0 0 1 894.234 1639)">cellLocalId: </text></g><g><text font-family="Hilda_MSFontService,sans-serif" font-weight="400" font-size="28" transform="matrix(1 0 0 1 1092.52 1672)">uint32</text></g><g><text font-family="Hilda_MSFontService,sans-serif" font-weight="700" font-size="28" transform="matrix(1 0 0 1 894.234 1672)">nCI: </text></g><g><text font-family="Hilda_MSFontService,sans-serif" font-weight="400" font-size="28" transform="matrix(1 0 0 1 1092.52 1705)">uint32</text></g><g><text font-family="Hilda_MSFontService,sans-serif" font-weight="700" font-size="28" transform="matrix(1 0 0 1 894.234 1705)">nRTAC:</text></g><g><text font-family="Hilda_MSFontService,sans-serif" font-weight="400" font-size="28" transform="matrix(1 0 0 1 1087.06 1916)">string {key}</text></g><g><text font-family="Hilda_MSFontService,sans-serif" font-weight="700" font-size="28" transform="matrix(1 0 0 1 882.3 1916)">id:</text></g><g><text font-family="Hilda_MSFontService,sans-serif" font-weight="400" font-size="28" transform="matrix(1 0 0 1 1087.06 1952)">u</text></g><g><text font-family="Hilda_MSFontService,sans-serif" font-weight="400" font-size="28" transform="matrix(1 0 0 1 1101.95 1952)">int32</text></g><g><text font-family="Hilda_MSFontService,sans-serif" font-weight="700" font-size="28" transform="matrix(1 0 0 1 882.3 1952)">cellLocalId: </text></g><g><text font-family="Hilda_MSFontService,sans-serif" font-weight="400" font-size="28" transform="matrix(1 0 0 1 1087.06 1987)">uint32</text></g><g><text font-family="Hilda_MSFontService,sans-serif" font-weight="700" font-size="28" transform="matrix(1 0 0 1 882.3 1987)">nCI: </text></g><g><text font-family="Hilda_MSFontService,sans-serif" font-weight="400" font-size="28" transform="matrix(1 0 0 1 1087.06 2023)">uint32</text></g><g><text font-family="Hilda_MSFontService,sans-serif" font-weight="700" font-size="28" transform="matrix(1 0 0 1 882.3 2023)">nRPCI:</text></g><g><text font-family="Hilda_MSFontService,sans-serif" font-weight="400" font-size="28" transform="matrix(1 0 0 1 1087.06 2058)">uint32</text></g><g><text font-family="Hilda_MSFontService,sans-serif" font-weight="700" font-size="28" transform="matrix(1 0 0 1 882.3 2058)">nRTAC</text></g><g><text font-family="Hilda_MSFontService,sans-serif" font-weight="400" font-size="28" transform="matrix(1 0 0 1 1094.91 2284)">string {key}</text></g><g><text font-family="Hilda_MSFontService,sans-serif" font-weight="700" font-size="28" transform="matrix(1 0 0 1 884.365 2284)">id:</text></g><g><text font-family="Hilda_MSFontService,sans-serif" font-weight="400" font-size="28" transform="matrix(1 0 0 1 1094.91 2322)">uint32</text></g><g><text font-family="Hilda_MSFontService,sans-serif" font-weight="700" font-size="28" transform="matrix(1 0 0 1 884.365 2322)">eNBId: </text></g><g><text font-family="Hilda_MSFontService,sans-serif" font-weight="400" font-size="28" transform="matrix(1 0 0 1 1158.44 2452)">string {key}</text></g><g><text font-family="Hilda_MSFontService,sans-serif" font-weight="700" font-size="28" transform="matrix(1 0 0 1 871.853 2452)">id:</text></g><g><text font-family="Hilda_MSFontService,sans-serif" font-weight="400" font-size="28" transform="matrix(1 0 0 1 1158.44 2486)">uint32</text></g><g><text font-family="Hilda_MSFontService,sans-serif" font-weight="700" font-size="28" transform="matrix(1 0 0 1 871.853 2486)">cellId</text></g><text font-family="Hilda_MSFontService,sans-serif" font-weight="400" font-size="28" transform="matrix(1 0 0 1 940.603 2486)">:</text><g><text font-family="Hilda_MSFontService,sans-serif" font-weight="400" font-size="28" transform="matrix(1 0 0 1 1158.44 2520)">uint32</text></g><g><text font-family="Hilda_MSFontService,sans-serif" font-weight="700" font-size="28" transform="matrix(1 0 0 1 871.853 2520)">earfcndl</text></g><g><text font-family="Hilda_MSFontService,sans-serif" font-weight="400" font-size="28" transform="matrix(1 0 0 1 1158.44 2555)">uint32</text></g><g><text font-family="Hilda_MSFontService,sans-serif" font-weight="700" font-size="28" transform="matrix(1 0 0 1 871.853 2555)">earfcnul</text></g><g><text font-family="Calibri,Calibri_MSFontService,sans-serif" font-weight="400" font-size="28" transform="matrix(1 0 0 1 1158.44 2589)">uint32</text></g><g><text font-family="Calibri,Calibri_MSFontService,sans-serif" font-weight="700" font-size="28" transform="matrix(1 0 0 1 871.853 2589)">dlChannelBandwidth</text></g><text font-family="Calibri,Calibri_MSFontService,sans-serif" font-weight="700" font-size="28" transform="matrix(1 0 0 1 1113.05 2589)">: </text><g><text font-family="Hilda_MSFontService,sans-serif" font-weight="400" font-size="28" transform="matrix(1 0 0 1 1158.44 2624)">uint32</text></g><g><text font-family="Hilda_MSFontService,sans-serif" font-weight="700" font-size="28" transform="matrix(1 0 0 1 871.853 2624)">Earfcn</text></g><g><text font-family="Calibri,Calibri_MSFontService,sans-serif" font-weight="400" font-size="28" transform="matrix(1 0 0 1 1158.44 2658)">uint32</text></g><g><text font-family="Calibri,Calibri_MSFontService,sans-serif" font-weight="700" font-size="28" transform="matrix(1 0 0 1 871.853 2658)">channelBandwidth</text></g><text font-family="Calibri,Calibri_MSFontService,sans-serif" font-weight="700" font-size="28" transform="matrix(1 0 0 1 1088.42 2658)">: </text><g><text font-family="Hilda_MSFontService,sans-serif" font-weight="400" font-size="28" transform="matrix(1 0 0 1 1158.44 2692)">uint32</text></g><g><text font-family="Hilda_MSFontService,sans-serif" font-weight="700" font-size="28" transform="matrix(1 0 0 1 871.853 2692)">tac:</text></g><g><text font-family="Hilda_MSFontService,sans-serif" font-weight="400" font-size="28" transform="matrix(1 0 0 1 1158.44 2727)">enum: {fdd, tdd}</text></g><g><text font-family="Hilda_MSFontService,sans-serif" font-weight="700" font-size="28" transform="matrix(1 0 0 1 871.853 2727)">duplexType:</text></g><g><text font-family="Hilda_MSFontService,sans-serif" font-weight="400" font-size="28" transform="matrix(1 0 0 1 1153.57 2851)">string {key}</text></g><g><text font-family="Hilda_MSFontService,sans-serif" font-weight="700" font-size="28" transform="matrix(1 0 0 1 874.648 2851)">id:</text></g><g><text font-family="Hilda_MSFontService,sans-serif" font-weight="400" font-size="28" transform="matrix(1 0 0 1 1153.57 2886)">uint32</text></g><g><text font-family="Hilda_MSFontService,sans-serif" font-weight="700" font-size="28" transform="matrix(1 0 0 1 874.648 2886)">arfcnDL</text></g><text font-family="Hilda_MSFontService,sans-serif" font-weight="400" font-size="28" transform="matrix(1 0 0 1 972.043 2886)">:</text><g><text font-family="Hilda_MSFontService,sans-serif" font-weight="400" font-size="28" transform="matrix(1 0 0 1 1153.57 2920)">uint32</text></g><g><text font-family="Hilda_MSFontService,sans-serif" font-weight="700" font-size="28" transform="matrix(1 0 0 1 874.648 2920)">arFcnUL</text></g><text font-family="Hilda_MSFontService,sans-serif" font-weight="700" font-size="28" transform="matrix(1 0 0 1 977.773 2920)">:</text><g><text font-family="Hilda_MSFontService,sans-serif" font-weight="400" font-size="28" transform="matrix(1 0 0 1 1153.57 2955)">uint32</text></g><g><text font-family="Hilda_MSFontService,sans-serif" font-weight="700" font-size="28" transform="matrix(1 0 0 1 874.648 2955)">frequencyDL</text></g><g><text font-family="Hilda_MSFontService,sans-serif" font-weight="400" font-size="28" transform="matrix(1 0 0 1 1153.57 2990)">uint32</text></g><g><text font-family="Hilda_MSFontService,sans-serif" font-weight="700" font-size="28" transform="matrix(1 0 0 1 874.648 2990)">frequencyUL:</text></g><g><text font-family="Calibri,Calibri_MSFontService,sans-serif" font-weight="400" font-size="28" transform="matrix(1 0 0 1 1153.57 3025)">uint32</text></g><g><text font-family="Calibri,Calibri_MSFontService,sans-serif" font-weight="700" font-size="28" transform="matrix(1 0 0 1 874.648 3025)">bSChannelBwDL</text></g><text font-family="Calibri,Calibri_MSFontService,sans-serif" font-weight="700" font-size="28" transform="matrix(1 0 0 1 1060.85 3025)">:</text><g><text font-family="Hilda_MSFontService,sans-serif" font-weight="400" font-size="28" transform="matrix(1 0 0 1 1136.3 3212)">string {key}</text></g><g><text font-family="Hilda_MSFontService,sans-serif" font-weight="700" font-size="28" transform="matrix(1 0 0 1 867.668 3212)">id:</text></g><g><text font-family="Hilda_MSFontService,sans-serif" font-weight="700" font-size="28" transform="matrix(1 0 0 1 1136.3 3249)">enum</text></g><text font-family="Hilda_MSFontService,sans-serif" font-weight="400" font-size="28" transform="matrix(1 0 0 1 1205.05 3249)">: {</text><text font-family="Hilda_MSFontService,sans-serif" font-weight="400" font-size="28" transform="matrix(1 0 0 1 1228.54 3249)">normal_sector</text><text font-family="Hilda_MSFontService,sans-serif" font-weight="400" font-size="28" transform="matrix(1 0 0 1 1396.4 3249)">, </text><text font-family="Hilda_MSFontService,sans-serif" font-weight="400" font-size="28" transform="matrix(1 0 0 1 1408.43 3249)">left_digital_sector</text><g><text font-family="Hilda_MSFontService,sans-serif" font-weight="400" font-size="28" transform="matrix(1 0 0 1 1619.27 3249)">, </text></g><g><text font-family="Hilda_MSFontService,sans-serif" font-weight="400" font-size="28" transform="matrix(1 0 0 1 1136.3 3282)">right_digital_sector</text></g><text font-family="Hilda_MSFontService,sans-serif" font-weight="400" font-size="28" transform="matrix(1 0 0 1 1363.17 3282)">,...}</text><g><text font-family="Hilda_MSFontService,sans-serif" font-weight="700" font-size="28" transform="matrix(1 0 0 1 867.668 3249)">sectorCarrierType</text></g><g><text font-family="Hilda_MSFontService,sans-serif" font-weight="400" font-size="28" transform="matrix(1 0 0 1 1139.64 3455)">string {key}</text></g><g><text font-family="Hilda_MSFontService,sans-serif" font-weight="700" font-size="28" transform="matrix(1 0 0 1 874.648 3455)">id:</text></g><g><text font-family="Hilda_MSFontService,sans-serif" font-weight="400" font-size="28" transform="matrix(1 0 0 1 1139.64 3490)">string</text></g><g><text font-family="Hilda_MSFontService,sans-serif" font-weight="700" font-size="28" transform="matrix(1 0 0 1 874.648 3490)">eUtranFqBands</text></g><text font-family="Hilda_MSFontService,sans-serif" font-weight="700" font-size="28" transform="matrix(1 0 0 1 1071.73 3490)">[]</text><text font-family="Hilda_MSFontService,sans-serif" font-weight="400" font-size="28" transform="matrix(1 0 0 1 1092.36 3490)">:</text><g><text font-family="Hilda_MSFontService,sans-serif" font-weight="400" font-size="28" transform="matrix(1 0 0 1 1139.64 3525)">string</text></g><g><text font-family="Hilda_MSFontService,sans-serif" font-weight="700" font-size="28" transform="matrix(1 0 0 1 874.648 3525)">geranFqBands</text></g><text font-family="Hilda_MSFontService,sans-serif" font-weight="700" font-size="28" transform="matrix(1 0 0 1 1059.13 3525)">[]:</text><g><text font-family="Hilda_MSFontService,sans-serif" font-weight="400" font-size="28" transform="matrix(1 0 0 1 1139.64 3560)">string</text></g><g><text font-family="Hilda_MSFontService,sans-serif" font-weight="700" font-size="28" transform="matrix(1 0 0 1 874.648 3560)">nRFqBands</text></g><text font-family="Hilda_MSFontService,sans-serif" font-weight="700" font-size="28" transform="matrix(1 0 0 1 1021.89 3560)">[]</text><text font-family="Hilda_MSFontService,sans-serif" font-weight="400" font-size="28" transform="matrix(1 0 0 1 1042.51 3560)">:</text><g><text font-family="Hilda_MSFontService,sans-serif" font-weight="700" font-size="28" transform="matrix(1 0 0 1 1974.41 1631)">mcc: </text></g><text font-family="Hilda_MSFontService,sans-serif" font-weight="400" font-size="28" transform="matrix(1 0 0 1 2036.28 1631)">Mcc</text><g><text font-family="Hilda_MSFontService,sans-serif" font-weight="700" font-size="28" transform="matrix(1 0 0 1 1974.41 1664)">mnc: </text></g><text font-family="Hilda_MSFontService,sans-serif" font-weight="400" font-size="28" transform="matrix(1 0 0 1 2039.15 1664)">Mnc</text><g><text font-family="Hilda_MSFontService,sans-serif" font-weight="700" font-size="28" transform="matrix(1 0 0 1 1781.44 1631)">pLMNId:</text></g><g><text font-family="Hilda_MSFontService,sans-serif" font-weight="700" font-size="28" transform="matrix(1 0 0 1 2002.76 2279)">mcc: </text></g><text font-family="Hilda_MSFontService,sans-serif" font-weight="400" font-size="28" transform="matrix(1 0 0 1 2064.63 2279)">int32 [0..999]</text><g><text font-family="Hilda_MSFontService,sans-serif" font-weight="700" font-size="28" transform="matrix(1 0 0 1 2002.76 2312)">mnc: </text></g><text font-family="Hilda_MSFontService,sans-serif" font-weight="400" font-size="28" transform="matrix(1 0 0 1 2067.5 2312)">int32 [0..999]</text><g><text font-family="Hilda_MSFontService,sans-serif" font-weight="700" font-size="28" transform="matrix(1 0 0 1 2002.76 2345)">mncLength: </text></g><g><text font-family="Hilda_MSFontService,sans-serif" font-weight="400" font-size="28" transform="matrix(1 0 0 1 2152.86 2345)">int32 [2..3]</text></g><g><text font-family="Hilda_MSFontService,sans-serif" font-weight="700" font-size="28" transform="matrix(1 0 0 1 1773.84 2279)">eNodeBPlmnId:</text></g><rect x="223" y="3672" width="452" height="79" stroke="#000000" stroke-width="5.72917" stroke-miterlimit="8" fill="#D0CECE"/><text font-family="Hilda_MSFontService,sans-serif" font-weight="400" font-size="37" transform="matrix(1 0 0 1 399.257 3725)">Sector</text><rect x="839" y="3650" width="735" height="123" stroke="#000000" stroke-width="5.72917" stroke-miterlimit="8" fill="none"/><rect x="1744" y="3660" width="557" height="103" stroke="#000000" stroke-width="5.72917" stroke-miterlimit="8" fill="none"/><path d="M0.00215806-2.86458 163.835-2.74116 163.831 2.98801-0.00215806 2.86458ZM163.843-13.6266C171.437-13.6208 177.589-7.46013 177.583 0.133784 177.577 7.7277 171.416 13.8791 163.823 13.8734 156.229 13.8677 150.077 7.70698 150.083 0.113067 150.089-7.48085 156.249-13.6323 163.843-13.6266Z" transform="matrix(1 0 0 -1 675 3711.12)"/><path d="M1574 3708.14 1744.22 3708.26 1744.22 3713.99 1574 3713.86ZM1744.23 3697.37C1751.82 3697.38 1757.98 3703.54 1757.97 3711.13 1757.96 3718.73 1751.8 3724.88 1744.21 3724.87 1736.62 3724.87 1730.46 3718.71 1730.47 3711.11 1730.48 3703.52 1736.64 3697.37 1744.23 3697.37Z"/><g><text font-family="Hilda_MSFontService,sans-serif" font-weight="400" font-size="28" transform="matrix(1 0 0 1 1135.03 3689)">string {key}</text></g><g><text font-family="Calibri,Calibri_MSFontService,sans-serif" font-weight="700" font-size="28" transform="matrix(1 0 0 1 870.041 3689)">id:</text></g><g><text font-family="Hilda_MSFontService,sans-serif" font-weight="400" font-size="28" transform="matrix(1 0 0 1 1135.03 3725)">uint64</text></g><g><text font-family="Hilda_MSFontService,sans-serif" font-weight="700" font-size="28" transform="matrix(1 0 0 1 870.041 3725)">sectorid</text></g><text font-family="Hilda_MSFontService,sans-serif" font-weight="700" font-size="28" transform="matrix(1 0 0 1 966.864 3725)">:</text><g><text font-family="Hilda_MSFontService,sans-serif" font-weight="400" font-size="28" transform="matrix(1 0 0 1 1135.03 3760)">decimal64 {degrees}</text></g><g><text font-family="Hilda_MSFontService,sans-serif" font-weight="700" font-size="28" transform="matrix(1 0 0 1 870.041 3760)">azimuth</text></g><text font-family="Hilda_MSFontService,sans-serif" font-weight="400" font-size="28" transform="matrix(1 0 0 1 970.874 3760)">:</text><g><text font-family="Hilda_MSFontService,sans-serif" font-weight="700" font-size="28" transform="matrix(1 0 0 1 1894.65 3708)">timestamp  </text></g><text font-family="Hilda_MSFontService,sans-serif" font-weight="400" font-size="28" transform="matrix(1 0 0 1 2037.31 3708)">yang:date</text><text font-family="Hilda_MSFontService,sans-serif" font-weight="400" font-size="28" transform="matrix(1 0 0 1 2155.33 3708)">-</text><text font-family="Hilda_MSFontService,sans-serif" font-weight="400" font-size="28" transform="matrix(1 0 0 1 2165.64 3708)">and</text><text font-family="Hilda_MSFontService,sans-serif" font-weight="400" font-size="28" transform="matrix(1 0 0 1 2210.33 3708)">-</text><text font-family="Hilda_MSFontService,sans-serif" font-weight="400" font-size="28" transform="matrix(1 0 0 1 2220.64 3708)">time</text><g><text font-family="Hilda_MSFontService,sans-serif" font-weight="700" font-size="28" transform="matrix(1 0 0 1 1894.65 3741)">valid</text></g><text font-family="Hilda_MSFontService,sans-serif" font-weight="700" font-size="28" transform="matrix(1 0 0 1 1955.38 3741)">-</text><text font-family="Hilda_MSFontService,sans-serif" font-weight="700" font-size="28" transform="matrix(1 0 0 1 1966.27 3741)">until: </text><text font-family="Hilda_MSFontService,sans-serif" font-weight="400" font-size="28" transform="matrix(1 0 0 1 2035.02 3741)">yang:date</text><text font-family="Hilda_MSFontService,sans-serif" font-weight="400" font-size="28" transform="matrix(1 0 0 1 2153.04 3741)">-</text><text font-family="Hilda_MSFontService,sans-serif" font-weight="400" font-size="28" transform="matrix(1 0 0 1 2163.35 3741)">and</text><text font-family="Hilda_MSFontService,sans-serif" font-weight="400" font-size="28" transform="matrix(1 0 0 1 2208.04 3741)">-</text><text font-family="Hilda_MSFontService,sans-serif" font-weight="400" font-size="28" transform="matrix(1 0 0 1 2218.35 3741)">time</text><g><text font-family="Hilda_MSFontService,sans-serif" font-weight="700" font-size="28" transform="matrix(1 0 0 1 1771.03 3708)">geo</text></g><text font-family="Hilda_MSFontService,sans-serif" font-weight="700" font-size="28" transform="matrix(1 0 0 1 1815.72 3708)">-</text><g><text font-family="Hilda_MSFontService,sans-serif" font-weight="700" font-size="28" transform="matrix(1 0 0 1 1771.03 3741)">location</text></g><text font-family="Hilda_MSFontService,sans-serif" font-weight="700" font-size="28" transform="matrix(1 0 0 1 1869 3741)">:</text><path d="M215 429.865 132.5 429.865 135.364 427 135.364 3711.56 132.5 3708.69 223.706 3708.69 223.706 3714.42 129.635 3714.42 129.635 424.135 215 424.135ZM223.706 3697.81C231.3 3697.81 237.456 3703.96 237.456 3711.56 237.456 3719.15 231.3 3725.31 223.706 3725.31 216.112 3725.31 209.956 3719.15 209.956 3711.56 209.956 3703.96 216.112 3697.81 223.706 3697.81Z"/><rect x="839" y="3826" width="735" height="97" stroke="#000000" stroke-width="5.72917" stroke-miterlimit="8" fill="none"/><g><text font-family="Hilda_MSFontService,sans-serif" font-weight="400" font-size="28" transform="matrix(1 0 0 1 1135.03 3871)">s</text></g><g><text font-family="Hilda_MSFontService,sans-serif" font-weight="400" font-size="28" transform="matrix(1 0 0 1 1147.06 3871)">tring</text></g><g><text font-family="Hilda_MSFontService,sans-serif" font-weight="700" font-size="28" transform="matrix(1 0 0 1 870.041 3871)">alternate</text></g><text font-family="Hilda_MSFontService,sans-serif" font-weight="700" font-size="28" transform="matrix(1 0 0 1 982.333 3871)">-</text><text font-family="Hilda_MSFontService,sans-serif" font-weight="700" font-size="28" transform="matrix(1 0 0 1 993.218 3871)">system:</text><g><text font-family="Hilda_MSFontService,sans-serif" font-weight="400" font-size="28" transform="matrix(1 0 0 1 1135.03 3906)">string</text></g><g><text font-family="Hilda_MSFontService,sans-serif" font-weight="700" font-size="28" transform="matrix(1 0 0 1 870.041 3906)">astronomical</text></g><text font-family="Hilda_MSFontService,sans-serif" font-weight="700" font-size="28" transform="matrix(1 0 0 1 1029.31 3906)">-</text><text font-family="Hilda_MSFontService,sans-serif" font-weight="700" font-size="28" transform="matrix(1 0 0 1 1040.2 3906)">body</text><text font-family="Hilda_MSFontService,sans-serif" font-weight="400" font-size="28" transform="matrix(1 0 0 1 1100.35 3906)">:</text><rect x="834" y="3958" width="734" height="123" stroke="#000000" stroke-width="5.72917" stroke-miterlimit="8" fill="none"/><g><text font-family="Hilda_MSFontService,sans-serif" font-weight="400" font-size="28" transform="matrix(1 0 0 1 1135.03 3997)">decimal64</text></g><g><text font-family="Hilda_MSFontService,sans-serif" font-weight="700" font-size="28" transform="matrix(1 0 0 1 870.041 3997)">v</text></g><g><text font-family="Hilda_MSFontService,sans-serif" font-weight="700" font-size="28" transform="matrix(1 0 0 1 884.937 3997)">-</text></g><text font-family="Hilda_MSFontService,sans-serif" font-weight="700" font-size="28" transform="matrix(1 0 0 1 895.822 3997)">north:</text><g><text font-family="Hilda_MSFontService,sans-serif" font-weight="400" font-size="28" transform="matrix(1 0 0 1 1135.03 4032)">decimal64</text></g><g><text font-family="Hilda_MSFontService,sans-serif" font-weight="700" font-size="28" transform="matrix(1 0 0 1 870.041 4032)">v</text></g><g><text font-family="Hilda_MSFontService,sans-serif" font-weight="700" font-size="28" transform="matrix(1 0 0 1 884.937 4032)">-</text></g><text font-family="Hilda_MSFontService,sans-serif" font-weight="700" font-size="28" transform="matrix(1 0 0 1 895.822 4032)">east:</text><g><text font-family="Hilda_MSFontService,sans-serif" font-weight="400" font-size="28" transform="matrix(1 0 0 1 1135.03 4067)">decimal64</text></g><g><text font-family="Hilda_MSFontService,sans-serif" font-weight="700" font-size="28" transform="matrix(1 0 0 1 870.041 4067)">v</text></g><g><text font-family="Hilda_MSFontService,sans-serif" font-weight="700" font-size="28" transform="matrix(1 0 0 1 884.937 4067)">-</text></g><text font-family="Hilda_MSFontService,sans-serif" font-weight="700" font-size="28" transform="matrix(1 0 0 1 895.822 4067)">up:</text><rect x="834" y="4139" width="734" height="62" stroke="#000000" stroke-width="5.72917" stroke-miterlimit="8" fill="none"/><g><text font-family="Hilda_MSFontService,sans-serif" font-weight="400" font-size="28" transform="matrix(1 0 0 1 1132.66 4179)">location</text></g><g><text font-family="Hilda_MSFontService,sans-serif" font-weight="700" font-size="28" transform="matrix(1 0 0 1 867.668 4179)">choice</text></g><path d="M2024.91 3763 2024.91 3797.32 756.495 3797.32 759.359 3794.45 759.359 3874.25 756.495 3871.38 839 3871.38 839 3877.11 753.63 3877.11 753.63 3791.59 2022.04 3791.59 2019.18 3794.45 2019.18 3763ZM839 3860.5C846.594 3860.5 852.75 3866.65 852.75 3874.25 852.75 3881.84 846.594 3888 839 3888 831.406 3888 825.25 3881.84 825.25 3874.25 825.25 3866.65 831.406 3860.5 839 3860.5Z"/><path d="M2025.45 3763 2025.45 3796.62 755.815 3796.62 758.679 3793.76 758.679 4019.48 755.815 4016.61 834 4016.61 834 4022.34 752.95 4022.34 752.95 3790.89 2022.59 3790.89 2019.72 3793.76 2019.72 3763ZM834 4005.73C841.594 4005.73 847.75 4011.88 847.75 4019.48 847.75 4027.07 841.594 4033.23 834 4033.23 826.406 4033.23 820.25 4027.07 820.25 4019.48 820.25 4011.88 826.406 4005.73 834 4005.73Z"/><path d="M2025.45 3763 2025.45 3768.73 2019.72 3768.73 2019.72 3763ZM2025.45 3774.46 2025.45 3780.19 2019.72 3780.19 2019.72 3774.46ZM2025.45 3785.92 2025.45 3791.65 2019.72 3791.65 2019.72 3785.92ZM2018.67 3796.32 2012.94 3796.32 2012.94 3790.59 2018.67 3790.59ZM2007.21 3796.32 2001.48 3796.32 2001.48 3790.59 2007.21 3790.59ZM1995.76 3796.32 1990.03 3796.32 1990.03 3790.59 1995.76 3790.59ZM1984.3 3796.32 1978.57 3796.32 1978.57 3790.59 1984.3 3790.59ZM1972.84 3796.32 1967.11 3796.32 1967.11 3790.59 1972.84 3790.59ZM1961.38 3796.32 1955.65 3796.32 1955.65 3790.59 1961.38 3790.59ZM1949.92 3796.32 1944.19 3796.32 1944.19 3790.59 1949.92 3790.59ZM1938.46 3796.32 1932.73 3796.32 1932.73 3790.59 1938.46 3790.59ZM1927.01 3796.32 1921.28 3796.32 1921.28 3790.59 1927.01 3790.59ZM1915.55 3796.32 1909.82 3796.32 1909.82 3790.59 1915.55 3790.59ZM1904.09 3796.32 1898.36 3796.32 1898.36 3790.59 1904.09 3790.59ZM1892.63 3796.32 1886.9 3796.32 1886.9 3790.59 1892.63 3790.59ZM1881.17 3796.32 1875.44 3796.32 1875.44 3790.59 1881.17 3790.59ZM1869.71 3796.32 1863.98 3796.32 1863.98 3790.59 1869.71 3790.59ZM1858.26 3796.32 1852.53 3796.32 1852.53 3790.59 1858.26 3790.59ZM1846.8 3796.32 1841.07 3796.32 1841.07 3790.59 1846.8 3790.59ZM1835.34 3796.32 1829.61 3796.32 1829.61 3790.59 1835.34 3790.59ZM1823.88 3796.32 1818.15 3796.32 1818.15 3790.59 1823.88 3790.59ZM1812.42 3796.32 1806.69 3796.32 1806.69 3790.59 1812.42 3790.59ZM1800.96 3796.32 1795.23 3796.32 1795.23 3790.59 1800.96 3790.59ZM1789.51 3796.32 1783.78 3796.32 1783.78 3790.59 1789.51 3790.59ZM1778.05 3796.32 1772.32 3796.32 1772.32 3790.59 1778.05 3790.59ZM1766.59 3796.32 1760.86 3796.32 1760.86 3790.59 1766.59 3790.59ZM1755.13 3796.32 1749.4 3796.32 1749.4 3790.59 1755.13 3790.59ZM1743.67 3796.32 1737.94 3796.32 1737.94 3790.59 1743.67 3790.59ZM1732.21 3796.32 1726.48 3796.32 1726.48 3790.59 1732.21 3790.59ZM1720.76 3796.32 1715.03 3796.32 1715.03 3790.59 1720.76 3790.59ZM1709.3 3796.32 1703.57 3796.32 1703.57 3790.59 1709.3 3790.59ZM1697.84 3796.32 1692.11 3796.32 1692.11 3790.59 1697.84 3790.59ZM1686.38 3796.32 1680.65 3796.32 1680.65 3790.59 1686.38 3790.59ZM1674.92 3796.32 1669.19 3796.32 1669.19 3790.59 1674.92 3790.59ZM1663.46 3796.32 1657.73 3796.32 1657.73 3790.59 1663.46 3790.59ZM1652.01 3796.32 1646.28 3796.32 1646.28 3790.59 1652.01 3790.59ZM1640.55 3796.32 1634.82 3796.32 1634.82 3790.59 1640.55 3790.59ZM1629.09 3796.32 1623.36 3796.32 1623.36 3790.59 1629.09 3790.59ZM1617.63 3796.32 1611.9 3796.32 1611.9 3790.59 1617.63 3790.59ZM1606.17 3796.32 1600.44 3796.32 1600.44 3790.59 1606.17 3790.59ZM1594.71 3796.32 1588.98 3796.32 1588.98 3790.59 1594.71 3790.59ZM1583.26 3796.32 1577.53 3796.32 1577.53 3790.59 1583.26 3790.59ZM1571.8 3796.32 1566.07 3796.32 1566.07 3790.59 1571.8 3790.59ZM1560.34 3796.32 1554.61 3796.32 1554.61 3790.59 1560.34 3790.59ZM1548.88 3796.32 1543.15 3796.32 1543.15 3790.59 1548.88 3790.59ZM1537.42 3796.32 1531.69 3796.32 1531.69 3790.59 1537.42 3790.59ZM1525.96 3796.32 1520.23 3796.32 1520.23 3790.59 1525.96 3790.59ZM1514.51 3796.32 1508.78 3796.32 1508.78 3790.59 1514.51 3790.59ZM1503.05 3796.32 1497.32 3796.32 1497.32 3790.59 1503.05 3790.59ZM1491.59 3796.32 1485.86 3796.32 1485.86 3790.59 1491.59 3790.59ZM1480.13 3796.32 1474.4 3796.32 1474.4 3790.59 1480.13 3790.59ZM1468.67 3796.32 1462.94 3796.32 1462.94 3790.59 1468.67 3790.59ZM1457.21 3796.32 1451.48 3796.32 1451.48 3790.59 1457.21 3790.59ZM1445.76 3796.32 1440.03 3796.32 1440.03 3790.59 1445.76 3790.59ZM1434.3 3796.32 1428.57 3796.32 1428.57 3790.59 1434.3 3790.59ZM1422.84 3796.32 1417.11 3796.32 1417.11 3790.59 1422.84 3790.59ZM1411.38 3796.32 1405.65 3796.32 1405.65 3790.59 1411.38 3790.59ZM1399.92 3796.32 1394.19 3796.32 1394.19 3790.59 1399.92 3790.59ZM1388.46 3796.32 1382.73 3796.32 1382.73 3790.59 1388.46 3790.59ZM1377.01 3796.32 1371.28 3796.32 1371.28 3790.59 1377.01 3790.59ZM1365.55 3796.32 1359.82 3796.32 1359.82 3790.59 1365.55 3790.59ZM1354.09 3796.32 1348.36 3796.32 1348.36 3790.59 1354.09 3790.59ZM1342.63 3796.32 1336.9 3796.32 1336.9 3790.59 1342.63 3790.59ZM1331.17 3796.32 1325.44 3796.32 1325.44 3790.59 1331.17 3790.59ZM1319.71 3796.32 1313.98 3796.32 1313.98 3790.59 1319.71 3790.59ZM1308.26 3796.32 1302.53 3796.32 1302.53 3790.59 1308.26 3790.59ZM1296.8 3796.32 1291.07 3796.32 1291.07 3790.59 1296.8 3790.59ZM1285.34 3796.32 1279.61 3796.32 1279.61 3790.59 1285.34 3790.59ZM1273.88 3796.32 1268.15 3796.32 1268.15 3790.59 1273.88 3790.59ZM1262.42 3796.32 1256.69 3796.32 1256.69 3790.59 1262.42 3790.59ZM1250.96 3796.32 1245.23 3796.32 1245.23 3790.59 1250.96 3790.59ZM1239.5 3796.32 1233.78 3796.32 1233.78 3790.59 1239.5 3790.59ZM1228.05 3796.32 1222.32 3796.32 1222.32 3790.59 1228.05 3790.59ZM1216.59 3796.32 1210.86 3796.32 1210.86 3790.59 1216.59 3790.59ZM1205.13 3796.32 1199.4 3796.32 1199.4 3790.59 1205.13 3790.59ZM1193.67 3796.32 1187.94 3796.32 1187.94 3790.59 1193.67 3790.59ZM1182.21 3796.32 1176.48 3796.32 1176.48 3790.59 1182.21 3790.59ZM1170.75 3796.32 1165.03 3796.32 1165.03 3790.59 1170.75 3790.59ZM1159.3 3796.32 1153.57 3796.32 1153.57 3790.59 1159.3 3790.59ZM1147.84 3796.32 1142.11 3796.32 1142.11 3790.59 1147.84 3790.59ZM1136.38 3796.32 1130.65 3796.32 1130.65 3790.59 1136.38 3790.59ZM1124.92 3796.32 1119.19 3796.32 1119.19 3790.59 1124.92 3790.59ZM1113.46 3796.32 1107.73 3796.32 1107.73 3790.59 1113.46 3790.59ZM1102 3796.32 1096.28 3796.32 1096.28 3790.59 1102 3790.59ZM1090.55 3796.32 1084.82 3796.32 1084.82 3790.59 1090.55 3790.59ZM1079.09 3796.32 1073.36 3796.32 1073.36 3790.59 1079.09 3790.59ZM1067.63 3796.32 1061.9 3796.32 1061.9 3790.59 1067.63 3790.59ZM1056.17 3796.32 1050.44 3796.32 1050.44 3790.59 1056.17 3790.59ZM1044.71 3796.32 1038.98 3796.32 1038.98 3790.59 1044.71 3790.59ZM1033.25 3796.32 1027.53 3796.32 1027.53 3790.59 1033.25 3790.59ZM1021.8 3796.32 1016.07 3796.32 1016.07 3790.59 1021.8 3790.59ZM1010.34 3796.32 1004.61 3796.32 1004.61 3790.59 1010.34 3790.59ZM998.88 3796.32 993.151 3796.32 993.151 3790.59 998.88 3790.59ZM987.422 3796.32 981.693 3796.32 981.693 3790.59 987.422 3790.59ZM975.963 3796.32 970.234 3796.32 970.234 3790.59 975.963 3790.59ZM964.505 3796.32 958.776 3796.32 958.776 3790.59 964.505 3790.59ZM953.047 3796.32 947.318 3796.32 947.318 3790.59 953.047 3790.59ZM941.588 3796.32 935.859 3796.32 935.859 3790.59 941.588 3790.59ZM930.13 3796.32 924.401 3796.32 924.401 3790.59 930.13 3790.59ZM918.672 3796.32 912.943 3796.32 912.943 3790.59 918.672 3790.59ZM907.213 3796.32 901.484 3796.32 901.484 3790.59 907.213 3790.59ZM895.755 3796.32 890.026 3796.32 890.026 3790.59 895.755 3790.59ZM884.297 3796.32 878.568 3796.32 878.568 3790.59 884.297 3790.59ZM872.838 3796.32 867.109 3796.32 867.109 3790.59 872.838 3790.59ZM861.38 3796.32 855.651 3796.32 855.651 3790.59 861.38 3790.59ZM849.922 3796.32 844.193 3796.32 844.193 3790.59 849.922 3790.59ZM838.463 3796.32 832.734 3796.32 832.734 3790.59 838.463 3790.59ZM827.005 3796.32 821.276 3796.32 821.276 3790.59 827.005 3790.59ZM815.547 3796.32 809.818 3796.32 809.818 3790.59 815.547 3790.59ZM804.088 3796.32 798.359 3796.32 798.359 3790.59 804.088 3790.59ZM792.63 3796.32 786.901 3796.32 786.901 3790.59 792.63 3790.59ZM781.172 3796.32 775.443 3796.32 775.443 3790.59 781.172 3790.59ZM769.713 3796.32 763.984 3796.32 763.984 3790.59 769.713 3790.59ZM758.255 3796.32 755.826 3796.32 758.691 3793.46 758.691 3796.76 752.962 3796.76 752.962 3790.59 758.255 3790.59ZM758.691 3802.49 758.691 3808.22 752.962 3808.22 752.962 3802.49ZM758.691 3813.95 758.691 3819.68 752.962 3819.68 752.962 3813.95ZM758.691 3825.41 758.691 3831.13 752.962 3831.13 752.962 3825.41ZM758.691 3836.86 758.691 3842.59 752.962 3842.59 752.962 3836.86ZM758.691 3848.32 758.691 3854.05 752.962 3854.05 752.962 3848.32ZM758.691 3859.78 758.691 3865.51 752.962 3865.51 752.962 3859.78ZM758.691 3871.24 758.691 3876.97 752.962 3876.97 752.962 3871.24ZM758.691 3882.7 758.691 3888.43 752.962 3888.43 752.962 3882.7ZM758.691 3894.16 758.691 3899.88 752.962 3899.88 752.962 3894.16ZM758.691 3905.61 758.691 3911.34 752.962 3911.34 752.962 3905.61ZM758.691 3917.07 758.691 3922.8 752.962 3922.8 752.962 3917.07ZM758.691 3928.53 758.691 3934.26 752.962 3934.26 752.962 3928.53ZM758.691 3939.99 758.691 3945.72 752.962 3945.72 752.962 3939.99ZM758.691 3951.45 758.691 3957.18 752.962 3957.18 752.962 3951.45ZM758.691 3962.91 758.691 3968.63 752.962 3968.63 752.962 3962.91ZM758.691 3974.36 758.691 3980.09 752.962 3980.09 752.962 3974.36ZM758.691 3985.82 758.691 3991.55 752.962 3991.55 752.962 3985.82ZM758.691 3997.28 758.691 4003.01 752.962 4003.01 752.962 3997.28ZM758.691 4008.74 758.691 4014.47 752.962 4014.47 752.962 4008.74ZM758.691 4020.2 758.691 4025.93 752.962 4025.93 752.962 4020.2ZM758.691 4031.66 758.691 4037.38 752.962 4037.38 752.962 4031.66ZM758.691 4043.11 758.691 4048.84 752.962 4048.84 752.962 4043.11ZM758.691 4054.57 758.691 4060.3 752.962 4060.3 752.962 4054.57ZM758.691 4066.03 758.691 4071.76 752.962 4071.76 752.962 4066.03ZM758.691 4077.49 758.691 4083.22 752.962 4083.22 752.962 4077.49ZM758.691 4088.95 758.691 4094.68 752.962 4094.68 752.962 4088.95ZM758.691 4100.4 758.691 4106.13 752.962 4106.13 752.962 4100.4ZM758.691 4111.86 758.691 4117.59 752.962 4117.59 752.962 4111.86ZM758.691 4123.32 758.691 4129.05 752.962 4129.05 752.962 4123.32ZM758.691 4134.78 758.691 4140.51 752.962 4140.51 752.962 4134.78ZM758.691 4146.24 758.691 4151.97 752.962 4151.97 752.962 4146.24ZM758.691 4157.7 758.691 4163.43 752.962 4163.43 752.962 4157.7ZM758.691 4169.15 758.691 4169.71 755.826 4166.85 760.999 4166.85 760.999 4172.58 752.962 4172.58 752.962 4169.15ZM766.728 4166.85 772.457 4166.85 772.457 4172.58 766.728 4172.58ZM778.187 4166.85 783.916 4166.85 783.916 4172.58 778.187 4172.58ZM789.645 4166.85 795.374 4166.85 795.374 4172.58 789.645 4172.58ZM801.103 4166.85 806.832 4166.85 806.832 4172.58 801.103 4172.58ZM812.562 4166.85 818.291 4166.85 818.291 4172.58 812.562 4172.58ZM824.02 4166.85 829.749 4166.85 829.749 4172.58 824.02 4172.58ZM834 4155.96C841.594 4155.96 847.75 4162.12 847.75 4169.71 847.75 4177.31 841.594 4183.46 834 4183.46 826.406 4183.46 820.25 4177.31 820.25 4169.71 820.25 4162.12 826.406 4155.96 834 4155.96Z"/><rect x="1685" y="3961" width="735" height="122" stroke="#000000" stroke-width="5.72917" stroke-miterlimit="8" fill="none"/><g><text font-family="Hilda_MSFontService,sans-serif" font-weight="400" font-size="28" transform="matrix(1 0 0 1 1974.45 3995)">decimal64</text></g><g><text font-family="Hilda_MSFontService,sans-serif" font-weight="700" font-size="28" transform="matrix(1 0 0 1 1709.46 3995)">latitude:</text></g><g><text font-family="Hilda_MSFontService,sans-serif" font-weight="400" font-size="28" transform="matrix(1 0 0 1 1974.45 4031)">decimal64</text></g><g><text font-family="Hilda_MSFontService,sans-serif" font-weight="700" font-size="28" transform="matrix(1 0 0 1 1709.46 4031)">longitude:</text></g><g><text font-family="Hilda_MSFontService,sans-serif" font-weight="400" font-size="28" transform="matrix(1 0 0 1 1974.45 4066)">decimal64</text></g><g><text font-family="Hilda_MSFontService,sans-serif" font-weight="700" font-size="28" transform="matrix(1 0 0 1 1709.46 4066)">height:</text></g><rect x="1685" y="4110" width="735" height="122" stroke="#000000" stroke-width="5.72917" stroke-miterlimit="8" fill="none"/><g><text font-family="Hilda_MSFontService,sans-serif" font-weight="400" font-size="28" transform="matrix(1 0 0 1 1973.17 4140)">decimal64</text></g><g><text font-family="Hilda_MSFontService,sans-serif" font-weight="700" font-size="28" transform="matrix(1 0 0 1 1708.18 4140)">x:</text></g><g><text font-family="Hilda_MSFontService,sans-serif" font-weight="400" font-size="28" transform="matrix(1 0 0 1 1973.17 4175)">decimal64</text></g><g><text font-family="Hilda_MSFontService,sans-serif" font-weight="700" font-size="28" transform="matrix(1 0 0 1 1708.18 4175)">y:</text></g><g><text font-family="Hilda_MSFontService,sans-serif" font-weight="400" font-size="28" transform="matrix(1 0 0 1 1973.17 4211)">decimal64</text></g><g><text font-family="Hilda_MSFontService,sans-serif" font-weight="700" font-size="28" transform="matrix(1 0 0 1 1708.18 4211)">z:</text></g><path d="M0-2.86458 5.72917-2.86458 5.72917 2.86458 0 2.86458ZM11.4583-2.86458 17.1875-2.86458 17.1875 2.86458 11.4583 2.86458ZM22.9167-2.86458 28.6458-2.86458 28.6458 2.86458 22.9167 2.86458ZM34.375-2.86458 40.1042-2.86458 40.1042 2.86458 34.375 2.86458ZM45.8333-2.86458 51.5625-2.86458 51.5625 2.86458 45.8333 2.86458ZM57.2917-2.86458 61.2829-2.86458 61.2829 4.60256 55.5537 4.60256 55.5537 0 58.4183 2.86458 57.2917 2.86458ZM61.2829 10.3317 61.2829 16.0609 55.5537 16.0609 55.5537 10.3317ZM61.2829 21.7901 61.2829 27.5192 55.5537 27.5192 55.5537 21.7901ZM61.2829 33.2484 61.2829 38.9776 55.5537 38.9776 55.5537 33.2484ZM61.2829 44.7067 61.2829 50.4359 55.5537 50.4359 55.5537 44.7067ZM61.2829 56.1651 61.2829 61.8942 55.5537 61.8942 55.5537 56.1651ZM61.2829 67.6234 61.2829 73.3526 55.5537 73.3526 55.5537 67.6234ZM61.2829 79.0817 61.2829 84.8109 55.5537 84.8109 55.5537 79.0817ZM61.2829 90.5401 61.2829 96.2692 55.5537 96.2692 55.5537 90.5401ZM61.2829 101.998 61.2829 107.728 55.5537 107.728 55.5537 101.998ZM61.2829 113.457 61.2829 119.186 55.5537 119.186 55.5537 113.457ZM61.2829 124.915 61.2829 130.644 55.5537 130.644 55.5537 124.915ZM61.2829 136.373 61.2829 142.103 55.5537 142.103 55.5537 136.373ZM61.2829 147.832 61.2829 148.017 58.4183 145.152 63.9624 145.152 63.9624 150.881 55.5537 150.881 55.5537 147.832ZM69.6916 145.152 75.4207 145.152 75.4207 150.881 69.6916 150.881ZM81.1499 145.152 86.8791 145.152 86.8791 150.881 81.1499 150.881ZM92.6082 145.152 98.3374 145.152 98.3374 150.881 92.6082 150.881ZM104.067 145.152 109.796 145.152 109.796 150.881 104.067 150.881ZM115.525 145.152 116.836 145.152 116.836 150.881 115.525 150.881ZM116.836 134.267C124.43 134.267 130.586 140.423 130.586 148.017 130.586 155.611 124.43 161.767 116.836 161.767 109.242 161.767 103.086 155.611 103.086 148.017 103.086 140.423 109.242 134.267 116.836 134.267Z" transform="matrix(-1 1.22465e-16 1.22465e-16 1 1684.84 4022)"/><path d="M1684.84 4174.08 1679.11 4174.08 1679.11 4168.35 1684.84 4168.35ZM1673.38 4174.08 1667.65 4174.08 1667.65 4168.35 1673.38 4168.35ZM1661.92 4174.08 1656.19 4174.08 1656.19 4168.35 1661.92 4168.35ZM1650.46 4174.08 1644.73 4174.08 1644.73 4168.35 1650.46 4168.35ZM1639 4174.08 1633.27 4174.08 1633.27 4168.35 1639 4168.35ZM1627.54 4174.08 1623.55 4174.08 1623.55 4170 1626.42 4172.86 1623.03 4172.86 1623.03 4167.14 1629.28 4167.14 1629.28 4171.21 1626.42 4168.35 1627.54 4168.35ZM1617.3 4172.86 1611.57 4172.86 1611.57 4167.14 1617.3 4167.14ZM1605.84 4172.86 1600.11 4172.86 1600.11 4167.14 1605.84 4167.14ZM1594.38 4172.86 1588.65 4172.86 1588.65 4167.14 1594.38 4167.14ZM1582.92 4172.86 1577.19 4172.86 1577.19 4167.14 1582.92 4167.14ZM1571.46 4172.86 1568 4172.86 1568 4167.14 1571.46 4167.14ZM1568 4183.75C1560.41 4183.75 1554.25 4177.59 1554.25 4170 1554.25 4162.41 1560.41 4156.25 1568 4156.25 1575.59 4156.25 1581.75 4162.41 1581.75 4170 1581.75 4177.59 1575.59 4183.75 1568 4183.75Z"/><rect x="1685" y="3813" width="735" height="123" stroke="#000000" stroke-width="5.72917" stroke-miterlimit="8" fill="none"/><g><text font-family="Hilda_MSFontService,sans-serif" font-weight="400" font-size="28" transform="matrix(1 0 0 1 1977.03 3848)">string</text></g><g><text font-family="Hilda_MSFontService,sans-serif" font-weight="700" font-size="28" transform="matrix(1 0 0 1 1712.04 3848)">geodetic</text></g><text font-family="Hilda_MSFontService,sans-serif" font-weight="700" font-size="28" transform="matrix(1 0 0 1 1816.31 3848)">-</text><text font-family="Hilda_MSFontService,sans-serif" font-weight="700" font-size="28" transform="matrix(1 0 0 1 1827.19 3848)">datum:</text><g><text font-family="Hilda_MSFontService,sans-serif" font-weight="400" font-size="28" transform="matrix(1 0 0 1 1977.03 3883)">decimal64</text></g><g><text font-family="Hilda_MSFontService,sans-serif" font-weight="700" font-size="28" transform="matrix(1 0 0 1 1712.04 3883)">coord</text></g><text font-family="Hilda_MSFontService,sans-serif" font-weight="700" font-size="28" transform="matrix(1 0 0 1 1780.21 3883)">-</text><text font-family="Hilda_MSFontService,sans-serif" font-weight="700" font-size="28" transform="matrix(1 0 0 1 1791.1 3883)">accuracy:</text><g><text font-family="Hilda_MSFontService,sans-serif" font-weight="400" font-size="28" transform="matrix(1 0 0 1 1977.03 3918)">decimal64 {meters}</text></g><g><text font-family="Hilda_MSFontService,sans-serif" font-weight="700" font-size="28" transform="matrix(1 0 0 1 1712.04 3918)">height</text></g><text font-family="Hilda_MSFontService,sans-serif" font-weight="700" font-size="28" transform="matrix(1 0 0 1 1789.95 3918)">-</text><text font-family="Hilda_MSFontService,sans-serif" font-weight="700" font-size="28" transform="matrix(1 0 0 1 1800.84 3918)">accuracy:</text><path d="M1574.01 3871.14 1685.6 3871.34 1685.59 3877.07 1573.99 3876.86ZM1685.62 3860.46C1693.21 3860.47 1699.36 3866.64 1699.34 3874.23 1699.33 3881.82 1693.16 3887.97 1685.57 3887.96 1677.98 3887.94 1671.83 3881.77 1671.84 3874.18 1671.86 3866.59 1678.03 3860.44 1685.62 3860.46Z"/><path d="M1510.01 691.135 1769.98 691.671 1769.97 697.4 1509.99 696.865ZM1770 680.786C1777.59 680.801 1783.74 686.97 1783.72 694.564 1783.71 702.158 1777.54 708.301 1769.94 708.286 1762.35 708.27 1756.21 702.101 1756.22 694.507 1756.24 686.913 1762.41 680.77 1770 680.786Z"/><path d="M0.00452005-2.86458 214.997-2.52534 214.988 3.20382-0.00452005 2.86458ZM215.014-13.4107C222.608-13.3988 228.754-7.23297 228.742 0.360935 228.73 7.95484 222.564 14.1012 214.971 14.0892 207.377 14.0772 201.23 7.91145 201.242 0.317543 201.254-7.27636 207.42-13.4227 215.014-13.4107Z" transform="matrix(1 0 0 -1 1534 1032.34)"/><path d="M1536.01 1635.14 1748.81 1635.97 1748.79 1641.69 1535.99 1640.86ZM1748.85 1625.08C1756.45 1625.11 1762.58 1631.29 1762.55 1638.88 1762.52 1646.48 1756.34 1652.61 1748.75 1652.58 1741.15 1652.55 1735.02 1646.37 1735.05 1638.78 1735.08 1631.18 1741.26 1625.05 1748.85 1625.08Z"/><path d="M1522.01 2296.14 1742.11 2296.94 1742.09 2302.67 1521.99 2301.86ZM1742.15 2286.06C1749.74 2286.08 1755.88 2292.26 1755.85 2299.86 1755.82 2307.45 1749.64 2313.58 1742.05 2313.56 1734.45 2313.53 1728.32 2307.35 1728.35 2299.76 1728.38 2292.16 1734.55 2286.03 1742.15 2286.06Z"/></g></svg>