<svg width="2387" height="772" xmlns="http://www.w3.org/2000/svg" xmlns:xlink="http://www.w3.org/1999/xlink" xml:space="preserve" overflow="hidden"><g transform="translate(-45 -904)"><rect x="45" y="904" width="2381" height="763" fill="#FAFAFA"/><rect x="45" y="1595" width="2381" height="71.9999" fill="#3B3838"/><text fill="#FFFFFF" font-family="Hilda_MSFontService,sans-serif" font-weight="400" font-size="37" transform="matrix(1 0 0 1 1061.67 1644)">Common YANG </text><text fill="#FFFFFF" font-family="Hilda_MSFontService,sans-serif" font-weight="400" font-size="37" transform="matrix(1 0 0 1 1314.9 1644)">Types</text><rect x="717" y="1011" width="890" height="79.0001" fill="#0050CA"/><text fill="#FFFFFF" font-family="Hilda_MSFontService,sans-serif" font-weight="400" font-size="37" transform="matrix(1 0 0 1 871.177 1064)">o</text><text fill="#FFFFFF" font-family="Hilda_MSFontService,sans-serif" font-weight="400" font-size="37" transform="matrix(1 0 0 1 891.229 1064)">-</text><text fill="#FFFFFF" font-family="Hilda_MSFontService,sans-serif" font-weight="400" font-size="37" transform="matrix(1 0 0 1 904.979 1064)">ran</text><text fill="#FFFFFF" font-family="Hilda_MSFontService,sans-serif" font-weight="400" font-size="37" transform="matrix(1 0 0 1 957.688 1064)">-</text><text fill="#FFFFFF" font-family="Hilda_MSFontService,sans-serif" font-weight="400" font-size="37" transform="matrix(1 0 0 1 971.438 1064)">smo</text><text fill="#FFFFFF" font-family="Hilda_MSFontService,sans-serif" font-weight="400" font-size="37" transform="matrix(1 0 0 1 1037.9 1064)">-</text><text fill="#FFFFFF" font-family="Hilda_MSFontService,sans-serif" font-weight="400" font-size="37" transform="matrix(1 0 0 1 1051.65 1064)">teiv</text><text fill="#FFFFFF" font-family="Hilda_MSFontService,sans-serif" font-weight="400" font-size="37" transform="matrix(1 0 0 1 1110.08 1064)">-</text><text fill="#FFFFFF" font-family="Hilda_MSFontService,sans-serif" font-weight="400" font-size="37" transform="matrix(1 0 0 1 1123.83 1064)">common</text><text fill="#FFFFFF" font-family="Hilda_MSFontService,sans-serif" font-weight="400" font-size="37" transform="matrix(1 0 0 1 1260.76 1064)">-</text><text fill="#FFFFFF" font-family="Hilda_MSFontService,sans-serif" font-weight="400" font-size="37" transform="matrix(1 0 0 1 1274.51 1064)">yang</text><text fill="#FFFFFF" font-family="Hilda_MSFontService,sans-serif" font-weight="400" font-size="37" transform="matrix(1 0 0 1 1353 1064)">-</text><text fill="#FFFFFF" font-family="Hilda_MSFontService,sans-serif" font-weight="400" font-size="37" transform="matrix(1 0 0 1 1366.75 1064)">types</text><rect x="273" y="1222" width="427" height="79.0001" stroke="#000000" stroke-width="5.72917" stroke-miterlimit="8" fill="#D0CECE"/><text font-family="Hilda_MSFontService,sans-serif" font-weight="400" font-size="37" transform="matrix(1 0 0 1 401.935 1274)">decorators</text><rect x="829" y="1219" width="458" height="80.0001" stroke="#000000" stroke-width="5.72917" stroke-miterlimit="8" fill="#D6EDFC"/><text font-family="Hilda_MSFontService,sans-serif" font-weight="400" font-size="37" transform="matrix(1 0 0 1 980.699 1272)">classifiers</text><rect x="1383" y="1219" width="356" height="80.0001" stroke="#000000" stroke-width="5.72917" stroke-miterlimit="8" fill="#D6EDFC"/><text font-family="Hilda_MSFontService,sans-serif" font-weight="400" font-size="37" transform="matrix(1 0 0 1 1484.46 1272)">sourceIds</text><rect x="1833" y="1219" width="296" height="80.0001" stroke="#000000" stroke-width="5.72917" stroke-miterlimit="8" fill="#D0CECE"/><text font-family="Hilda_MSFontService,sans-serif" font-weight="400" font-size="37" transform="matrix(1 0 0 1 1904.04 1272)">metadata</text><path d="M1164.36 1090 1164.36 1156.63 486 1156.63 488.865 1153.77 488.865 1221.37 483.135 1221.37 483.135 1150.9 1161.49 1150.9 1158.63 1153.77 1158.63 1090ZM499.75 1221.37C499.75 1228.96 493.594 1235.12 486 1235.12 478.406 1235.12 472.25 1228.96 472.25 1221.37 472.25 1213.77 478.406 1207.62 486 1207.62 493.594 1207.62 499.75 1213.77 499.75 1221.37Z"/><path d="M1164.47 1090 1164.47 1157.48 1058 1157.48 1060.86 1154.62 1060.86 1219.24 1055.14 1219.24 1055.14 1151.76 1161.6 1151.76 1158.74 1154.62 1158.74 1090ZM1071.75 1219.24C1071.75 1226.83 1065.59 1232.99 1058 1232.99 1050.41 1232.99 1044.25 1226.83 1044.25 1219.24 1044.25 1211.65 1050.41 1205.49 1058 1205.49 1065.59 1205.49 1071.75 1211.65 1071.75 1219.24Z"/><path d="M0-2.86458 67.4847-2.86458 67.4847 399.299 64.6202 396.434 129.24 396.434 129.24 402.164 61.7556 402.164 61.7556 0 64.6202 2.86458 0 2.86458ZM129.24 385.549C136.834 385.549 142.99 391.705 142.99 399.299 142.99 406.893 136.834 413.049 129.24 413.049 121.646 413.049 115.49 406.893 115.49 399.299 115.49 391.705 121.646 385.549 129.24 385.549Z" transform="matrix(1.83697e-16 1 1 -1.83697e-16 1162 1090)"/><path d="M0-2.86458 67.485-2.86458 67.485 819.449 64.6204 816.584 129.24 816.584 129.24 822.313 61.7558 822.313 61.7558 0 64.6204 2.86458 0 2.86458ZM129.24 805.699C136.834 805.699 142.99 811.855 142.99 819.449 142.99 827.043 136.834 833.199 129.24 833.199 121.646 833.199 115.49 827.043 115.49 819.449 115.49 811.855 121.646 805.699 129.24 805.699Z" transform="matrix(1.83697e-16 1 1 -1.83697e-16 1162 1090)"/><rect x="910" y="1393" width="296" height="80.0001" stroke="#000000" stroke-width="5.72917" stroke-miterlimit="8" fill="none"/><text font-family="Hilda_MSFontService,sans-serif" font-weight="700" font-size="28" transform="matrix(1 0 0 1 974.397 1443)">type: </text><text font-family="Hilda_MSFontService,sans-serif" font-weight="400" font-size="28" transform="matrix(1 0 0 1 1041.43 1443)">classifier[]</text><path d="M1060.86 1299 1060.87 1393.71 1055.14 1393.71 1055.14 1299ZM1071.75 1393.71C1071.75 1401.3 1065.59 1407.46 1058 1407.46 1050.41 1407.46 1044.25 1401.3 1044.25 1393.71 1044.25 1386.12 1050.41 1379.96 1058 1379.96 1065.59 1379.96 1071.75 1386.12 1071.75 1393.71Z"/><rect x="1411" y="1392" width="297" height="80.0001" stroke="#000000" stroke-width="5.72917" stroke-miterlimit="8" fill="none"/><text font-family="Hilda_MSFontService,sans-serif" font-weight="700" font-size="28" transform="matrix(1 0 0 1 1482.68 1442)">type: </text><text font-family="Hilda_MSFontService,sans-serif" font-weight="400" font-size="28" transform="matrix(1 0 0 1 1549.71 1442)">string[] </text><path d="M1561.86 1299 1561.86 1392.72 1556.14 1392.72 1556.14 1299ZM1572.75 1392.72C1572.75 1400.31 1566.59 1406.47 1559 1406.47 1551.41 1406.47 1545.25 1400.31 1545.25 1392.72 1545.25 1385.12 1551.41 1378.97 1559 1378.97 1566.59 1378.97 1572.75 1385.12 1572.75 1392.72Z"/><text font-family="Hilda_MSFontService,sans-serif" font-weight="400" font-size="23" transform="matrix(1 0 0 1 2008.42 1559)">container</text><rect x="1947" y="1534" width="40.9999" height="33" stroke="#000000" stroke-width="5.72917" stroke-miterlimit="8" fill="#D0CECE"/><text font-family="Hilda_MSFontService,sans-serif" font-weight="400" font-size="23" transform="matrix(1 0 0 1 2194.88 1559)">leaf</text><text font-family="Hilda_MSFontService,sans-serif" font-weight="400" font-size="23" transform="matrix(1 0 0 1 2232.12 1559)">-</text><text font-family="Hilda_MSFontService,sans-serif" font-weight="400" font-size="23" transform="matrix(1 0 0 1 2240.72 1559)">list</text><rect x="2133" y="1534" width="41" height="33" stroke="#000000" stroke-width="5.72917" stroke-miterlimit="8" fill="#D6EDFC"/></g></svg>