<svg width="2391" height="1401" xmlns="http://www.w3.org/2000/svg" xmlns:xlink="http://www.w3.org/1999/xlink" xml:space="preserve" overflow="hidden"><defs><clipPath id="clip0"><rect x="60" y="1196" width="2391" height="1401"/></clipPath></defs><g clip-path="url(#clip0)" transform="translate(-60 -1196)"><rect x="60.0002" y="1196" width="2391" height="1398" fill="#FAFAFA"/><rect x="60.0002" y="2533" width="2391" height="60.9998" fill="#3B3838"/><text fill="#FFFFFF" font-family="Hilda_MSFontService,sans-serif" font-weight="400" font-size="31" transform="matrix(1 0 0 1 929.096 2570)">Sample </text><text fill="#FFFFFF" font-family="Hilda_MSFontService,sans-serif" font-weight="400" font-size="31" transform="matrix(1 0 0 1 1036.23 2570)">Managed </text><text fill="#FFFFFF" font-family="Hilda_MSFontService,sans-serif" font-weight="400" font-size="31" transform="matrix(1 0 0 1 1169.72 2570)">O</text><text fill="#FFFFFF" font-family="Hilda_MSFontService,sans-serif" font-weight="400" font-size="31" transform="matrix(1 0 0 1 1191.49 2570)">bjects </text><text fill="#FFFFFF" font-family="Hilda_MSFontService,sans-serif" font-weight="400" font-size="31" transform="matrix(1 0 0 1 1275.71 2570)">and their </text><text fill="#FFFFFF" font-family="Hilda_MSFontService,sans-serif" font-weight="400" font-size="31" transform="matrix(1 0 0 1 1401.75 2570)">Relationships</text><rect x="0" y="0" width="345" height="78.9997" stroke="#000000" stroke-width="5.72917" stroke-miterlimit="8" fill="#D0CECE" transform="matrix(-1 0 0 1 476 1643)"/><text font-family="Hilda_MSFontService,sans-serif" font-weight="400" font-size="37" transform="matrix(1 0 0 1 173.003 1695)">GNBDUFunction</text><rect x="0" y="0" width="455" height="80.0001" stroke="#000000" stroke-width="5.72917" stroke-miterlimit="8" fill="#D0CECE" transform="matrix(-1 0 0 1 1599 1294)"/><text font-family="Hilda_MSFontService,sans-serif" font-weight="400" font-size="37" transform="matrix(1 0 0 1 1294.94 1347)">NRCellCU</text><rect x="0" y="0" width="455" height="79.0001" stroke="#000000" stroke-width="5.72917" stroke-miterlimit="8" fill="#D0CECE" transform="matrix(-1 0 0 1 1599 1515)"/><text font-family="Hilda_MSFontService,sans-serif" font-weight="400" font-size="37" transform="matrix(1 0 0 1 1293.51 1567)">NRCellDU</text><rect x="0" y="0" width="374" height="79.9997" stroke="#000000" stroke-width="5.72917" stroke-miterlimit="8" fill="#D0CECE" transform="matrix(-1 0 0 1 505 2016)"/><text font-family="Hilda_MSFontService,sans-serif" font-weight="400" font-size="37" transform="matrix(1 0 0 1 184.08 2069)">ENodeBFunction</text><rect x="0" y="0" width="455" height="79.0001" stroke="#000000" stroke-width="5.72917" stroke-miterlimit="8" fill="#D0CECE" transform="matrix(-1 0 0 1 1599 1902)"/><text font-family="Hilda_MSFontService,sans-serif" font-weight="400" font-size="37" transform="matrix(1 0 0 1 1286.63 1955)">EUtranCell</text><rect x="0" y="0" width="455" height="79.0001" stroke="#000000" stroke-width="5.72917" stroke-miterlimit="8" fill="#D0CECE" transform="matrix(-1 0 0 1 1599 1727)"/><text font-family="Hilda_MSFontService,sans-serif" font-weight="400" font-size="37" transform="matrix(1 0 0 1 1249.11 1780)">NrSectorCarrier</text><rect x="0" y="0" width="455" height="80.0001" stroke="#000000" stroke-width="5.72917" stroke-miterlimit="8" fill="#D0CECE" transform="matrix(-1 0 0 1 1599 2132)"/><text font-family="Hilda_MSFontService,sans-serif" font-weight="400" font-size="37" transform="matrix(1 0 0 1 1236.79 2185)">LTESectorCarrier</text><rect x="0" y="0" width="455" height="79.0001" stroke="#000000" stroke-width="5.72917" stroke-miterlimit="8" fill="#D0CECE" transform="matrix(-1 0 0 1 1599 2355)"/><text font-family="Hilda_MSFontService,sans-serif" font-weight="400" font-size="37" transform="matrix(1 0 0 1 1224.19 2408)">AntennaCapability</text><path d="M510.672 2053.14 684.338 2053.14 684.338 2171.79 681.474 2168.93 1139 2168.93 1139 2174.66 678.609 2174.66 678.609 2056 681.474 2058.86 510.672 2058.86ZM536.728 2074.52 504.987 2056 536.728 2037.48C538.095 2036.69 539.849 2037.15 540.646 2038.51 541.443 2039.88 540.982 2041.64 539.615 2042.43L512.115 2058.47 512.115 2053.53 539.615 2069.57C540.982 2070.36 541.443 2072.12 540.646 2073.49 539.849 2074.85 538.095 2075.31 536.728 2074.52ZM1112.95 2153.28 1144.69 2171.79 1112.95 2190.31C1111.58 2191.11 1109.83 2190.64 1109.03 2189.28 1108.23 2187.91 1108.69 2186.16 1110.06 2185.36L1137.56 2169.32 1137.56 2174.27 1110.06 2158.23C1108.69 2157.43 1108.23 2155.67 1109.03 2154.31 1109.83 2152.94 1111.58 2152.48 1112.95 2153.28Z"/><path d="M5.67176-2.86458 179.338-2.86458 179.338 114.591 176.474 111.726 634.003 111.726 634.003 117.455 173.609 117.455 173.609 0 176.474 2.86458 5.67176 2.86458ZM31.7285 18.516-0.0132769 0 31.7285-18.516C33.0951-19.3132 34.8491-18.8516 35.6462-17.485 36.4434-16.1185 35.9818-14.3645 34.6153-13.5673L7.11526 2.47437 7.11526-2.47437 34.6153 13.5673C35.9818 14.3645 36.4434 16.1185 35.6462 17.485 34.8491 18.8516 33.0951 19.3132 31.7285 18.516ZM607.946 96.0749 639.687 114.591 607.946 133.107C606.579 133.904 604.825 133.443 604.028 132.076 603.231 130.709 603.692 128.955 605.059 128.158L632.559 112.117 632.559 117.065 605.059 101.024C603.692 100.226 603.231 98.4724 604.028 97.1059 604.825 95.7393 606.579 95.2777 607.946 96.0749Z" transform="matrix(1 0 0 -1 505 2056.59)"/><rect x="0" y="0" width="255" height="40.0002" fill="#FAFAFA" transform="matrix(-1 0 0 1 998 1922)"/><text font-family="Hilda_MSFontService,sans-serif" font-weight="400" font-size="28" transform="matrix(1 0 0 1 804.449 1955)">PROVIDES</text><path d="M5.67192-2.86458 209.92-2.86458 209.92 127.788 207.056 124.924 662.703 124.924 662.703 130.653 204.191 130.653 204.191 0 207.056 2.86458 5.67192 2.86458ZM31.7285 18.516-0.0132769 0 31.7285-18.516C33.0951-19.3132 34.8491-18.8516 35.6462-17.485 36.4434-16.1185 35.9818-14.3645 34.6153-13.5673L7.11526 2.47437 7.11526-2.47437 34.6153 13.5673C35.9818 14.3645 36.4434 16.1185 35.6462 17.485 34.8491 18.8516 33.0951 19.3132 31.7285 18.516ZM636.646 109.272 668.387 127.788 636.646 146.304C635.279 147.102 633.525 146.64 632.728 145.273 631.931 143.907 632.392 142.153 633.759 141.356L661.259 125.314 661.259 130.263 633.759 114.221C632.392 113.424 631.931 111.67 632.728 110.303 633.525 108.937 635.279 108.475 636.646 109.272Z" transform="matrix(1 0 0 -1 476 1681.79)"/><path d="M481.672 1679.14 685.92 1679.14 685.92 1766.45 683.056 1763.59 1138.7 1763.59 1138.7 1769.32 680.191 1769.32 680.191 1682 683.056 1684.86 481.672 1684.86ZM507.729 1700.52 475.987 1682 507.729 1663.48C509.095 1662.69 510.849 1663.15 511.646 1664.51 512.443 1665.88 511.982 1667.64 510.615 1668.43L483.115 1684.47 483.115 1679.53 510.615 1695.57C511.982 1696.36 512.443 1698.12 511.646 1699.49 510.849 1700.85 509.095 1701.31 507.729 1700.52ZM1112.65 1747.94 1144.39 1766.45 1112.65 1784.97C1111.28 1785.77 1109.53 1785.3 1108.73 1783.94 1107.93 1782.57 1108.39 1780.82 1109.76 1780.02L1137.26 1763.98 1137.26 1768.93 1109.76 1752.89C1108.39 1752.09 1107.93 1750.33 1108.73 1748.97 1109.53 1747.6 1111.28 1747.14 1112.65 1747.94Z"/><rect x="0" y="0" width="255" height="39.9999" fill="#FAFAFA" transform="matrix(-1 0 0 1 998 1529)"/><text font-family="Hilda_MSFontService,sans-serif" font-weight="400" font-size="28" transform="matrix(1 0 0 1 804.449 1562)">PROVIDES</text><rect x="0" y="0" width="255" height="40.0002" fill="#FAFAFA" transform="matrix(-1 0 0 1 998 1746)"/><text font-family="Hilda_MSFontService,sans-serif" font-weight="400" font-size="28" transform="matrix(1 0 0 1 804.449 1779)">PROVIDES</text><rect x="0" y="0" width="255" height="40.0002" fill="#FAFAFA" transform="matrix(-1 0 0 1 998 2153)"/><text font-family="Hilda_MSFontService,sans-serif" font-weight="400" font-size="28" transform="matrix(1 0 0 1 804.449 2186)">PROVIDES</text><path d="M-5.6718 2.86458-82.5 2.86458-79.6354 0-79.6354 628.044-82.5 625.18-5.67152 625.18-5.67152 630.909-85.3646 630.909-85.3646-2.86458-5.6718-2.86458ZM-31.7285-18.516 0.0132769 0-31.7285 18.516C-33.0951 19.3132-34.8491 18.8516-35.6462 17.485-36.4434 16.1185-35.9818 14.3645-34.6153 13.5673L-7.11526-2.47437-7.11526 2.47437-34.6153-13.5673C-35.9818-14.3645-36.4434-16.1185-35.6462-17.485-34.8491-18.8516-33.0951-19.3132-31.7285-18.516ZM-31.7281 609.528 0.0136378 628.044-31.7281 646.56C-33.0947 647.358-34.8487 646.896-35.6459 645.529-36.443 644.163-35.9814 642.409-34.6149 641.612L-7.11489 625.57-7.11489 630.519-34.6149 614.477C-35.9814 613.68-36.443 611.926-35.6459 610.559-34.8487 609.193-33.0947 608.731-31.7281 609.528Z" transform="matrix(-1 0 0 1 1599 1767)"/><rect x="0" y="0" width="153" height="54" fill="#FAFAFA" transform="matrix(-1 0 0 1 1753 2029)"/><text font-family="Hilda_MSFontService,sans-serif" font-weight="400" font-size="28" transform="matrix(1 0 0 1 1644.01 2066)">USES</text><path d="M1374.86 1599.67 1374.86 1721.28 1369.14 1721.28 1369.14 1599.67ZM1353.48 1625.73 1372 1593.99 1390.52 1625.73C1391.31 1627.09 1390.85 1628.85 1389.48 1629.65 1388.12 1630.44 1386.36 1629.98 1385.57 1628.62L1369.53 1601.12 1374.47 1601.12 1358.43 1628.62C1357.64 1629.98 1355.88 1630.44 1354.51 1629.65 1353.15 1628.85 1352.69 1627.1 1353.48 1625.73ZM1390.52 1695.22 1372 1726.96 1353.48 1695.22C1352.69 1693.85 1353.15 1692.1 1354.52 1691.3 1355.88 1690.51 1357.64 1690.97 1358.43 1692.33L1374.47 1719.83 1369.53 1719.83 1385.57 1692.33C1386.36 1690.97 1388.12 1690.51 1389.49 1691.3 1390.85 1692.1 1391.31 1693.85 1390.52 1695.22Z"/><rect x="0" y="0" width="153" height="30.9999" fill="#FAFAFA" transform="matrix(-1 0 0 1 1448 1642)"/><text font-family="Hilda_MSFontService,sans-serif" font-weight="400" font-size="28" transform="matrix(1 0 0 1 1338.94 1667)">USES</text><path d="M1374.86 1986.67 1374.86 2126.42 1369.14 2126.42 1369.14 1986.67ZM1353.48 2012.73 1372 1980.99 1390.52 2012.73C1391.31 2014.09 1390.85 2015.85 1389.48 2016.65 1388.12 2017.44 1386.36 2016.98 1385.57 2015.62L1369.53 1988.12 1374.47 1988.12 1358.43 2015.62C1357.64 2016.98 1355.88 2017.44 1354.51 2016.65 1353.15 2015.85 1352.69 2014.1 1353.48 2012.73ZM1390.52 2100.36 1372 2132.1 1353.48 2100.36C1352.69 2099 1353.15 2097.24 1354.52 2096.45 1355.88 2095.65 1357.64 2096.11 1358.43 2097.48L1374.47 2124.98 1369.53 2124.98 1385.57 2097.48C1386.36 2096.11 1388.12 2095.65 1389.49 2096.45 1390.85 2097.24 1391.31 2099 1390.52 2100.36Z"/><rect x="0" y="0" width="153" height="40.9999" fill="#FAFAFA" transform="matrix(-1 0 0 1 1449 2038)"/><text font-family="Hilda_MSFontService,sans-serif" font-weight="400" font-size="28" transform="matrix(1 0 0 1 1340.06 2068)">USES</text><path d="M2.8646 5.67192 2.86493 137.894-2.86424 137.894-2.86457 5.67194ZM-18.516 31.7285 1.34955e-07-0.0132769 18.5161 31.7284C19.3133 33.095 18.8517 34.849 17.4851 35.6462 16.1186 36.4434 14.3645 35.9818 13.5674 34.6152L-2.47435 7.11526 2.47438 7.11525-13.5672 34.6153C-14.3644 35.9818-16.1184 36.4434-17.485 35.6463-18.8515 34.8491-19.3131 33.0951-18.516 31.7285ZM18.5163 111.837 0.000361542 143.579-18.5158 111.837C-19.3129 110.471-18.8513 108.717-17.4848 107.92-16.1182 107.123-14.3642 107.584-13.567 108.951L2.47471 136.451-2.47402 136.451 13.5676 108.951C14.3647 107.584 16.1188 107.122 17.4853 107.92 18.8519 108.717 19.3135 110.471 18.5163 111.837Z" transform="matrix(-1 0 0 1 1372 2212)"/><rect x="0" y="0" width="153" height="41.9999" fill="#FAFAFA" transform="matrix(-1 0 0 1 1448 2259)"/><text font-family="Hilda_MSFontService,sans-serif" font-weight="400" font-size="28" transform="matrix(1 0 0 1 1338.94 2290)">USES</text><rect x="0" y="0" width="405" height="79.0001" stroke="#000000" stroke-width="5.72917" stroke-miterlimit="8" fill="#D0CECE" transform="matrix(-1 0 0 1 536 1295)"/><text font-family="Hilda_MSFontService,sans-serif" font-weight="400" font-size="37" transform="matrix(1 0 0 1 182.253 1347)">GNBCUCPFunction</text><path d="M5.67168-2.86362 602.709-2.76269 602.708 2.96648 5.67071 2.86554ZM31.7254 18.5214-0.0132765-2.23773e-06 31.7316-18.5107C33.0983-19.3076 34.8523-18.8457 35.6492-17.479 36.4461-16.1123 35.9842-14.3584 34.6175-13.5614L7.11484 2.47557 7.11567-2.47316 34.613 13.5732C35.9794 14.3705 36.4407 16.1247 35.6433 17.4911 34.8459 18.8575 33.0918 19.3188 31.7254 18.5214ZM576.654-18.4185 608.393 0.102856 576.648 18.6135C575.281 19.4104 573.527 18.9486 572.73 17.5819 571.933 16.2152 572.395 14.4612 573.762 13.6643L601.265-2.37271 601.264 2.57602 573.766-13.4703C572.4-14.2677 571.939-16.0218 572.736-17.3882 573.533-18.7546 575.288-19.2159 576.654-18.4185Z" transform="matrix(1 0 0 -1 536 1334.1)"/><rect x="0" y="0" width="255" height="39.9999" fill="#FAFAFA" transform="matrix(-1 0 0 1 998 1308)"/><text font-family="Hilda_MSFontService,sans-serif" font-weight="400" font-size="28" transform="matrix(1 0 0 1 804.449 1341)">PROVIDES</text><rect x="0" y="0" width="405" height="80.0001" stroke="#000000" stroke-width="5.72917" stroke-miterlimit="8" fill="#D0CECE" transform="matrix(-1 0 0 1 2399 1717)"/><text font-family="Hilda_MSFontService,sans-serif" font-weight="400" font-size="37" transform="matrix(1 0 0 1 2145.98 1770)">Sector</text><path d="M1987.89 1759.39 1793.42 1759.39 1793.42 1554 1796.28 1556.86 1604.67 1556.86 1604.67 1551.14 1799.15 1551.14 1799.15 1756.53 1796.28 1753.67 1987.89 1753.67ZM1961.84 1738.01 1993.58 1756.53 1961.84 1775.05C1960.47 1775.84 1958.72 1775.38 1957.92 1774.01 1957.12 1772.65 1957.58 1770.89 1958.95 1770.1L1986.45 1754.06 1986.45 1759 1958.95 1742.96C1957.58 1742.17 1957.12 1740.41 1957.92 1739.04 1958.72 1737.68 1960.47 1737.22 1961.84 1738.01ZM1630.73 1572.52 1598.99 1554 1630.73 1535.48C1632.1 1534.69 1633.85 1535.15 1634.65 1536.52 1635.44 1537.88 1634.98 1539.64 1633.62 1540.43L1606.12 1556.47 1606.12 1551.53 1633.62 1567.57C1634.98 1568.36 1635.44 1570.12 1634.65 1571.49 1633.85 1572.85 1632.1 1573.31 1630.73 1572.52Z"/><path d="M5.67192-2.86458 200.147-2.86458 200.147 184.515 197.283 181.65 388.893 181.65 388.893 187.379 194.418 187.379 194.418 0 197.283 2.86458 5.67192 2.86458ZM31.7285 18.516-0.0132769 0 31.7285-18.516C33.0951-19.3132 34.8491-18.8516 35.6462-17.485 36.4434-16.1185 35.9818-14.3645 34.6153-13.5673L7.11526 2.47437 7.11526-2.47437 34.6153 13.5673C35.9818 14.3645 36.4434 16.1185 35.6462 17.485 34.8491 18.8516 33.0951 19.3132 31.7285 18.516ZM362.837 165.999 394.578 184.515 362.837 203.031C361.47 203.828 359.716 203.366 358.919 202 358.122 200.633 358.583 198.879 359.95 198.082L387.45 182.041 387.45 186.989 359.95 170.948C358.583 170.15 358.122 168.396 358.919 167.03 359.716 165.663 361.47 165.202 362.837 165.999Z" transform="matrix(-1 1.22465e-16 1.22465e-16 1 1993.57 1757)"/><rect x="0" y="0" width="255" height="39.9999" fill="#FAFAFA" transform="matrix(-1 0 0 1 1924 1607)"/><text font-family="Hilda_MSFontService,sans-serif" font-weight="400" font-size="28" transform="matrix(1 0 0 1 1743.31 1640)">GROUPS</text><rect x="0" y="0" width="183" height="48.0001" fill="#FAFAFA" transform="matrix(-1 0 0 1 1888 1825)"/><text font-family="Hilda_MSFontService,sans-serif" font-weight="400" font-size="28" transform="matrix(1 0 0 1 1743.25 1858)">GROUPS</text></g></svg>