<svg width="2303" height="831" overflow="hidden" xmlns="http://www.w3.org/2000/svg">
    <defs>
        <clipPath id="clip0">
            <rect x="86" y="1766" width="2303" height="831"/>
        </clipPath>
    </defs>
    <g clip-path="url(#clip0)" transform="translate(-86 -1766)">
        <rect x="85.9999" y="1766" width="2303" height="828" fill="#FAFAFA"/>
        <rect x="85.9999" y="2533" width="2303" height="60.9998" fill="#3B3838"/>
        <text fill="#FFFFFF" font-family="Hilda,Hilda_MSFontService,sans-serif" font-weight="400" font-size="31" transform="matrix(1 0 0 1 1031.71 2570)" style="white-space: pre;">Sample </text>
        <text fill="#FFFFFF" font-family="Hilda,Hilda_MSFontService,sans-serif" font-weight="400" font-size="31" transform="matrix(1 0 0 1 1138.84 2570)" style="white-space: pre;">Entities </text>
        <text fill="#FFFFFF" font-family="Hilda,Hilda_MSFontService,sans-serif" font-weight="400" font-size="31" transform="matrix(1 0 0 1 1245.4 2570)" style="white-space: pre;">with </text>
        <text fill="#FFFFFF" font-family="Hilda,Hilda_MSFontService,sans-serif" font-weight="400" font-size="31" transform="matrix(1 0 0 1 1311.29 2570)" style="white-space: pre;">Attributes</text>
        <rect x="344" y="1944" width="496" height="79.0001" stroke="#000000" stroke-width="5.72917" stroke-miterlimit="8" fill="#D0CECE"/>
        <text font-family="Hilda,Hilda_MSFontService,sans-serif" font-weight="400" font-size="37" transform="matrix(1 0 0 1 439.697 1997)" style="white-space: pre;">OCUUPFunction</text>
        <rect x="344" y="2234" width="359" height="80" stroke="#000000" stroke-width="5.72917" stroke-miterlimit="8" fill="#D0CECE"/>
        <text font-family="Hilda,Hilda_MSFontService,sans-serif" font-weight="400" font-size="37" transform="matrix(1 0 0 1 446.724 2287)" style="white-space: pre;">NRCellCU</text>
        <rect x="966" y="1913.29" width="681" height="184.853" stroke="#000000" stroke-width="5.72917" stroke-miterlimit="8" fill="none" style=""/>
        <rect x="971.945" y="2192.126" width="681" height="232.707" stroke="#000000" stroke-width="5.72917" stroke-miterlimit="8" fill="none" style=""/>
        <rect x="1865" y="2222" width="473" height="105" stroke="#000000" stroke-width="5.72917" stroke-miterlimit="8" fill="none"/>
        <path d="M703 2271.14 971.059 2271.14 971.059 2276.86 703 2276.86ZM971.059 2260.25C978.652 2260.25 984.809 2266.41 984.809 2274 984.809 2281.59 978.652 2287.75 971.058 2287.75 963.465 2287.75 957.309 2281.59 957.309 2274 957.309 2266.41 963.465 2260.25 971.059 2260.25Z"/>
        <path d="M840 1981.14 965.57 1981.14 965.57 1986.87 840 1986.86ZM965.57 1970.25C973.164 1970.25 979.32 1976.41 979.32 1984 979.32 1991.59 973.164 1997.75 965.57 1997.75 957.976 1997.75 951.82 1991.59 951.82 1984 951.82 1976.41 957.976 1970.25 965.57 1970.25Z"/>
        <g>
            <text font-family="Hilda,Hilda_MSFontService,sans-serif" font-weight="400" font-size="28" transform="matrix(1 0 0 1 1231.14 1961)" style="white-space: pre;">string {key}<tspan x="0" dy="1em">​</tspan>string[]</text>
        </g>
        <g>
            <text font-family="Hilda,Hilda_MSFontService,sans-serif" font-weight="700" font-size="28" transform="matrix(1 0 0 1 1010.55 1961)" style="white-space: pre;">id:<tspan x="0" dy="1em">​</tspan>sourceIds:<tspan x="0" dy="1em">​</tspan>attributes:</text>
            <text style="white-space: pre; fill: rgb(51, 51, 51); font-family: Arial, sans-serif; font-size: 28px;" x="1333.931" y="2286.497"> </text>
        </g>
        <g>
            <text font-family="Hilda,Hilda_MSFontService,sans-serif" font-weight="400" font-size="28" transform="matrix(1 0 0 1 1231.14 1994)" style="white-space: pre;"><tspan x="0" dy="1em">​</tspan><tspan x="0" dy="1em">​</tspan>uint32</text>
        </g>
        <g>
            <text font-family="Hilda,Hilda_MSFontService,sans-serif" font-weight="700" font-size="28" transform="matrix(1 0 0 1 1010.55 1994)" style="white-space: pre;"><tspan x="0" dy="1em">​</tspan><tspan x="0" dy="1em">​</tspan>   gNBId: </text>
        </g>
        <g>
            <text font-family="Hilda,Hilda_MSFontService,sans-serif" font-weight="400" font-size="28" transform="matrix(1 0 0 1 1231.14 2027)" style="white-space: pre;"><tspan x="0" dy="1em">​</tspan><tspan x="0" dy="1em">​</tspan>uint32</text>
        </g>
        <g>
            <text font-family="Hilda,Hilda_MSFontService,sans-serif" font-weight="700" font-size="28" transform="matrix(1 0 0 1 1010.55 2027)" style="white-space: pre;"><tspan x="0" dy="1em">​</tspan><tspan x="0" dy="1em">​</tspan>   gNBIdLength:</text>
        </g>
        <g>
            <text font-family="Hilda,Hilda_MSFontService,sans-serif" font-weight="400" font-size="28" transform="matrix(1 0 0 1 1208.83 2242)" style="white-space: pre;">string {key}<tspan x="0" dy="1em">​</tspan>string[]</text>
        </g>
        <g>
            <text font-family="Hilda,Hilda_MSFontService,sans-serif" font-weight="700" font-size="28" transform="matrix(1 0 0 1 1010.55 2242)" style="white-space: pre;">id:<tspan x="0" dy="1em">​</tspan>sourceIds:<tspan x="0" dy="1em">​</tspan>attributes:</text>
        </g>
        <g>
            <text font-family="Hilda,Hilda_MSFontService,sans-serif" font-weight="400" font-size="28" transform="matrix(1 0 0 1 1208.83 2275)" style="white-space: pre;"><tspan x="0" dy="1em">​</tspan><tspan x="0" dy="1em">​</tspan>u</text>
        </g>
        <g>
            <text font-family="Hilda,Hilda_MSFontService,sans-serif" font-weight="400" font-size="28" transform="matrix(1 0 0 1 1223.73 2275)" style="white-space: pre;"><tspan x="0" dy="1em">​</tspan><tspan x="0" dy="1em">​</tspan>int32</text>
        </g>
        <g>
            <text font-family="Hilda,Hilda_MSFontService,sans-serif" font-weight="700" font-size="28" transform="matrix(1 0 0 1 1010.55 2275)" style="white-space: pre;"><tspan x="0" dy="1em">​</tspan><tspan x="0" dy="1em">​</tspan>   cellLocalId: </text>
        </g>
        <g>
            <text font-family="Hilda,Hilda_MSFontService,sans-serif" font-weight="400" font-size="28" transform="matrix(1 0 0 1 1208.83 2308)" style="white-space: pre;"><tspan x="0" dy="1em">​</tspan><tspan x="0" dy="1em">​</tspan>uint32</text>
        </g>
        <g>
            <text font-family="Hilda,Hilda_MSFontService,sans-serif" font-weight="700" font-size="28" transform="matrix(1 0 0 1 1010.55 2308)" style="white-space: pre;"><tspan x="0" dy="1em">​</tspan><tspan x="0" dy="1em">​</tspan>   nCI: </text>
        </g>
        <g>
            <text font-family="Hilda,Hilda_MSFontService,sans-serif" font-weight="400" font-size="28" transform="matrix(1 0 0 1 1208.83 2341)" style="white-space: pre;"><tspan x="0" dy="1em">​</tspan><tspan x="0" dy="1em">​</tspan>uint32</text>
        </g>
        <g>
            <text font-family="Hilda,Hilda_MSFontService,sans-serif" font-weight="700" font-size="28" transform="matrix(1 0 0 1 1010.55 2341)" style="white-space: pre;"><tspan x="0" dy="1em">​</tspan><tspan x="0" dy="1em">​</tspan>   nRTAC:</text>
        </g>
        <g>
            <text font-family="Hilda,Hilda_MSFontService,sans-serif" font-weight="700" font-size="28" transform="matrix(1 0 0 1 2090.72 2267)" style="white-space: pre;">mcc: </text>
        </g>
        <text font-family="Hilda,Hilda_MSFontService,sans-serif" font-weight="400" font-size="28" transform="matrix(1 0 0 1 2152.6 2267)" style="white-space: pre;">Mcc</text>
        <g>
            <text font-family="Hilda,Hilda_MSFontService,sans-serif" font-weight="700" font-size="28" transform="matrix(1 0 0 1 2090.72 2300)" style="white-space: pre;">mnc: </text>
        </g>
        <text font-family="Hilda,Hilda_MSFontService,sans-serif" font-weight="400" font-size="28" transform="matrix(1 0 0 1 2155.46 2300)" style="white-space: pre;">Mnc</text>
        <g>
            <text font-family="Hilda,Hilda_MSFontService,sans-serif" font-weight="700" font-size="28" transform="matrix(1 0 0 1 1897.76 2267)" style="white-space: pre;">pLMNId:</text>
        </g>
        <path d="M1652.01 2271.14 1864.81 2271.97 1864.79 2277.69 1651.99 2276.86ZM1864.85 2261.08C1872.45 2261.11 1878.58 2267.29 1878.55 2274.88 1878.52 2282.48 1872.34 2288.61 1864.75 2288.58 1857.15 2288.55 1851.02 2282.37 1851.05 2274.78 1851.08 2267.18 1857.26 2261.05 1864.85 2261.08Z"/>
        <text style="white-space: pre; fill: rgb(51, 51, 51); font-family: Arial, sans-serif; font-size: 28px;" x="1118.379" y="2002.351"> </text>
        <text style="white-space: pre; fill: rgb(51, 51, 51); font-family: Arial, sans-serif; font-size: 28px;" x="1140.124" y="2266.013"> </text>
    </g>
</svg>