<svg width="745px" height="305px"
     viewBox="0.00 0.00 745.00 305.00" xmlns="http://www.w3.org/2000/svg" xmlns:xlink="http://www.w3.org/1999/xlink">
    <g id="graph0" class="graph" transform="scale(1.0 1.0) rotate(0.0) translate(4.0 301.0)">
        <title>moduleName</title>
        <polygon fill="white" stroke="transparent" points="-4,4 -4,-301 741,-301 741,4 -4,4"/>
        <!-- AntennaCapability -->
        <g id="node1" class="node">
            <title>AntennaCapability</title>
            <polygon fill="#366f34" fill-opacity="0.254902" stroke="black" points="135.5,-36 9.5,-36 9.5,0 135.5,0 135.5,-36"/>
            <text text-anchor="middle" x="72.5" y="-14.3" font-family="Arial" font-size="14.00">AntennaCapability</text>
        </g>
        <!-- NRCellCU -->
        <g id="node2" class="node">
            <title>NRCellCU</title>
            <polygon fill="#366f34" fill-opacity="0.254902" stroke="black" points="306,-210 227,-210 227,-174 306,-174 306,-210"/>
            <text text-anchor="middle" x="266.5" y="-188.3" font-family="Arial" font-size="14.00">NRCellCU</text>
        </g>
        <!-- NRCellDU -->
        <g id="node3" class="node">
            <title>NRCellDU</title>
            <polygon fill="#366f34" fill-opacity="0.254902" stroke="black" points="201,-210 122,-210 122,-174 201,-174 201,-210"/>
            <text text-anchor="middle" x="161.5" y="-188.3" font-family="Arial" font-size="14.00">NRCellDU</text>
        </g>
        <!-- NRSectorCarrier -->
        <g id="node4" class="node">
            <title>NRSectorCarrier</title>
            <polygon fill="#366f34" fill-opacity="0.254902" stroke="black" points="130.5,-123 14.5,-123 14.5,-87 130.5,-87 130.5,-123"/>
            <text text-anchor="middle" x="72.5" y="-101.3" font-family="Arial" font-size="14.00">NRSectorCarrier</text>
        </g>
        <!-- NRCellDU&#45;&gt;NRSectorCarrier -->
        <g id="edge1" class="edge">
            <title>NRCellDU&#45;&gt;NRSectorCarrier</title>
            <path fill="none" stroke="#528b8b" d="M143.49,-173.8C130.34,-161.24 112.34,-144.05 97.76,-130.12"/>
            <polygon fill="#528b8b" stroke="#528b8b" points="90.48,-123.18 100.82,-126.83 94.1,-126.63 97.72,-130.08 97.72,-130.08 97.72,-130.08 94.1,-126.63 94.61,-133.34 90.48,-123.18 90.48,-123.18"/>
            <text text-anchor="middle" x="141" y="-144.8" font-family="Arial" font-size="14.00">USES</text>
            <text text-anchor="middle" x="78.98" y="-126.98" font-family="Arial" font-size="14.00">0..1</text>
            <text text-anchor="middle" x="132.99" y="-162.6" font-family="Arial" font-size="14.00">0..*</text>
        </g>
        <!-- NRSectorCarrier&#45;&gt;AntennaCapability -->
        <g id="edge2" class="edge">
            <title>NRSectorCarrier&#45;&gt;AntennaCapability</title>
            <path fill="none" stroke="#528b8b" d="M72.5,-86.8C72.5,-75.16 72.5,-59.55 72.5,-46.24"/>
            <polygon fill="#528b8b" stroke="#528b8b" points="72.5,-36.18 77,-46.18 72.5,-41.18 72.5,-46.18 72.5,-46.18 72.5,-46.18 72.5,-41.18 68,-46.18 72.5,-36.18 72.5,-36.18"/>
            <text text-anchor="middle" x="91" y="-57.8" font-family="Arial" font-size="14.00">USES</text>
            <text text-anchor="middle" x="62" y="-39.98" font-family="Arial" font-size="14.00">0..*</text>
            <text text-anchor="middle" x="61" y="-75.6" font-family="Arial" font-size="14.00">0..1</text>
        </g>
        <!-- OCUCPFunction -->
        <g id="node6" class="node">
            <title>OCUCPFunction</title>
            <polygon fill="#366f34" fill-opacity="0.254902" stroke="black" points="325.5,-297 207.5,-297 207.5,-261 325.5,-261 325.5,-297"/>
            <text text-anchor="middle" x="266.5" y="-275.3" font-family="Arial" font-size="14.00">OCUCPFunction</text>
        </g>
        <!-- OCUCPFunction&#45;&gt;NRCellCU -->
        <g id="edge3" class="edge">
            <title>OCUCPFunction&#45;&gt;NRCellCU</title>
            <path fill="none" stroke="#528b8b" d="M266.5,-260.8C266.5,-249.16 266.5,-233.55 266.5,-220.24"/>
            <polygon fill="#528b8b" stroke="#528b8b" points="266.5,-210.18 271,-220.18 266.5,-215.18 266.5,-220.18 266.5,-220.18 266.5,-220.18 266.5,-215.18 262,-220.18 266.5,-210.18 266.5,-210.18"/>
            <text text-anchor="middle" x="302" y="-231.8" font-family="Arial" font-size="14.00">PROVIDES</text>
            <text text-anchor="middle" x="255" y="-213.98" font-family="Arial" font-size="14.00">1..1</text>
            <text text-anchor="middle" x="256" y="-249.6" font-family="Arial" font-size="14.00">0..*</text>
        </g>
        <!-- ODUFunction -->
        <g id="node8" class="node">
            <title>ODUFunction</title>
            <polygon fill="#366f34" fill-opacity="0.254902" stroke="black" points="99,-297 0,-297 0,-261 99,-261 99,-297"/>
            <text text-anchor="middle" x="49.5" y="-275.3" font-family="Arial" font-size="14.00">ODUFunction</text>
        </g>
        <!-- ODUFunction&#45;&gt;NRCellDU -->
        <g id="edge5" class="edge">
            <title>ODUFunction&#45;&gt;NRCellDU</title>
            <path fill="none" stroke="#528b8b" d="M59.07,-261C65.68,-250.43 75.3,-237.16 86.5,-228 94.34,-221.59 103.56,-216.06 112.79,-211.4"/>
            <polygon fill="#528b8b" stroke="#528b8b" points="121.97,-207.04 114.87,-215.39 117.46,-209.18 112.94,-211.33 112.94,-211.33 112.94,-211.33 117.46,-209.18 111.01,-207.26 121.97,-207.04 121.97,-207.04"/>
            <text text-anchor="middle" x="122" y="-231.8" font-family="Arial" font-size="14.00">PROVIDES</text>
            <text text-anchor="middle" x="110.47" y="-210.84" font-family="Arial" font-size="14.00">1..1</text>
            <text text-anchor="middle" x="69.57" y="-249.8" font-family="Arial" font-size="14.00">0..*</text>
        </g>
        <!-- ODUFunction&#45;&gt;NRSectorCarrier -->
        <g id="edge4" class="edge">
            <title>ODUFunction&#45;&gt;NRSectorCarrier</title>
            <path fill="none" stroke="#528b8b" d="M45.19,-260.86C40.64,-240.07 34.97,-204.08 41.5,-174 44.63,-159.59 51.09,-144.58 57.3,-132.34"/>
            <polygon fill="#528b8b" stroke="#528b8b" points="62.17,-123.17 61.45,-134.12 59.82,-127.59 57.48,-132.01 57.48,-132.01 57.48,-132.01 59.82,-127.59 53.5,-129.9 62.17,-123.17 62.17,-123.17"/>
            <text text-anchor="middle" x="77" y="-188.3" font-family="Arial" font-size="14.00">PROVIDES</text>
            <text text-anchor="middle" x="50.67" y="-126.97" font-family="Arial" font-size="14.00">1..1</text>
            <text text-anchor="middle" x="34.69" y="-249.66" font-family="Arial" font-size="14.00">0..*</text>
        </g>
        <!-- Sector -->
        <g id="node10" class="node">
            <title>Sector</title>
            <polygon fill="#366f34" fill-opacity="0.254902" stroke="black" points="189.5,-297 133.5,-297 133.5,-261 189.5,-261 189.5,-297"/>
            <text text-anchor="middle" x="161.5" y="-275.3" font-family="Arial" font-size="14.00">Sector</text>
        </g>
        <!-- Sector&#45;&gt;NRCellDU -->
        <g id="edge6" class="edge">
            <title>Sector&#45;&gt;NRCellDU</title>
            <path fill="none" stroke="#528b8b" d="M161.5,-260.8C161.5,-249.16 161.5,-233.55 161.5,-220.24"/>
            <polygon fill="#528b8b" stroke="#528b8b" points="161.5,-210.18 166,-220.18 161.5,-215.18 161.5,-220.18 161.5,-220.18 161.5,-220.18 161.5,-215.18 157,-220.18 161.5,-210.18 161.5,-210.18"/>
            <text text-anchor="middle" x="192" y="-231.8" font-family="Arial" font-size="14.00">GROUPS</text>
            <text text-anchor="middle" x="150" y="-213.98" font-family="Arial" font-size="14.00">0..1</text>
            <text text-anchor="middle" x="151" y="-249.6" font-family="Arial" font-size="14.00">0..*</text>
        </g>
    </g>
    <text x="305" y="300" font-size="14" text-anchor="middle" fill="black">Sample Managed Objects and their Relationships</text>
</svg>
